<?xml version="1.0" encoding="utf-8"?>
<!-- Generator: Adobe Illustrator 23.0.5, SVG Export Plug-In . SVG Version: 6.00 Build 0)  -->
<svg version="1.1" id="hangouts" xmlns="http://www.w3.org/2000/svg" xmlns:xlink="http://www.w3.org/1999/xlink" x="0px" y="0px"
	 viewBox="0 0 3710 3710" style="enable-background:new 0 0 3710 3710;" xml:space="preserve">
<style type="text/css">
	.st0{display:none;}
	.st1{display:inline;}
	.st2{fill:#FFFFFF;}
	.st3{fill:#F4F7FA;}
	.st4{fill:url(#SVGID_1_);}
	.st5{fill:url(#SVGID_2_);}
	.st6{fill:#D8DEE8;}
	.st7{fill:url(#SVGID_3_);}
	.st8{fill:url(#SVGID_4_);}
	.st9{opacity:0.3;}
	.st10{fill:url(#SVGID_5_);}
	.st11{fill:#337AB7;}
	.st12{fill:#1DA1F2;}
	.st13{fill:#DFDFDF;}
	.st14{fill:#B1B1B1;}
	.st15{fill:url(#SVGID_6_);}
	.st16{opacity:0.3;fill:#337AB7;enable-background:new    ;}
	.st17{fill:url(#SVGID_7_);}
	.st18{fill:url(#SVGID_8_);}
	.st19{fill:url(#SVGID_9_);}
	.st20{fill:url(#SVGID_10_);}
	.st21{fill:#313A3F;}
	.st22{opacity:0.3;fill:#00437D;enable-background:new    ;}
	.st23{opacity:0.15;}
	.st24{fill:url(#SVGID_11_);}
	.st25{fill:#F1B287;}
	.st26{fill:url(#SVGID_12_);}
	.st27{fill:url(#SVGID_13_);}
	.st28{fill:url(#SVGID_14_);}
	.st29{fill:url(#SVGID_15_);}
	.st30{fill:url(#SVGID_16_);}
	.st31{fill:url(#SVGID_17_);}
	.st32{fill:url(#SVGID_18_);}
	.st33{fill:url(#SVGID_19_);}
	.st34{fill:url(#SVGID_20_);}
	.st35{fill:url(#SVGID_21_);}
	.st36{fill:url(#SVGID_22_);}
	.st37{fill:url(#SVGID_23_);}
	.st38{fill:url(#SVGID_24_);}
	.st39{fill:url(#SVGID_25_);}
	.st40{fill:url(#SVGID_26_);}
	.st41{fill:url(#SVGID_27_);}
	.st42{fill:url(#SVGID_28_);}
	.st43{fill:url(#SVGID_29_);}
	.st44{fill:url(#SVGID_30_);}
	.st45{fill:url(#SVGID_31_);}
	.st46{fill:url(#SVGID_32_);}
	.st47{fill:url(#SVGID_33_);}
	.st48{fill:url(#SVGID_34_);}
	.st49{opacity:0.3;fill:#FFFFFF;enable-background:new    ;}
	.st50{fill:url(#SVGID_35_);}
	.st51{fill:#D09A76;}
	.st52{fill:url(#SVGID_36_);}
	.st53{fill:url(#SVGID_37_);}
	.st54{fill:url(#SVGID_38_);}
	.st55{opacity:0.3;fill:#DFDFDF;enable-background:new    ;}
	.st56{fill:url(#SVGID_39_);}
	.st57{fill:url(#SVGID_40_);}
	.st58{fill:url(#SVGID_41_);}
	.st59{fill:url(#SVGID_42_);}
	.st60{fill:url(#SVGID_43_);}
	.st61{fill:url(#SVGID_44_);}
	.st62{fill:url(#SVGID_45_);}
	.st63{fill:url(#SVGID_46_);}
	.st64{fill:url(#SVGID_47_);}
	.st65{fill:url(#SVGID_48_);}
	.st66{fill:url(#SVGID_49_);}
	.st67{fill:url(#SVGID_50_);}
	.st68{opacity:0.3;fill:#B1B1B1;enable-background:new    ;}
	.st69{fill:url(#SVGID_51_);}
	.st70{fill:url(#SVGID_52_);}
	.st71{fill:url(#SVGID_53_);}
	.st72{fill:url(#SVGID_54_);}
	.st73{fill:url(#SVGID_55_);}
	.st74{fill:url(#SVGID_56_);}
	.st75{fill:url(#SVGID_57_);}
	.st76{fill:url(#SVGID_58_);}
	.st77{fill:url(#SVGID_59_);}
	.st78{fill:url(#SVGID_60_);}
	.st79{fill:url(#SVGID_61_);}
	.st80{fill:url(#SVGID_62_);}
	.st81{fill:url(#SVGID_63_);}
	.st82{fill:url(#SVGID_64_);}
	.st83{fill:url(#SVGID_65_);}
	.st84{fill:url(#SVGID_66_);}
	.st85{fill:url(#SVGID_67_);}
	.st86{fill:url(#SVGID_68_);}
	.st87{fill:url(#SVGID_69_);}
	.st88{fill:url(#SVGID_70_);}
	.st89{fill:url(#SVGID_71_);}
</style>
<g id="Background" class="st0">
	<g class="st1">
		<g>
			<rect class="st2" width="3710" height="3710"/>
		</g>
	</g>
</g>
<g id="Illustration">
	<g>
		<path class="st3" d="M1145.8,623.3c-94.4,135.2,16.3,354.4-123.8,456c-136.4,99-304-63.3-432.5,21.9
			c-190.7,126.4-155.9,704.6,122.9,1063.9c83.8,108.1,153.9,150.1,184.9,272.3c66.6,262.4-167.5,418.5-123,548.3
			C874.7,3278,2417.7,3523.2,3036.8,2645c289.2-410.2,332.4-1002.4,74.1-1452.2C2644.1,379.9,1357.7,320,1145.8,623.3z"/>
		<g>
			<g>
				
					<linearGradient id="SVGID_1_" gradientUnits="userSpaceOnUse" x1="1419.2499" y1="3433.2954" x2="1661.6346" y2="2760.6794" gradientTransform="matrix(1 0 0 -1 0 3710)">
					<stop  offset="0" style="stop-color:#D8DEE8"/>
					<stop  offset="1" style="stop-color:#FFFFFF"/>
				</linearGradient>
				<ellipse class="st4" cx="1586.6" cy="741.1" rx="803.4" ry="158.4"/>
				
					<linearGradient id="SVGID_2_" gradientUnits="userSpaceOnUse" x1="1375.8171" y1="3417.6436" x2="1618.2008" y2="2745.0305" gradientTransform="matrix(1 0 0 -1 0 3710)">
					<stop  offset="0" style="stop-color:#D8DEE8"/>
					<stop  offset="1" style="stop-color:#FFFFFF"/>
				</linearGradient>
				<path class="st5" d="M783.9,741.1c0,0-37.4,170.4-37.4,171.9s1675.4,0,1675.4,0l-31.4-171.9H783.9z"/>
			</g>
			<ellipse class="st6" cx="1584.3" cy="913.8" rx="837.5" ry="165.1"/>
			
				<linearGradient id="SVGID_3_" gradientUnits="userSpaceOnUse" x1="1649.7682" y1="1105.019" x2="1425.5956" y2="640.9818" gradientTransform="matrix(1 0 0 -1 0 3710)">
				<stop  offset="0" style="stop-color:#D8DEE8"/>
				<stop  offset="1" style="stop-color:#FFFFFF"/>
			</linearGradient>
			<ellipse class="st7" cx="1584.3" cy="2740.5" rx="559.8" ry="166.3"/>
			
				<linearGradient id="SVGID_4_" gradientUnits="userSpaceOnUse" x1="1620.9783" y1="1118.9276" x2="1396.8059" y2="654.8905" gradientTransform="matrix(1 0 0 -1 0 3710)">
				<stop  offset="0" style="stop-color:#D8DEE8"/>
				<stop  offset="1" style="stop-color:#FFFFFF"/>
			</linearGradient>
			<rect x="1024.5" y="2599.2" class="st8" width="1119.5" height="135.8"/>
			<g>
				<ellipse class="st2" cx="1584.3" cy="2612.3" rx="603.8" ry="179.3"/>
				<ellipse class="st2" cx="1584.3" cy="914.5" rx="757.3" ry="140.5"/>
				<polygon class="st2" points="826.5,914.5 980.5,2612.3 2188.1,2612.3 2342,914.5 				"/>
			</g>
			<g>
				<path class="st6" d="M931.5,2270.9c329.2,27.7,973.2,27.8,1305.5,0.4c8-0.7,14.4-6.8,15.2-14.6l89-947.9
					c0.8-8.8-5.9-16.6-15-17.5c-316.9-29.4-1172.3-29.2-1483.7,0.5c-9.1,0.9-15.8,8.7-15,17.5l88.9,947
					C917.1,2264.1,923.5,2270.2,931.5,2270.9z"/>
				<g class="st9">
					<path class="st6" d="M2249,1299.8c-23.1,317.7-46.1,635.5-69.2,953.2c-1.2,16.6,13.5,30.4,31,29c0.3,0,0.7-0.1,1-0.1
						c14.1-1.1,25.2-11.7,26.3-25.1c25.3-317.5,50.6-635,75.9-952.5c1.2-14.9-10.5-28-26.3-29.2c-2.6-0.2-5.1-0.4-7.7-0.6
						C2264,1273.3,2250.1,1284.6,2249,1299.8z"/>
					<path class="st6" d="M2141.8,1293.5c-19.6,322-39.2,644-58.8,966c-1,16.3,13.2,29.7,30.4,28.8c0.3,0,0.5,0,0.8,0
						c14.5-0.8,26.1-11.7,27-25.5c21.9-321.9,43.8-643.7,65.6-965.6c1-15.1-11.2-28.1-27.1-29c-2.6-0.1-5.1-0.3-7.7-0.4
						C2156.2,1267.1,2142.7,1278.6,2141.8,1293.5z"/>
					<path class="st6" d="M2034.5,1289.4c-16,325-31.9,650-47.9,975c-0.8,16,13.1,29.2,29.9,28.5c0.2,0,0.5,0,0.7,0
						c14.8-0.6,26.7-11.8,27.5-25.8l54.8-974.7c0.9-15.2-11.6-28.1-27.6-28.7c-2.6-0.1-5.1-0.2-7.7-0.3
						C2048.6,1262.9,2035.3,1274.4,2034.5,1289.4z"/>
					<path class="st6" d="M1927.2,1286.5c-12.2,327.2-24.5,654.3-36.7,981.5c-0.6,15.8,13,28.7,29.6,28.2c0.2,0,0.4,0,0.7,0
						c15-0.4,27.2-11.8,27.8-26.1c14.6-327.1,29.1-654.2,43.7-981.3c0.7-15.2-11.9-28-27.9-28.4c-2.5-0.1-5.1-0.1-7.6-0.2
						C1941,1259.8,1927.8,1271.6,1927.2,1286.5z"/>
					<path class="st6" d="M1820,1284.6l-25.3,986c-0.4,15.5,13,28.2,29.3,27.9c0.2,0,0.4,0,0.6,0c15.3-0.3,27.6-11.9,28.1-26.4
						c10.8-328.6,21.5-657.2,32.3-985.9c0.5-15.2-12.2-27.8-28.2-28.1c-2.5,0-5.1-0.1-7.6-0.1
						C1833.4,1257.8,1820.3,1269.7,1820,1284.6z"/>
					<path class="st6" d="M1712.7,1283.6c-4.6,329.6-9.2,659.2-13.8,988.8c-0.2,15.3,12.9,27.8,29.1,27.6c0.2,0,0.4,0,0.6,0
						c15.5-0.2,28.1-12,28.4-26.7c6.9-329.6,13.9-659.2,20.8-988.8c0.3-15.2-12.4-27.6-28.4-27.8c-2.5,0-5.1,0-7.6-0.1
						C1725.9,1256.5,1712.9,1268.5,1712.7,1283.6z"/>
					<path class="st6" d="M1605.4,1283.2c-0.8,330.1-1.5,660.1-2.3,990.2c0,15.1,12.9,27.4,28.8,27.3c0.2,0,0.4,0,0.6,0
						c15.7-0.1,28.4-12.1,28.6-27c3.1-330.1,6.2-660.1,9.3-990.2c0.1-15.1-12.7-27.4-28.6-27.5c-2.5,0-5.1,0-7.6,0
						C1618.4,1256,1605.5,1268.2,1605.4,1283.2z"/>
					<path class="st6" d="M1498.2,1283.6c3.1,330,6.2,660.1,9.3,990.1c0.1,14.9,12.9,26.9,28.6,27c0.2,0,0.4,0,0.6,0
						c15.9,0.1,28.9-12.2,28.8-27.3c-0.8-330.1-1.5-660.1-2.3-990.2c0-15.1-13-27.2-28.8-27.2c-2.5,0-5.1,0-7.6,0
						C1510.9,1256.1,1498,1268.4,1498.2,1283.6z"/>
					<path class="st6" d="M1390.9,1284.6c6.9,329.6,13.9,659.1,20.8,988.7c0.3,14.7,12.9,26.5,28.4,26.7c0.2,0,0.4,0,0.6,0
						c16.2,0.2,29.3-12.3,29.1-27.6c-4.6-329.6-9.2-659.2-13.8-988.7c-0.2-15-13.2-27-29-26.9c-2.5,0-5.1,0-7.6,0.1
						C1403.4,1256.9,1390.6,1269.4,1390.9,1284.6z"/>
					<path class="st6" d="M1283.7,1286.3c10.8,328.6,21.5,657.1,32.3,985.7c0.5,14.5,12.8,26.1,28.1,26.4c0.2,0,0.4,0,0.6,0
						c16.4,0.3,29.8-12.4,29.4-27.9c-8.4-328.6-16.9-657.2-25.3-985.8c-0.4-15-13.4-26.8-29.2-26.6c-2.5,0-5.1,0.1-7.6,0.1
						C1295.8,1258.5,1283.2,1271.2,1283.7,1286.3z"/>
					<path class="st6" d="M1176.4,1288.9c14.6,327,29.1,654,43.7,981c0.6,14.3,12.8,25.6,27.8,26.1c0.2,0,0.4,0,0.7,0
						c16.6,0.5,30.2-12.4,29.6-28.2c-12.2-327.1-24.5-654.2-36.7-981.2c-0.6-14.9-13.7-26.7-29.5-26.3c-2.5,0.1-5.1,0.1-7.6,0.2
						C1188.3,1260.9,1175.7,1273.7,1176.4,1288.9z"/>
					<path class="st6" d="M1069.1,1292.5c18.3,324.8,36.5,649.6,54.8,974.4c0.8,14,12.7,25.2,27.5,25.8c0.2,0,0.5,0,0.7,0
						c16.9,0.7,30.7-12.5,29.9-28.5c-16-324.9-31.9-649.8-47.9-974.7c-0.7-14.9-14-26.5-29.8-26c-2.6,0.1-5.1,0.2-7.7,0.3
						C1080.6,1264.4,1068.2,1277.3,1069.1,1292.5z"/>
					<path class="st6" d="M961.8,1297.5c21.9,321.7,43.7,643.4,65.6,965.1c0.9,13.7,12.5,24.6,27,25.5c0.3,0,0.5,0,0.8,0
						c17.2,1,31.4-12.5,30.4-28.8c-19.6-321.8-39.2-643.7-58.7-965.5c-0.9-15-14.4-26.4-30.2-25.6c-2.6,0.1-5.1,0.3-7.7,0.4
						C973,1269.3,960.8,1282.4,961.8,1297.5z"/>
					<path class="st6" d="M854.7,1304.6c25.3,317.3,50.6,634.5,75.9,951.8c1.1,13.3,12.2,24,26.3,25.1c0.3,0,0.7,0.1,1,0.1
						c17.5,1.4,32.2-12.4,31-29c-23-317.5-46.1-635-69.1-952.5c-1.1-15.1-15.1-26.5-31-25.3c-2.6,0.2-5.2,0.4-7.7,0.6
						C865.2,1276.7,853.5,1289.7,854.7,1304.6z"/>
				</g>
			</g>
			<g>
				
					<linearGradient id="SVGID_5_" gradientUnits="userSpaceOnUse" x1="2849.5442" y1="3133.1245" x2="894.7253" y2="1214.6156" gradientTransform="matrix(1 0 0 -1 0 3710)">
					<stop  offset="0" style="stop-color:#D8DEE8"/>
					<stop  offset="1" style="stop-color:#FFFFFF"/>
				</linearGradient>
				<path class="st10" d="M2341.5,914.5c0-77.6-339-140.5-757.3-140.5c-145.2,0-280.8,7.6-396.1,20.7
					c-17.9,54.3-27.5,111.9-24.6,172.1c16.7,345.1,428.5,460.3,570.9,786.1c86.8,198.6,90.2,513.5-237.2,1036.9
					c28.4,1.2,57.4,1.8,86.9,1.8c333.5,0,603.8-80.3,603.8-179.3L2342,914.5H2341.5z"/>
			</g>
		</g>
		<g>
			<path class="st11" d="M1310.5,907.1c-28.8-36.1-45.4-78.4-45.4-123.7c0-131.7,140.2-238.5,313.2-238.5s313.2,106.8,313.2,238.5
				s-140.2,238.5-313.2,238.5c-64.8,0-125.1-15-175.1-40.7c-33,5.6-84.3,15.1-111.4,20.1c-8,1.5-14.5-6.3-11.6-13.9L1310.5,907.1z"
				/>
			<g class="st9">
				<path class="st12" d="M1407,833.9c70.2-29.5,147.5,32.8,195.8-10.7c48.7-43.8-3.9-130.5,42.7-192.2
					c22.2-29.4,59.6-43.4,102.3-48.2c86.6,42.4,143.9,116.4,143.9,200.7c0,131.7-140.2,238.5-313.2,238.5
					c-64.8,0-125.1-15-175.1-40.7c-26.1,4.4-63.5,11.3-91.4,16.4C1332.5,890.8,1370.4,849.2,1407,833.9z"/>
			</g>
		</g>
		<g>
			<path class="st13" d="M2602.4,1044c45.3-56.7,71.4-123.3,71.4-194.5c0-207.1-220.5-374.9-492.4-374.9S1689,642.5,1689,849.5
				s220.5,374.9,492.4,374.9c101.9,0,196.6-23.6,275.2-64c51.9,8.9,132.5,23.7,175.1,31.7c12.5,2.3,22.8-9.9,18.3-21.8L2602.4,1044z
				"/>
			<g class="st9">
				<path class="st14" d="M2450.8,928.9c-110.4-46.4-231.8,51.6-307.8-16.8c-76.5-68.9,6.1-205.1-67.1-302.2
					c-34.9-46.3-93.7-68.2-160.8-75.8c-136.1,66.7-226.2,183.1-226.2,315.4c0,207.1,220.5,374.9,492.4,374.9
					c101.9,0,196.6-23.6,275.2-64c41,7,99.8,17.7,143.7,25.8C2567.8,1018.5,2508.2,953,2450.8,928.9z"/>
			</g>
		</g>
		<g>
			
				<linearGradient id="SVGID_6_" gradientUnits="userSpaceOnUse" x1="1546.2751" y1="2600.9558" x2="1529.5225" y2="2367.5352" gradientTransform="matrix(1 0 0 -1 0 3710)">
				<stop  offset="0" style="stop-color:#FFC444"/>
				<stop  offset="0.2966" style="stop-color:#FBAB49"/>
				<stop  offset="0.9964" style="stop-color:#F36F56"/>
			</linearGradient>
			<path class="st15" d="M1568.2,1127.1c-2.9,0.3-0.7,22.6-6,23.6c-3.4,0.6-7.8-7.7-9.7-12.1c-6.2-14.5-1.2-24.8-9.1-32
				c-1.2-1.1-3.4-3.1-4.8-2.4c-4.6,2,1.5,28,4.8,40.2c-3.3-9.9-10.5-28.6-18.1-34.8c-1-0.8-4.1-3.3-5.4-2.4
				c-1.2,0.8-0.5,3.9,0.2,6.3c3.9,13.7,16.5,34.9,15.5,35.7c-1.2,1-22.1-25.6-25.9-23.3c-3.3,2,6.8,25.5,21.1,44.7
				c5.8,7.8,11.8,15.6,18.4,19.2l-5.5,18.3h24.5v-21.6c1.7-1.7,3-3.4,3.6-4.3C1586.9,1161.4,1571.9,1126.6,1568.2,1127.1z"/>
			<path class="st11" d="M1533.6,1199.5c15.8-3.2,31.5-6.5,47.3-9.7c2.5,28.8,12.4,93.1,60.9,152.3c49.2,60.1,127.6,102,206.2,100.6
				c64.1-1.1,86.7-30.2,107.2-14.8c44.5,33.4,13.1,226.7-97.3,272.2c-105.2,43.4-230.1-68.9-283.8-146.8
				C1470.9,1403.4,1524.9,1226.5,1533.6,1199.5z"/>
			<path class="st16" d="M1716,1607.8c-31.1-26.3-15.4-64.2-61-127c-46-63.2-87.3-59.8-120.4-110.5c-8.8-13.5-17.1-31-22.1-53.7
				c-3.8,68.6,6.4,156.6,61.7,236.8c53.7,77.9,178.6,190.2,283.8,146.8c54.8-22.6,90.1-81.4,106.4-139.2
				C1810.5,1640.6,1745.8,1633,1716,1607.8z"/>
			
				<linearGradient id="SVGID_7_" gradientUnits="userSpaceOnUse" x1="1965.6423" y1="908.9196" x2="1986.6318" y2="531.1036" gradientTransform="matrix(1 0 0 -1 0 3710)">
				<stop  offset="0" style="stop-color:#444B8C"/>
				<stop  offset="0.9964" style="stop-color:#26264F"/>
			</linearGradient>
			<path class="st17" d="M2018.2,2935.4c0,0,2.6,20.9,0.9,27.9c-1.8,7-62.5,12.1-83.1,9.6c-20.6-2.4,12.3-23.5,25.4-27.4
				C1974.5,2941.5,2018.2,2935.4,2018.2,2935.4z"/>
			
				<linearGradient id="SVGID_8_" gradientUnits="userSpaceOnUse" x1="2005.3652" y1="722.7289" x2="1994.2153" y2="1232.8282" gradientTransform="matrix(1 0 0 -1 0 3710)">
				<stop  offset="0" style="stop-color:#FFC444"/>
				<stop  offset="0.9964" style="stop-color:#F36F56"/>
			</linearGradient>
			<path class="st18" d="M1987.7,2900.6l6.4,41.9c0,0,16.3,7.3,24.2,0.1l0.9-43.9L1987.7,2900.6z"/>
			
				<linearGradient id="SVGID_9_" gradientUnits="userSpaceOnUse" x1="2345.5981" y1="930.018" x2="2366.5864" y2="552.2267" gradientTransform="matrix(1 0 0 -1 0 3710)">
				<stop  offset="0" style="stop-color:#444B8C"/>
				<stop  offset="0.9964" style="stop-color:#26264F"/>
			</linearGradient>
			<path class="st19" d="M2330,2898.7c0,0-12.9,9.6-9.4,21c3.4,11.5,33.5,57.3,54.9,70.4c21.4,13,14.7-14.1,8.5-31
				s-22.2-54.1-28.4-60.4C2349.3,2892.5,2330,2898.7,2330,2898.7z"/>
			
				<linearGradient id="SVGID_10_" gradientUnits="userSpaceOnUse" x1="2339.73" y1="730.0381" x2="2328.5801" y2="1240.1305" gradientTransform="matrix(1 0 0 -1 0 3710)">
				<stop  offset="0" style="stop-color:#FFC444"/>
				<stop  offset="0.9964" style="stop-color:#F36F56"/>
			</linearGradient>
			<path class="st20" d="M2306.8,2852.7c6.2,17.4,12.2,31.6,16.9,42.2c10.4,23.3,16,32,22.4,39.6c5.6,6.6,18.8,20.7,22.4,18.3
				c3.6-2.4-6.1-19.5-24.8-69.6c-2.7-7.3-11.3-30.5-11.3-30.5l0,0H2306.8z"/>
			<path class="st11" d="M1860.5,2127.3c-4.4,43.6-8.7,111.4-2.3,193.6c8.3,107.1,29.7,174.9,56.6,289.1
				c16.4,69.8,38.5,172.5,58.5,300.9c4.6,2.7,18.3,9.6,35.9,7c9.8-1.5,17.2-5.4,21.6-8.2c52.5-160.4,37-259.9,11.7-321.8
				c-10.8-26.4-23.9-47.2-30.9-87.8c-9.3-53.7,2.2-83.7,18.5-208.1c11.6-88.7,9.6-102.4,1.9-115.7
				C2000.9,2123.1,1906.2,2124.1,1860.5,2127.3z"/>
			<path class="st11" d="M2041.2,2145.9c32.2,166.1,63.7,253.4,87.6,302.7c5.9,12.2,25.5,51.4,44.1,107.7
				c16.5,49.8,23.3,86.5,26.8,102.6c11.1,50.9,38.5,125.3,112.2,222.8c0.9,0.5,13.5,7.7,25.5,1.3c6.1-3.2,9.1-8.3,10.3-10.7
				c-9.6-93.2-20.7-171.6-30.3-232c-2-12.7-10.9-68.2-24.8-141.5c-5.4-28.7-13.4-70.7-23-113.9c-11.9-53.8-30.2-126.9-58.3-214.5
				C2154.7,2162.2,2098,2154.1,2041.2,2145.9z"/>
			<path class="st21" d="M2013.8,1488.9c-18.2-16.9-53.1-36.3-70.6-81.5c-5.3-13.6-23.9-61.8,3.6-98.7
				c16.3-21.9,46.7-36.7,73.5-31.5c22.9,4.5,26.4,20.4,65.3,52.5c15.1,12.5,39.4,32.5,66.5,43.7c46.4,19.1,74.2,1.1,120.7,3.2
				c57.2,2.5,123.6,34.4,155.6,80.8c56.8,82.3-25.5,165.9,36.7,262.4c20.4,31.6,30.4,24.5,78.7,85.7c48.3,61.3,72.5,91.9,68.2,129.4
				c-6,52.1-62.1,101.9-114.9,105.2c-51.6,3.3-84.4-37.3-110.7-19.5c-18.7,12.6-8,37.2-27.9,66.8c-25.6,38.1-75.9,45.7-84.1,46.9
				c-75.4,11.4-177.2-77.1-220.4-181.9C1976.2,1763.4,2113,1580.5,2013.8,1488.9z"/>
			<path class="st22" d="M2042.4,2587.8c-10.8-26.4-23.9-47.2-30.9-87.8c-9.3-53.7,2.2-83.7,18.5-208.1
				c11.6-88.7,9.6-102.4,1.9-115.7c-16.8-28.9-52.5-41.7-88.9-46.9c0.5,1.9,1,3.7,1.4,5.5c19.1,87.2-53.8,140.4-20.9,236.2
				c16.2,47.3,42.1,58.1,48.1,112.9c5.6,51.3-14.8,62-10.5,108.7c6.5,69.8,56.1,86.6,69,140.1c8.4,34.7,1.3,85.5-59.9,158.9
				c1,6.3,2,12.7,3,19.1c4.6,2.7,18.3,9.6,35.9,7c9.8-1.5,17.2-5.4,21.6-8.2C2083.2,2749.2,2067.7,2649.8,2042.4,2587.8z"/>
			<path class="st12" d="M1793.3,1476.3c4.8-7.5,20.1-28.2,85.1-43.5c32.6-7.7,92.7-20.8,170.2-4.4
				c106.4,22.5,172.6,86.4,197.6,113.2c-20.4,13.3-76.8,53.9-104.7,130.8c-8.7,23.9-34.3,105.8,2.4,182.5
				c21.1,44.2,58.5,77.4,86.9,102.6c42.6,37.8,64.7,43.6,78.9,77.4c15.6,36.9-0.1,54.8,19.2,80.1c20.7,27.1,45,14.5,80.2,41.9
				c36,28.1,23.2,51.2,56,82.2c47.6,45.1,110.7,30.4,113.7,50.7c2.5,17.4-42.3,41.1-80.5,50.7c-75.5,19-141.3-12.9-160.9-22.7
				c-54.2-27.2-44.8-44.9-86.2-65.6c-69.2-34.8-116.5,3.9-274.1,7.9c-85.4,2.2-128.5,2.6-152.2-26.2c-21.6-26.4-10.2-55.3,2.7-180
				l0,0c4.2-41.6,12.9-128.8,12.9-178.5c0-29.4-10.2-77.3-30.5-173.3c-1.2-5.7-12.2-57.5-21.1-126.8
				C1780.9,1513,1782.1,1493.8,1793.3,1476.3z"/>
			<g class="st23">
				
					<linearGradient id="SVGID_11_" gradientUnits="userSpaceOnUse" x1="2188.7512" y1="2288.2617" x2="2310.0183" y2="1546.6653" gradientTransform="matrix(1 0 0 -1 0 3710)">
					<stop  offset="0" style="stop-color:#AA80F9"/>
					<stop  offset="0.9964" style="stop-color:#6165D7"/>
				</linearGradient>
				<path class="st24" d="M2465.1,2239.2c-32.8-31-20-54.1-56-82.2c-35.2-27.4-59.5-14.8-80.2-41.9c-19.3-25.2-3.6-43.2-19.2-80.1
					c-14.3-33.9-36.3-39.7-78.9-77.5c-28.4-25.2-65.8-58.4-86.9-102.6c-36.7-76.7-11-158.5-2.4-182.5
					c27.9-77,84.3-117.5,104.7-130.8c-2-2.1-4.3-4.5-6.8-7.1c-134.5,18.5-213,96.2-222.7,119.2c-22.4,53.2,13.1,72.8,14,226.2
					c0.4,73.4-7.5,102.3,16.3,132.9c27.2,35,58.6,24.2,97.9,70c30.2,35.2,25.4,57.5,53.6,72.3c30.4,15.9,49.7-2.6,84,4.7
					c57.2,12.2,69.4,78.2,107.3,114.3c28.6,27.3,81.5,46.4,185.8,25.9c2.4-3.5,3.6-6.9,3.1-10.2
					C2575.8,2269.6,2512.7,2284.3,2465.1,2239.2z"/>
			</g>
			<path class="st11" d="M2057.3,1694.4c-14.5,30.3,50.9,101.4,123.7,135.4c14.8,6.9,121.4,56.7,169.3,9.7
				c39.6-38.8,14.6-119.7,5.7-148.6c-43.7-141.8-180.1-214.5-237.3-240.8c-43.4,106.7-18.4,154.5-8.6,169.4
				c10.3,15.6,39,48.4,69.5,77.3c21.5,20.4,34.9,30.3,33,33.4c-2.3,3.9-27.5-3.6-125.6-52C2075.8,1680,2062.3,1684,2057.3,1694.4z"
				/>
			<path class="st25" d="M2005,1345.3c0,0,6.8,54.2,26.8,66.7c20,12.4,52.4,28.7,55.9,33.1c3.6,4.4-124,18.1-187.2-13.8l0,0
				c20.8-4.3,26.5-5.9,26.5-5.9c5.7-1.6,16.2-4.6,26.8-10.6c7.2-4.1,18.8-12.1,29.4-27.2l-0.2-30L2005,1345.3z"/>
			<path class="st25" d="M2008,1364.5c0,0-13.1,17.9-33.5,10.4c-18.3-6.7-7.4-54,7.1-59.4c4.8-1.8,13.8-1,19.7,2.7
				c4.2,2.6,15.4,16.5,9,32.1c4.6-1.3,8.7-0.1,9.7,2.2c1.3,2.9-2.6,6.9-3.5,7.8C2013.4,1363.4,2009.7,1364.2,2008,1364.5z"/>
			<g>
				<g>
					
						<linearGradient id="SVGID_12_" gradientUnits="userSpaceOnUse" x1="1998.4962" y1="2103.989" x2="2002.6207" y2="2133.7202" gradientTransform="matrix(1 0 0 -1 0 3710)">
						<stop  offset="0" style="stop-color:#AB316D"/>
						<stop  offset="1" style="stop-color:#792D3D"/>
					</linearGradient>
					<ellipse class="st26" cx="1998.9" cy="1603.1" rx="45.6" ry="9"/>
					
						<linearGradient id="SVGID_13_" gradientUnits="userSpaceOnUse" x1="1999.6338" y1="2103.8313" x2="2003.7583" y2="2133.5623" gradientTransform="matrix(1 0 0 -1 0 3710)">
						<stop  offset="0" style="stop-color:#AB316D"/>
						<stop  offset="1" style="stop-color:#792D3D"/>
					</linearGradient>
					<path class="st27" d="M1953.3,1603.1c0,0-2.1,9.7-2.1,9.8c0,0.1,95,0,95,0l-1.8-9.8H1953.3z"/>
				</g>
				
					<linearGradient id="SVGID_14_" gradientUnits="userSpaceOnUse" x1="1997.7047" y1="2081.9241" x2="1998.3922" y2="2092.4075" gradientTransform="matrix(1 0 0 -1 0 3710)">
					<stop  offset="0" style="stop-color:#AB316D"/>
					<stop  offset="1" style="stop-color:#792D3D"/>
				</linearGradient>
				<ellipse class="st28" cx="1998.7" cy="1612.9" rx="47.5" ry="9.4"/>
				
					<linearGradient id="SVGID_15_" gradientUnits="userSpaceOnUse" x1="2002.4341" y1="2001.9297" x2="1989.7166" y2="1975.6045" gradientTransform="matrix(1 0 0 -1 0 3710)">
					<stop  offset="0" style="stop-color:#AB316D"/>
					<stop  offset="1" style="stop-color:#792D3D"/>
				</linearGradient>
				<ellipse class="st29" cx="1998.7" cy="1715.8" rx="31.8" ry="9.4"/>
				
					<linearGradient id="SVGID_16_" gradientUnits="userSpaceOnUse" x1="2000.8492" y1="2002.6954" x2="1988.1317" y2="1976.37" gradientTransform="matrix(1 0 0 -1 0 3710)">
					<stop  offset="0" style="stop-color:#AB316D"/>
					<stop  offset="1" style="stop-color:#792D3D"/>
				</linearGradient>
				<rect x="1967" y="1707.8" class="st30" width="63.5" height="7.7"/>
				<g>
					
						<linearGradient id="SVGID_17_" gradientUnits="userSpaceOnUse" x1="2082.4558" y1="2123.2253" x2="1958.7158" y2="1943.3896" gradientTransform="matrix(1 0 0 -1 0 3710)">
						<stop  offset="0" style="stop-color:#D8DEE8"/>
						<stop  offset="1" style="stop-color:#FFFFFF"/>
					</linearGradient>
					<ellipse class="st31" cx="1998.7" cy="1708.5" rx="34.3" ry="10.2"/>
					
						<linearGradient id="SVGID_18_" gradientUnits="userSpaceOnUse" x1="2037.4857" y1="2154.1687" x2="1913.745" y2="1974.3319" gradientTransform="matrix(1 0 0 -1 0 3710)">
						<stop  offset="0" style="stop-color:#D8DEE8"/>
						<stop  offset="1" style="stop-color:#FFFFFF"/>
					</linearGradient>
					<ellipse class="st32" cx="1998.7" cy="1612.2" rx="43" ry="8"/>
					
						<linearGradient id="SVGID_19_" gradientUnits="userSpaceOnUse" x1="2057.0525" y1="2140.7051" x2="1933.3123" y2="1960.869" gradientTransform="matrix(1 0 0 -1 0 3710)">
						<stop  offset="0" style="stop-color:#D8DEE8"/>
						<stop  offset="1" style="stop-color:#FFFFFF"/>
					</linearGradient>
					<polygon class="st33" points="1955.8,1612.2 1964.5,1708.5 2033,1708.5 2041.7,1612.2 					"/>
				</g>
				<g>
					
						<linearGradient id="SVGID_20_" gradientUnits="userSpaceOnUse" x1="2050.3396" y1="2101.7458" x2="1966.4408" y2="2019.4054" gradientTransform="matrix(1 0 0 -1 0 3710)">
						<stop  offset="0" style="stop-color:#AB316D"/>
						<stop  offset="1" style="stop-color:#792D3D"/>
					</linearGradient>
					<path class="st34" d="M1963,1689.1c18,1.6,53.3,1.6,71.5,0c0.4,0,0.8-0.4,0.8-0.8l4.9-53.8c0-0.5-0.3-0.9-0.8-1
						c-17.4-1.7-64.2-1.7-81.3,0c-0.5,0-0.9,0.5-0.8,1l4.9,53.7C1962.2,1688.7,1962.5,1689.1,1963,1689.1z"/>
					<g>
						
							<linearGradient id="SVGID_21_" gradientUnits="userSpaceOnUse" x1="2049.5112" y1="2056.7603" x2="2030.8435" y2="2046.6545" gradientTransform="matrix(1 0 0 -1 0 3710)">
							<stop  offset="0" style="stop-color:#AB316D"/>
							<stop  offset="1" style="stop-color:#792D3D"/>
						</linearGradient>
						<path class="st35" d="M2035.2,1634c-1.3,18-2.5,36-3.8,54.1c-0.1,0.9,0.7,1.7,1.7,1.6c0,0,0,0,0.1,0c0.8-0.1,1.4-0.7,1.4-1.4
							c1.4-18,2.8-36,4.2-54c0.1-0.8-0.6-1.6-1.4-1.7c-0.1,0-0.3,0-0.4,0C2036,1632.5,2035.2,1633.2,2035.2,1634z"/>
						
							<linearGradient id="SVGID_22_" gradientUnits="userSpaceOnUse" x1="2043.8645" y1="2056.7095" x2="2025.484" y2="2046.7592" gradientTransform="matrix(1 0 0 -1 0 3710)">
							<stop  offset="0" style="stop-color:#AB316D"/>
							<stop  offset="1" style="stop-color:#792D3D"/>
						</linearGradient>
						<path class="st36" d="M2029.3,1633.7c-1.1,18.3-2.1,36.5-3.2,54.8c-0.1,0.9,0.7,1.7,1.7,1.6l0,0c0.8,0,1.4-0.7,1.5-1.4
							c1.2-18.3,2.4-36.5,3.6-54.8c0.1-0.9-0.6-1.6-1.5-1.6c-0.1,0-0.3,0-0.4,0C2030.1,1632.2,2029.3,1632.8,2029.3,1633.7z"/>
						
							<linearGradient id="SVGID_23_" gradientUnits="userSpaceOnUse" x1="2038.1527" y1="2056.7249" x2="2020.062" y2="2046.9313" gradientTransform="matrix(1 0 0 -1 0 3710)">
							<stop  offset="0" style="stop-color:#AB316D"/>
							<stop  offset="1" style="stop-color:#792D3D"/>
						</linearGradient>
						<path class="st37" d="M2023.4,1633.4c-0.9,18.4-1.7,36.9-2.6,55.3c0,0.9,0.7,1.7,1.6,1.6l0,0c0.8,0,1.5-0.7,1.5-1.5l3-55.3
							c0-0.9-0.6-1.6-1.5-1.6c-0.1,0-0.3,0-0.4,0C2024.2,1631.9,2023.5,1632.6,2023.4,1633.4z"/>
						
							<linearGradient id="SVGID_24_" gradientUnits="userSpaceOnUse" x1="2032.4833" y1="2056.5977" x2="2014.6859" y2="2046.963" gradientTransform="matrix(1 0 0 -1 0 3710)">
							<stop  offset="0" style="stop-color:#AB316D"/>
							<stop  offset="1" style="stop-color:#792D3D"/>
						</linearGradient>
						<path class="st38" d="M2017.5,1633.3c-0.7,18.6-1.3,37.1-2,55.7c0,0.9,0.7,1.6,1.6,1.6l0,0c0.8,0,1.5-0.7,1.5-1.5
							c0.8-18.6,1.6-37.1,2.4-55.7c0-0.9-0.7-1.6-1.5-1.6c-0.1,0-0.3,0-0.4,0C2018.3,1631.8,2017.6,1632.4,2017.5,1633.3z"/>
						
							<linearGradient id="SVGID_25_" gradientUnits="userSpaceOnUse" x1="2026.7625" y1="2056.4963" x2="2009.2623" y2="2047.0227" gradientTransform="matrix(1 0 0 -1 0 3710)">
							<stop  offset="0" style="stop-color:#AB316D"/>
							<stop  offset="1" style="stop-color:#792D3D"/>
						</linearGradient>
						<path class="st39" d="M2011.7,1633.2l-1.4,55.9c0,0.9,0.7,1.6,1.6,1.6l0,0c0.8,0,1.5-0.7,1.5-1.5c0.6-18.6,1.2-37.3,1.8-55.9
							c0-0.9-0.7-1.6-1.5-1.6c-0.1,0-0.3,0-0.4,0C2012.4,1631.7,2011.7,1632.3,2011.7,1633.2z"/>
						
							<linearGradient id="SVGID_26_" gradientUnits="userSpaceOnUse" x1="2021.004" y1="2056.3955" x2="2003.8048" y2="2047.0847" gradientTransform="matrix(1 0 0 -1 0 3710)">
							<stop  offset="0" style="stop-color:#AB316D"/>
							<stop  offset="1" style="stop-color:#792D3D"/>
						</linearGradient>
						<path class="st40" d="M2005.8,1633.1c-0.3,18.7-0.5,37.4-0.8,56.1c0,0.9,0.7,1.6,1.6,1.6l0,0c0.9,0,1.5-0.7,1.6-1.5
							c0.4-18.7,0.8-37.4,1.1-56.1c0-0.9-0.7-1.6-1.6-1.6c-0.1,0-0.3,0-0.4,0C2006.5,1631.6,2005.8,1632.3,2005.8,1633.1z"/>
						
							<linearGradient id="SVGID_27_" gradientUnits="userSpaceOnUse" x1="2015.2167" y1="2056.2788" x2="1998.3215" y2="2047.1327" gradientTransform="matrix(1 0 0 -1 0 3710)">
							<stop  offset="0" style="stop-color:#AB316D"/>
							<stop  offset="1" style="stop-color:#792D3D"/>
						</linearGradient>
						<path class="st41" d="M1999.9,1633.1c0,18.7-0.1,37.4-0.1,56.2c0,0.9,0.7,1.6,1.6,1.5l0,0c0.9,0,1.6-0.7,1.6-1.5
							c0.2-18.7,0.3-37.4,0.5-56.2c0-0.9-0.7-1.6-1.6-1.6c-0.1,0-0.3,0-0.4,0C2000.6,1631.6,1999.9,1632.2,1999.9,1633.1z"/>
						
							<linearGradient id="SVGID_28_" gradientUnits="userSpaceOnUse" x1="2009.4052" y1="2056.1382" x2="1992.8175" y2="2047.1584" gradientTransform="matrix(1 0 0 -1 0 3710)">
							<stop  offset="0" style="stop-color:#AB316D"/>
							<stop  offset="1" style="stop-color:#792D3D"/>
						</linearGradient>
						<path class="st42" d="M1994,1633.1c0.2,18.7,0.3,37.4,0.5,56.2c0,0.8,0.7,1.5,1.6,1.5l0,0c0.9,0,1.6-0.7,1.6-1.5
							c0-18.7-0.1-37.4-0.1-56.2c0-0.9-0.7-1.5-1.6-1.5c-0.1,0-0.3,0-0.4,0C1994.7,1631.6,1994,1632.3,1994,1633.1z"/>
						
							<linearGradient id="SVGID_29_" gradientUnits="userSpaceOnUse" x1="2003.5656" y1="2055.9807" x2="1987.2886" y2="2047.1689" gradientTransform="matrix(1 0 0 -1 0 3710)">
							<stop  offset="0" style="stop-color:#AB316D"/>
							<stop  offset="1" style="stop-color:#792D3D"/>
						</linearGradient>
						<path class="st43" d="M1988.2,1633.2c0.4,18.7,0.8,37.4,1.1,56.1c0,0.8,0.7,1.5,1.6,1.5l0,0c0.9,0,1.6-0.7,1.6-1.6
							c-0.3-18.7-0.5-37.4-0.8-56.1c0-0.9-0.7-1.5-1.6-1.5c-0.1,0-0.3,0-0.4,0C1988.8,1631.6,1988.1,1632.3,1988.2,1633.2z"/>
						
							<linearGradient id="SVGID_30_" gradientUnits="userSpaceOnUse" x1="1997.6864" y1="2055.8293" x2="1981.7229" y2="2047.1874" gradientTransform="matrix(1 0 0 -1 0 3710)">
							<stop  offset="0" style="stop-color:#AB316D"/>
							<stop  offset="1" style="stop-color:#792D3D"/>
						</linearGradient>
						<path class="st44" d="M1982.3,1633.3c0.6,18.6,1.2,37.3,1.8,55.9c0,0.8,0.7,1.5,1.5,1.5l0,0c0.9,0,1.6-0.7,1.6-1.6
							c-0.5-18.6-0.9-37.3-1.4-55.9c0-0.8-0.7-1.5-1.6-1.5c-0.1,0-0.3,0-0.4,0C1982.9,1631.7,1982.2,1632.4,1982.3,1633.3z"/>
						
							<linearGradient id="SVGID_31_" gradientUnits="userSpaceOnUse" x1="1991.7869" y1="2055.6472" x2="1976.1399" y2="2047.1768" gradientTransform="matrix(1 0 0 -1 0 3710)">
							<stop  offset="0" style="stop-color:#AB316D"/>
							<stop  offset="1" style="stop-color:#792D3D"/>
						</linearGradient>
						<path class="st45" d="M1976.4,1633.4c0.8,18.6,1.6,37.1,2.4,55.7c0,0.8,0.7,1.5,1.5,1.5l0,0c0.9,0,1.7-0.7,1.6-1.6
							c-0.7-18.6-1.3-37.1-2-55.7c0-0.8-0.8-1.5-1.6-1.5c-0.1,0-0.3,0-0.4,0C1977,1631.8,1976.4,1632.6,1976.4,1633.4z"/>
						
							<linearGradient id="SVGID_32_" gradientUnits="userSpaceOnUse" x1="1985.855" y1="2055.4558" x2="1970.5283" y2="2047.1588" gradientTransform="matrix(1 0 0 -1 0 3710)">
							<stop  offset="0" style="stop-color:#AB316D"/>
							<stop  offset="1" style="stop-color:#792D3D"/>
						</linearGradient>
						<path class="st46" d="M1970.5,1633.6c1,18.4,2,36.9,3,55.3c0,0.8,0.7,1.4,1.5,1.5l0,0c0.9,0,1.7-0.7,1.6-1.6
							c-0.9-18.4-1.7-36.9-2.6-55.3c0-0.8-0.8-1.5-1.6-1.5c-0.1,0-0.3,0-0.4,0C1971.2,1632,1970.5,1632.8,1970.5,1633.6z"/>
						
							<linearGradient id="SVGID_33_" gradientUnits="userSpaceOnUse" x1="1979.8588" y1="2055.3135" x2="1964.8558" y2="2047.1917" gradientTransform="matrix(1 0 0 -1 0 3710)">
							<stop  offset="0" style="stop-color:#AB316D"/>
							<stop  offset="1" style="stop-color:#792D3D"/>
						</linearGradient>
						<path class="st47" d="M1964.6,1633.9c1.2,18.3,2.4,36.5,3.6,54.7c0.1,0.8,0.7,1.4,1.5,1.4l0,0c0.9,0.1,1.7-0.7,1.7-1.6
							c-1.1-18.3-2.1-36.5-3.2-54.8c0-0.8-0.8-1.5-1.7-1.5c-0.1,0-0.3,0-0.4,0C1965.3,1632.3,1964.6,1633.1,1964.6,1633.9z"/>
						
							<linearGradient id="SVGID_34_" gradientUnits="userSpaceOnUse" x1="1973.9185" y1="2054.99" x2="1959.2444" y2="2047.0461" gradientTransform="matrix(1 0 0 -1 0 3710)">
							<stop  offset="0" style="stop-color:#AB316D"/>
							<stop  offset="1" style="stop-color:#792D3D"/>
						</linearGradient>
						<path class="st48" d="M1958.8,1634.3c1.4,18,2.8,36,4.2,54c0.1,0.8,0.7,1.4,1.4,1.4c0,0,0,0,0.1,0c1,0.1,1.8-0.7,1.7-1.6
							c-1.3-18-2.5-36-3.8-54c-0.1-0.9-0.8-1.5-1.7-1.4c-0.1,0-0.3,0-0.4,0C1959.3,1632.7,1958.7,1633.5,1958.8,1634.3z"/>
					</g>
				</g>
				<path class="st49" d="M1996.1,1690.8L1996.1,1690.8c0.5,0,0.9-0.2,1.2-0.5c1,0,1.9,0,2.9,0c0.3,0.3,0.7,0.5,1.2,0.5l0,0
					c0.5,0,0.9-0.2,1.2-0.5c1,0,1.9,0,2.9,0c0.3,0.3,0.7,0.5,1.2,0.5l0,0c0.2,0,0.5-0.1,0.7-0.1c4.3-13.9,3.1-23.7,0-30.9
					c-5.2-11.9-16.8-18.9-24.6-27.6c-0.1,0.1-0.1,0.2-0.2,0.3c-0.9,0-1.8,0-2.8,0.1c-0.3-0.4-0.8-0.7-1.4-0.7c-0.1,0-0.3,0-0.4,0
					c-0.6,0-1.1,0.3-1.3,0.8c-0.9,0-1.9,0.1-2.8,0.1c-0.3-0.4-0.8-0.7-1.4-0.7c-0.1,0-0.3,0-0.4,0c-0.6,0-1.1,0.3-1.3,0.8
					c-0.9,0-1.9,0.1-2.8,0.1c-0.3-0.4-0.8-0.7-1.4-0.7c-0.1,0-0.3,0-0.4,0c-0.6,0-1.1,0.4-1.3,0.8c-1,0.1-1.9,0.1-2.8,0.2
					c-0.3-0.4-0.8-0.7-1.4-0.6c-0.1,0-0.3,0-0.4,0c-0.6,0-1,0.4-1.3,0.9c-0.3,0-0.6,0.1-0.8,0.1c-0.5,0-0.9,0.5-0.8,1l4.9,53.7
					c0,0.4,0.4,0.8,0.8,0.8c0.1,0,0.2,0,0.3,0c0.3,0.3,0.7,0.5,1.1,0.6c0,0,0,0,0.1,0c0.5,0,0.9-0.1,1.2-0.4c1,0.1,2,0.1,3,0.2
					c0.3,0.3,0.7,0.5,1.1,0.6l0,0c0.5,0,0.9-0.1,1.2-0.4c1,0.1,1.9,0.1,2.9,0.1c0.3,0.3,0.7,0.5,1.1,0.6l0,0c0.5,0,0.9-0.2,1.2-0.5
					c1,0,1.9,0.1,2.9,0.1c0.3,0.3,0.7,0.5,1.1,0.5l0,0c0.5,0,0.9-0.2,1.2-0.5c1,0,1.9,0.1,2.9,0.1c0.3,0.3,0.7,0.5,1.2,0.5l0,0
					c0.5,0,0.9-0.2,1.2-0.5c1,0,1.9,0,2.9,0c0.3,0.3,0.7,0.5,1.2,0.5l0,0c0.5,0,0.9-0.2,1.2-0.5c1,0,1.9,0,2.9,0
					C1995.2,1690.6,1995.6,1690.8,1996.1,1690.8z"/>
			</g>
			
				<linearGradient id="SVGID_35_" gradientUnits="userSpaceOnUse" x1="1966.0471" y1="2040.7428" x2="2075.3999" y2="2040.7428" gradientTransform="matrix(1 0 0 -1 0 3710)">
				<stop  offset="0" style="stop-color:#FFC444"/>
				<stop  offset="0.9964" style="stop-color:#F36F56"/>
			</linearGradient>
			<path class="st50" d="M2075.4,1692c0,0-17.5-34.9-28-41.9s-57.6-10-70.7-8.5s-14.1,11.3-3.1,18.6c11,7.3,42.1,15.7,47.5,22
				S2065,1706,2075.4,1692z"/>
		</g>
		<g>
			<path class="st51" d="M1184.4,1098.1c-2.9-0.4-6.3,21.7-11.8,21.3c-3.4-0.3-5.6-9.4-6.3-14.1c-2.4-15.6,5.1-24.3-0.7-33.3
				c-0.9-1.3-2.5-3.8-4.1-3.6c-4.9,0.8-5.6,27.4-5.5,40.1c-0.7-10.4-2.9-30.3-8.8-38.2c-0.8-1.1-3.1-4.2-4.7-3.7
				c-1.4,0.5-1.5,3.6-1.4,6.1c0.3,14.3,7.2,37.9,6,38.5c-1.4,0.7-15-30.4-19.3-29c-3.7,1.1,0.2,26.4,9.3,48.6
				c1.5,3.6,3,7.2,4.6,10.5c4.4,9.1,4.1,19.8-1.2,28.5l-0.3,0.5l23.7,6.1l5.4-21c2.1-1.2,3.7-2.5,4.6-3.2
				C1193.8,1136,1188.1,1098.6,1184.4,1098.1z"/>
			<path class="st11" d="M1130.3,1157.9h52.6c-14.3,13.6-104.3,102.1-99,239.8c4.3,111.4,68.2,183.7,85.8,202.4
				c-38.5,76.3-88.1,105.2-111.4,116.1c-8.3,3.9-83,40-91,12.4C965.2,1721,798.3,1391,1130.3,1157.9z"/>
			
				<linearGradient id="SVGID_36_" gradientUnits="userSpaceOnUse" x1="4545.7227" y1="696.0521" x2="4528.9697" y2="462.6294" gradientTransform="matrix(-0.5404 -0.8414 0.8414 -0.5404 3808.877 5741.772)">
				<stop  offset="0" style="stop-color:#AB316D"/>
				<stop  offset="1" style="stop-color:#792D3D"/>
			</linearGradient>
			<path class="st52" d="M1911,1532.1c1.3,2.6-18.6,12.8-16.6,17.8c1.3,3.2,10.7,2.4,15.4,1.6c15.5-2.6,21.5-12.4,31.8-9.7
				c1.5,0.4,4.4,1.2,4.6,2.8c0.8,4.9-24.3,13.9-36.4,17.7c10.1-2.6,29.8-6.7,39-3.6c1.3,0.4,5,1.7,5,3.3c0,1.4-3,2.5-5.4,3.3
				c-13.7,4.2-38.3,5-38.5,6.3c-0.2,1.5,33.5,4.8,33.6,9.2c0.1,3.9-25.2,8-49,6.4c-3.9-0.3-7.7-0.6-11.4-1c-10-1.3-20.1,2.3-26.7,10
				l-0.3,0.4l-13.2-20.6l18.2-11.7c0.5-2.3,1.2-4.3,1.7-5.4C1872,1535,1909.3,1528.7,1911,1532.1z"/>
			
				<linearGradient id="SVGID_37_" gradientUnits="userSpaceOnUse" x1="2961.738" y1="712.499" x2="2986.4644" y2="397.8008" gradientTransform="matrix(-1 0 0 -1 4346.1108 3710)">
				<stop  offset="3.597000e-03" style="stop-color:#26264F"/>
				<stop  offset="1" style="stop-color:#444B8C"/>
			</linearGradient>
			<path class="st53" d="M1336.1,3154.4c0,0,99.5,45.2,101.2,52.5c1.6,7.2-64-2.4-90.8-1.4s-48.8-6.9-46.4-18.2
				c2.4-11.4,11.8-39.9,11.8-39.9L1336.1,3154.4z"/>
			<path class="st51" d="M1339.8,3117.7l-6.1,44.8c0,0-15.8,5.6-26.3-1l-4.5-49.1L1339.8,3117.7z"/>
			
				<linearGradient id="SVGID_38_" gradientUnits="userSpaceOnUse" x1="3428.9954" y1="749.2073" x2="3453.7212" y2="434.5164" gradientTransform="matrix(-1 0 0 -1 4346.1108 3710)">
				<stop  offset="3.597000e-03" style="stop-color:#26264F"/>
				<stop  offset="1" style="stop-color:#444B8C"/>
			</linearGradient>
			<path class="st54" d="M871.1,3118.8l-11.6,18.6c-3.2,5.2-4.2,11.5-2.7,17.4c4,15.5,12.1,45.6,15.7,53.4
				c4.8,10.7,69.2,17.1,69.2,17.1s5.7-8.1-7.6-17.8c-13.4-9.8-22-11.3-26.7-25.7s-7.9-55.2-7.9-55.2L871.1,3118.8z"/>
			<path class="st51" d="M919.2,3071.6c-4.2,3.4-24.9,66.2-24.9,66.2s-6.7,8.6-19.4-4.1c-12.7-12.6-5.8-5.7-5.8-5.7l2.4-61.8
				L919.2,3071.6z"/>
			<path class="st13" d="M1394.6,2217.4c5.3,133.7,5.5,278.9-2.2,434.1c-8.7,174.7-26.1,336.2-48,482.6c-8.2,0.3-16.7,0.3-25.7,0.1
				c-6-0.2-11.9-0.5-17.6-0.9c-11.4-30.4-24.8-70.3-36.9-117.9c-12.7-50.1-20.3-95.1-25.8-138.1c-19.2-151.4,3.3-164.6-12.3-276.8
				c-13.8-99.4-33.4-103.3-56.4-244.3c-25-153.1-6.4-176.1,2.7-184.4C1211,2136.4,1301.3,2160.4,1394.6,2217.4z"/>
			<path class="st55" d="M1172.5,2171.7c36.7-33.7,120.6-13.3,209.2,38.1c-101.9,110.1-113,181.6-100.8,227.9
				c13.8,52.4,55.8,67.5,55.6,124.8c-0.2,70.4-63.7,89-62.4,163.5c0.9,49.3,28.8,48.7,35.4,109.6c7.8,72-28.7,96.8-16.9,150
				c5.1,22.9,19.6,52.9,60.9,83.7c-3,21.9-6,43.5-9.2,64.8c-8.1,0.3-16.7,0.3-25.7,0c-6-0.2-11.9-0.5-17.6-0.9
				c-11.4-30.4-24.8-70.3-36.9-117.9c-12.7-50.1-20.3-95.1-25.8-138.1c-19.2-151.4,3.3-164.6-12.3-276.8
				c-13.8-99.4-33.4-103.3-56.4-244.4C1144.9,2202.9,1163.5,2180,1172.5,2171.7z"/>
			<path class="st13" d="M1331.4,2215.2c-87.8,128.4-182.4,288.2-267.1,479.5c-64,144.6-110.4,280.3-144.4,401.2
				c-4.6,2.1-15.5,6.4-29.4,4.6c-19-2.5-30.3-14.6-33.3-18c-13.9-86.7-12.3-160.1-7.6-213.2c3-33.9,8.3-90.4,30-160.2
				c24.2-78.1,40.9-82.5,72.5-165.2c32.8-85.8,24.9-107.2,56.3-214.6c12.9-44.1,34.5-109.8,70.2-188.3
				C1162.8,2165.7,1247.1,2190.4,1331.4,2215.2z"/>
			
				<linearGradient id="SVGID_39_" gradientUnits="userSpaceOnUse" x1="3320.6536" y1="1374.2324" x2="3548.2292" y2="430.6657" gradientTransform="matrix(-0.8629 -0.5054 0.5054 -0.8629 3672.9775 4501.6216)">
				<stop  offset="0" style="stop-color:#AA80F9"/>
				<stop  offset="0.9964" style="stop-color:#6165D7"/>
			</linearGradient>
			<path class="st56" d="M1854.4,1559.6c3,18,6,36,9,53.9c-43.3,47.9-116.4,115.5-224.1,160.9c-114.1,48.1-327.4,96.5-392.7,5.4
				c-39.8-55.5-63.9-183.6-14.3-211.2c47.7-26.5,146,53.3,230.2,78C1545.1,1670.9,1670,1670.5,1854.4,1559.6z"/>
			<path class="st51" d="M1911,1532.1c1.3,2.6-18.6,12.8-16.6,17.8c1.3,3.2,10.7,2.4,15.4,1.6c15.5-2.6,21.5-12.4,31.8-9.7
				c1.5,0.4,4.4,1.2,4.6,2.8c0.8,4.9-24.3,13.9-36.4,17.7c10.1-2.6,29.8-6.7,39-3.6c1.3,0.4,5,1.7,5,3.3c0,1.4-3,2.5-5.4,3.3
				c-13.7,4.2-38.3,5-38.5,6.3c-0.2,1.5,33.5,4.8,33.6,9.2c0.1,3.9-25.2,8-49,6.4c-3.9-0.3-7.7-0.6-11.4-1c-10-1.3-20.1,2.3-26.7,10
				l-0.3,0.4l-13.2-20.6l18.2-11.7c0.5-2.3,1.2-4.3,1.7-5.4C1872,1535,1909.3,1528.7,1911,1532.1z"/>
			<path class="st11" d="M1854.4,1559.6c3,18,6,36,9,53.9c-43.3,47.9-116.4,115.5-224.1,160.9c-114.1,48.1-327.4,96.5-392.7,5.4
				c-39.8-55.5-63.9-183.6-14.3-211.2c47.7-26.5,146,53.3,230.2,78C1545.1,1670.9,1670,1670.5,1854.4,1559.6z"/>
			<path class="st11" d="M1168.1,1566.8c85.3-1.6,151,1.2,187.3,39.1c38.4,40-2.2,83.4,4,186.1c9.6,157.2,108.8,197.7,112.8,357.1
				c1.4,53.7-8.7,97.4-16.3,123.6c-22.5,26.9-59.3,64.6-113,95.7c-78.2,45.3-122.7,36.1-234.2,64
				c-182.3,45.6-199.7,104.4-289.3,87.4c-90.5-17.2-168.5-95.4-158-137.1c6.3-25,42.8-17.1,85.8-54.5c55.4-48.2,35.5-95.8,77.9-148
				c61-75,142.6-26.5,194.6-91.5c52.6-65.7,35.2-197.9-6.4-270.7c-27.1-47.5-38-102.8-60.9-152.5c-1.9-4.1-4.1-10.9-2.9-19.2
				c4.6-31.9,58.4-48.2,99.1-60C1111,1568.2,1161.1,1567,1168.1,1566.8z"/>
			
				<linearGradient id="SVGID_40_" gradientUnits="userSpaceOnUse" x1="1203.6603" y1="2194.5442" x2="1076.0695" y2="1860.1682" gradientTransform="matrix(1 0 0 -1 0 3710)">
				<stop  offset="0" style="stop-color:#FFC444"/>
				<stop  offset="0.9964" style="stop-color:#F36F56"/>
			</linearGradient>
			<path class="st57" d="M1251.2,1565.1l-16.7-5.5c0,0-4.9,22.7-59,24.3c-30-0.7-49-17.9-49-17.9l-11.7,8.1c0,0,24.5,32,64.6,32.1
				C1231.1,1606.3,1251.2,1565.1,1251.2,1565.1z"/>
			<g>
				<path class="st51" d="M1237.5,1492c4.6-24.8-9.3-46.1-12.4-50.7c-12.8-19.2-15.8-21.7-21.4-24.7l-7.7-3.8c0,0-0.4-0.1-0.9-0.2
					c-4.8-1.2-20.7-0.3-23.9,0.7c-10.1,3.1-17.2,46-8.7,104.9c-0.4,4.6-0.8,9.2-1.2,13.9c-22.9-3.2-29.6-1-30.7,2.1
					c-2.6,6.7,13.4,45.5,35.3,53.2c27.4,9.6,65.6-15.4,67.9-24.5c0.9-3.7,0.8-0.5-17.9-11.3c-1.7-5.4-7.1-20.1-8.8-25.5
					C1211,1523.4,1234.1,1510.2,1237.5,1492z"/>
				
					<linearGradient id="SVGID_41_" gradientUnits="userSpaceOnUse" x1="2282.1667" y1="2291.8193" x2="2203.4539" y2="2164.4895" gradientTransform="matrix(-0.8526 -0.5224 0.5224 -0.8526 1952.8718 4589.627)">
					<stop  offset="0" style="stop-color:#AB316D"/>
					<stop  offset="1" style="stop-color:#792D3D"/>
				</linearGradient>
				<path class="st58" d="M1206.2,1472c-5.1-5.8-12.4,0.8-11.7,8.8c0.7,8,9.2,15.6,16.5,13.3C1218.4,1491.8,1213,1479.8,1206.2,1472
					z"/>
				<path class="st21" d="M536.4,1698.2c52.9-51.7,124.7,6.9,207.2-49.1c89.4-60.6,61.4-167.4,137.9-190.1
					c52.3-15.5,131.4,14.8,172.4-13.3c6.6-4.6,33.6-23.9,72.1-46.9c17-10.1,33.6-19.4,53.7-16.3c5.1,0.8,22.1,3.4,29.5,17.3
					c5.9,11.3,3.3,26.7-2.6,36.4c-3.6,5.8-5.8,5.9-6.8,10.1c-3,11.9,16.7,23.8,13.6,29.3c-2.2,3.9-12.8-1.2-16.4,3.5
					c-3.9,5.1,6.6,14,7.1,30.2c7.7,9.7,8.6,28,3.7,50.4c-7.2,33-18.8,58-31.1,75.7c-54.6,77.8-127.5,110.6-165,167.2
					c-65.7,99.1,26,188.9-28.1,255.4c-69.1,84.9-322.3,65.9-427.3-83.5C496.8,1890,478.6,1754.6,536.4,1698.2z"/>
			</g>
			<g class="st9">
				<path class="st11" d="M883.6,2385c85.8-57,163.4,8.2,224.1-42c49.9-41.4,9-95.3,63-168.1c59.2-79.8,141.5-59.4,161.1-119
					c20.3-61.6-61-103.5-63-189.1c-1-43.7,18.6-100.6,96.9-168.8c-4.2,24.9-8.6,55.2-6.2,94.1c9.6,157.2,108.8,197.7,112.8,357.1
					c1.4,53.7-8.7,97.4-16.3,123.6c-22.5,26.9-59.3,64.6-113,95.7c-78.2,45.3-122.7,36.1-234.2,64
					c-182.3,45.6-199.7,104.4-289.3,87.4c-26.1-5-51.1-15-73.3-27.7c26.1-4.1,45.5-12.9,60.3-23.2
					C845.8,2441.9,838.9,2414.7,883.6,2385z"/>
			</g>
		</g>
		<g>
			
				<linearGradient id="SVGID_42_" gradientUnits="userSpaceOnUse" x1="3104.9775" y1="1452.1709" x2="3083.1658" y2="1681.1957" gradientTransform="matrix(1 0 0 -1 0 3710)">
				<stop  offset="0" style="stop-color:#FFC444"/>
				<stop  offset="0.9964" style="stop-color:#F36F56"/>
			</linearGradient>
			<path class="st59" d="M3101.4,2085.6c0,0,32.7,62,0,129.2c-32.7,67.3-25.4-110.4-25.4-110.4L3101.4,2085.6z"/>
			<path class="st13" d="M3065.1,2116.1l50.9-11.7c0,0,145.4-330.3-50.9-700.7l-149,173.2C2916,1576.9,3046.9,1693.8,3065.1,2116.1z
				"/>
			<path class="st13" d="M2500.5,1416.7c-60.5,66.5-205.3,225.8-152.7,341c7.2,15.8,15,32.8,32,39.1c49.7,18.3,94.2-86.1,206-106.6
				c57.1-10.5,76.7,11.4,95.9-7.1c58.5-56.4-48.9-305.9-131.4-301.9C2535.3,1381.9,2524,1390.8,2500.5,1416.7z"/>
			
				<linearGradient id="SVGID_43_" gradientUnits="userSpaceOnUse" x1="2151.479" y1="639.1489" x2="2253.47" y2="639.1489" gradientTransform="matrix(0.996 8.990000e-02 8.990000e-02 -0.996 562.2434 3400.4561)">
				<stop  offset="0" style="stop-color:#444B8C"/>
				<stop  offset="0.9964" style="stop-color:#26264F"/>
			</linearGradient>
			<path class="st60" d="M2858,2942.2c5.3,4.9,5.6,16.2,5.8,23.7c0.1,3.3,0.1,5-0.3,6.1c-3.2,8.3-19.8,8.2-45.8,9.3
				c-41.1,1.7-53.5,4.1-56.3-2.1c-2.6-5.9,5.2-14.8,6.1-15.8c4.7-5.3,10.2-6.9,20.9-9.7c19.7-5.2,32.9-7.8,36.9-8.7
				C2850.3,2939.9,2854.5,2939,2858,2942.2z"/>
			
				<linearGradient id="SVGID_44_" gradientUnits="userSpaceOnUse" x1="1755.1431" y1="697.7381" x2="1799.9006" y2="790.3758" gradientTransform="matrix(0.9976 6.960000e-02 6.960000e-02 -0.9976 1021.3463 3535.3376)">
				<stop  offset="0" style="stop-color:#FFC444"/>
				<stop  offset="0.9964" style="stop-color:#F36F56"/>
			</linearGradient>
			<path class="st61" d="M2829.1,2901.2l-1.6,46.8c1.3,2.2,15.5,8.2,26.2,1.8l8.1-46.4L2829.1,2901.2z"/>
			
				<linearGradient id="SVGID_45_" gradientUnits="userSpaceOnUse" x1="1534.0428" y1="515.8709" x2="1642.4259" y2="515.8709" gradientTransform="matrix(0.977 0.2135 0.2135 -0.977 802.0757 3116.2834)">
				<stop  offset="0" style="stop-color:#444B8C"/>
				<stop  offset="0.9964" style="stop-color:#26264F"/>
			</linearGradient>
			<path class="st62" d="M2511.6,2935.7c7.1,7,9.3,20.5,3.9,27.5c-5.4,6.9-14.2,2.4-38.5,4.4c-26,2.2-32.5,8.7-50.5,4.7
				c-7.3-1.6-20.2-5.7-20.2-10.8c0-3.6,6.3-5.8,27.4-14.1c30-11.8,29.8-12.4,36.2-13.8C2486,2930,2502.2,2926.4,2511.6,2935.7z"/>
			
				<linearGradient id="SVGID_46_" gradientUnits="userSpaceOnUse" x1="1475.5295" y1="599.4338" x2="1521.2336" y2="694.0308" gradientTransform="matrix(0.9894 0.1455 0.1455 -0.9894 929.3287 3331.4207)">
				<stop  offset="0" style="stop-color:#FFC444"/>
				<stop  offset="0.9964" style="stop-color:#F36F56"/>
			</linearGradient>
			<path class="st63" d="M2492.6,2894l-10.8,44.2c1.1,2.3,14.8,9.4,26,3.8l17.2-43.3L2492.6,2894z"/>
			<path class="st11" d="M2558.1,1935.3c5.9,146.3,4.7,311.2-9.8,491c-14.3,177.7-38.9,339-67.6,481.1c16.9,3.6,33.8,7.2,50.8,10.8
				c40.2-41.7,90.3-106.7,111.4-195.8c13.1-55.3,6.3-83.1,12.8-150.6c10.5-107.6,40.2-165.2,69.4-253.1
				c26.3-78.9,56.1-194.3,67.3-347.1C2714.3,1959.5,2636.2,1947.4,2558.1,1935.3z"/>
			<path class="st16" d="M2581.3,2618.9c18.6-73.8,54.5-93.3,55.8-163c0.9-49.3-16.8-53.3-15.6-100.5c1.8-71.5,43.7-109,64.8-154
				c22.2-47.5,30.8-123.8-29.1-250.8c45.1,7,90.2,14,135.3,21c-11.2,152.7-41.1,268.1-67.3,347.1c-29.2,87.9-59,145.5-69.4,253.1
				c-6.6,67.6,0.2,95.3-12.8,150.6c-21.1,89.2-71.2,154.1-111.4,195.9c-4.3-0.9-8.6-1.8-12.9-2.7c43.5-51.9,58.8-98.2,62.7-135.8
				C2587.7,2718.4,2562.5,2693.3,2581.3,2618.9z"/>
			<path class="st11" d="M2727.2,1926.1c20.1,185.4,38.6,374.3,55.2,566.7c12.5,144.4,23.6,287,33.4,427.8
				c17.2,1.2,34.3,2.4,51.5,3.6c14.8-31.5,34.2-79.6,46-140.4c14.3-73.9,7.8-117,11.8-193.1c4.4-85.3,16.5-104.5,33.8-212.7
				c35.2-219.6,52.8-329.4-2.9-394.2C2937.8,1962.7,2881.8,1910.6,2727.2,1926.1z"/>
			<path class="st13" d="M3083.5,1507.9c22.3-59.3-13.1-124.7-75.1-137.7c-70.5-14.8-154.9-24.9-249.8-21
				c-84.8,3.5-158.4,17.3-218.2,33.2c-7.8,2.1-13.6,8.5-15.1,16.4c-7.6,42.5-15.2,85-22.8,127.5c-1.9,46.9-2.6,110.5,2.7,185.7
				c5.3,75.1,10.4,76.3,22.5,182.3c19.7,172.9,11.4,218.1,46.2,238.8c22.6,13.5,30.8-2.8,146.1-14.2c77.3-7.7,116.8-11.2,156,2.1
				c53.3,18.1,71.2,48.4,93.2,38.5c21.1-9.5,23.8-45.9,26.4-109.4c3.9-98,3.7-164.5,4.1-188.4c1.7-109.3,29.4-192.8,64.9-299.8
				C3070.7,1542.9,3077.1,1524.9,3083.5,1507.9z"/>
			<g>
				<path class="st25" d="M2769,1240.9c1.2,27.5,5.5,49.1,9.2,63.9c4.2,16.9,6.9,21.2,10.1,24.6c4.9,5.2,12.1,9.3,52,17
					c21.7,4.2,24.5,3.9,25,6c2.9,10.3-53.7,48.7-114.5,43.4c-37.2-3.2-72-22.5-70.5-33.7c1.5-11.3,38.7-7.2,48.6-28
					c6.9-14.4-2.7-33.9-13.7-49.8C2724,1265.4,2760.1,1259.9,2769,1240.9z"/>
				<g>
					
						<linearGradient id="SVGID_47_" gradientUnits="userSpaceOnUse" x1="1402.0391" y1="2590.4529" x2="1332.0409" y2="2768.2354" gradientTransform="matrix(0.9988 -4.940000e-02 -4.940000e-02 -0.9988 1538.1996 4035.4224)">
						<stop  offset="0" style="stop-color:#311944"/>
						<stop  offset="1" style="stop-color:#6B3976"/>
					</linearGradient>
					<path class="st64" d="M2701,1255.5c-9.3-11.1-11-31.3-1.6-44.6c8.1-11.5,21.6-13.8,29.7-15.1c23.5-4,53.8,4.3,65.3,25.5
						c6.8,12.5-5,40-6.9,44.9c-2.1,5.6-6.2,7.7-10,12c-5.2,6-13.3,15.5-26.4,31.4c-1.3-4.4-3.3-9.9-6.2-15.7
						c-1.1-2.3-5.7-11.1-12.2-18.2C2719.6,1261.2,2709.8,1266,2701,1255.5z"/>
					
						<linearGradient id="SVGID_48_" gradientUnits="userSpaceOnUse" x1="3293.5105" y1="2663.0269" x2="3290.2915" y2="2403.6648" gradientTransform="matrix(-0.9999 -1.180000e-02 1.180000e-02 -0.9999 6004.7056 3955.3708)">
						<stop  offset="0" style="stop-color:#FFC444"/>
						<stop  offset="0.9964" style="stop-color:#F36F56"/>
					</linearGradient>
					<path class="st65" d="M2770.4,1295.7c0,0-14.2,26.3-45.2,25.9c-27.8-0.3-35.1-62.1-18.1-76.2c5.7-4.7,17.4-7.2,27.1-5
						c5.8,1.3,7.8,3.5,17.2,5.5c8.7,1.8,11.1,0.7,13.8,2.7c3.4,2.6,6.1,9.1,1.7,27.5c5-5.6,11.2-8,15.8-6.1c0.7,0.3,2.7,1.5,3.9,3.4
						C2790.8,1280.2,2784.8,1289.6,2770.4,1295.7z"/>
					
						<linearGradient id="SVGID_49_" gradientUnits="userSpaceOnUse" x1="1380.5603" y1="2581.8987" x2="1310.4886" y2="2759.8679" gradientTransform="matrix(0.9988 -4.940000e-02 -4.940000e-02 -0.9988 1538.1996 4035.4224)">
						<stop  offset="0" style="stop-color:#311944"/>
						<stop  offset="1" style="stop-color:#6B3976"/>
					</linearGradient>
					<path class="st66" d="M2766.2,1244.8c-1.3,1.1,3.1,5.8,3.7,12.9c1.3,13.6-11.6,30.8-25.7,32.9c-8.3,1.3-10.9-3.6-24.7-4.4
						c-8.6-0.4-15.6,1-20.1,2.2c-3.5,15.2,1.3,30,11.7,36.4c11.2,6.9,24.7,1.6,30.4-0.6c3.8-1.5,15.9-6.2,21.8-17.8
						c6.1-12.2-0.9-18.9,6.4-27.3c3.7-4.2,8.7-6.3,13.3-14.3c1.2-2.2,2-4.1,2.5-5.4C2778.1,1252.2,2768.1,1243.2,2766.2,1244.8z"/>
					
						<linearGradient id="SVGID_50_" gradientUnits="userSpaceOnUse" x1="1311.9523" y1="2689.1514" x2="1315.5962" y2="2656.6658" gradientTransform="matrix(0.9988 -4.940000e-02 -4.940000e-02 -0.9988 1538.1996 4035.4224)">
						<stop  offset="0" style="stop-color:#FFC444"/>
						<stop  offset="1" style="stop-color:#F36F56"/>
					</linearGradient>
					<path class="st67" d="M2709.8,1293.5c0,0,6.1,2.8,16.4,1.7c0.5-0.1,1.1,0.1,1.1,0.3c0.3,1-6.1,5.7-12.3,4.3c-4.4-1-8-4.9-7.5-6
						C2707.9,1293.3,2708.8,1293.3,2709.8,1293.5z"/>
				</g>
			</g>
			<path class="st68" d="M2618.7,2076.4c56.7-24.2,56.4-74.3,109.4-95.2c75.6-29.8,159.1,39.5,172.2,20.3
				c13.6-20-86.2-81.3-72.9-141.8c10.6-48.1,80.2-39.5,117.5-105.3c35.4-62.4,1.1-120.1,32.4-141.8c11.2-7.8,31.1-10.8,68.6,5.7
				c-26.2,81.8-45,154-46.4,243.4c-0.4,23.8-0.1,90.4-4.1,188.4c-2.6,63.5-5.3,99.9-26.4,109.4c-22,9.9-39.8-20.4-93.2-38.5
				c-39.2-13.3-78.6-9.7-156-2.1c-115.3,11.4-123.5,27.7-146.1,14.2c-14.7-8.8-21.7-22-26.4-47.4
				C2570.5,2088.2,2595.1,2086.5,2618.7,2076.4z"/>
			<g>
				<path class="st13" d="M2555.2,1573c-103.6,43.1-148.1,103.8-166.8,136.1c-12,20.6-31.5,55.2-18.5,77.8
					c12.2,21.3,47.5,22.1,64.9,19.4c88.2-13.6,126.1-182.5,129.8-199.3L2555.2,1573z"/>
				<g>
					<g>
						
							<linearGradient id="SVGID_51_" gradientUnits="userSpaceOnUse" x1="-1474.2744" y1="2232.9807" x2="-1469.3551" y2="2268.4407" gradientTransform="matrix(1 0 0 -1 4101.6001 3710)">
							<stop  offset="0" style="stop-color:#AB316D"/>
							<stop  offset="1" style="stop-color:#792D3D"/>
						</linearGradient>
						<ellipse class="st69" cx="2627.8" cy="1473.6" rx="54.4" ry="10.7"/>
						
							<linearGradient id="SVGID_52_" gradientUnits="userSpaceOnUse" x1="-1472.7938" y1="2232.7754" x2="-1467.8745" y2="2268.2356" gradientTransform="matrix(1 0 0 -1 4101.6001 3710)">
							<stop  offset="0" style="stop-color:#AB316D"/>
							<stop  offset="1" style="stop-color:#792D3D"/>
						</linearGradient>
						<path class="st70" d="M2573.5,1473.6c0,0-2.5,11.5-2.5,11.6s113.4,0,113.4,0l-2.1-11.6H2573.5z"/>
					</g>
					
						<linearGradient id="SVGID_53_" gradientUnits="userSpaceOnUse" x1="-1475.0835" y1="2206.6521" x2="-1474.2637" y2="2219.1555" gradientTransform="matrix(1 0 0 -1 4101.6001 3710)">
						<stop  offset="0" style="stop-color:#AB316D"/>
						<stop  offset="1" style="stop-color:#792D3D"/>
					</linearGradient>
					<ellipse class="st71" cx="2627.7" cy="1485.3" rx="56.7" ry="11.2"/>
					
						<linearGradient id="SVGID_54_" gradientUnits="userSpaceOnUse" x1="-1469.4899" y1="2111.2292" x2="-1484.6578" y2="2079.8313" gradientTransform="matrix(1 0 0 -1 4101.6001 3710)">
						<stop  offset="0" style="stop-color:#AB316D"/>
						<stop  offset="1" style="stop-color:#792D3D"/>
					</linearGradient>
					<ellipse class="st72" cx="2627.7" cy="1607.9" rx="37.9" ry="11.3"/>
					
						<linearGradient id="SVGID_55_" gradientUnits="userSpaceOnUse" x1="-1471.4091" y1="2112.1565" x2="-1486.5771" y2="2080.7583" gradientTransform="matrix(1 0 0 -1 4101.6001 3710)">
						<stop  offset="0" style="stop-color:#AB316D"/>
						<stop  offset="1" style="stop-color:#792D3D"/>
					</linearGradient>
					<rect x="2589.8" y="1598.4" class="st73" width="75.8" height="9.2"/>
					<g>
						<ellipse class="st2" cx="2627.7" cy="1599.3" rx="40.9" ry="12.1"/>
						<ellipse class="st2" cx="2627.7" cy="1484.4" rx="51.2" ry="9.5"/>
						<polygon class="st2" points="2576.4,1484.4 2586.8,1597.3 2668.5,1597.3 2678.9,1484.4 						"/>
					</g>
					<g>
						
							<linearGradient id="SVGID_56_" gradientUnits="userSpaceOnUse" x1="-1412.3693" y1="2230.2727" x2="-1512.4344" y2="2132.0662" gradientTransform="matrix(1 0 0 -1 4101.6001 3710)">
							<stop  offset="0" style="stop-color:#AB316D"/>
							<stop  offset="1" style="stop-color:#792D3D"/>
						</linearGradient>
						<path class="st74" d="M2585,1576.2c21.5,1.9,63.6,1.9,85.3,0c0.5,0,0.9-0.5,1-1l5.8-64.1c0.1-0.6-0.4-1.1-1-1.2
							c-20.7-2-76.6-2-97,0c-0.6,0.1-1,0.6-1,1.2l5.8,64.1C2584.1,1575.7,2584.5,1576.1,2585,1576.2z"/>
						<g>
							
								<linearGradient id="SVGID_57_" gradientUnits="userSpaceOnUse" x1="-1413.3508" y1="2176.5854" x2="-1435.6154" y2="2164.5325" gradientTransform="matrix(1 0 0 -1 4101.6001 3710)">
								<stop  offset="0" style="stop-color:#AB316D"/>
								<stop  offset="1" style="stop-color:#792D3D"/>
							</linearGradient>
							<path class="st75" d="M2671.1,1510.5c-1.5,21.5-3,43-4.5,64.5c-0.1,1.1,0.9,2.1,2,2c0,0,0,0,0.1,0c0.9-0.1,1.6-0.8,1.7-1.7
								c1.7-21.5,3.3-43,5-64.5c0.1-1-0.7-1.9-1.7-2c-0.2,0-0.3,0-0.5,0C2672.1,1508.7,2671.2,1509.4,2671.1,1510.5z"/>
							
								<linearGradient id="SVGID_58_" gradientUnits="userSpaceOnUse" x1="-1420.1307" y1="2176.6082" x2="-1442.0529" y2="2164.7405" gradientTransform="matrix(1 0 0 -1 4101.6001 3710)">
								<stop  offset="0" style="stop-color:#AB316D"/>
								<stop  offset="1" style="stop-color:#792D3D"/>
							</linearGradient>
							<path class="st76" d="M2664.1,1510c-1.3,21.8-2.6,43.6-3.8,65.4c-0.1,1.1,0.9,2,2,1.9c0,0,0,0,0.1,0c0.9-0.1,1.7-0.8,1.8-1.7
								c1.4-21.8,2.9-43.6,4.3-65.3c0.1-1-0.7-1.9-1.8-2c-0.2,0-0.3,0-0.5,0C2665,1508.2,2664.2,1509,2664.1,1510z"/>
							
								<linearGradient id="SVGID_59_" gradientUnits="userSpaceOnUse" x1="-1426.892" y1="2176.5327" x2="-1448.4686" y2="2164.8521" gradientTransform="matrix(1 0 0 -1 4101.6001 3710)">
								<stop  offset="0" style="stop-color:#AB316D"/>
								<stop  offset="1" style="stop-color:#792D3D"/>
							</linearGradient>
							<path class="st77" d="M2657.1,1509.7c-1,22-2.1,44-3.1,66c-0.1,1.1,0.9,2,2,1.9l0,0c1,0,1.7-0.8,1.8-1.7l3.6-66
								c0.1-1-0.8-1.9-1.8-1.9c-0.2,0-0.3,0-0.5,0C2658,1508,2657.1,1508.7,2657.1,1509.7z"/>
							
								<linearGradient id="SVGID_60_" gradientUnits="userSpaceOnUse" x1="-1433.6831" y1="2176.4343" x2="-1454.9097" y2="2164.9431" gradientTransform="matrix(1 0 0 -1 4101.6001 3710)">
								<stop  offset="0" style="stop-color:#AB316D"/>
								<stop  offset="1" style="stop-color:#792D3D"/>
							</linearGradient>
							<path class="st78" d="M2650.1,1509.6c-0.8,22.1-1.6,44.3-2.4,66.4c0,1.1,0.8,1.9,1.9,1.9l0,0c1,0,1.8-0.8,1.8-1.8
								c1-22.1,1.9-44.3,2.9-66.4c0-1-0.8-1.9-1.8-1.9c-0.2,0-0.3,0-0.5,0C2651,1507.8,2650.1,1508.5,2650.1,1509.6z"/>
							
								<linearGradient id="SVGID_61_" gradientUnits="userSpaceOnUse" x1="-1440.5422" y1="2176.3804" x2="-1461.4144" y2="2165.0811" gradientTransform="matrix(1 0 0 -1 4101.6001 3710)">
								<stop  offset="0" style="stop-color:#AB316D"/>
								<stop  offset="1" style="stop-color:#792D3D"/>
							</linearGradient>
							<path class="st79" d="M2643.1,1509.4l-1.7,66.7c0,1.1,0.8,1.9,1.9,1.9l0,0c1,0,1.8-0.8,1.8-1.8c0.7-22.2,1.4-44.5,2.1-66.7
								c0-1-0.8-1.9-1.8-1.9c-0.2,0-0.3,0-0.5,0C2643.9,1507.6,2643.1,1508.4,2643.1,1509.4z"/>
							
								<linearGradient id="SVGID_62_" gradientUnits="userSpaceOnUse" x1="-1447.368" y1="2176.1821" x2="-1467.8815" y2="2165.0771" gradientTransform="matrix(1 0 0 -1 4101.6001 3710)">
								<stop  offset="0" style="stop-color:#AB316D"/>
								<stop  offset="1" style="stop-color:#792D3D"/>
							</linearGradient>
							<path class="st80" d="M2636.1,1509.4c-0.3,22.3-0.6,44.6-0.9,66.9c0,1,0.8,1.9,1.9,1.9l0,0c1,0,1.8-0.8,1.9-1.8
								c0.5-22.3,0.9-44.6,1.4-66.9c0-1-0.8-1.9-1.9-1.9c-0.2,0-0.3,0-0.5,0C2636.9,1507.5,2636.1,1508.3,2636.1,1509.4z"/>
							
								<linearGradient id="SVGID_63_" gradientUnits="userSpaceOnUse" x1="-1454.2926" y1="2176.0833" x2="-1474.4432" y2="2165.1748" gradientTransform="matrix(1 0 0 -1 4101.6001 3710)">
								<stop  offset="0" style="stop-color:#AB316D"/>
								<stop  offset="1" style="stop-color:#792D3D"/>
							</linearGradient>
							<path class="st81" d="M2629.1,1509.3c0,22.3-0.1,44.7-0.1,67c0,1,0.8,1.9,1.9,1.8l0,0c1,0,1.9-0.8,1.9-1.8
								c0.2-22.3,0.4-44.7,0.6-67c0-1-0.8-1.9-1.9-1.9c-0.2,0-0.3,0-0.5,0C2629.9,1507.5,2629.1,1508.3,2629.1,1509.3z"/>
							
								<linearGradient id="SVGID_64_" gradientUnits="userSpaceOnUse" x1="-1461.2134" y1="2175.8962" x2="-1480.9973" y2="2165.1863" gradientTransform="matrix(1 0 0 -1 4101.6001 3710)">
								<stop  offset="0" style="stop-color:#AB316D"/>
								<stop  offset="1" style="stop-color:#792D3D"/>
							</linearGradient>
							<path class="st82" d="M2622,1509.4c0.2,22.3,0.4,44.7,0.6,67c0,1,0.8,1.8,1.9,1.8l0,0c1,0,1.9-0.8,1.9-1.8
								c0-22.3-0.1-44.7-0.1-67c0-1-0.8-1.8-1.9-1.8c-0.2,0-0.3,0-0.5,0C2622.9,1507.5,2622,1508.3,2622,1509.4z"/>
							
								<linearGradient id="SVGID_65_" gradientUnits="userSpaceOnUse" x1="-1468.1882" y1="2175.7278" x2="-1487.6019" y2="2165.218" gradientTransform="matrix(1 0 0 -1 4101.6001 3710)">
								<stop  offset="0" style="stop-color:#AB316D"/>
								<stop  offset="1" style="stop-color:#792D3D"/>
							</linearGradient>
							<path class="st83" d="M2615,1509.4c0.5,22.3,0.9,44.6,1.4,66.9c0,1,0.8,1.8,1.9,1.8l0,0c1.1,0,1.9-0.8,1.9-1.9
								c-0.3-22.3-0.6-44.6-0.9-66.9c0-1-0.9-1.8-1.9-1.8c-0.2,0-0.3,0-0.5,0C2615.8,1507.6,2615,1508.4,2615,1509.4z"/>
							
								<linearGradient id="SVGID_66_" gradientUnits="userSpaceOnUse" x1="-1475.214" y1="2175.5715" x2="-1494.2534" y2="2165.2644" gradientTransform="matrix(1 0 0 -1 4101.6001 3710)">
								<stop  offset="0" style="stop-color:#AB316D"/>
								<stop  offset="1" style="stop-color:#792D3D"/>
							</linearGradient>
							<path class="st84" d="M2608,1509.5c0.7,22.2,1.4,44.5,2.1,66.7c0,1,0.8,1.8,1.8,1.8l0,0c1.1,0,1.9-0.8,1.9-1.9
								c-0.6-22.2-1.1-44.5-1.7-66.7c0-1-0.9-1.8-1.9-1.8c-0.2,0-0.3,0-0.5,0C2608.8,1507.7,2608,1508.5,2608,1509.5z"/>
							
								<linearGradient id="SVGID_67_" gradientUnits="userSpaceOnUse" x1="-1482.2236" y1="2175.3052" x2="-1500.8854" y2="2165.2026" gradientTransform="matrix(1 0 0 -1 4101.6001 3710)">
								<stop  offset="0" style="stop-color:#AB316D"/>
								<stop  offset="1" style="stop-color:#792D3D"/>
							</linearGradient>
							<path class="st85" d="M2601,1509.7c1,22.1,1.9,44.3,2.9,66.4c0,1,0.8,1.7,1.8,1.8l0,0c1.1,0,2-0.8,1.9-1.9
								c-0.8-22.1-1.6-44.3-2.4-66.4c0-1-0.9-1.8-1.9-1.8c-0.2,0-0.3,0-0.5,0C2601.8,1507.8,2601,1508.7,2601,1509.7z"/>
							
								<linearGradient id="SVGID_68_" gradientUnits="userSpaceOnUse" x1="-1489.3064" y1="2175.092" x2="-1507.5864" y2="2165.1963" gradientTransform="matrix(1 0 0 -1 4101.6001 3710)">
								<stop  offset="0" style="stop-color:#AB316D"/>
								<stop  offset="1" style="stop-color:#792D3D"/>
							</linearGradient>
							<path class="st86" d="M2594,1510c1.2,22,2.4,44,3.6,65.9c0.1,0.9,0.8,1.7,1.8,1.7l0,0c1.1,0,2-0.8,2-1.9
								c-1-22-2.1-44-3.1-65.9c0-1-0.9-1.8-1.9-1.8c-0.2,0-0.3,0-0.5,0C2594.8,1508.1,2593.9,1508.9,2594,1510z"/>
							
								<linearGradient id="SVGID_69_" gradientUnits="userSpaceOnUse" x1="-1496.3864" y1="2174.7896" x2="-1514.2802" y2="2165.1025" gradientTransform="matrix(1 0 0 -1 4101.6001 3710)">
								<stop  offset="0" style="stop-color:#AB316D"/>
								<stop  offset="1" style="stop-color:#792D3D"/>
							</linearGradient>
							<path class="st87" d="M2587,1510.3c1.4,21.8,2.9,43.5,4.3,65.3c0.1,0.9,0.8,1.7,1.8,1.7c0,0,0,0,0.1,0c1.1,0.1,2.1-0.8,2-1.9
								c-1.3-21.8-2.6-43.6-3.8-65.3c-0.1-1-0.9-1.8-2-1.7c-0.2,0-0.3,0-0.5,0C2587.7,1508.4,2586.9,1509.3,2587,1510.3z"/>
							
								<linearGradient id="SVGID_70_" gradientUnits="userSpaceOnUse" x1="-1503.537" y1="2174.5247" x2="-1521.0387" y2="2165.05" gradientTransform="matrix(1 0 0 -1 4101.6001 3710)">
								<stop  offset="0" style="stop-color:#AB316D"/>
								<stop  offset="1" style="stop-color:#792D3D"/>
							</linearGradient>
							<path class="st88" d="M2580,1510.8c1.7,21.5,3.3,42.9,5,64.4c0.1,0.9,0.8,1.6,1.7,1.7c0,0,0,0,0.1,0c1.1,0.1,2.1-0.8,2-2
								c-1.5-21.5-3-43-4.5-64.4c-0.1-1-1-1.8-2-1.7c-0.2,0-0.3,0-0.5,0C2580.7,1508.9,2579.9,1509.8,2580,1510.8z"/>
						</g>
					</g>
					<path class="st49" d="M2624.5,1578.2L2624.5,1578.2c0.6,0,1.1-0.2,1.4-0.6c1.1,0,2.3,0,3.4,0c0.3,0.4,0.8,0.6,1.4,0.6l0,0
						c0.6,0,1-0.2,1.4-0.6c1.1,0,2.3,0,3.4,0c0.3,0.4,0.8,0.6,1.4,0.6l0,0c0.3,0,0.5-0.1,0.8-0.2c5.2-16.5,3.7-28.3,0-36.8
						c-6.2-14.2-20-22.5-29.3-32.9c-0.1,0.1-0.2,0.2-0.2,0.3c-1.1,0-2.2,0-3.3,0.1c-0.3-0.5-1-0.9-1.6-0.9c-0.2,0-0.3,0-0.5,0
						c-0.7,0-1.3,0.4-1.6,1c-1.1,0-2.2,0.1-3.3,0.1c-0.3-0.5-1-0.9-1.6-0.8c-0.2,0-0.3,0-0.5,0c-0.7,0-1.3,0.4-1.6,1
						c-1.1,0-2.2,0.1-3.3,0.1c-0.4-0.5-1-0.9-1.7-0.8c-0.2,0-0.3,0-0.5,0c-0.7,0-1.3,0.4-1.6,1c-1.2,0.1-2.3,0.1-3.3,0.2
						c-0.4-0.5-1-0.8-1.7-0.8c-0.2,0-0.3,0-0.5,0c-0.7,0.1-1.2,0.5-1.5,1c-0.3,0-0.7,0.1-1,0.1c-0.6,0.1-1,0.6-1,1.2l5.8,64.1
						c0,0.5,0.5,0.9,1,1c0.1,0,0.2,0,0.3,0c0.3,0.4,0.8,0.6,1.3,0.7c0,0,0,0,0.1,0c0.5,0,1-0.1,1.4-0.5c1.1,0.1,2.3,0.2,3.6,0.2
						c0.3,0.4,0.8,0.6,1.3,0.7c0,0,0,0,0.1,0c0.6,0,1.1-0.2,1.4-0.5c1.1,0.1,2.3,0.1,3.5,0.2c0.3,0.4,0.8,0.6,1.4,0.7l0,0
						c0.6,0,1.1-0.2,1.4-0.5c1.1,0,2.3,0.1,3.5,0.1c0.3,0.4,0.8,0.6,1.4,0.6l0,0c0.6,0,1.1-0.2,1.4-0.6c1.1,0,2.3,0.1,3.5,0.1
						c0.3,0.4,0.8,0.6,1.4,0.6l0,0c0.6,0,1.1-0.2,1.4-0.6c1.1,0,2.3,0,3.4,0.1c0.3,0.4,0.8,0.6,1.4,0.6l0,0c0.6,0,1.1-0.2,1.4-0.6
						c1.1,0,2.3,0,3.4,0C2623.5,1577.9,2624,1578.2,2624.5,1578.2z"/>
				</g>
				
					<linearGradient id="SVGID_71_" gradientUnits="userSpaceOnUse" x1="3701.8196" y1="2196.6196" x2="3747.1157" y2="2058.3682" gradientTransform="matrix(-1 0 0 -1 6313.6963 3710)">
					<stop  offset="0" style="stop-color:#FFC444"/>
					<stop  offset="0.9964" style="stop-color:#F36F56"/>
				</linearGradient>
				<path class="st89" d="M2550.2,1576.6c0,0,14.2-42.6,39.1-49.7c24.9-7.1,49.8-3.6,55.1,3.6c5.3,7.1-6.7,19.5-30.9,27.5
					s-31.3,36.4-49,40C2546.7,1601.4,2550.2,1576.6,2550.2,1576.6z"/>
			</g>
		</g>
	</g>
</g>
</svg>
