<?xml version="1.0" encoding="utf-8"?>
<!-- Generator: Adobe Illustrator 23.0.5, SVG Export Plug-In . SVG Version: 6.00 Build 0)  -->
<svg version="1.1" id="communication" xmlns="http://www.w3.org/2000/svg" xmlns:xlink="http://www.w3.org/1999/xlink" x="0px"
	 y="0px" viewBox="0 0 500 500" style="enable-background:new 0 0 500 500;" xml:space="preserve">
<style type="text/css">
	.st0{display:none;}
	.st1{display:inline;fill:#F5F5F5;}
	.st2{fill:#E0E0E0;}
	.st3{fill:#1DA1F2;}
	.st4{opacity:0.3;enable-background:new    ;}
	.st5{opacity:0.1;}
	.st6{fill:#DFDFDF;}
	.st7{opacity:0.1;enable-background:new    ;}
	.st8{opacity:0.3;fill:#FFFFFF;enable-background:new    ;}
	.st9{opacity:0.55;}
	.st10{fill:#00437D;}
	.st11{opacity:0.7;fill:#337AB7;enable-background:new    ;}
	.st12{opacity:0.55;fill:#337AB7;enable-background:new    ;}
	.st13{opacity:0.85;fill:#1DA1F2;enable-background:new    ;}
	.st14{fill:#09182F;}
	.st15{fill:#313A3F;}
	.st16{opacity:0.35;}
	.st17{fill:#F1B287;}
	.st18{fill:#F28F8F;}
	.st19{opacity:0.2;}
	.st20{opacity:0.35;enable-background:new    ;}
	.st21{opacity:0.5;enable-background:new    ;}
	.st22{fill:#D09A76;}
	.st23{opacity:0.6;fill:#263238;enable-background:new    ;}
	.st24{opacity:0.6;}
	.st25{fill:#9A4A4D;}
	.st26{opacity:0.2;enable-background:new    ;}
</style>
<g id="Floor" class="st0">
	<path id="Floor_3_" class="st1" d="M421.3,250.3c91,52.5,91,137.7,0,190.3s-238.5,52.5-329.5,0s-91-137.7,0-190.3
		C182.7,197.8,330.3,197.8,421.3,250.3z"/>
</g>
<g id="Shadows">
	<path id="Shadow_19_" class="st2" d="M218.9,284.3c-19.8-11.4-19.8-29.9,0-41.3c19.8-11.4,51.8-11.4,71.6,0
		c19.8,11.4,19.8,29.9,0,41.3C270.7,295.7,238.6,295.7,218.9,284.3z"/>
	<path id="Shadow_7_" class="st2" d="M334.4,428.7c-23.6-14.3-23.6-37.6,0-51.9s61.8-14.3,85.4,0s23.6,37.6,0,51.9
		C396.2,443.1,358,443.1,334.4,428.7z"/>
	<path id="Shadow_13_" class="st2" d="M68.9,398.9c-21.5-12.4-21.5-32.6,0-45s56.4-12.4,78,0c21.5,12.4,21.5,32.6,0,45
		S90.5,411.3,68.9,398.9z"/>
</g>
<g id="Papel_planes">
	<g id="Paper_planes">
		<g>
			<g id="XMLID_558_">
				<polygon id="XMLID_640_" class="st3" points="364.3,154.5 348.2,137.9 339.2,138.6 				"/>
				<polygon id="XMLID_564_" class="st3" points="364.3,154.5 351.1,136.9 355.8,133.6 				"/>
				<polygon id="XMLID_560_" class="st3" points="351.1,136.9 350.4,140.1 364.3,154.5 				"/>
				<polygon id="XMLID_559_" class="st4" points="351.1,136.9 350.4,140.1 364.3,154.5 				"/>
			</g>
		</g>
		<g>
			<g id="XMLID_662_">
				<polygon id="XMLID_676_" class="st3" points="135,181.3 154.3,163.5 164.4,164.9 				"/>
				<polygon id="XMLID_675_" class="st3" points="135,181.3 151,162.3 146,158.2 				"/>
				<polygon id="XMLID_664_" class="st3" points="151,162.3 151.7,165.9 135,181.3 				"/>
				<polygon id="XMLID_663_" class="st4" points="151,162.3 151.7,165.9 135,181.3 				"/>
			</g>
		</g>
		<g>
			<g id="XMLID_642_">
				<polygon id="XMLID_648_" class="st3" points="317.5,243.1 338,230 347.1,232.9 				"/>
				<polygon id="XMLID_645_" class="st3" points="317.5,243.1 335.2,228.3 331.3,223.8 				"/>
				<polygon id="XMLID_644_" class="st3" points="335.2,228.3 335.2,231.8 317.5,243.1 				"/>
				<polygon id="XMLID_643_" class="st4" points="335.2,228.3 335.2,231.8 317.5,243.1 				"/>
			</g>
		</g>
		<g>
			<g id="XMLID_649_">
				<polygon id="XMLID_661_" class="st3" points="185.9,296.7 162,281.4 151.5,284.8 				"/>
				<polygon id="XMLID_660_" class="st3" points="185.9,296.7 165.2,279.5 169.8,274.2 				"/>
				<polygon id="XMLID_651_" class="st3" points="165.2,279.5 165.2,283.5 185.9,296.7 				"/>
				<polygon id="XMLID_650_" class="st4" points="165.2,279.5 165.2,283.5 185.9,296.7 				"/>
			</g>
		</g>
		<g>
			<g>
				<path class="st2" d="M131.5,239.1c-0.2,0-0.4-0.1-0.5-0.4c-0.1-0.5-0.2-0.9-0.3-1.4c0-0.3,0.1-0.5,0.4-0.5
					c0.2,0,0.5,0.1,0.5,0.4c0.1,0.5,0.2,0.9,0.3,1.4C132,238.8,131.8,239,131.5,239.1C131.6,239.1,131.5,239.1,131.5,239.1z"/>
			</g>
			<g>
				<path class="st2" d="M155.9,276.3c-0.1,0-0.2,0-0.3-0.1c-0.8-0.5-1.6-1.1-2.3-1.7c-0.2-0.2-0.2-0.4-0.1-0.6
					c0.2-0.2,0.4-0.2,0.6-0.1c0.7,0.6,1.5,1.1,2.3,1.6c0.2,0.1,0.3,0.4,0.1,0.6C156.2,276.2,156,276.3,155.9,276.3z M151.4,272.8
					c-0.1,0-0.2,0-0.3-0.1c-0.7-0.6-1.4-1.3-2.1-1.9c-0.2-0.2-0.2-0.5,0-0.7s0.5-0.2,0.7,0c0.7,0.7,1.4,1.3,2.1,1.9
					c0.2,0.2,0.2,0.5,0.1,0.7C151.6,272.8,151.5,272.8,151.4,272.8z M147.2,268.9c-0.1,0-0.2,0-0.3-0.1c-0.6-0.7-1.3-1.4-1.9-2.1
					c-0.2-0.2-0.1-0.5,0-0.7c0.2-0.2,0.5-0.1,0.7,0c0.6,0.7,1.3,1.4,1.9,2.1c0.2,0.2,0.2,0.5,0,0.7
					C147.5,268.9,147.3,268.9,147.2,268.9z M143.5,264.6c-0.1,0-0.3-0.1-0.4-0.2c-0.6-0.7-1.2-1.5-1.7-2.3c-0.1-0.2-0.1-0.5,0.1-0.6
					c0.2-0.1,0.5-0.1,0.6,0.1c0.6,0.8,1.1,1.5,1.7,2.3c0.2,0.2,0.1,0.5-0.1,0.7C143.7,264.6,143.6,264.6,143.5,264.6z M140.2,260
					c-0.2,0-0.3-0.1-0.4-0.2c-0.5-0.8-1-1.6-1.5-2.4c-0.1-0.2-0.1-0.5,0.2-0.6c0.2-0.1,0.5-0.1,0.6,0.2c0.5,0.8,1,1.6,1.5,2.4
					c0.1,0.2,0.1,0.5-0.1,0.6C140.3,260,140.3,260,140.2,260z M137.3,255.1c-0.2,0-0.3-0.1-0.4-0.2c-0.4-0.8-0.9-1.7-1.3-2.6
					c-0.1-0.2,0-0.5,0.2-0.6s0.5,0,0.6,0.2c0.4,0.8,0.8,1.7,1.3,2.5c0.1,0.2,0,0.5-0.2,0.6C137.4,255.1,137.4,255.1,137.3,255.1z
					 M134.9,249.9c-0.2,0-0.4-0.1-0.4-0.3c-0.4-0.9-0.7-1.8-1-2.7c-0.1-0.2,0-0.5,0.3-0.6c0.2-0.1,0.5,0,0.6,0.3
					c0.3,0.9,0.7,1.8,1,2.6c0.1,0.2,0,0.5-0.2,0.6C135,249.9,134.9,249.9,134.9,249.9z M132.9,244.6c-0.2,0-0.4-0.1-0.4-0.3
					c-0.3-0.9-0.5-1.8-0.8-2.8c-0.1-0.2,0.1-0.5,0.3-0.6c0.3-0.1,0.5,0.1,0.6,0.3c0.2,0.9,0.5,1.8,0.8,2.7c0.1,0.2-0.1,0.5-0.3,0.6
					C133,244.6,133,244.6,132.9,244.6z"/>
			</g>
			<g>
				<path class="st2" d="M159.5,278.5c-0.1,0-0.1,0-0.2-0.1c-0.4-0.2-0.8-0.4-1.2-0.7c-0.2-0.1-0.3-0.4-0.2-0.6s0.4-0.3,0.6-0.2
					c0.4,0.2,0.8,0.5,1.2,0.7c0.2,0.1,0.3,0.4,0.2,0.6S159.7,278.5,159.5,278.5z"/>
			</g>
		</g>
		<g>
			<g>
				<path class="st2" d="M199.6,144.8c-0.2,0-0.4-0.2-0.5-0.4c0-0.3,0.2-0.5,0.4-0.5c0.5,0,0.9-0.1,1.4-0.1c0.2,0,0.5,0.2,0.5,0.4
					c0,0.3-0.2,0.5-0.4,0.5C200.6,144.7,200.1,144.7,199.6,144.8L199.6,144.8z"/>
			</g>
			<g>
				<path class="st2" d="M159.3,158.8c-0.1,0-0.3-0.1-0.4-0.2c-0.1-0.2-0.1-0.5,0.1-0.6c0.7-0.5,1.5-1,2.3-1.5
					c0.2-0.1,0.5-0.1,0.6,0.1c0.1,0.2,0.1,0.5-0.1,0.6c-0.8,0.5-1.5,1-2.2,1.5C159.5,158.8,159.4,158.8,159.3,158.8z M163.8,155.9
					c-0.2,0-0.3-0.1-0.4-0.2c-0.1-0.2-0.1-0.5,0.2-0.6c0.8-0.5,1.6-0.9,2.4-1.4c0.2-0.1,0.5,0,0.6,0.2s0,0.5-0.2,0.6
					c-0.8,0.4-1.6,0.9-2.3,1.3C164,155.9,163.9,155.9,163.8,155.9z M168.6,153.3c-0.2,0-0.3-0.1-0.4-0.3c-0.1-0.2,0-0.5,0.2-0.6
					c0.8-0.4,1.6-0.8,2.4-1.2c0.2-0.1,0.5,0,0.6,0.2s0,0.5-0.2,0.6c-0.8,0.4-1.6,0.8-2.4,1.2C168.7,153.3,168.6,153.3,168.6,153.3z
					 M173.5,151c-0.2,0-0.4-0.1-0.4-0.3c-0.1-0.2,0-0.5,0.2-0.6c0.8-0.4,1.7-0.7,2.5-1c0.2-0.1,0.5,0,0.6,0.3c0.1,0.2,0,0.5-0.3,0.6
					c-0.8,0.3-1.7,0.7-2.5,1H173.5z M178.5,149.1c-0.2,0-0.4-0.1-0.4-0.3c-0.1-0.2,0-0.5,0.3-0.6c0.9-0.3,1.7-0.6,2.6-0.8
					c0.2-0.1,0.5,0.1,0.6,0.3s-0.1,0.5-0.3,0.6c-0.9,0.3-1.7,0.5-2.6,0.8C178.6,149.1,178.6,149.1,178.5,149.1z M183.7,147.5
					c-0.2,0-0.4-0.1-0.4-0.3c-0.1-0.2,0.1-0.5,0.3-0.6c0.9-0.2,1.7-0.5,2.6-0.7c0.3-0.1,0.5,0.1,0.6,0.3s-0.1,0.5-0.3,0.6
					c-0.9,0.2-1.7,0.4-2.6,0.7C183.7,147.5,183.7,147.5,183.7,147.5z M188.9,146.2c-0.2,0-0.4-0.2-0.5-0.4c-0.1-0.3,0.1-0.5,0.4-0.5
					c0.9-0.2,1.8-0.3,2.7-0.5c0.3,0,0.5,0.1,0.5,0.4c0,0.3-0.1,0.5-0.4,0.5C190.8,145.9,189.9,146,188.9,146.2
					C189,146.2,188.9,146.2,188.9,146.2z M194.2,145.3c-0.2,0-0.4-0.2-0.5-0.4c0-0.3,0.1-0.5,0.4-0.5c0.9-0.1,1.8-0.2,2.7-0.3
					c0.2,0,0.5,0.2,0.5,0.4c0,0.3-0.2,0.5-0.4,0.5C196.1,145.1,195.2,145.2,194.2,145.3C194.3,145.3,194.3,145.3,194.2,145.3z"/>
			</g>
			<g>
				<path class="st2" d="M156,161.3c-0.1,0-0.3-0.1-0.4-0.2c-0.2-0.2-0.1-0.5,0.1-0.7c0.4-0.3,0.7-0.6,1.1-0.9
					c0.2-0.2,0.5-0.1,0.6,0.1c0.2,0.2,0.1,0.5-0.1,0.6c-0.4,0.3-0.7,0.6-1.1,0.8C156.2,161.2,156.1,161.3,156,161.3z"/>
			</g>
		</g>
		<g>
			<path class="st2" d="M340.8,225.6c-0.1,0-0.3-0.1-0.4-0.2c-0.2-0.2-0.1-0.5,0.1-0.6l0.7-0.5c0.2-0.2,0.5-0.1,0.6,0.1
				c0.2,0.2,0.1,0.5-0.1,0.6l-0.7,0.5C341,225.6,340.9,225.6,340.8,225.6z M343.7,223.4c-0.1,0-0.3-0.1-0.4-0.2
				c-0.2-0.2-0.1-0.5,0.1-0.7c0.7-0.6,1.4-1.2,2.1-1.8c0.2-0.2,0.5-0.1,0.7,0.1c0.2,0.2,0.1,0.5-0.1,0.7c-0.7,0.6-1.4,1.2-2.2,1.8
				C343.9,223.4,343.8,223.4,343.7,223.4z M347.9,219.8c-0.1,0-0.3-0.1-0.3-0.2c-0.2-0.2-0.2-0.5,0-0.7c0.7-0.6,1.4-1.2,2-1.9
				c0.2-0.2,0.5-0.2,0.7,0s0.2,0.5,0,0.7c-0.7,0.6-1.4,1.3-2,1.9C348.2,219.8,348,219.8,347.9,219.8z M351.9,216
				c-0.1,0-0.2,0-0.3-0.1c-0.2-0.2-0.2-0.5,0-0.7c0.6-0.7,1.3-1.3,1.9-2c0.2-0.2,0.5-0.2,0.7,0s0.2,0.5,0,0.7
				c-0.6,0.7-1.3,1.4-1.9,2C352.2,215.9,352.1,216,351.9,216z M355.7,211.8c-0.1,0-0.2,0-0.3-0.1c-0.2-0.2-0.2-0.5-0.1-0.7
				c0.6-0.7,1.2-1.4,1.7-2.1c0.2-0.2,0.4-0.2,0.6-0.1c0.2,0.2,0.2,0.4,0.1,0.6c-0.6,0.7-1.2,1.5-1.8,2.2
				C355.9,211.8,355.8,211.8,355.7,211.8z M359.1,207.5c-0.1,0-0.2,0-0.3-0.1c-0.2-0.1-0.3-0.4-0.1-0.6c0.5-0.7,1.1-1.5,1.6-2.3
				c0.1-0.2,0.4-0.3,0.6-0.1c0.2,0.1,0.3,0.4,0.1,0.6c-0.5,0.8-1,1.5-1.6,2.3C359.4,207.4,359.2,207.5,359.1,207.5z M362.1,202.8
				c-0.1,0-0.2,0-0.2-0.1c-0.2-0.1-0.3-0.4-0.2-0.6c0.5-0.8,0.9-1.6,1.4-2.4c0.1-0.2,0.4-0.3,0.6-0.2s0.3,0.4,0.2,0.6
				c-0.4,0.8-0.9,1.6-1.4,2.4C362.5,202.7,362.3,202.8,362.1,202.8z M364.8,197.9c-0.1,0-0.1,0-0.2,0c-0.2-0.1-0.3-0.4-0.2-0.6
				c0.4-0.8,0.8-1.7,1.1-2.5c0.1-0.2,0.4-0.3,0.6-0.2s0.3,0.4,0.2,0.6c-0.4,0.9-0.8,1.7-1.2,2.6C365.1,197.8,365,197.9,364.8,197.9z
				 M367,192.8c-0.1,0-0.1,0-0.2,0c-0.2-0.1-0.4-0.4-0.3-0.6c0.3-0.9,0.6-1.7,0.9-2.6c0.1-0.2,0.3-0.4,0.6-0.3
				c0.2,0.1,0.4,0.3,0.3,0.6c-0.3,0.9-0.6,1.8-0.9,2.7C367.3,192.7,367.2,192.8,367,192.8z M368.6,187.5h-0.1
				c-0.2-0.1-0.4-0.3-0.3-0.6c0.2-0.9,0.4-1.8,0.6-2.7c0.1-0.3,0.3-0.4,0.5-0.4c0.3,0.1,0.4,0.3,0.4,0.5c-0.2,0.9-0.4,1.8-0.6,2.7
				C369,187.4,368.8,187.5,368.6,187.5z M369.7,182.1L369.7,182.1c-0.3,0-0.5-0.3-0.5-0.5c0.1-0.9,0.2-1.8,0.3-2.7
				c0-0.3,0.3-0.4,0.5-0.4c0.3,0,0.4,0.2,0.4,0.5c-0.1,0.9-0.2,1.9-0.3,2.8C370.1,181.9,369.9,182.1,369.7,182.1z M370.2,176.5
				L370.2,176.5c-0.3,0-0.5-0.2-0.5-0.5c0-0.7,0-1.4,0-2.1v-0.6c0-0.3,0.2-0.5,0.5-0.5l0,0c0.3,0,0.5,0.2,0.5,0.5v0.6
				c0,0.7,0,1.5,0,2.2C370.7,176.3,370.5,176.5,370.2,176.5z M370.2,171c-0.2,0-0.4-0.2-0.5-0.4c-0.1-0.9-0.1-1.8-0.2-2.7
				c0-0.3,0.2-0.5,0.4-0.5c0.2,0,0.5,0.2,0.5,0.4c0.1,0.9,0.2,1.9,0.2,2.8C370.6,170.8,370.5,171,370.2,171L370.2,171z M369.5,165.5
				c-0.2,0-0.4-0.2-0.5-0.4c-0.1-0.9-0.3-1.8-0.5-2.7c-0.1-0.3,0.1-0.5,0.4-0.5c0.3-0.1,0.5,0.1,0.5,0.4c0.2,0.9,0.4,1.8,0.5,2.8
				C370,165.2,369.9,165.4,369.5,165.5C369.6,165.5,369.6,165.5,369.5,165.5z"/>
		</g>
		<g>
			<path class="st2" d="M342.2,132.2c-0.1,0-0.2,0-0.2-0.1c-0.8-0.5-1.6-1-2.4-1.4c-0.2-0.1-0.3-0.4-0.2-0.6
				c0.1-0.2,0.4-0.3,0.6-0.2c0.8,0.5,1.6,0.9,2.4,1.4c0.2,0.1,0.3,0.4,0.1,0.6C342.5,132.1,342.4,132.2,342.2,132.2z M337.4,129.4
				c-0.1,0-0.1,0-0.2-0.1c-0.8-0.4-1.6-0.8-2.5-1.2c-0.2-0.1-0.3-0.4-0.2-0.6c0.1-0.2,0.4-0.3,0.6-0.2c0.8,0.4,1.7,0.8,2.5,1.2
				c0.2,0.1,0.3,0.4,0.2,0.6C337.7,129.3,337.6,129.4,337.4,129.4z M332.4,127c-0.1,0-0.1,0-0.2,0c-0.8-0.4-1.7-0.7-2.6-1
				c-0.2-0.1-0.4-0.4-0.3-0.6s0.4-0.4,0.6-0.3c0.9,0.3,1.7,0.7,2.6,1c0.2,0.1,0.3,0.4,0.2,0.6C332.7,126.9,332.5,127,332.4,127z
				 M327.2,125.1h-0.1c-0.9-0.3-1.8-0.6-2.6-0.8c-0.2-0.1-0.4-0.3-0.3-0.6c0.1-0.2,0.3-0.4,0.6-0.3c0.9,0.3,1.8,0.5,2.7,0.8
				c0.2,0.1,0.4,0.3,0.3,0.6C327.5,124.9,327.4,125.1,327.2,125.1z M321.8,123.5h-0.1c-0.9-0.2-1.8-0.4-2.7-0.6
				c-0.2-0.1-0.4-0.3-0.4-0.6c0.1-0.2,0.3-0.4,0.6-0.4c0.9,0.2,1.8,0.4,2.7,0.6c0.2,0.1,0.4,0.3,0.3,0.6
				C322.2,123.4,322,123.5,321.8,123.5z M316.4,122.3L316.4,122.3c-1-0.2-1.9-0.3-2.8-0.4c-0.3,0-0.4-0.3-0.4-0.5
				c0-0.3,0.3-0.4,0.5-0.4c0.9,0.1,1.8,0.3,2.8,0.4c0.3,0,0.4,0.3,0.4,0.5C316.8,122.2,316.6,122.3,316.4,122.3z M310.9,121.5
				L310.9,121.5c-1-0.1-1.9-0.2-2.8-0.2c-0.3,0-0.4-0.2-0.4-0.5s0.2-0.5,0.5-0.4c0.9,0.1,1.9,0.1,2.8,0.2c0.3,0,0.4,0.3,0.4,0.5
				C311.4,121.4,311.2,121.5,310.9,121.5z"/>
		</g>
	</g>
</g>
<g id="Speech_Bubbles">
	<g id="Speach_Bubble_2_">
		<g id="XMLID_43_">
			<g id="XMLID_68_">
				<g id="XMLID_72_">
					<path id="XMLID_73_" class="st3" d="M384,142.1l7.9-4.5c0.2-0.1,0.3-0.2,0.4-0.3l1.4-2.5L389,132l0.1,0.4L384,142.1z"/>
				</g>
				<g id="XMLID_70_" class="st5">
					<path id="XMLID_71_" d="M384,142.1l7.9-4.5c0.2-0.1,0.3-0.2,0.4-0.3l1.4-2.5L389,132l0.1,0.4L384,142.1z"/>
				</g>
				<path id="XMLID_69_" class="st3" d="M389.7,132.4l-5.4,9.4c-0.3,0.6-1.2,0.5-1.5-0.1l-5.7-16.6L389.7,132.4z"/>
			</g>
			<path id="XMLID_67_" class="st3" d="M333.8,65c0-2.4,1.7-5.4,3.8-6.6l0,0c2.1-1.2,5.5-1.2,7.6,0l61.5,35.5
				c2.1,1.2,3.8,4.2,3.8,6.6v31.2c0,2.4-1.7,5.4-3.8,6.6l0,0c-2.1,1.2-5.5,1.2-7.6,0l-61.9-35.7c-3.4-1.9-3.4-3.9-3.4-6.3V65z"/>
			<g id="XMLID_61_">
				<g id="XMLID_64_">
					<path id="XMLID_66_" class="st6" d="M390.1,110.8l-43.9-25.5c-1.3-0.7-2.3-0.4-2.3,0.7s1,2.7,2.3,3.4l43.9,25.5
						c1.3,0.7,2.3,0.4,2.3-0.7C392.4,113,391.4,111.5,390.1,110.8z"/>
					<path id="XMLID_65_" class="st6" d="M376.8,111.9l-30.6-17.8c-1.3-0.7-2.3-0.4-2.3,0.7s1,2.7,2.3,3.4l30.6,17.8
						c1.3,0.7,2.3,0.4,2.3-0.7C379.1,114.2,378,112.7,376.8,111.9z"/>
				</g>
				<g id="XMLID_62_">
					<path id="XMLID_63_" class="st6" d="M390.1,101.8l-43.9-25.5c-1.3-0.7-2.3-0.4-2.3,0.7s1,2.7,2.3,3.4l43.9,25.5
						c1.3,0.7,2.3,0.4,2.3-0.7C392.4,104,391.4,102.5,390.1,101.8z"/>
				</g>
			</g>
			<path id="XMLID_60_" class="st7" d="M410.5,131.6c0,2.4-1.7,5.4-3.8,6.6l0,0c-1.9,1.1-4.8,1.2-6.9,0.3c1.8,0.7,3.1-0.3,3.1-2.5
				v-31.2c0-1.2-0.4-2.6-1.1-3.7l7.6-4.4c0.7,1.2,1.1,2.5,1.1,3.7L410.5,131.6L410.5,131.6z"/>
			<path id="XMLID_59_" class="st8" d="M333.9,63.9c0.4-1.6,1.9-2.1,3.7-1.1l61.5,35.5c1,0.6,2,1.6,2.7,2.8l7.6-4.4
				c-0.7-1.2-1.6-2.2-2.7-2.8l-61.5-35.5c-2.1-1.2-5.5-1.2-7.6,0l0,0C335.8,59.4,334.3,61.7,333.9,63.9z"/>
		</g>
	</g>
	<g id="Speach_Bubble_1_">
		<g id="XMLID_49_">
			<g id="XMLID_57_">
				<path id="XMLID_58_" class="st3" d="M100.3,118.2l-7.5-4.3c-0.1-0.1-0.3-0.2-0.4-0.3l-1.4-2.4l4.5-2.6l-0.1,0.4L100.3,118.2z"/>
			</g>
			<g id="XMLID_55_" class="st9">
				<path id="XMLID_56_" class="st10" d="M100.3,118.2l-7.5-4.3c-0.1-0.1-0.3-0.2-0.4-0.3l-1.4-2.4l4.5-2.6l-0.1,0.4L100.3,118.2z"
					/>
			</g>
			<path id="XMLID_54_" class="st3" d="M94.8,109l5.2,9c0.3,0.6,1.2,0.5,1.4-0.1l5.5-15.9L94.8,109z"/>
			<path id="XMLID_53_" class="st11" d="M94.8,109l5.2,9c0.3,0.6,1.2,0.5,1.4-0.1l5.5-15.9L94.8,109z"/>
			<path id="XMLID_52_" class="st3" d="M114.6,63.7c0-2.3-1.6-5.1-3.6-6.3l0,0c-2-1.2-5.3-1.2-7.3,0L44.8,91.3c-2,1.2-3.6,4-3.6,6.3
				v29.8c0,2.3,1.6,5.1,3.6,6.3l0,0c2,1.2,5.3,1.2,7.3,0l59.2-34.2c3.3-1.9,3.3-3.7,3.3-6L114.6,63.7z"/>
			<path class="st11" d="M114.6,63.7v29.8c0,2.3,0,4.2-3.3,6l-59.2,34.2c-0.2,0.1-0.4,0.2-0.6,0.3h-0.1h-0.1c-0.1,0-0.1,0-0.1,0.1
				c0,0,0,0,0.1,0c-1.6,0.5-2.7-0.5-2.7-2.5v-29.8c0-1.2,0.4-2.4,1.1-3.6l0,0c0.6-1.2,1.6-2.1,2.6-2.7l58.8-33.9
				c1.7-1,3.1-0.5,3.5,1.1c-0.1-0.6-0.3-1.2-0.5-1.7C114.3,61.8,114.6,62.8,114.6,63.7z"/>
			<path id="XMLID_51_" class="st12" d="M41.2,127.4c0,2.3,1.6,5.1,3.6,6.3l0,0c1.8,1,4.6,1.2,6.6,0.3c-1.7,0.6-3-0.3-3-2.4v-29.8
				c0-1.2,0.4-2.4,1.1-3.6L42.3,94c-0.7,1.1-1.1,2.4-1.1,3.6V127.4z"/>
			<path id="XMLID_50_" class="st13" d="M114.4,62.6c-0.4-1.5-1.8-2-3.5-1.1l-58.8,34c-1,0.6-1.9,1.6-2.6,2.7L42.3,94
				c0.7-1.2,1.6-2.1,2.6-2.7l58.8-33.9c2-1.2,5.3-1.2,7.3,0l0,0C112.6,58.4,114.1,60.6,114.4,62.6z"/>
		</g>
		<g id="XMLID_46_">
			<path id="XMLID_48_" class="st6" d="M58.2,108.9l42-24.4c1.2-0.7,2.2-0.4,2.2,0.7s-1,2.6-2.2,3.3l-42,24.4
				c-1.2,0.7-2.2,0.4-2.2-0.7C56,111.1,57,109.6,58.2,108.9z"/>
			<path id="XMLID_47_" class="st6" d="M58.2,117.5l29.3-17c1.2-0.7,2.2-0.4,2.2,0.7s-1,2.6-2.2,3.3l-29.3,17
				c-1.2,0.7-2.2,0.4-2.2-0.7C56,119.7,57,118.2,58.2,117.5z"/>
		</g>
		<g id="XMLID_44_">
			<path id="XMLID_45_" class="st6" d="M58.2,100.3l42-24.4c1.2-0.7,2.2-0.4,2.2,0.7s-1,2.6-2.2,3.3l-42,24.4
				c-1.2,0.7-2.2,0.4-2.2-0.7C56,102.5,57,101,58.2,100.3z"/>
		</g>
	</g>
	<g id="Speach_Bubble_10_">
		<g id="XMLID_543_">
			<path class="st6" d="M223.3,50c-0.1-0.1-0.3-0.1-0.5-0.1h-9.1l-3.8,2.2v13l3.8-2.2l3.3-3.8v10l3.8-2.2l9.9-11.4
				c0.4-0.5,0.3-1.2-0.3-1.5C230.1,53.9,223.8,50.3,223.3,50z"/>
			<path class="st14" d="M216.9,69.1l3.8-2.2l9.9-11.4c0.6-0.6,0.1-1.6-0.8-1.6h-9.1l-3.8,2.2L216.9,69.1L216.9,69.1z"/>
			<path id="XMLID_548_" class="st14" d="M220.7,46.2c0-2.1-1.5-4.7-3.3-5.8l0,0c-1.8-1.1-4.8-1.1-6.7,0l-54.2,31.3
				c-1.8,1.1-3.3,3.7-3.3,5.8V105c0,2.1,1.5,4.7,3.3,5.8l0,0c1.8,1.1,4.8,1.1,6.7,0l54.5-31.5c3-1.7,3-3.4,3-5.6V46.2z"/>
			<path id="XMLID_547_" class="st15" d="M153.1,105c0,2.1,1.5,4.7,3.3,5.8l0,0c1.7,1,4.3,1.1,6.1,0.3c-1.6,0.6-2.8-0.3-2.8-2.2
				V81.4c0-1.1,0.4-2.3,1-3.3l-6.7-3.9c-0.6,1-1,2.2-1,3.3L153.1,105L153.1,105z"/>
			<path id="XMLID_544_" class="st6" d="M220.6,45.3c-0.4-1.4-1.7-1.9-3.2-1l-54.2,31.3c-0.9,0.5-1.8,1.4-2.4,2.5l-6.7-3.9
				c0.6-1.1,1.4-2,2.4-2.5l54.2-31.3c1.9-1.1,4.9-1.1,6.7,0l0,0C218.9,41.3,220.2,43.4,220.6,45.3z"/>
		</g>
		<g>
			<g id="XMLID_509_">
				<path id="XMLID_518_" class="st3" d="M170.7,87l38.7-22.5c1.1-0.6,2-0.4,2,0.7s-0.9,2.4-2,3l-38.7,22.5c-1.1,0.6-2,0.4-2-0.7
					C168.7,89,169.6,87.7,170.7,87z"/>
				<path id="XMLID_515_" class="st3" d="M182.4,88.2l27-15.7c1.1-0.6,2-0.4,2,0.7c0,1-0.9,2.4-2,3l-27,15.7c-1.1,0.6-2,0.4-2-0.7
					C180.4,90.2,181.3,88.8,182.4,88.2z"/>
			</g>
			<g id="XMLID_507_">
				<path id="XMLID_508_" class="st3" d="M170.7,79.1l38.7-22.5c1.1-0.6,2-0.4,2,0.7c0,1-0.9,2.4-2,3l-38.7,22.5
					c-1.1,0.6-2,0.4-2-0.7S169.6,79.7,170.7,79.1z"/>
			</g>
		</g>
	</g>
</g>
<g id="Character_3">
	<g id="Character_1_">
		<g>
			<g id="Character_9_">
				<g id="XMLID_429_">
					<path id="XMLID_432_" class="st3" d="M398.1,197.7c5.2-1.1,11,1,14.9,9.3c3.8,7.9,14.6,31.1,14.9,36.6
						c0.3,5.8-23.2,23.7-22.6,23.4c0.2-0.1-5.3-11.1-5.3-11.1l11.9-14.9l-6.8-13.3L398.1,197.7z"/>
				</g>
			</g>
			<g id="Character_10_" class="st16">
				<g id="XMLID_359_">
					<path id="XMLID_360_" d="M398.1,197.7c5.2-1.1,11,1,14.9,9.3c3.8,7.9,14.6,31.1,14.9,36.6c0.3,5.8-23.2,23.7-22.6,23.4
						c0.2-0.1-5.3-11.1-5.3-11.1l11.9-14.9l-6.8-13.3L398.1,197.7z"/>
				</g>
			</g>
		</g>
		<g>
			<g id="XMLID_606_">
				<g id="XMLID_633_">
					<path id="XMLID_636_" class="st15" d="M407.1,384.7c0.7,0.3,1.1,1.5,1.4,4.7c0.2,2,0.9,4.5-2.1,6.1c-1.7,0.9-4.7,1.4-7-0.1
						c-2.6-1.6-3.9-4.6-6.9-6.9c-2.7-2.1-6-3.6-8.1-7.4c-2.3-3.9-1.8-6.3,2.6-6.3c7.1,0,9.2,3.9,12.8,4
						C401.7,378.9,406.4,384.5,407.1,384.7z"/>
				</g>
				<g id="XMLID_630_">
					<path id="XMLID_632_" class="st17" d="M407.1,383.2v3.2c0,1.6-6.6,3.9-8.5,0.3c-0.1-0.3-0.9-4.7-0.9-4.7L407.1,383.2z"/>
				</g>
				<g id="XMLID_624_">
					<path id="XMLID_627_" class="st15" d="M376.4,403.3c0,0,1.3,0,1.8,5.1c0.2,2,0.7,6,0,7.4s-4.3,2.1-8.3,2.5
						c-3,0.3-5.8,1.7-8.6,3.3c-2.6,1.5-5.8,2.4-8.7,2.4c-3.8,0-7.1-0.4-9.8-2.5c-1.5-1.2-3.3-3.6-1.9-5.4c0.5-0.7,1.3-0.8,2-1.1
						c1.7-0.6,3.4-1.2,5.2-1.8c2.6-0.8,5.2-1.7,7.6-2.9c3.6-1.8,7.6-3.7,10.3-6.8L376.4,403.3z"/>
				</g>
				<g id="XMLID_621_">
					<path id="XMLID_623_" class="st17" d="M376.4,400.6c0,0,0,2.4,0,3.7c0,1.3-1.6,3.4-5.7,3.2c-2.9-0.1-4.9-0.9-4.8-3.2v-3.4
						L376.4,400.6z"/>
				</g>
				<g id="XMLID_607_">
					<path id="XMLID_610_" class="st14" d="M408.9,341c-1.5-10.4-3.8-16.5-3.8-16.5s1.1-14.3,1.5-27.9c0.5-14.6-0.2-32.7-1.2-41.6
						c0,0-46.1-4.4-46.8,12.6c-0.8,16.9,0.3,60,0.9,67.4s1.2,14.4,2.8,28.2c1.4,11.9,3.5,37.8,3.5,37.8c5.4,2.9,10.5-0.3,10.5-0.3
						s3.5-34.7,3.9-43.3c0.5-11.1-2.1-17.2-2.1-17.2s1-7,2.7-21.4c1.2-10.2,2.8-21.7,2.8-21.7s1.6,14.3,2.5,22.3
						c0.9,7.4,2.4,13.3,4.6,27c1.9,12,7.2,37.3,7.2,37.3c5.4,2.9,9-0.4,9-0.4S410.4,351.3,408.9,341z"/>
				</g>
			</g>
			<path d="M383.7,297l2.2-14.1c0,0,9-2.9,13.5-8.2c0,0-2.4,6.2-10.8,9.6l-3.3,11.9l-0.6,9.8L383.7,297z"/>
		</g>
		<g>
			<polygon id="XMLID_593_" class="st17" points="376.1,193.6 378.3,208.7 391.9,208.3 390.6,190.6 			"/>
			<g id="XMLID_589_">
				<path id="XMLID_590_" class="st18" d="M366.4,175c0,0-3.6,5.4-3.3,5.9c0.4,0.5,3,1.1,3,1.1L366.4,175z"/>
			</g>
			<g id="XMLID_585_">
				<path id="XMLID_586_" class="st15" d="M367.6,178.5c-2.4,0-4.4-2.1-4.4-4.5s2.1-4.4,4.5-4.4s4.4,2.1,4.4,4.5
					C372,176.5,370,178.5,367.6,178.5z M367.7,170.6c-1.9,0-3.5,1.5-3.5,3.4s1.5,3.5,3.4,3.5s3.5-1.5,3.5-3.4
					C371.1,172.2,369.6,170.6,367.7,170.6z"/>
			</g>
			<g id="XMLID_583_">
				<path id="XMLID_584_" class="st17" d="M376.5,160.2c-7.2,1.4-9.4,4.5-10.2,16c-0.9,12,0.3,15.7,1.8,17.4c1,1.1,6.9,1.4,9.9,0.6
					c3.7-1,12.2-3.8,16.2-9.8c4.7-7,6.1-16.6,1.2-20.6C388.6,158.1,379.5,159.6,376.5,160.2z"/>
			</g>
			<path class="st18" d="M376.3,194.4c-3.1,0.3-7.3,0-8.2-0.9c3.5,0.2,7.7-1.5,7.7-1.5L376.3,194.4z"/>
			<g id="XMLID_580_">
				<g id="XMLID_581_">
					<path id="XMLID_582_" class="st15" d="M363.7,163c0,1,0.4,2.1,1,2.9c1.1,1.3,3.3,1.9,4.9,1.4c-0.4,1.1-0.2,2.4,0.6,3.3
						c0.8,0.9,2,1.3,3.2,1.1c-0.3,0.1,0.6,2.8,0.7,3c0.3,1,0.9,1.9,1.9,2.3c0,0,1.3-4.6,5.2-4c3.9,0.6,4.4,5.7,1.8,8.7
						c-2.5,3-4.8,1.8-4.8,1.8s0,6.6,2.9,10.4c0,0,3.3,1.1,9.5-0.1c3.8-0.7,9.2-5.4,11.5-10.3c4.9-10.5,5.4-20-1.3-22.9
						c-0.3-0.1-0.4-1.4-0.4-1.7c-0.2-0.7-0.5-1.5-0.9-2.1c-0.9-1.4-2.2-2.5-3.7-3.3c-2.2-1.1-4.7-1.4-7.1-1.5
						c-2.4-0.2-4.9-0.2-7.3-0.7c-2.1-0.5-4.2-1.4-6.3-2.1c-2.1-0.7-4.3-1.1-6.5-0.6c-2.1,0.5-4.2,2.1-4.6,4.2
						c-0.5,2.4,0.9,4.5,2.4,6.2c-1.3,0.5-2.2,1.7-2.6,3C363.7,162.3,363.7,162.6,363.7,163z"/>
				</g>
			</g>
			<g id="XMLID_569_">
				<g id="XMLID_573_">
					<g id="XMLID_574_">
						<path id="XMLID_575_" class="st15" d="M399.8,163l4.4-2.5c-0.7-1.2-2.2-1.6-3.4-0.9C399.5,160.2,399.1,161.8,399.8,163z"/>
					</g>
				</g>
				<g id="XMLID_570_">
					<g id="XMLID_571_">
						<path id="XMLID_572_" class="st15" d="M375.9,179.6l0.2-5c-1.4-0.1-2.5,1-2.6,2.4C373.5,178.4,374.5,179.6,375.9,179.6z"/>
					</g>
				</g>
			</g>
			<polygon id="XMLID_568_" class="st15" points="363.6,173 377,175 376.5,175.9 363.6,174 			"/>
		</g>
		<g>
			<g id="XMLID_566_">
				<path id="XMLID_567_" class="st3" d="M406.9,206.1c-1.6-6.2-3.8-8.2-9.2-8.4c-1.6,0-7.1,0.8-8.3,1.1c-0.6,2.6-7.3,4.4-14.2,3
					c-2,0.6-7.4,2.1-9.1,2.7c-4.9,1.8-7.2,6.8-7.5,22.8c0,0-0.9,37.9,0,44.5c12.2,4.8,24.9,4.6,31.9,3c14.6-3.3,16.3-9.3,16.3-9.3
					s-0.8-15.2-1.3-26.8c0.7-7.4,1.8-12.9,2.2-18.8C408.2,213.8,407.5,208.4,406.9,206.1z"/>
			</g>
			<g id="XMLID_556_" class="st19">
				<path id="XMLID_565_" d="M406.9,206.1c-1.6-6.2-3.8-8.2-9.2-8.4c-1.6,0-7.1,0.8-8.3,1.1c-0.6,2.6-7.3,4.4-14.2,3
					c-2,0.6-7.4,2.1-9.1,2.7c-4.9,1.8-7.2,6.8-7.5,22.8c0,0-0.9,37.9,0,44.5c12.2,4.8,24.9,4.6,31.9,3c14.6-3.3,16.3-9.3,16.3-9.3
					s-0.8-15.2-1.3-26.8c0.7-7.4,1.8-12.9,2.2-18.8C408.2,213.8,407.5,208.4,406.9,206.1z"/>
			</g>
			<g>
				<path class="st3" d="M390.9,194.9l0.1,1.5c0,0-0.7,2.1-4.8,2.8c-6.9,1.3-9.4-0.9-9.4-0.9l-0.2-1.2c0,0-0.7-0.3-1.8,0.6
					c-1.1,0.9-4.8,5.6-4.8,5.6s1.3-0.4,5.7,1.5c4.5,1.9,10.1,1.7,13.5,0.5c3.5-1.2,4.8-4.3,4.9-5.5
					C394.3,198.4,392.1,194.4,390.9,194.9z"/>
				<path class="st20" d="M390.9,194.9l0.1,1.5c0,0-0.7,2.1-4.8,2.8c-6.9,1.3-9.4-0.9-9.4-0.9l-0.2-1.2c0,0-0.7-0.3-1.8,0.6
					c-1.1,0.9-4.8,5.6-4.8,5.6s1.3-0.4,5.7,1.5c4.5,1.9,10.1,1.7,13.5,0.5c3.5-1.2,4.8-4.3,4.9-5.5
					C394.3,198.4,392.1,194.4,390.9,194.9z"/>
			</g>
		</g>
		<g>
			<path id="XMLID_387_" class="st17" d="M364.5,205.1c-5.8,1.1-10.9,3.8-10.8,10.6c0.2,11.6-2.6,20.4-4.3,25.7
				c-1.8,5.7-16.6,22.7-20.3,23.8c-3.7,1.1-8.9-1.2-10.2,0.6c-1.3,1.8,3.8,4.1,4,5c0.2,1-6.2,3.4-10.1,2.8c-3.9-0.7-2.9,4.1,2.9,6.7
				c5.9,2.6,13.1-0.4,20.1-5.6s20.9-16.3,24.5-24c4.3-9.3,6.8-18,7.3-24.7C368.5,212.3,364.5,205.1,364.5,205.1z"/>
			<g>
				<path class="st3" d="M365.2,204.7c0,0-6,0-9.6,3.6c-3.1,3-3.5,7.9-4.3,17.6c-0.6,7.3-2.1,12.6-2.8,15
					c-0.7,2.5-10.9,16.6-10.9,16.6s4.1,6.2,8.3,9.4c0,0,9.3-7.7,14.1-14.1c4.7-6.4,7.9-24.7,7.9-24.7S370.4,214,365.2,204.7z"/>
				<path class="st20" d="M365.2,204.7c0,0-6,0-9.6,3.6c-3.1,3-3.5,7.9-4.3,17.6c-0.6,7.3-2.1,12.6-2.8,15
					c-0.7,2.5-10.9,16.6-10.9,16.6s4.1,6.2,8.3,9.4c0,0,9.3-7.7,14.1-14.1c4.7-6.4,7.9-24.7,7.9-24.7S370.4,214,365.2,204.7z"/>
			</g>
			<g>
				<path class="st3" d="M338.1,256.8c0,0,2.4,5.1,8.6,9.5c0,0-3.3,2.8-5.1,3.9c0,0-4.9-1.7-7.9-8.5L338.1,256.8z"/>
				<path class="st21" d="M338.1,256.8c0,0,2.4,5.1,8.6,9.5c0,0-3.3,2.8-5.1,3.9c0,0-4.9-1.7-7.9-8.5L338.1,256.8z"/>
				<ellipse class="st15" cx="337" cy="261" rx="0.7" ry="0.7"/>
			</g>
		</g>
	</g>
</g>
<g id="Character_2">
	<g id="Character_16_">
		<g id="XMLID_562_">
			<path id="XMLID_563_" class="st15" d="M238.9,78.9h15.3c12.3,0,22.3-10,22.3-22.3l0,0c0-9.8-8-17.8-17.8-17.8h-2.1
				c-9.8,0-17.8,8-17.8,17.8L238.9,78.9L238.9,78.9z"/>
		</g>
		<path id="XMLID_561_" class="st22" d="M237.2,91.1c-3.8,7.2-7.3,15.9-10.1,18.8c-5.3,2.5-17.4,7.1-22.3,7.7
			c-0.9,0.1-1.7-0.1-2.4-0.6c-1.9-1.3-3.4-1.5-5.4-2.2c-1.6-0.5-2.2-1.3-2.5-1c-0.4,0.4-0.8,1.4,0.2,2.5c0.5,0.5,1.4,1.1,2.5,1.9
			c0,0-3.5,0.9-6.6,0.1c-4.2-1.1-6.2,0.9-3.4,5.5c1,1.6,5,4.3,13.2,3.6c2.3-0.2,5.7-0.4,8.7-1c7.8-1.7,16.1-4.1,21.5-5.7
			c1.3-0.4,3.8-2,5.2-3.6c9-10.2,13.4-19.3,17.3-25.9l-2.9-9.9C243.7,81.1,240.4,85,237.2,91.1z"/>
		<path class="st15" d="M250.1,81.3c-4.9-0.4-6.8,0.6-9,2.7c-5.4,5.3-13.5,25.3-13.6,25.4c-0.1,0.2-6.1,2.9-6.1,2.9
			s3.2,5.3,2.4,10.3c0,0,5.8-1.3,7.9-2.1c2.1-0.8,2.8-1.3,4.8-3.6c2-2.3,12.9-15.2,12.9-15.2L250.1,81.3z"/>
		<g id="Character_13_">
			<g id="XMLID_641_">
				<path class="st14" d="M239.5,103.7c0,0,1.2,5.4,0.8,10.7c-0.3,4.7-3.7,13.3-3.7,13.3s2.6,2.4,9.8,1.3c5.8-0.9,3.8-18.5,0.4-21.9
					C243.6,103.7,239.5,103.7,239.5,103.7z"/>
			</g>
			<g id="XMLID_413_">
				<g id="XMLID_637_">
					<path id="XMLID_639_" class="st15" d="M279.9,253.7c0.2,1.4,0.6,3,0.7,7c0.1,4.3,0.9,5.8,1,9.3c0.1,4-0.6,5.5-2.2,7.7
						s-5.9,4.3-7.7,0.5c-1.8-3.8-1.6-6.3-1-10.2c0.6-4.1,0.7-6.3,1-9.4c0.3-2.7,0.7-4.8,0.7-4.8L279.9,253.7z"/>
					<path id="XMLID_638_" class="st22" d="M267.8,220.2l14.1-0.3c-0.2,9.4-1.7,25-1.9,33.8c0,1.7,0,12.9-0.6,16.3
						c-0.9,5.1-7,4.4-7.3,1.4c-0.3-3.1,0.4-16.2,0.4-17.5c0.1-5.6-2.6-20.4-4-30.5C268.3,222.8,267.9,220.7,267.8,220.2z"/>
				</g>
				<g id="XMLID_417_">
					<path id="XMLID_421_" class="st15" d="M247.1,246.4c0,0,0.7,0,0.8,0.6c0.1,0.7,0.2,1.8,0.5,3c0.4,1.6,0.7,4.3,0.5,5.6
						c-0.2,1.3-3.2,3.3-5.3,3.6c-2,0.3-4.9,2.4-6.5,3.9c-2,1.8-6.2,3.6-9.1,3.6c-3.4,0-5.8-1.1-6.9-3c-1.2-1.9,1-2,4.9-4.6
						c0.9-0.6,1.9-1.2,3-2c6.2-4,8.4-6.2,10.2-10.2L247.1,246.4z"/>
					<path id="XMLID_419_" class="st22" d="M239.2,244.2c0.1-2.9-1.4-24.3-1.4-24.3l12.1,1.4c-2.9,17.1-3.1,22.9-2.8,25.3l0,0
						c0,0.1,0.1,0.3,0.1,0.7c0,3.3-3.8,5.1-6.7,7.3c-1.2,0.9-4.1,3.6-7.6,4.7c-2.2,0.8-6.4,1.1-6.9-0.3c3.6-2.7,8.4-6.3,11.2-9.3
						C238.6,248.3,239.1,247.1,239.2,244.2z"/>
				</g>
				<path id="XMLID_416_" class="st6" d="M271.8,118.9c1.6,2.2,6.4,8.5,8.8,18.2c4,16.1-2.3,50.6-2.3,50.6c0.2,2.3,2.9,6.9,3.9,17.2
					c1.2,12.2-2.2,44.7-2.2,44.7s-3.2,2.4-7.9,0.2c0,0-8.5-47.8-10-59.9c-1.3-10.5-4-32.5-4-32.5l-6.1,32.4c0,0,0.8,5.9,1.3,10.4
					c0.7,7.1-6.2,42.8-6.2,42.8s-3.2,1.7-7.8-0.2c0,0-3.1-46.1-3.7-54.6c-0.7-8.8,1.6-29.4,3.3-45.7c0.5-4.9,2.8-18,3.7-22.3
					L271.8,118.9z"/>
				<path id="XMLID_414_" class="st23" d="M258.1,157.5l-1.5-10c0,0-5.8-0.1-11.7-3.8c0,0,3.6,4.9,9.8,5.5l0.9,8.9l-2.9,27.8
					L258.1,157.5z"/>
			</g>
			<g id="XMLID_410_">
				<g id="XMLID_411_">
					<path id="XMLID_412_" class="st3" d="M242,108.3c0.2,2.9,0.6,12,0.6,12c12,8.1,29.2-1.4,29.2-1.4l2.5-17c0,0-6.2-8.7-0.4-18
						l-9.4-1.8l-11.1-0.9l-3.3,0.2c-3.7,2.7-9.3,8.6-10.4,11.6C238.4,96,236.7,102,242,108.3z"/>
				</g>
			</g>
			<g id="XMLID_403_" class="st24">
				<g id="XMLID_405_">
					<path id="XMLID_407_" class="st10" d="M242,108.3c0.2,2.9,0.6,12,0.6,12c12,8.1,29.2-1.4,29.2-1.4l2.5-17c0,0-6.2-8.7-0.4-18
						l-9.4-1.8l-11.1-0.9l-3.3,0.2c-3.7,2.7-9.3,8.6-10.4,11.6C238.4,96,236.7,102,242,108.3z"/>
				</g>
			</g>
			<g id="XMLID_401_">
				<path class="st14" d="M265.1,82.2c0,0,10.6,0.5,12.6,1.4c2,1,5.4,6.7,2.4,15.2c-3,8.4-5.7,18.3-5.4,20.3
					c0.3,2,7.5,12.3,7.5,12.3c-2.1,1.3-4.3,2.7-6.6,3.2l-3.7-8l0.9,8.5c0,0-6.6,1.6-11.3,1.2C261.5,136.2,257.7,104,265.1,82.2z"/>
			</g>
		</g>
		<path id="XMLID_546_" class="st15" d="M271.3,38.8l-1.2,4.7c1.3,0.4,2.6-0.3,3-1.6C273.4,40.5,272.6,39.1,271.3,38.8z"/>
		<path id="XMLID_545_" class="st15" d="M275.3,43l-4.8,0.2c0,1.4,1.1,2.4,2.4,2.4C274.3,45.5,275.3,44.4,275.3,43z"/>
		<g id="XMLID_523_">
			<g id="XMLID_526_">
				<g id="XMLID_541_">
					<path id="XMLID_542_" class="st22" d="M245.9,47.2c-2,1.2-4.4,6.2-4.2,16.7c0.2,8.9,3.1,11.1,4.5,11.7s4.2,0.2,6.9-0.2v5.3
						c0,0-3.7,4.4-3.5,6.8s5.4,3,8.9,0.6c3.5-2.4,5.8-6,5.8-6V68.3c0,0,1.5,1.6,4.1-0.2c2.6-1.8,2.8-5.1,1.2-7
						c-1.1-1.3-4-1.4-5.4,0.6c0,0-3.6-0.3-9.4-3.5C249.1,55,246.7,50,245.9,47.2z"/>
				</g>
				<g id="XMLID_539_">
					
						<ellipse id="XMLID_540_" transform="matrix(4.741507e-02 -0.9989 0.9989 4.741507e-02 180.0786 312.2754)" class="st15" cx="253.8" cy="61.7" rx="1.2" ry="1.1"/>
				</g>
				<g id="XMLID_535_">
					<path id="XMLID_538_" class="st25" d="M251.3,69.2l-2.6,0.8c0.2,0.7,1,1.2,1.7,0.9C251.1,70.7,251.6,69.9,251.3,69.2z"/>
				</g>
				<g id="XMLID_533_">
					<path id="XMLID_534_" class="st15" d="M242.7,58.2l2.3-1.6c-0.4-0.6-1.3-0.8-1.9-0.4C242.5,56.7,242.3,57.6,242.7,58.2z"/>
				</g>
				<g id="XMLID_531_">
					
						<ellipse id="XMLID_532_" transform="matrix(4.736627e-02 -0.9989 0.9989 4.736627e-02 172.0512 302.0735)" class="st15" cx="244.4" cy="60.8" rx="1.2" ry="1.1"/>
				</g>
				<g id="XMLID_529_">
					<polygon id="XMLID_530_" class="st25" points="249.4,60.2 249.3,66.9 245.7,65.8 					"/>
				</g>
				<g id="XMLID_527_">
					<path id="XMLID_528_" class="st25" d="M253.2,75.4c2.9-0.4,8.7-2.1,9.6-4.4c0,0-0.3,1.5-2.1,3c-1.8,1.5-7.6,3.2-7.6,3.2v-1.8
						H253.2z"/>
				</g>
			</g>
		</g>
		<path id="XMLID_522_" class="st22" d="M297,120.6c-1.8-7.2-9.7-23-11.9-28.8c-2.5-6.6-6.9-9-11.7-9c-1.7,2.2-2.5,13.5,2.9,20
			c2.3,4.8,9.1,18.3,9.1,18.3c-0.2,1.3-5,18-7,22.4c-0.4,0.8-1,1.4-1.8,1.7c-2.1,0.9-4.6,3.2-6.3,4.5c-1.3,1-2.3,1.2-2.2,1.6
			c0.1,0.5,0.8,1.4,2.3,1.2c0.7-0.1,2.9-1.1,4.2-1.7c0,0-2,3.2-4.2,5.7c-2.8,3.3-2.7,6.1,2.8,6.2c4.2,0.1,6.4-2.3,10.1-9.5
			c1.1-2.1,2.2-5.2,3.5-7.8c3.2-6.7,5.3-9.5,7-13.8C296.7,124.9,297.7,123.4,297,120.6z"/>
		<path class="st15" d="M271.3,82.6c5.2,0,9.1,0.4,12.1,4.9c3,4.4,12.4,27.7,13.4,30.8c1,3,1.7,5.5-2.6,12.6c0,0-4.9-0.1-10.4-3.7
			l1.1-6.1l-9.2-17.7C275.7,103.3,269.7,94.5,271.3,82.6z"/>
	</g>
</g>
<g id="Character_1">
	<g id="Character_15_">
		<g>
			<path id="XMLID_389_" class="st17" d="M110.1,172.8c6,2,7.4,2.4,11.5,8.8c4,6.2,8,17.5,11.6,26.7c6.5-1.9,20.4-5.1,25-7.8
				s4.1-4.5,6-6.2c2.2-2,4.4-6.7,6.2-4.1c1.2,1.8-1.3,2.9-1.1,5.2c0.2,2.2,6.9-3,9.7-5c1.9-1.3,6.2,2.8,4.5,7.2
				c-1.5,3.9-4,6.4-8.4,8.3c-4.7,2-7.1,3-13,5.6c-6.1,2.8-31.4,13.9-33.9,12.4c-5.7-2.8-10.9-20.4-14.4-28
				C110.3,188.2,112.6,180.4,110.1,172.8z"/>
			<path id="XMLID_385_" class="st14" d="M108.7,172c2.5,3.4,1.5,2,2.3,7.2c0.6,4.2,9.4,44.4,17.4,46c3.5,0.7,28.6-10.8,34.7-14.1
				c-2.1-3-4.1-6.8-4.8-10.6c-7.3,2.9-19.9,5.7-24.4,7.1c-2.1-5.8-4.7-11.8-7.1-17.7C122.2,178.6,119.6,170.6,108.7,172z"/>
		</g>
		<g id="XMLID_372_">
			<rect id="XMLID_384_" x="74.5" y="354.2" class="st17" width="9.8" height="16.8"/>
			<polygon id="XMLID_383_" class="st17" points="111,360.5 121.7,360.9 122.2,341.5 110.1,341.1 			"/>
			<path id="XMLID_382_" class="st15" d="M75.8,240c0,8.9-0.6,60.8-0.6,60.8c-0.2,2.6-2.7,7.1-2.9,16.4c-0.3,13.4,1.8,45,1.8,45
				s4.5,2.6,10.4,0.2c0,0,7.3-44.7,9-57.9c1.5-11.6,5.6-41.9,5.6-41.9l6.3,39.4c0,0-1.1,6.3-0.5,14.2c0.4,6.1,5.1,36.6,5.1,36.6
				s6.1,2.3,12.5,0.1c0,0,1-47.5,1.1-53.2c0.1-6.4-2.7-61.6-2.7-61.6L75.8,240z"/>
			<path id="XMLID_378_" class="st15" d="M84.4,366.1v-1.4c0.5,0,0.9,0.5,1.1,1.8c0.1,0.9,0.3,1.6,0.6,2.8c0.5,1.8,0.9,2.9,1.7,5
				c1.4,3.4,2.5,4.7,5.7,8.7c0.8,0.9,2.5,2.5,3,3.5c0.6,1.1,0.8,4-0.2,4.7c-3.7,2.5-9.3,2.5-13.3,1.4c-3.1-0.9-5.3-3.3-5.8-6.5
				c-0.1-0.9-0.1-1.8-0.2-2.7c-0.2-2.1-1.3-4-2.5-5.7c-0.7-1-1.4-2-1.9-3.1c-0.8-2-0.2-4.3,0.4-6.3c0.5-1.7,0.9-3.6,1.5-3.5
				c0,0.2,0,1.1,0,1.1c0.7,0.8,2.7,1.6,4.9,1.7C80.9,367.5,84.4,367.2,84.4,366.1z"/>
			<path id="XMLID_377_" class="st15" d="M121.8,357.6c0.6,0,1,0.8,2.2,2.1c1.5,1.6,3.9,3.3,6.3,4.5c4,2,11.8,5.1,15.3,6.7
				c2.2,1,2.1,3.7-0.2,5.2s-7.8,2.6-14.4,1.1c-3.6-0.8-8.3-4.1-11.2-3.9c-3,0.2-8.5,0.1-10.7-1.4s-1.3-4.7-0.7-7.5
				c0.7-3,1.4-7.7,2.4-7.5l0.1,1.1c1.3,1.9,8,2.7,10.9,1.2L121.8,357.6z"/>
			<path id="XMLID_376_" d="M99.1,262.5c0,0,8.3-2.7,13.9-8.1c0,0-2.5,4.7-10,9.1l1.8,34.5L99.1,262.5z"/>
		</g>
		<g id="XMLID_350_">
			<path id="XMLID_371_" class="st6" d="M91.9,171.9c-2,0.5-6.8,1.1-10.3,2.1c-2.6,0.7-3.7,3.9-4.2,6.3c-1.7,7.6-2,23.6-2,23.6
				L75.3,241c6.4,4.7,32.9,7.1,46.4-2.8c0,0-1.7-44.2-1.7-51.1s-3.8-15.2-14.4-15.8L91.9,171.9z"/>
			<g id="XMLID_351_">
				<path id="XMLID_363_" class="st17" d="M63.6,224.1c0,0,8.2,12.4,9.6,14.1c1.4,1.6,2.4,1.1,3.9,0.4c1.5-0.7,4.4-1.7,5.7-2
					c2.5-0.7,3,1.8,0.6,3.6c-1.8,1.3-3.8,1.8-3,2.9c0.9,1,3.5,2.9,6,3.9c6,2.5,6.3,4.1,5.1,6.2c-1,1.8-4.6,6.8-15.4,2.2
					c-4.5-1.9-10.6-8.7-13.6-12.2c-4.3-5.1-10.1-14.9-10.1-14.9L63.6,224.1z"/>
				<path id="XMLID_358_" class="st14" d="M81.6,173.9c-9.9-0.8-12.4,4.2-19.4,16.6C56,201.5,48,215,47.7,220.6
					c-0.1,1.8,7.8,14.5,13.5,20.9c4.9-0.2,8.5-2.1,10.8-5c-1.3-2.2-8.6-15.4-8.6-15.4l13-20.1c0,0,3.9-4.4,5.3-10.6
					C83.4,183,82.7,175.7,81.6,173.9z"/>
			</g>
		</g>
		<g id="XMLID_262_">
			<g id="XMLID_332_">
				<circle id="XMLID_349_" class="st15" cx="106.5" cy="142.3" r="12.4"/>
				<path id="XMLID_346_" class="st15" d="M85.1,151.1c0,0,2,9.4,2.8,11s2.5,2,2.5,2l-0.1-6.6L85.1,151.1z"/>
				<path id="XMLID_345_" class="st15" d="M87.5,136.2c0,0-2-0.1-3.7,1.6c-1.7,1.7-0.8,8.1,1.3,13.3l3.8,0.4L87.5,136.2z"/>
				<path id="XMLID_338_" class="st17" d="M90,151.5c-0.8,0.5-1.8-1-2.8-2c-0.9-1-4-2.3-5.5,0.9c-1.6,3.3,1.3,7.6,3.7,8.3
					c4.1,1.3,4.8-1.4,4.8-1.4l0.3,15.4l0,0c2.9,3.7,9.3,8,12.8,7.4c2.8-0.5,3.4-5.2,0.7-8.2v-4.5c0,0,3.8,0.6,5.6,0.3
					c3-0.5,5-2.9,5.9-6.2c1.5-5.3,2-9.6,0.8-20c-1.4-11.4-14.7-11.5-21.8-7C87.3,139,90,151.5,90,151.5z"/>
				<path id="XMLID_335_" class="st15" d="M117.6,136.9c-0.5,1.1-1.6,2-2.6,2.5c-2.6,1.5-5.8,2.1-8.8,1.7c-3.2-0.3-6-1.9-8.8-3.3
					c-0.3,1-0.5,2.2-1.4,3.1c-1.7,1.8-2.7,1.8-3.4,2.2c-0.3,2.1-0.3,4.7-0.4,6.8c0,0.7,0,4.3-1.7,3.3c-0.5-0.3-1-1.2-1.4-1.6
					c-0.6-0.7-1.2-1.5-1.9-2.1c-0.5-0.4-0.5-1.5-0.5-2.1c-0.1-1.2,0-2.5,0.1-3.7c0.1-1.3,0.3-2.5,0.4-3.8c0.1-0.7-0.3-1.4-0.5-2.1
					c-0.2-0.8-0.4-1.6-0.3-2.4c0.1-2.6,2.1-4.7,4.4-5.9c3.2-1.6,7.1-1.8,10.6-1.5c3.1,0.3,6.4,0.6,9.4-0.4c1.2-0.4,2.2-1,3.4-1.3
					c1.2-0.3,2.5-0.4,3.5,0.2c2.3,1.3,2.4,5.3,0.2,6.7c-0.2,0.1-0.3,0.2-0.4,0.4s0,0.4,0.1,0.6C118.1,135.1,118,136.1,117.6,136.9z"
					/>
				<path id="XMLID_334_" class="st15" d="M86.7,137.5l-4.6-2.5c0.7-1.3,2.2-1.8,3.5-1.1C86.9,134.6,87.4,136.2,86.7,137.5z"/>
				<path id="XMLID_333_" class="st18" d="M104,167.4c0,0-6.8-1.4-9.2-2.6c-1.6-0.8-2.9-2.3-3.3-3.3c0,0,0.4,2,1.9,3.8
					c1.7,2.2,10.6,3.9,10.6,3.9V167.4z"/>
			</g>
			<g id="XMLID_307_">
				<ellipse id="XMLID_325_" class="st15" cx="101.9" cy="149.1" rx="1.5" ry="1.5"/>
				<path id="XMLID_314_" class="st15" d="M101.9,144.1l-3,1.7c-0.4-0.9-0.1-1.9,0.7-2.4C100.4,142.9,101.4,143.3,101.9,144.1z"/>
				<path id="XMLID_313_" class="st18" d="M103.4,159l3.4,1.3c-0.3,1-1.4,1.5-2.3,1.1C103.6,161,103.1,160,103.4,159z"/>
				<path id="XMLID_310_" class="st15" d="M115.4,145.4l-2.8-2.1c0.6-0.8,1.6-1,2.4-0.4S115.9,144.6,115.4,145.4z"/>
				
					<ellipse id="XMLID_309_" transform="matrix(2.869061e-03 -1 1 2.869061e-03 -35.8429 261.7539)" class="st15" cx="113.3" cy="148.8" rx="1.5" ry="1.4"/>
				<polygon id="XMLID_308_" class="st18" points="107.2,147.7 107.7,156.5 112.3,155 				"/>
			</g>
			<g id="XMLID_282_">
				<path id="XMLID_305_" class="st3" d="M108.9,179.2c-0.9,2.1-2.5,2.9-5.4,3.2s-6.4-1.1-8-2.8l3.6-3.6l4.6,3.4l0.4-3.8
					L108.9,179.2z"/>
				<path id="XMLID_391_" class="st26" d="M108.9,179.2c-0.9,2.1-2.5,2.9-5.4,3.2s-6.4-1.1-8-2.8l3.6-3.6l4.6,3.4l0.4-3.8
					L108.9,179.2z"/>
				<g id="XMLID_287_">
					<path id="XMLID_301_" class="st3" d="M106.6,178.1c0,0,0.7,2,0.5,3.9c-0.3,2-1.3,3.2-1.3,3.2s-1.1,0.9-3.1,0.3
						c-1.5-1.4-3.1-3.7-3-6.4l4,0.5L106.6,178.1z"/>
					<path id="XMLID_292_" class="st3" d="M105.8,185.2c0,0,4.7,25.9,4.9,28c0.2,2.1-2.7,9.5-4.5,9.6s-5.3-6.7-5.3-8.5
						c-0.1-1.9,1.8-28.6,1.8-28.6L105.8,185.2z"/>
					<path id="XMLID_290_" class="st14" d="M102.7,185.5c0,0,1.6,0.8,3.1-0.3l0.1,0.4c0,0-1.3,1.2-3.2,0.6V185.5z"/>
				</g>
				<g id="XMLID_283_">
					<g id="XMLID_284_">
						<path id="XMLID_286_" class="st14" d="M103.7,179.5l-13.2-10.1l-0.1-2.6c0,0-3.1,0.8-3.8,6.2c1.9,4.4,5.3,8.1,10.3,11l2.8-4.9
							L103.7,179.5z"/>
						<path id="XMLID_285_" class="st14" d="M104,168.1c0,0,3.1,1.4,4.4,3.6c1.3,2.2,1.3,9.3,1.3,9.3l-3.2-2.9l-2.9,1.4
							c0.3-2.8,0.4-7.5,0.4-7.5L104,168.1z"/>
					</g>
				</g>
			</g>
		</g>
	</g>
</g>
</svg>
