<?xml version="1.0" encoding="utf-8"?>
<!-- Generator: Adobe Illustrator 23.0.5, SVG Export Plug-In . SVG Version: 6.00 Build 0)  -->
<svg version="1.1" id="mock-interview" xmlns="http://www.w3.org/2000/svg" xmlns:xlink="http://www.w3.org/1999/xlink" x="0px"
	 y="0px" viewBox="0 0 500 500" style="enable-background:new 0 0 500 500;" xml:space="preserve">
<style type="text/css">
	.st0{display:none;}
	.st1{display:inline;fill:#33ADE3;}
	.st2{display:inline;opacity:0.2;}
	.st3{fill:#CFCFCF;}
	.st4{display:inline;fill:#2294BC;}
	.st5{display:inline;}
	.st6{fill:#6DBBD9;}
	.st7{enable-background:new    ;}
	.st8{fill:#D8D8D8;}
	.st9{fill:#DBDBDB;}
	.st10{fill:#C5C5C5;}
	.st11{fill:#E8E8E8;}
	.st12{fill:#898989;}
	.st13{fill:#FFFFFF;}
	.st14{fill:#313A3F;}
	.st15{fill:#1DA1F2;}
	.st16{fill:#337AB7;}
	.st17{opacity:0.2;}
	.st18{fill:#242626;}
	.st19{fill:#3B3F3F;}
	.st20{fill:#111114;}
	.st21{fill:#2C2F33;}
	.st22{fill:#243135;}
	.st23{fill:#8FB6D7;}
	.st24{fill:#558299;}
	.st25{clip-path:url(#SVGID_2_);enable-background:new    ;}
	.st26{fill:#123468;}
	.st27{fill:#113365;}
	.st28{fill:#113163;}
	.st29{fill:#103060;}
	.st30{fill:#102F5E;}
	.st31{fill:#0F2E5B;}
	.st32{fill:#0F2C58;}
	.st33{fill:#0F2B56;}
	.st34{fill:#0E2A53;}
	.st35{fill:#0E2851;}
	.st36{fill:#0D274E;}
	.st37{fill:#3F3F3F;}
	.st38{fill:#184C9F;}
	.st39{fill:#0B357C;}
	.st40{fill:#1A4789;}
	.st41{fill:#EFB185;}
	.st42{fill:#D7D3D0;}
	.st43{fill:#C3BBB7;}
	.st44{fill:#E7E3E2;}
	.st45{fill:#301806;}
	.st46{fill:#E8A476;}
	.st47{fill:#DB9669;}
	.st48{fill:#F1B287;}
	.st49{fill:#231202;}
	.st50{fill:#BB732C;}
	.st51{fill:#FBC868;}
	.st52{fill:#F4CD57;}
	.st53{fill:#4F260E;}
	.st54{fill:#592A10;}
	.st55{fill:#DFE5F3;}
	.st56{fill:#AEB6BC;}
	.st57{fill:#DCDCDC;}
	.st58{fill:#DFDFDF;}
	.st59{fill:#F9F9F9;}
	.st60{fill:#C0C5D1;}
	.st61{opacity:0.1;}
	.st62{fill:#A9B5C4;}
	.st63{fill:#C3C5C5;}
	.st64{fill:#E6E7EC;}
	.st65{opacity:0.5;}
	.st66{fill:#939599;}
	.st67{fill:#D5DFE6;}
	.st68{fill:#C8D2DB;}
	.st69{fill:#E1EAEF;}
	.st70{fill:#F5F3F2;}
	.st71{fill:#E4E4E4;}
	.st72{fill:#CACACA;}
	.st73{fill:#A8AAAA;}
	.st74{fill:#9FB0BC;}
	.st75{fill:#E2E6ED;}
	.st76{fill:#A5AAB4;}
	.st77{fill:#DD9569;}
	.st78{fill:#E6A376;}
	.st79{fill:#221101;}
	.st80{fill:#341C09;}
	.st81{fill:#DEF0F9;}
	.st82{fill:#1F5699;}
	.st83{fill:#BDBDBD;}
	.st84{fill:#F4F7F8;}
	.st85{display:inline;fill:#0A404F;}
</style>
<g class="st0">
	<path class="st1" d="M160.4,33.1h2.6v13.6c0,5.4-2.6,7-6.1,7c-1,0-2.1-0.2-2.8-0.5l0.4-2.2c0.5,0.2,1.3,0.4,2.2,0.4
		c2.3,0,3.7-1.1,3.7-5.1L160.4,33.1L160.4,33.1z"/>
	<path class="st1" d="M184.7,43.3c0,6.7-4.3,10.5-9.4,10.5c-5.5,0-9.1-4.3-9.1-10.3c0-6.2,3.9-10.6,9.5-10.6
		C181.4,32.8,184.7,37.4,184.7,43.3z M169,43.3c0,4.6,2.3,8.3,6.5,8.3c4.3,0,6.5-3.9,6.5-8.3c0-4.1-2-8.4-6.5-8.4
		C171.2,35,169,38.7,169,43.3z"/>
	<path class="st1" d="M188,33.4c1.2-0.2,3-0.4,4.8-0.4c2.6,0,4.3,0.5,5.5,1.5c1.1,0.8,1.7,2,1.7,3.6c0,2-1.3,3.7-3.4,4.5v0.1
		c1.9,0.5,4.2,2,4.2,5.1c0,1.7-0.7,3-1.7,4c-1.4,1.3-3.7,1.9-7,1.9c-1.8,0-3.2-0.1-4.1-0.2V33.4z M190.7,41.7h2.4
		c2.7,0,4.4-1.5,4.4-3.4c0-2.4-1.8-3.3-4.5-3.3c-1.2,0-1.9,0.1-2.3,0.2L190.7,41.7L190.7,41.7z M190.7,51.4c0.5,0.1,1.2,0.1,2.2,0.1
		c2.7,0,5.2-1,5.2-3.9c0-2.8-2.4-3.9-5.3-3.9h-2.2v7.7H190.7z"/>
	<path class="st1" d="M213.4,33.1v20.3h-2.6V33.1H213.4z"/>
	<path class="st1" d="M217.9,53.4V33.1h2.9l6.5,10.2c1.5,2.4,2.7,4.5,3.6,6.6h0.1c-0.2-2.7-0.3-5.2-0.3-8.3v-8.5h2.5v20.3h-2.6
		l-6.4-10.3c-1.4-2.3-2.8-4.6-3.8-6.8h-0.1c0.2,2.6,0.2,5,0.2,8.4v8.7C220.5,53.4,217.9,53.4,217.9,53.4z"/>
	<path class="st1" d="M241.6,35.4h-6.2v-2.2h15v2.2h-6.2v18h-2.6V35.4z"/>
	<path class="st1" d="M263.1,43.9h-7.8v7.3h8.8v2.2h-11.4V33.1h11v2.2h-8.3v6.4h7.8v2.2H263.1z"/>
	<path class="st1" d="M267.4,33.4c1.4-0.3,3.2-0.4,5-0.4c2.8,0,4.6,0.5,5.9,1.7c1,0.9,1.6,2.3,1.6,3.8c0,2.7-1.7,4.4-3.8,5.2v0.1
		c1.6,0.6,2.5,2,3,4.1c0.7,2.9,1.1,4.8,1.6,5.6H278c-0.3-0.6-0.8-2.3-1.4-4.8c-0.6-2.8-1.7-3.8-4.1-3.9H270v8.8h-2.6V33.4z
		 M270,42.6h2.7c2.8,0,4.6-1.5,4.6-3.8c0-2.6-1.9-3.8-4.7-3.8c-1.3,0-2.2,0.1-2.6,0.2V42.6z"/>
	<path class="st1" d="M288.5,53.4l-6.6-20.3h2.9l3.2,10c0.8,2.7,1.6,5.2,2.2,7.6h0.1c0.6-2.3,1.4-4.9,2.3-7.5l3.4-10h2.8l-7.2,20.3
		L288.5,53.4L288.5,53.4z"/>
	<path class="st1" d="M303.4,33.1v20.3h-2.6V33.1H303.4z"/>
	<path class="st1" d="M318.4,43.9h-7.8v7.3h8.8v2.2H308V33.1h11v2.2h-8.3v6.4h7.8v2.2H318.4z"/>
	<path class="st1" d="M326.3,53.4l-5.1-20.3h2.8l2.4,10.3c0.6,2.5,1.1,5.1,1.5,7h0.1c0.3-2,1-4.5,1.7-7l2.7-10.2h2.7l2.5,10.3
		c0.6,2.4,1.1,4.8,1.4,6.9h0.1c0.4-2.2,1-4.5,1.6-7l2.7-10.2h2.7l-5.7,20.3h-2.8l-2.5-10.6c-0.6-2.6-1.1-4.6-1.3-6.6h-0.1
		c-0.4,2-0.8,4-1.6,6.6l-2.9,10.6L326.3,53.4L326.3,53.4z"/>
</g>
<g>
	<g class="st0">
		<g class="st2">
			<path class="st3" d="M397.7,269.5c82.1,47.4,82.5,124.3,1,171.7c-81.6,47.4-214.3,47.4-296.4,0s-82.5-124.3-1-171.7
				C182.9,222.1,315.6,222.1,397.7,269.5z"/>
		</g>
		<path class="st4" d="M459.5,308.2c0,0.5,0,1.1-0.1,1.6c0,0.4-0.1,0.9-0.1,1.3c0,0.5-0.1,1.1-0.2,1.6c0,0.4-0.1,0.9-0.1,1.3
			c-0.1,0.6-0.1,1.1-0.2,1.7c-0.1,0.4-0.1,0.9-0.2,1.3c-0.1,0.6-0.2,1.1-0.3,1.7c-0.1,0.4-0.2,0.8-0.2,1.3c-0.1,0.5-0.2,1.1-0.4,1.6
			c-0.1,0.4-0.2,0.9-0.3,1.3c-0.1,0.5-0.3,1.1-0.4,1.6c-0.1,0.4-0.2,0.9-0.4,1.3c-0.2,0.5-0.3,1.1-0.5,1.6c-0.1,0.4-0.3,0.8-0.4,1.3
			c-0.2,0.6-0.4,1.1-0.6,1.7c-0.1,0.4-0.3,0.8-0.4,1.2c-0.3,0.8-0.6,1.7-1,2.5c-0.1,0.1-0.1,0.3-0.2,0.4c-0.4,1-0.8,1.9-1.3,2.9
			c-0.1,0.3-0.3,0.6-0.4,0.8c-0.3,0.7-0.7,1.4-1,2.1c-0.2,0.4-0.4,0.7-0.6,1.1c-0.3,0.6-0.6,1.2-1,1.8c-0.2,0.3-0.4,0.7-0.6,1
			c-0.4,0.7-0.8,1.3-1.2,2c-0.2,0.4-0.5,0.8-0.7,1.2c-0.4,0.6-0.8,1.2-1.2,1.8c-0.3,0.4-0.5,0.8-0.8,1.2c-0.4,0.6-0.8,1.2-1.2,1.7
			c-0.3,0.4-0.6,0.8-0.9,1.2c-0.4,0.6-0.9,1.2-1.4,1.8c-0.3,0.4-0.5,0.7-0.8,1.1c-0.8,1.1-1.7,2.1-2.6,3.2c-0.2,0.2-0.3,0.4-0.5,0.5
			c-0.8,0.9-1.6,1.8-2.4,2.6c-0.3,0.3-0.6,0.7-0.9,1c-0.7,0.8-1.5,1.6-2.3,2.3c-0.3,0.3-0.5,0.6-0.8,0.8c-1,1-2.1,2-3.2,3.1
			c-0.4,0.4-0.8,0.8-1.3,1.2c-0.5,0.5-1,0.9-1.5,1.4c-0.5,0.4-0.9,0.8-1.4,1.2c-0.5,0.4-1,0.9-1.6,1.3c-0.5,0.4-1,0.8-1.4,1.2
			c-0.5,0.4-1.1,0.9-1.6,1.3s-1,0.8-1.5,1.2c-0.6,0.4-1.1,0.9-1.7,1.3c-0.5,0.4-1,0.8-1.5,1.1c-0.6,0.4-1.2,0.9-1.8,1.3
			c-0.5,0.4-1.1,0.7-1.6,1.1c-0.6,0.4-1.2,0.8-1.8,1.3c-0.5,0.4-1.1,0.7-1.7,1.1s-1.3,0.8-1.9,1.2c-0.6,0.4-1.2,0.7-1.7,1.1
			c-0.6,0.4-1.3,0.8-2,1.2c-1,0.6-2.1,1.3-3.1,1.9c-1.6,0.9-3.2,1.8-4.8,2.7c-0.5,0.3-0.9,0.5-1.4,0.8c-1.2,0.7-2.5,1.3-3.7,2
			c-0.4,0.2-0.9,0.4-1.3,0.7c-1.6,0.8-3.3,1.6-5,2.4c-0.3,0.1-0.6,0.3-0.9,0.4c-1.4,0.7-2.8,1.3-4.2,1.9c-0.5,0.2-1,0.5-1.5,0.7
			c-1.4,0.6-2.8,1.2-4.2,1.8c-0.4,0.1-0.7,0.3-1.1,0.4c-1.7,0.7-3.5,1.4-5.3,2.1c-0.5,0.2-0.9,0.3-1.4,0.5c-1.4,0.5-2.8,1-4.1,1.5
			c-0.5,0.2-1.1,0.4-1.6,0.6c-1.7,0.6-3.3,1.1-5,1.7c-0.2,0.1-0.3,0.1-0.5,0.2c-1.5,0.5-3.1,1-4.6,1.5c-0.5,0.1-1,0.3-1.4,0.4
			c-1.1,0.3-2.2,0.7-3.3,1c-0.6,0.2-1.2,0.3-1.8,0.5c-1,0.3-1.9,0.5-2.9,0.8c-0.7,0.2-1.3,0.3-2,0.5c-0.9,0.2-1.9,0.5-2.8,0.7
			c-0.7,0.2-1.4,0.3-2.1,0.5c-0.9,0.2-1.8,0.4-2.8,0.7c-0.7,0.2-1.4,0.3-2.2,0.5c-0.9,0.2-1.8,0.4-2.7,0.6c-0.7,0.2-1.5,0.3-2.2,0.5
			c-0.9,0.2-1.8,0.4-2.7,0.6c-0.7,0.1-1.5,0.3-2.2,0.4c-0.9,0.2-1.8,0.3-2.7,0.5c-0.7,0.1-1.3,0.2-2,0.4c-1.5,0.3-3,0.5-4.6,0.8
			c-0.5,0.1-1,0.2-1.5,0.2c-2,0.3-3.9,0.6-5.9,0.9c-0.5,0.1-0.9,0.1-1.4,0.2c-1.6,0.2-3.1,0.4-4.7,0.6c-0.6,0.1-1.2,0.1-1.9,0.2
			c-1.6,0.2-3.3,0.4-4.9,0.5c-0.4,0-0.8,0.1-1.2,0.1c-1.8,0.2-3.6,0.3-5.4,0.5c-0.3,0-0.6,0-0.9,0.1c-1.5,0.1-3,0.2-4.5,0.3
			c-0.6,0-1.3,0.1-1.9,0.1c-1.2,0.1-2.4,0.1-3.5,0.2c-0.7,0-1.4,0.1-2.1,0.1c-1.1,0.1-2.3,0.1-3.4,0.1c-0.7,0-1.5,0.1-2.2,0.1
			c-1,0-1.9,0.1-2.9,0.1c-0.8,0-1.5,0-2.3,0c-1,0-1.9,0-2.9,0c-0.8,0-1.5,0-2.3,0c-1,0-2,0-3,0c-0.7,0-1.5,0-2.2,0
			c-1,0-2.1,0-3.1-0.1c-0.7,0-1.4,0-2.1,0c-1,0-1.9-0.1-2.9-0.1c-0.7,0-1.5,0-2.2-0.1c-1,0-1.9-0.1-2.9-0.1c-0.8,0-1.5-0.1-2.3-0.1
			c-0.9-0.1-1.8-0.1-2.8-0.2c-0.8,0-1.6-0.1-2.3-0.1c-0.9-0.1-1.8-0.1-2.7-0.2c-0.8-0.1-1.6-0.1-2.4-0.2c-0.9-0.1-1.8-0.2-2.7-0.2
			c-0.8-0.1-1.6-0.1-2.4-0.2c-0.9-0.1-1.9-0.2-2.8-0.3c-0.7-0.1-1.5-0.2-2.2-0.2c-1.6-0.2-3.1-0.4-4.7-0.6c-0.4,0-0.7-0.1-1.1-0.1
			c-1.4-0.2-2.8-0.4-4.2-0.6c-0.4-0.1-0.7-0.1-1.1-0.2c-1.3-0.2-2.7-0.4-4-0.6c-0.7-0.1-1.3-0.2-2-0.3c-1-0.2-2.1-0.3-3.1-0.5
			c-0.7-0.1-1.4-0.3-2.2-0.4c-0.9-0.2-1.9-0.3-2.8-0.5c-0.8-0.1-1.5-0.3-2.2-0.4c-0.9-0.2-1.8-0.4-2.7-0.5c-0.7-0.1-1.4-0.3-2.1-0.4
			c-1.1-0.2-2.1-0.5-3.2-0.7c-0.7-0.2-1.4-0.3-2.1-0.5c-1.1-0.2-2.1-0.5-3.2-0.7c-0.7-0.2-1.3-0.3-2-0.5c-1.1-0.3-2.2-0.6-3.3-0.8
			c-0.6-0.2-1.2-0.3-1.8-0.5c-1.3-0.4-2.6-0.7-4-1.1c-0.4-0.1-0.7-0.2-1.1-0.3c-1.9-0.5-3.8-1.1-5.8-1.7c-0.5-0.2-1-0.3-1.6-0.5
			c-1.5-0.5-3.1-1-4.6-1.5c-0.4-0.1-0.8-0.3-1.3-0.4c-1.9-0.6-3.7-1.3-5.6-2c-0.4-0.1-0.8-0.3-1.2-0.4c-1.5-0.6-3-1.1-4.5-1.7
			c-0.5-0.2-0.9-0.4-1.4-0.5c-2.3-0.9-4.6-1.9-6.8-2.8c-0.4-0.2-0.8-0.3-1.1-0.5c-2.3-1-4.5-2-6.7-3.1c-0.3-0.2-0.7-0.3-1-0.5
			c-2.2-1.1-4.5-2.2-6.7-3.3c-0.2-0.1-0.4-0.2-0.7-0.4c-2.3-1.2-4.6-2.5-6.8-3.7c-41.3-23.9-62-55.2-61.9-86.4l-0.1,18.4l0,0l0,0
			c-0.1,29.3,18,58.7,54.4,81.9c2.4,1.5,4.9,3.1,7.5,4.6c2.2,1.3,4.5,2.5,6.8,3.7c0.2,0.1,0.4,0.2,0.6,0.3c2.2,1.1,4.4,2.3,6.7,3.3
			c0.3,0.2,0.7,0.3,1,0.5c2.2,1,4.4,2.1,6.7,3.1c0.4,0.2,0.8,0.3,1.1,0.5c2.3,1,4.6,1.9,6.9,2.8c0.2,0.1,0.3,0.1,0.5,0.2
			c0.3,0.1,0.6,0.2,0.8,0.3c1.5,0.6,3,1.2,4.5,1.7c0.4,0.1,0.8,0.3,1.2,0.4c1.8,0.7,3.7,1.3,5.6,2c0.4,0.1,0.8,0.3,1.3,0.4
			c1.5,0.5,3.1,1,4.6,1.5c0.5,0.2,1,0.3,1.5,0.5c1.9,0.6,3.8,1.2,5.8,1.7h0.1c0.3,0.1,0.5,0.1,0.8,0.2c1.4,0.4,2.8,0.8,4.1,1.1
			c0.6,0.2,1.2,0.3,1.7,0.5c1.1,0.3,2.3,0.6,3.4,0.9c0.6,0.2,1.3,0.3,1.9,0.5c1.1,0.3,2.2,0.5,3.3,0.8c0.7,0.2,1.3,0.3,2,0.4
			c1.1,0.2,2.2,0.5,3.3,0.7c0.4,0.1,0.8,0.2,1.3,0.3c0.2,0,0.5,0.1,0.7,0.1c1,0.2,2,0.4,2.9,0.6c0.7,0.1,1.4,0.3,2,0.4
			c1,0.2,2.1,0.4,3.1,0.6c0.7,0.1,1.3,0.2,1.9,0.3c1.1,0.2,2.2,0.4,3.3,0.5c0.6,0.1,1.2,0.2,1.8,0.3c1.2,0.2,2.5,0.4,3.7,0.6
			c0.4,0.1,0.9,0.1,1.3,0.2h0.1c3.3,0.5,6.7,0.9,10,1.3c0.3,0,0.6,0.1,1,0.1c1.4,0.1,2.7,0.3,4.1,0.4c0.5,0,1,0.1,1.5,0.1
			c1.2,0.1,2.4,0.2,3.6,0.3c0.1,0,0.1,0,0.2,0c0.5,0,1.1,0.1,1.6,0.1c1.1,0.1,2.2,0.2,3.3,0.2c0.7,0,1.3,0.1,2,0.1
			c1,0.1,2.1,0.1,3.1,0.2c0.7,0,1.4,0.1,2.2,0.1c1,0,1.9,0.1,2.9,0.1c0.8,0,1.5,0.1,2.3,0.1c0.9,0,1.9,0.1,2.8,0.1
			c0.2,0,0.3,0,0.5,0c0.6,0,1.1,0,1.7,0c1,0,2,0,3,0.1c0.8,0,1.5,0,2.3,0c1,0,1.9,0,2.9,0c0.8,0,1.6,0,2.4,0c0.9,0,1.9,0,2.8,0
			c0.8,0,1.6,0,2.4,0c0.9,0,1.9,0,2.8-0.1c0.4,0,0.8,0,1.1,0c0.4,0,0.8,0,1.1,0c1.1,0,2.3-0.1,3.4-0.1c0.7,0,1.4-0.1,2.1-0.1
			c1.2-0.1,2.4-0.1,3.6-0.2c0.6,0,1.2-0.1,1.9-0.1c1.6-0.1,3.1-0.2,4.7-0.3c0.2,0,0.5,0,0.7-0.1c1.8-0.2,3.6-0.3,5.5-0.5
			c0.1,0,0.2,0,0.2,0c0.3,0,0.5-0.1,0.8-0.1c1.7-0.2,3.4-0.4,5.1-0.6c0.6-0.1,1.2-0.1,1.8-0.2c1.6-0.2,3.2-0.4,4.8-0.6
			c0.4-0.1,0.9-0.1,1.3-0.2c2-0.3,4-0.6,5.9-0.9c0.5-0.1,1-0.2,1.5-0.2c1.5-0.2,3-0.5,4.5-0.8c0.3-0.1,0.7-0.1,1-0.2s0.7-0.1,1-0.2
			c0.9-0.2,1.7-0.3,2.6-0.5c0.8-0.2,1.6-0.3,2.4-0.5c0.9-0.2,1.7-0.4,2.6-0.5c0.8-0.2,1.5-0.3,2.3-0.5c0.9-0.2,1.8-0.4,2.7-0.6
			c0.7-0.2,1.5-0.3,2.2-0.5c0.9-0.2,1.8-0.4,2.8-0.7c0.7-0.2,1.4-0.3,2.1-0.5c1-0.2,1.9-0.5,2.9-0.7c0.6-0.2,1.3-0.3,1.9-0.5
			c1-0.3,2.1-0.6,3.1-0.9c0.5-0.2,1.1-0.3,1.6-0.5c1.3-0.4,2.6-0.8,4-1.2c0.2-0.1,0.5-0.1,0.7-0.2c1.6-0.5,3.1-1,4.7-1.5l0,0
			c0.1,0,0.1-0.1,0.2-0.1c1.8-0.6,3.5-1.2,5.2-1.8c0.5-0.2,1.1-0.4,1.6-0.6c1.4-0.5,2.8-1,4.2-1.5c0.4-0.2,0.9-0.3,1.3-0.5
			c1.8-0.7,3.5-1.4,5.3-2.1c0.4-0.1,0.7-0.3,1.1-0.5c1.4-0.6,2.8-1.2,4.2-1.8c0.5-0.2,1-0.5,1.6-0.7c1.4-0.6,2.8-1.3,4.2-1.9
			c0.3-0.1,0.6-0.3,0.9-0.4c1.7-0.8,3.3-1.6,5-2.4c0.4-0.2,0.9-0.4,1.3-0.7c1.3-0.6,2.5-1.3,3.8-2c0.5-0.2,0.9-0.5,1.4-0.7
			c1.6-0.9,3.2-1.8,4.8-2.7c0.9-0.5,1.7-1,2.6-1.5c0.2-0.1,0.4-0.2,0.6-0.4c0.6-0.4,1.3-0.8,1.9-1.2c0.6-0.4,1.2-0.7,1.8-1.1
			c0.6-0.4,1.2-0.8,1.8-1.2c0.6-0.4,1.2-0.8,1.7-1.1c0.6-0.4,1.2-0.8,1.8-1.2c0.6-0.4,1.1-0.8,1.6-1.1c0.6-0.4,1.2-0.8,1.8-1.3
			c0.5-0.4,1.1-0.8,1.6-1.1c0.6-0.4,1.1-0.9,1.7-1.3c0.5-0.4,1-0.8,1.5-1.1c0.6-0.4,1.1-0.9,1.7-1.3c0.5-0.4,0.9-0.8,1.4-1.1
			c0.6-0.5,1.1-0.9,1.6-1.4c0.4-0.4,0.9-0.7,1.3-1.1c0.6-0.5,1.1-1,1.6-1.5c0.4-0.3,0.7-0.6,1.1-1l0.1-0.1c1.1-1,2.2-2,3.2-3.1
			c0.3-0.3,0.5-0.5,0.8-0.8c0.8-0.8,1.5-1.6,2.3-2.4c0.3-0.3,0.6-0.6,0.9-1c0.8-0.9,1.6-1.8,2.4-2.6c0.2-0.2,0.3-0.4,0.5-0.5
			c0.9-1.1,1.8-2.1,2.6-3.2c0.1-0.1,0.1-0.2,0.2-0.3c0.2-0.3,0.4-0.5,0.6-0.8c0.5-0.6,0.9-1.2,1.4-1.9c0.3-0.4,0.6-0.8,0.8-1.1
			c0.4-0.6,0.9-1.2,1.3-1.8c0.3-0.4,0.5-0.8,0.8-1.2c0.4-0.6,0.8-1.2,1.2-1.9c0.2-0.4,0.5-0.8,0.7-1.1c0.4-0.7,0.8-1.3,1.2-2
			c0.2-0.3,0.3-0.5,0.5-0.8c0-0.1,0.1-0.2,0.1-0.2c0.3-0.6,0.6-1.2,0.9-1.7c0.2-0.4,0.4-0.8,0.6-1.1c0.3-0.7,0.6-1.3,1-2
			c0.1-0.3,0.3-0.6,0.5-0.9c0.5-1,0.9-1.9,1.3-2.9c0.1-0.1,0.1-0.3,0.2-0.4c0.3-0.8,0.7-1.7,1-2.5V350c0.1-0.3,0.2-0.7,0.4-1
			c0.2-0.6,0.4-1.2,0.6-1.8c0.1-0.4,0.3-0.8,0.4-1.2c0.2-0.6,0.4-1.1,0.5-1.7c0.1-0.4,0.2-0.9,0.4-1.3c0.1-0.5,0.3-1.1,0.4-1.6
			c0.1-0.4,0.2-0.9,0.3-1.3c0.1-0.5,0.2-1,0.3-1.6c0-0.1,0-0.2,0.1-0.3c0.1-0.4,0.1-0.7,0.2-1.1c0.1-0.5,0.2-1.1,0.3-1.6
			c0.1-0.5,0.1-0.9,0.2-1.4s0.2-1.1,0.2-1.6c0.1-0.5,0.1-0.9,0.1-1.4c0.1-0.5,0.1-1.1,0.1-1.6s0.1-0.9,0.1-1.4s0.1-1,0.1-1.5
			c0-0.2,0-0.4,0-0.5c0-0.6,0-1.2,0-1.8c0-6.1,0-12.2,0.1-18.4C459.6,306.7,459.6,307.5,459.5,308.2z"/>
		<g class="st5">
			<path class="st6" d="M397.7,219.5c82.1,47.4,82.5,124.3,1,171.7c-81.6,47.4-214.3,47.4-296.4,0s-82.5-124.3-1-171.7
				C182.9,172.1,315.6,172.1,397.7,219.5z"/>
		</g>
	</g>
	<g>
		<g class="st7">
			<g>
				<g>
					<polygon class="st8" points="341.8,262.2 337.4,259.6 337,104.8 341.4,107.4 					"/>
				</g>
			</g>
			<g>
				<g>
					<polygon class="st9" points="341.4,107.4 337,104.8 369.2,86.2 373.6,88.8 					"/>
				</g>
			</g>
			<g>
				<g>
					<polygon class="st10" points="373.6,88.8 374,243.6 341.8,262.2 341.4,107.4 					"/>
				</g>
			</g>
		</g>
		<g class="st7">
			<g>
				<g>
					<polygon class="st11" points="341.7,202 341.7,206.9 399.2,240.3 399.2,235.4 					"/>
				</g>
			</g>
			<g>
				<g>
					<polygon class="st12" points="399.2,235.4 399.2,240.3 429.7,222.6 429.7,217.8 					"/>
				</g>
			</g>
			<g>
				<g>
					<polygon class="st13" points="341.7,202 399.2,235.4 429.7,217.8 372.2,184.4 					"/>
				</g>
			</g>
		</g>
		<g>
			<g class="st7">
				<g>
					<g>
						<polygon class="st14" points="385.6,197.5 385.6,201.7 368.1,211.9 368.1,207.7 						"/>
					</g>
				</g>
				<g>
					<g>
						<polygon class="st14" points="368.1,207.7 368.1,211.9 346.3,199.3 346.3,195.2 						"/>
					</g>
				</g>
				<g>
					<g>
						<polygon class="st14" points="385.6,197.5 368.1,207.7 346.3,195.2 363.8,185 						"/>
					</g>
				</g>
			</g>
		</g>
		<g>
			<g class="st7">
				<g>
					<g>
						<polygon class="st15" points="382.8,192.3 382.8,195.5 369.6,203.1 369.7,200 						"/>
					</g>
				</g>
				<g>
					<g>
						<polygon class="st16" points="369.7,200 369.6,203.1 353.3,193.7 353.3,190.6 						"/>
					</g>
				</g>
				<g>
					<g>
						<polygon class="st15" points="382.8,192.3 369.7,200 353.3,190.6 366.5,182.9 						"/>
					</g>
				</g>
			</g>
		</g>
		<g class="st17">
			<polygon points="333.6,267.7 377.9,242 439.7,275.6 400.2,298.3 			"/>
		</g>
		<g class="st7">
			<g>
				<g>
					<polygon class="st11" points="341.7,149.7 341.7,154.5 399.2,188 399.2,183.1 					"/>
				</g>
			</g>
			<g>
				<g>
					<polygon class="st12" points="399.2,183.1 399.2,188 429.7,170.3 429.7,165.5 					"/>
				</g>
			</g>
			<g>
				<g>
					<polygon class="st13" points="341.7,149.7 399.2,183.1 429.7,165.5 372.2,132.1 					"/>
				</g>
			</g>
		</g>
		<g class="st7">
			<g>
				<g>
					<polygon class="st11" points="341.7,255.6 341.7,260.4 399.2,293.8 399.2,289 					"/>
				</g>
			</g>
			<g>
				<g>
					<polygon class="st12" points="399.2,289 399.2,293.8 429.7,276.2 429.7,271.4 					"/>
				</g>
			</g>
			<g>
				<g>
					<polygon class="st13" points="341.7,255.6 399.2,289 429.7,271.4 372.2,238 					"/>
				</g>
			</g>
		</g>
		<g class="st17">
			<polygon points="343.1,366.4 344.1,344.4 308.3,326.6 361.5,298.3 291.2,253.1 220,294.2 122.9,273.2 83.1,295.8 140,340.4 
				140,340.4 215.8,383.4 215.8,383.4 			"/>
		</g>
		<g>
			<path class="st18" d="M345.2,342.9c0,0.6-0.4,1.1-1.1,1.5l-34.8,20.1c-0.4,0.2-0.8,0.4-1.2,0.5l0,0c-0.4,0.1-0.9,0.1-1.3,0.2
				c0,0,0,0-0.1,0c-0.4,0-0.9-0.1-1.3-0.1h-0.1c-0.4-0.1-0.8-0.2-1.2-0.4c-0.2-0.1-0.3-0.2-0.4-0.3h-0.1c-0.1-0.1-0.2-0.2-0.3-0.4
				l0,0c-0.1-0.1-0.1-0.2-0.2-0.4c0,0,0,0,0-0.1s-0.1-0.2-0.1-0.4l0,0v2.6c0,0.1,0,0.1,0,0.2v0.1l0,0l0,0c0,0.1,0.1,0.1,0.1,0.2
				c0,0,0,0.1,0.1,0.1v0.1c0,0,0,0,0,0.1c0.1,0.1,0.1,0.2,0.2,0.2l0,0c0.1,0.1,0.2,0.1,0.3,0.2c0.1,0,0.1,0.1,0.2,0.1l0,0
				c0.3,0.2,0.5,0.3,0.8,0.4c0.1,0,0.2,0.1,0.3,0.1h0.1c0.1,0,0.1,0,0.2,0.1c0.2,0,0.3,0,0.5,0.1c0.1,0,0.3,0,0.4,0s0.1,0,0.2,0l0,0
				h0.1c0.1,0,0.2,0,0.4,0c0.1,0,0.2,0,0.4,0c0.1,0,0.3,0,0.4-0.1c0.1,0,0.3-0.1,0.4-0.1c0.2-0.1,0.3-0.1,0.5-0.2s0.4-0.2,0.5-0.3
				l34.8-20.1c0.7-0.4,1.1-1,1.1-1.5L345.2,342.9z"/>
		</g>
		<g>
			<path class="st18" d="M347.2,362.1L347.2,362.1c-0.1,0.2-0.1,0.3-0.2,0.4c0,0,0,0,0,0.1c-0.1,0.1-0.2,0.2-0.3,0.3
				c-0.1,0.1-0.2,0.1-0.3,0.2c-0.1,0.1-0.1,0.1-0.2,0.2c-0.3,0.2-0.7,0.3-1.1,0.4c-0.1,0-0.1,0-0.2,0c-0.4,0.1-0.8,0.1-1.3,0.1h-0.1
				c-0.4,0-0.9-0.1-1.3-0.1h-0.1c-0.4-0.1-0.8-0.3-1.2-0.5l-34.8-20.1c-0.7-0.4-1.1-1-1.1-1.5v2.6c0,0.6,0.4,1.1,1.1,1.5l34.8,20.1
				c0.2,0.1,0.4,0.2,0.5,0.3c0.1,0.1,0.3,0.1,0.5,0.2c0.1,0,0.1,0,0.2,0.1l0,0h0.1c0.1,0,0.2,0,0.4,0.1c0.1,0,0.2,0,0.4,0
				c0.1,0,0.2,0,0.4,0h0.1c0,0,0,0,0.1,0s0.1,0,0.2,0s0.3,0,0.4,0c0.2,0,0.3,0,0.5-0.1c0.1,0,0.1,0,0.2-0.1c0.1,0,0.1,0,0.2,0
				s0.2,0,0.3-0.1c0.3-0.1,0.6-0.2,0.8-0.4l0,0c0.1,0,0.1-0.1,0.2-0.1c0.1-0.1,0.2-0.1,0.3-0.2l0,0c0.1-0.1,0.2-0.2,0.2-0.2
				s0,0,0-0.1c0,0,0,0,0-0.1c0,0,0-0.1,0.1-0.1c0-0.1,0.1-0.1,0.1-0.2l0,0l0,0v-0.1c0-0.1,0-0.1,0-0.2v-2.6l0,0
				C347.3,361.8,347.2,362,347.2,362.1z"/>
		</g>
		<g>
			<g>
				<path class="st19" d="M346.2,360.2c1.5,0.8,1.4,2.2,0,3s-3.8,0.8-5.2,0l-34.8-20.1c-1.5-0.8-1.5-2.2,0-3c1.4-0.8,3.8-0.8,5.2,0
					L346.2,360.2z"/>
			</g>
		</g>
		<g>
			<path class="st20" d="M286.5,326.8c0,0-4.4,1.5-2.9,3.9c1.6,2.4,7.5,5.5,8.5,7.1c1,1.5,6.3,6.7,7.6,5.9c1.3-0.8,5-0.6,3.4-7.3
				C301.5,329.8,292.5,325.5,286.5,326.8z"/>
		</g>
		<g>
			<path class="st21" d="M284.9,280.1c0,0-7.1,2.9,1.2,38.9c4.4,18.9,4.4,18.9,4.4,18.9s4.6,7,14.3,0l-4.8-39.5L284.9,280.1z"/>
		</g>
		<g>
			<path class="st20" d="M292.5,345.3c0,0,2.9,6.3-2.5,8.4s-4.1-1.5-15.9,2.8c-11.8,4.4-13.9-1.8-13.7-3.2c0.1-1.4,7.9-4.8,10.5-5.8
				s7.4-2.8,7.4-2.8l14.4-1.5L292.5,345.3z"/>
		</g>
		<g>
			<path class="st20" d="M292.5,345.3c0,0,2.9,6.3-2.5,8.4s-4.1-1.5-15.9,2.8c-11.8,4.4-13.9-1.8-13.7-3.2c0.1-1.4,7.9-4.8,10.5-5.8
				s9.5-3.8,9.5-3.8l12.3-0.5L292.5,345.3z"/>
		</g>
		<g>
			<path class="st21" d="M272.6,289.4c0,0-5.2,2.5,2.8,37.5c4.4,18.9,4.4,18.9,4.4,18.9s4.6,7,14.3,0l-4.8-39.5L272.6,289.4z"/>
		</g>
		<g>
			<path class="st22" d="M290.1,312.9l-4.6-2.3l4.1,37.6c1.3-0.5,2.8-1.2,4.4-2.4L290.1,312.9z"/>
		</g>
		<g>
			<path class="st22" d="M302.7,320.5l-5.9-5.6l4.7,25c1-0.5,2.1-1.1,3.3-2L302.7,320.5z"/>
		</g>
		<g>
			<g>
				<path class="st23" d="M135,230.5c0-0.3,0.1-0.6,0.1-0.9v-0.1c0.1-0.3,0.1-0.6,0.2-0.8v-0.1c0.1-0.2,0.1-0.4,0.2-0.6
					c0-0.1,0.1-0.1,0.1-0.2c0.1-0.2,0.2-0.3,0.3-0.5c0-0.1,0.1-0.1,0.1-0.2l0.1-0.1c0.2-0.2,0.3-0.5,0.5-0.7
					c0.1-0.1,0.1-0.1,0.2-0.2c0.2-0.2,0.5-0.4,0.7-0.6c-0.8,0.5-1.6,0.9-2.4,1.4c-0.3,0.2-0.5,0.3-0.7,0.6c-0.1,0.1-0.1,0.1-0.2,0.2
					c-0.2,0.2-0.4,0.4-0.5,0.7c0,0,0,0-0.1,0.1l0,0c0,0.1-0.1,0.1-0.1,0.2c-0.1,0.1-0.1,0.3-0.2,0.4v0.1c0,0.1-0.1,0.1-0.1,0.2
					c0,0.1-0.1,0.2-0.1,0.3s-0.1,0.3-0.1,0.4v0.1c0,0,0,0,0,0.1c0,0.2-0.1,0.3-0.1,0.5c0,0.1,0,0.2-0.1,0.3v0.1v0.1
					c0,0.2-0.1,0.3-0.1,0.5c0,0.1,0,0.2,0,0.3c0,0,0,0,0,0.1v0.1c0,0.2,0,0.3,0,0.5s0,0.3,0,0.5l0,0l-0.1,40.4l2.4-1.4l0.1-40.4
					C134.9,231.3,135,230.9,135,230.5L135,230.5z"/>
			</g>
			<g>
				<path class="st23" d="M168,250.2c0-0.2,0-0.4,0-0.6c0-0.1,0-0.1,0-0.2c0,0,0,0,0-0.1s0-0.3,0-0.4c0-0.2,0-0.4-0.1-0.6
					c0-0.1,0-0.2,0-0.3v-0.1c0-0.1,0-0.2,0-0.2c0-0.2-0.1-0.4-0.1-0.6c0-0.1-0.1-0.3-0.1-0.4v-0.1v-0.1c-0.1-0.2-0.1-0.4-0.2-0.6
					c0-0.2-0.1-0.4-0.1-0.6l0,0c0,0,0,0,0-0.1c-0.1-0.2-0.1-0.4-0.2-0.6c-0.1-0.2-0.1-0.4-0.2-0.6l0,0l0,0c-0.1-0.2-0.1-0.4-0.2-0.5
					c-0.1-0.2-0.1-0.4-0.2-0.6c0-0.1-0.1-0.1-0.1-0.2v-0.1c0-0.1-0.1-0.2-0.1-0.3c-0.1-0.2-0.2-0.4-0.2-0.5
					c-0.1-0.1-0.1-0.3-0.2-0.4l0,0c0,0,0,0,0-0.1c-0.1-0.2-0.2-0.4-0.3-0.6c-0.1-0.2-0.2-0.4-0.3-0.6l0,0c0,0,0,0,0-0.1
					c-0.2-0.3-0.3-0.6-0.5-0.8c0-0.1-0.1-0.1-0.1-0.2c-0.1-0.3-0.3-0.5-0.5-0.7c-0.1-0.1-0.2-0.3-0.3-0.4l-0.1-0.1
					c-0.1-0.1-0.1-0.2-0.2-0.3c-0.1-0.1-0.2-0.3-0.3-0.4c-0.1-0.1-0.2-0.3-0.3-0.4l-0.1-0.1l0,0c-0.1-0.2-0.3-0.3-0.4-0.5
					c-0.1-0.1-0.2-0.3-0.4-0.4c0,0,0,0-0.1-0.1c0,0,0,0-0.1-0.1s-0.2-0.2-0.2-0.3c-0.1-0.1-0.3-0.3-0.4-0.4
					c-0.1-0.1-0.1-0.1-0.2-0.2l-0.1-0.1l-0.1-0.1c-0.1-0.1-0.3-0.3-0.4-0.4c-0.1-0.1-0.3-0.2-0.4-0.4l0,0l0,0
					c-0.1-0.1-0.2-0.2-0.4-0.3c-0.1-0.1-0.3-0.2-0.4-0.3c-0.1,0-0.1-0.1-0.2-0.1c0,0-0.1,0-0.1-0.1l-0.1-0.1
					c-0.1-0.1-0.2-0.2-0.4-0.2c-0.1-0.1-0.3-0.2-0.4-0.2c0,0-0.1,0-0.1-0.1l-15.4-8.9c-0.1-0.1-0.2-0.1-0.3-0.2
					c-0.1-0.1-0.2-0.1-0.4-0.2c-0.1,0-0.2-0.1-0.3-0.1l0,0l0,0c-0.1-0.1-0.2-0.1-0.4-0.2c-0.1-0.1-0.2-0.1-0.4-0.1h-0.1
					c0,0,0,0-0.1,0s-0.1,0-0.2-0.1c-0.1,0-0.2-0.1-0.4-0.1c-0.1,0-0.2,0-0.3-0.1c0,0,0,0-0.1,0l0,0c-0.1,0-0.3,0-0.4-0.1
					c-0.1,0-0.3,0-0.4,0l0,0l0,0c-0.2,0-0.3,0-0.5,0c-0.1,0-0.2,0-0.3,0H138c0,0,0,0-0.1,0c-0.2,0-0.4,0-0.6,0.1l0,0
					c-0.1,0-0.2,0.1-0.3,0.1s-0.2,0.1-0.3,0.1c0,0,0,0-0.1,0c-0.3,0.1-0.5,0.2-0.8,0.4c-0.8,0.5-1.6,0.9-2.4,1.4
					c0.3-0.1,0.5-0.3,0.8-0.4c0.1,0,0.3-0.1,0.4-0.1c0.1,0,0.2-0.1,0.3-0.1c0.2,0,0.5-0.1,0.7-0.1h0.1c0.2,0,0.5,0,0.8,0l0,0
					c0.3,0,0.6,0.1,0.8,0.1c0,0,0,0,0.1,0c0.3,0.1,0.5,0.1,0.8,0.2h0.1c0.3,0.1,0.6,0.2,0.9,0.3l0,0c0.3,0.1,0.6,0.3,0.9,0.5
					l15.4,8.9c0.3,0.2,0.7,0.4,1,0.6c0,0,0.1,0,0.1,0.1c0.3,0.2,0.6,0.5,0.9,0.7l0,0c0.3,0.3,0.6,0.5,0.9,0.8l0.1,0.1
					c0.3,0.3,0.6,0.6,0.8,0.9c0,0,0,0,0.1,0.1c0.3,0.3,0.6,0.7,0.8,1c0,0,0,0,0,0.1c0.2,0.3,0.4,0.6,0.7,0.9
					c0.1,0.1,0.1,0.2,0.2,0.3c0.1,0.2,0.2,0.3,0.3,0.5c0.2,0.3,0.3,0.5,0.5,0.8s0.4,0.6,0.5,0.9c0,0,0,0.1,0.1,0.1
					c0.2,0.4,0.4,0.8,0.6,1.3c0,0,0,0,0,0.1c0.2,0.4,0.4,0.8,0.5,1.2c0,0.1,0,0.1,0.1,0.2c0.2,0.4,0.3,0.8,0.5,1.2c0,0,0,0,0,0.1
					c0.1,0.4,0.3,0.9,0.4,1.3v0.1c0.1,0.4,0.2,0.8,0.3,1.3v0.1c0.1,0.4,0.2,0.8,0.2,1.2c0,0.1,0,0.1,0,0.2c0.1,0.4,0.1,0.8,0.1,1.2
					v0.1c0,0.4,0,0.9,0,1.3l-0.1,40.4l2.4-1.4l0.1-40.4C168,250.6,168,250.4,168,250.2z"/>
			</g>
			<g>
				<g>
					<path class="st24" d="M155.6,233.4c5.5,3.2,10.1,11.6,10,18.8l-0.1,40.4l-2.4-1.4l0.1-40.3c0-5.6-3.4-12.2-7.6-14.6l-15.4-8.9
						c-4.2-2.4-7.7,0.2-7.7,5.8l-0.1,40.4L130,272l0.1-40.4c0-7.2,4.6-10.4,10.1-7.2L155.6,233.4z"/>
				</g>
			</g>
		</g>
		<g>
			<g class="st7">
				<g>
					<defs>
						<path id="SVGID_1_" d="M120.7,171.3c1,7.6,2,15.3,2.9,22.9c0.5,3.8,1,7.7,1.5,11.5c1,7.6,2,15.3,2.9,22.9c0,0-0.1-0.1-0.2-0.2
							l-7.3-56.4C120.7,171.8,120.7,171.5,120.7,171.3z"/>
					</defs>
					<clipPath id="SVGID_2_">
						<use xlink:href="#SVGID_1_"  style="overflow:visible;"/>
					</clipPath>
					<g class="st25">
						<g>
							<path class="st26" d="M127.8,228.4l-7.3-56.4l0,0L127.8,228.4L127.8,228.4L127.8,228.4z"/>
						</g>
						<g>
							<path class="st27" d="M127.8,228.4l-7.3-56.4c0,0,0-0.1,0.1-0.1L127.8,228.4C127.9,228.5,127.8,228.5,127.8,228.4
								L127.8,228.4z"/>
						</g>
						<g>
							<path class="st28" d="M127.9,228.5l-7.3-56.6v-0.1L127.9,228.5L127.9,228.5L127.9,228.5z"/>
						</g>
						<g>
							<path class="st29" d="M127.9,228.5l-7.3-56.7c0,0,0,0,0-0.1L127.9,228.5C128,228.5,127.9,228.5,127.9,228.5L127.9,228.5z"/>
						</g>
						<g>
							<path class="st30" d="M128,228.5l-7.3-56.8c0,0,0,0,0-0.1L128,228.5L128,228.5L128,228.5z"/>
						</g>
						<g>
							<path class="st31" d="M128,228.5l-7.3-56.8c0,0,0,0,0-0.1L128,228.5L128,228.5L128,228.5z"/>
						</g>
						<g>
							<path class="st32" d="M128,228.5l-7.3-56.9c0,0,0,0,0-0.1L128,228.5C128,228.6,128,228.5,128,228.5L128,228.5z"/>
						</g>
						<g>
							<path class="st33" d="M128,228.6l-7.3-57c0,0,0,0,0-0.1L128,228.6L128,228.6L128,228.6z"/>
						</g>
						<g>
							<path class="st34" d="M128,228.6l-7.3-57.1c0,0,0,0,0-0.1L128,228.6L128,228.6L128,228.6z"/>
						</g>
						<g>
							<path class="st35" d="M128,228.6l-7.3-57.2v-0.1L128,228.6L128,228.6L128,228.6z"/>
						</g>
						<g>
							<path class="st36" d="M128,228.6l-7.4-57.3l0,0l0.4,2.8l0.4,2.8l0.4,2.9l0.4,2.9l0.4,2.9l0.4,2.9l0.7,5.7l0.4,2.9l0.4,2.9
								l0.7,5.8l0.4,2.9l0.4,2.9l0.4,2.9l0.4,2.9l0.4,2.9l0.4,2.9l0.4,2.9L128,228.6C128.1,228.6,128,228.6,128,228.6L128,228.6z"/>
						</g>
					</g>
				</g>
			</g>
			<g>
				<g>
					<path class="st37" d="M120.6,170.9c2.4,18.5,5.4,37.8,7.8,56.3c-12.2,7.1-25.8,14.7-38,21.8c-2.4-18.5-4.9-37.9-7.3-56.4
						C95.3,185.5,108.3,178,120.6,170.9z"/>
				</g>
			</g>
			<g>
				<path class="st38" d="M120.7,170.3L120.7,170.3L120.7,170.3c0-0.1,0-0.1,0-0.1s0,0,0-0.1c0,0,0,0,0-0.1c0,0,0,0,0-0.1
					c0,0,0,0,0-0.1v-0.1v-0.1l0,0l0,0v-0.1c0,0,0-0.1-0.1-0.1c0,0,0-0.1-0.1-0.1l0,0l-0.1-0.1l-0.1-0.1l0,0l0,0l0,0l-0.1-0.1
					c0,0-0.1,0-0.1-0.1l0,0l0,0l-0.1-0.1c-0.1,0-0.1,0-0.2-0.1l0,0l-0.4-0.2h-0.1c-0.1,0-0.1,0-0.2,0s-0.1,0-0.2,0l0,0l0,0
					c-0.1,0-0.1,0-0.2,0s-0.1,0-0.2,0h-0.1l0,0l0,0c-0.1,0-0.1,0-0.2,0s-0.1,0-0.2,0h-0.1l0,0l0,0c-0.1,0-0.1,0-0.2,0.1
					c-0.1,0-0.1,0.1-0.2,0.1l-1.9,1.1l-1.9,1.1l-1.9,1.1c-1.9,1.1-3.8,2.2-5.6,3.3l-0.1,0.1l-0.3,0.2c-1.7,1-3.5,2-5.2,3l-0.3,0.1
					l-0.2,0.1c-2.3,1.3-4.6,2.7-6.9,4l-0.6,0.3L91,184c-2,1.2-4,2.3-6,3.5l0,0l-1.9,1.1l-0.6,0.3c-1.1,0.6-2.1,1.2-3.2,1.9
					c0,0,0,0,0.1,0l0,0c0.2,0,0.5,0.1,0.9,0.3l0.4,0.2c0.3,0.1,0.7,0.3,1,0.4h0.1l0,0c0.5,0.2,0.9,0.4,1.2,0.6l0,0l0,0
					c0.1,0,0.1,0.1,0.2,0.1l37.5-21.6l0,0l0,0l0,0l0,0l0,0l0,0l0,0l0,0l0,0l0,0l0,0l0,0l0,0l0,0l0,0
					C120.7,170.4,120.7,170.4,120.7,170.3L120.7,170.3z"/>
			</g>
			<g>
				<path class="st39" d="M83.1,192.6C83.1,192.5,83,192.5,83.1,192.6c-0.1-0.1-0.2-0.1-0.2-0.1s0,0-0.1,0c0,0,0,0-0.1,0
					c0,0,0,0-0.1,0c0,0,0,0-0.1,0l0,0c0,0,0,0-0.1,0h-0.1h-0.1c0,0-0.1,0-0.1-0.1c-0.1,0-0.1,0-0.2-0.1l0,0c0,0-0.1-0.1-0.2-0.1l0,0
					l0,0c-0.2-0.1-0.4-0.2-0.7-0.3l0,0l0,0c-0.2-0.1-0.4-0.2-0.6-0.3l-0.4-0.2c-0.7-0.3-1-0.4-1-0.3c0.2,1.7,0.5,4,0.7,5.7l0.7,5.7
					l0.7,5.7c0.7,5.4,1.4,10.7,2.1,16.1l0.2,1.2l0.4,2.9l0.1,0.7c0.6,4.6,1.2,9.1,1.8,13.7l0,0v0.1c0.2,1.9,0.5,3.8,0.7,5.6
					c0.1,0.6,0.5,1.1,1.2,1.4l0.4,0.2c0.2,0.1,0.4,0.1,0.6,0.1l0,0l0,0c0.1,0,0.2,0,0.3,0H89l0,0h0.1c0.1,0,0.1,0,0.2,0l0,0h0.1
					c0,0,0,0,0.1,0c0,0,0,0,0.1,0s0.1,0,0.1-0.1c0,0,0,0,0.1,0l0,0l0,0c0,0,0.1,0,0.1-0.1c0,0,0.1,0,0.1-0.1c0,0,0,0,0.1,0l0,0
					c0,0,0,0,0.1,0c0,0,0,0,0.1-0.1c0,0,0,0,0.1-0.1l0,0l0,0l0,0l0.1-0.1c0,0,0-0.1,0.1-0.1L83.1,192.6z"/>
			</g>
		</g>
		<g>
			<g>
				<path class="st39" d="M130.4,269.5L130.4,269.5C130.4,269.4,130.4,269.4,130.4,269.5c0-0.1,0-0.1,0-0.2l0,0c0-0.1,0-0.2,0-0.3
					l-40.9-23.8c-0.1,0-0.3,0.6-0.4,0.6l0.8,0.1l0,0l0,0h-0.1h-0.1h-0.1l0,0l0,0l0,0c0,0-0.1,0-0.1,0.1c0,0-0.1,0-0.1,0.1
					c0,0,0,0-0.1,0.1l0,0l0,0l-0.1,0.1l-0.1,0.1l0,0l0,0l-0.1,0.1c0,0,0,0.1-0.1,0.1c0,0,0,0.1-0.1,0.1l0,0v0.1
					c0,0.1-0.1,0.2-0.1,0.2s0,0,0,0.1c0,0,0,0,0,0.1c0,0.2-0.1,0.4-0.1,0.6v0.5c0,0.9-1.6,0.7-1,1.1c0.7,0.4,3.5,1.7,4.2,2.2
					l1.8,1.1l2,1.2l2,1.2l1,0.6c1.1,0.6,2.1,1.2,3.2,1.8l2,1.1l2,1.2l2,1.2l2,1.2l2.1,1.2l2.1,1.2l2,1.2l2,1.2l1.9,1.1
					c0.1,0.1,0.2,0.1,0.3,0.2l1.9,1.1l2,1.2l2,1.2l2,1.2l2,1.2c0,0,0-0.5,0-1.4v-0.5c0-0.3,0-0.7,0-1c0-0.1,0-0.1,0-0.2s0-0.2,0-0.3
					c0-0.1,0-0.2,0-0.3c0-0.1,0-0.1,0-0.2s0-0.1,0-0.2V270v-0.1C130.4,269.6,130.4,269.6,130.4,269.5L130.4,269.5z"/>
			</g>
			<g>
				<g>
					<path class="st38" d="M167.9,247.1c-12.2,7.1-25.3,14.7-37.6,21.8c-13.1-7.6-27.4-16-40.5-23.6c12.3-7.1,25.7-14.3,38-21.4
						C140.9,231.5,154.8,239.6,167.9,247.1z"/>
				</g>
			</g>
			<g>
				<path class="st40" d="M169.6,249.1c0-0.1,0-0.1,0-0.2l0,0l0,0v-0.1c0-0.1,0-0.1,0-0.2v-0.1l0,0l0,0c0,0,0-0.1-0.1-0.1
					c0,0,0-0.1-0.1-0.1l0,0l0,0v-0.1c0,0,0-0.1-0.1-0.1c0,0,0-0.1-0.1-0.1l0,0l0,0l0,0c0,0,0,0-0.1-0.1c0,0,0,0-0.1-0.1
					c0,0,0,0-0.1-0.1l0,0c0,0,0,0-0.1,0c0,0,0,0-0.1,0c0,0,0,0-0.1,0c0,0-0.1,0-0.1-0.1c0,0,0,0-0.1,0h-0.1l0,0l0,0l0,0l0,0l0,0l0,0
					l0,0l0,0l0,0l0,0l0,0l0,0l0,0l0,0L130.4,269l0,0l0,0l0,0l0,0l0,0l0,0l0,0l0,0l0,0l0,0l0,0l0,0l0,0v0.1l0,0l0,0
					c0,0.4,0,0.9,0,1.4c0,0,0,0,0,0.1s0,0.1,0,0.2s0,0.1,0,0.2s0,0.1,0,0.2s0,0.1,0,0.2s0,0.1,0,0.2s0,0.1,0,0.2v0.5
					c0,0.2,0,0.3,0,0.4v0.1v0.1c0,0.1,0,0.1,0,0.2l0,0v0.1c0,0,0,0,0,0.1s0,0.1,0,0.2c0,0,0,0,0,0.1s0,0.1,0,0.1l1.9-1.1l1.2-0.7
					c2.1-1.2,4.2-2.4,6.3-3.7h0.1l1.9-1.1l1.9-1.1l1.1-0.7c0.8-0.4,1.5-0.9,2.3-1.3l0.4-0.2l0.2-0.1c1.9-1.1,3.7-2.2,5.6-3.3
					l3.8-2.2c2.6-1.5,5.1-3,7.6-4.4l3.8-2.2c0.1-0.1,0.3-0.2,0.4-0.3l0,0l0,0l0.1-0.1c0-0.1,0.1-0.1,0.1-0.2c0,0,0-0.1,0.1-0.1l0,0
					l0,0c0-0.1,0.1-0.1,0.1-0.2c0-0.1,0-0.1,0.1-0.2v-0.1l0,0l0,0c0-0.1,0-0.1,0-0.2c0-0.1,0-0.1,0-0.2c0-0.1,0-0.1,0-0.2l0,0v-0.5
					C169.6,249.2,169.6,249.1,169.6,249.1z"/>
			</g>
		</g>
		<g>
			<polygon class="st40" points="120.6,170.9 83.1,192.6 89.9,245.4 127.8,224 			"/>
		</g>
		<g>
			<polygon class="st38" points="122.9,188.4 85.3,210 88.4,233.8 126.2,211.1 			"/>
		</g>
		<g>
			<path d="M179.9,298.3c0,0,0.4,5.4,2.7,8.3s13,9.7,12.2,12.6s-8.6,3.1-13.4-1.9c-4.8-5-6.1-5.7-8.2-6.2c-2.1-0.5-5-3.1-2.8-7.6
				C170.5,303.5,177.2,301.7,179.9,298.3z"/>
		</g>
		<g>
			<path d="M166.1,308.2c0,0,0.8,5.6,3.4,8.5c2.6,2.9,14.3,9.3,13.7,12.4c-0.7,3.1-8.8,3.8-14.1-1.1c-5.4-4.9-6.8-5.6-9-6
				s-5.4-2.9-3.4-7.8C156.6,314.3,163.5,312,166.1,308.2z"/>
		</g>
		<g>
			<path class="st21" d="M137.8,227.6c0,0,38.8,21.7,41.1,28.6c3.4,9.8,2.7,16.5,1.1,40.9l0.1,5.7c0,0-5,4-10.4,1.3
				c-1.7-0.9,0-16.9-2.7-25.8c0,0-0.8-10.6,0-13.4c0,0-31.3-10.9-38.6-17.6C121.1,240.6,137.8,227.6,137.8,227.6z"/>
		</g>
		<g>
			<path class="st14" d="M104.8,234.4c0,0-6.2,14,10.2,22.4c17.4,9,35.9,19.9,35.9,19.9s-0.5,11,0.9,17.7c1.8,9,4.6,20.7,4.6,20.7
				s7.5,3,11.7-1.1c0,0,0.4-43.2-4.7-48.1c-5.1-4.9-30.5-24.2-30.5-24.2l4.9-14.2L104.8,234.4z"/>
		</g>
		<g>
			<path class="st21" d="M115,256.9c17.4,9,35.9,19.9,35.9,19.9s-0.5,11,0.9,17.7c1.8,9,3.2,20.3,3.2,20.3s2.7,0.9,4.5,0.9
				c-2.6-11.6-3.7-37.4-4.9-42.2c-1.5-5.9-19.9-12.2-32.9-19.1c-13.1-6.9-13.7-20.6-13.7-20.6l-3.2,0.7
				C104.8,234.4,98.6,248.4,115,256.9z"/>
		</g>
		<g>
			<path class="st14" d="M181.3,296.3c1.6-24.4,0.9-30.3-2.4-40.1c-2.4-6.9-41.1-28.6-41.1-28.6s-2.1,1.7-4.5,4.1
				c10.5,5.2,35.5,18.2,40.2,27c5.4,10.1,1.4,38.2,1.9,46.2c2.4-0.2,5.6-1.4,5.6-1.4L181.3,296.3z"/>
		</g>
		<g>
			<path class="st41" d="M153.8,219.4c0,0,5.3-0.9,7.6,1s4.1,2.5,5.1,4.5s-0.2,3-1.9,2.9c-1.8-0.1-4.7-1-7.3-2.7
				c-2.7-1.7-3.1-1.3-4-1.4C152.3,223.6,151.2,221,153.8,219.4z"/>
		</g>
		<g>
			<path class="st42" d="M130.6,178.3c2.6-0.3,6.7,1.2,6.6,8.1c-0.2,6.9-0.8,26.1-0.8,26.1s17.8,5.3,19.7,6.2c0,0-3.6,1.6-2.7,5.3
				c0,0-20.6,0.4-24.3-4.5C125.4,214.6,120,179.5,130.6,178.3z"/>
		</g>
		<g>
			<path class="st42" d="M100.5,192c0,0,6.2-10.7,30.7-14.2c0,0,3.9-1.6,3.5,11c-0.1,1.8,1.8,5,3.1,6.6c1.3,1.7,4.7,8-2.8,15.6
				c0,0-2.9,11.3,0.6,18.6c3.1,6.5-13,12.9-26.7,11.6c-1.7-0.2-5.4-1.3-3.9-7.2s5-16.2,2.2-27C104.4,196.3,98.7,197.5,100.5,192z"/>
		</g>
		<g>
			<path class="st43" d="M100.5,192c-1.8,5.5,3.9,4.2,6.6,15.1c2.8,10.8-0.7,21.1-2.2,27s2.3,7,3.9,7.2c2.3,0.2,4.6,0.2,6.9,0.1
				c-4.8-10.5,1.3-29.6,1.7-40.2c0.3-11.2-9.8-15.5-9.8-15.5C102.3,189,100.5,192,100.5,192z"/>
		</g>
		<g>
			<path class="st44" d="M135.6,229.7c-3.4-7.3-0.6-18.6-0.6-18.6c7.5-7.6,4.1-13.9,2.8-15.6c-1.3-1.7-3.2-4.8-3.1-6.6
				c0.1-5-0.4-7.8-1.1-9.3c-1.4,1.7-4.3,1.1-3.3,6.9c0.6,3.5-0.6,8.6-6,8.6c-5.4,0-2.3,8.6-2,11c2.2,16.6-6.7,24.4-3.8,34.9
				C129,239.6,138,234.7,135.6,229.7z"/>
		</g>
		<g>
			<g>
				<path class="st45" d="M126.8,158.2c0,0-1.6,12.7-2.4,24.7c-0.1,1.7,1.8,4.8,5,4c0,0,9.2-14.3,1.8-28.5
					c-2.3-4.5-10.7-10.8-20.3-4.2L126.8,158.2z"/>
			</g>
			<g>
				<g>
					<path class="st46" d="M129.4,174.8c0,0-4.4,5.1-2.4,10.6c0.6,1.5,1.9,7.7-7.5,5.2c0,0-9.8-5-6.8-7.9c2-2,3.9-4.8,1-14.9
						L129.4,174.8z"/>
				</g>
				<g>
					<path class="st47" d="M112.7,182.7c-0.3,0.3-0.5,0.6-0.5,1c9,1.8,15.2-4.5,15.2-4.5l-11.6-10.4l0,0c0,0-0.6,0.4-1.5,1.1
						C116.3,178.3,114.5,180.9,112.7,182.7z"/>
				</g>
			</g>
			<g>
				<path class="st48" d="M127.9,156.9c0,0,2.5,0.9,2.6,8.4c0,0.8,1.3,1.9,1.7,4c0.3,2.1,0.8,10.5-4.1,11.3
					c-3.5,0.6-12.2-1.6-15.1-10.1C110.1,162.1,117.4,151.3,127.9,156.9z"/>
			</g>
			<g>
				<path class="st49" d="M127.4,159.9c0,0-21.6,7.9-5.4,35.6c0,0-11.2,1.1-16.2-8.6c-2.4-4.7-1.4-14-0.7-23c0,0,2.5-13.8,14-11.7
					C119.1,152.2,126.7,155.2,127.4,159.9z"/>
			</g>
			<g>
				<path class="st45" d="M127.4,159.9c0,0,3.8-0.7,5.6,6.2c0,0-0.6-19.6-19.2-13.7C113.8,152.4,124.9,153,127.4,159.9z"/>
			</g>
			<g>
				<path class="st48" d="M117.3,172c0,0-1.3-4.2-3.7-2.9c-0.8,0.4-1.6,1.3-0.4,3.4c1.1,2.1,3.5,4.1,5.4,3.9L117.3,172z"/>
			</g>
		</g>
		<g>
			<g>
				<path class="st16" d="M138.5,255.5v-16.9l25.6-14.9v16.9c0,1.2-0.4,2-1.1,2.4l-25.6,14.9C138.1,257.5,138.5,256.7,138.5,255.5z"
					/>
			</g>
			<g>
				<g>
					<path class="st16" d="M134.9,232.3c-2-1.2-3.7-0.2-3.7,2.1v16.9c0,2.3,1.6,5.2,3.7,6.3c2,1.2,3.7,0.2,3.7-2.1v-16.9
						C138.5,236.3,136.9,233.5,134.9,232.3z"/>
				</g>
			</g>
			<g>
				<g>
					<path class="st16" d="M134.9,232.3c-2-1.2-3.7-0.2-3.7,2.1v16.9c0,2.3,1.6,5.2,3.7,6.3c2,1.2,3.7,0.2,3.7-2.1v-16.9
						C138.5,236.3,136.9,233.5,134.9,232.3z"/>
				</g>
			</g>
			<g>
				<path class="st16" d="M134.7,233.6c1.6,0.9,2.9,3.1,2.9,5v1.4l-5.7-3.5v-1.2C131.8,233.4,133.1,232.7,134.7,233.6z"/>
			</g>
			<g>
				<path class="st16" d="M134.7,233.6c0.3,0.2,0.6,0.4,0.9,0.7l-3.8,2v-1.1C131.8,233.4,133.1,232.7,134.7,233.6z"/>
			</g>
			<g>
				<path class="st16" d="M157.9,217.1L157.9,217.1c0.1,0,0.1-0.1,0.2-0.1c0.1,0,0.1,0,0.2-0.1h0.1l0,0l0,0c0.1,0,0.1,0,0.2,0
					c0.1,0,0.2,0,0.2,0h0.1c0,0,0,0,0.1,0s0.1,0,0.1,0c0.1,0,0.2,0,0.3,0.1h0.1c0,0,0.1,0,0.1,0.1c0.1,0,0.1,0,0.2,0.1
					c0.2,0.1,0.3,0.2,0.5,0.3c0.4,0.3,0.8,0.6,1.2,1c0.1,0.1,0.1,0.1,0.2,0.2c0,0,0,0,0.1,0.1s0.1,0.1,0.2,0.2
					c0.1,0.1,0.2,0.2,0.3,0.4c0.1,0.1,0.2,0.2,0.2,0.3c0.1,0.1,0.1,0.2,0.2,0.3c0.1,0.1,0.1,0.2,0.2,0.3c0.1,0.1,0.1,0.2,0.2,0.3
					c0.1,0.1,0.1,0.2,0.2,0.3c0.1,0.1,0.1,0.2,0.1,0.3s0.1,0.2,0.1,0.3s0.1,0.2,0.1,0.4c0,0.1,0,0.1,0.1,0.2l0,0v0.1
					c0,0.1,0.1,0.3,0.1,0.4c0,0.2,0.1,0.3,0.1,0.5s0,0.5,0,0.7v10.5l-25.7,15.1v-10.7c0-0.6-0.1-1.2-0.3-1.8l0,0
					c-0.2-0.6-0.4-1.2-0.8-1.8l0,0c-0.3-0.6-0.7-1.1-1.1-1.5c0,0,0,0-0.1-0.1c-0.4-0.5-0.9-0.8-1.4-1.1c-0.2-0.1-0.5-0.2-0.7-0.3
					c-0.1,0-0.1,0-0.1,0c-0.2-0.1-0.4-0.1-0.6-0.1c0,0,0,0-0.1,0c-0.2,0-0.4,0-0.6,0l0,0c-0.2,0-0.4,0.1-0.5,0.2L157.9,217.1z"/>
			</g>
			<g>
				<g class="st7">
					<g>
						<g>
							<polygon class="st50" points="150.4,240.2 149.9,239.9 149.9,243.9 150.4,244.2 							"/>
						</g>
					</g>
					<g>
						<g>
							<polygon class="st51" points="154.7,237.7 154.2,237.4 149.9,239.9 150.4,240.2 							"/>
						</g>
					</g>
					<g>
						<g>
							<polygon class="st52" points="150.4,240.2 150.4,244.2 154.7,241.7 154.7,237.7 							"/>
						</g>
					</g>
				</g>
			</g>
			<g>
				<path class="st16" d="M157.9,217.1c0.1,0,0.1-0.1,0.2-0.1c0.1,0,0.1,0,0.2-0.1h0.1l0,0l0,0c0.1,0,0.1,0,0.2,0c0.1,0,0.2,0,0.2,0
					h0.1c0,0,0,0,0.1,0s0.1,0,0.1,0c0.1,0,0.2,0,0.3,0.1h0.1c0,0,0.1,0,0.1,0.1c0.1,0,0.1,0,0.2,0.1c0.2,0.1,0.3,0.2,0.5,0.3
					c0.4,0.3,0.8,0.6,1.2,1c0.1,0.1,0.1,0.1,0.2,0.2c0,0,0,0,0.1,0.1s0.1,0.1,0.2,0.2c0.1,0.1,0.2,0.2,0.3,0.4
					c0.1,0.1,0.2,0.2,0.2,0.3c0.1,0.1,0.1,0.2,0.2,0.3c0.1,0.1,0.1,0.2,0.2,0.3c0.1,0.1,0.1,0.2,0.2,0.3c0.1,0.1,0.1,0.2,0.2,0.3
					c0.1,0.1,0.1,0.2,0.1,0.3s0.1,0.2,0.1,0.3s0.1,0.2,0.1,0.4c0,0.1,0,0.1,0.1,0.2l0,0v0.1c0,0.1,0.1,0.3,0.1,0.4
					c0,0.2,0.1,0.3,0.1,0.5s0,0.5,0,0.7v10.1c-5.9-12.2-26.8-3.2-31.1-2.1c-0.1,0-0.2,0-0.3,0l0,0c-0.2,0-0.4,0.1-0.5,0.2
					L157.9,217.1L157.9,217.1z"/>
			</g>
			<g>
				<g>
					<polygon class="st16" points="152.1,221.7 151,221.1 151,223.2 152.1,223.8 					"/>
				</g>
			</g>
			<g>
				<polygon class="st53" points="144.4,224.8 144.4,226.1 144.4,228.2 143.4,227.6 143.4,225.5 143.4,224.2 				"/>
			</g>
			<g>
				<polygon class="st54" points="144.3,223.6 151,219.8 152,219.2 153,219.9 152.1,220.4 145.4,224.3 144.4,224.8 143.4,224.2 				
					"/>
			</g>
			<g>
				<g>
					<polygon class="st16" points="144.4,224.8 144.4,226.1 144.4,228.2 145.4,227.7 145.4,225.5 152.1,221.7 152.1,223.8 
						153.1,223.3 153.1,221.1 153,219.9 152.1,220.4 145.4,224.3 					"/>
				</g>
			</g>
			<g>
				<path class="st16" d="M134.8,257.6c-2-1.2-3.7-4-3.7-6.3v-8.6c1.2,3.9,3.5,9.7,7.3,11.5v1.4
					C138.5,257.8,136.8,258.8,134.8,257.6z"/>
			</g>
		</g>
		<g>
			<path class="st41" d="M132.8,227.1c0,0,5.4,0.2,7.3,2.5c1.9,2.3,4.4,4.7,5,6.8s0.2,2.9-1.5,2.5s-6.2-3.3-8.5-5.5
				c-2.3-2.1-2.8-1.8-3.6-2.2C130.6,230.9,130,228.2,132.8,227.1z"/>
		</g>
		<g>
			<g>
				<path class="st23" d="M92.6,255.5c0-0.3,0.1-0.6,0.1-0.9v-0.1c0.1-0.3,0.1-0.6,0.2-0.8v-0.1c0.1-0.2,0.1-0.4,0.2-0.6
					c0-0.1,0.1-0.1,0.1-0.2c0.1-0.2,0.2-0.3,0.3-0.5c0-0.1,0.1-0.1,0.1-0.2l0.1-0.1c0.2-0.2,0.4-0.5,0.5-0.7
					c0.1-0.1,0.1-0.1,0.2-0.2c0.2-0.2,0.5-0.4,0.7-0.6c-0.8,0.5-1.6,0.9-2.4,1.4c-0.3,0.2-0.5,0.4-0.7,0.6c-0.1,0.1-0.1,0.1-0.2,0.2
					c-0.2,0.2-0.4,0.4-0.5,0.7c0,0,0,0-0.1,0.1l0,0c0,0.1-0.1,0.1-0.1,0.2c-0.1,0.1-0.1,0.3-0.2,0.4v0.1c0,0.1-0.1,0.1-0.1,0.2
					c0,0.1-0.1,0.2-0.1,0.3c-0.1,0.1-0.1,0.3-0.1,0.4v0.1c0,0,0,0,0,0.1c0,0.2-0.1,0.3-0.1,0.5c0,0.1,0,0.2-0.1,0.3v0.1v0.1
					c0,0.2,0,0.3-0.1,0.5c0,0.1,0,0.2,0,0.4l0,0v0.1c0,0.2,0,0.3,0,0.5s0,0.3,0,0.5l0,0L90,298.6l2.4-1.4l0.1-40.5
					C92.5,256.3,92.6,255.9,92.6,255.5L92.6,255.5z"/>
			</g>
			<g>
				<path class="st23" d="M125.8,275.3c0-0.2,0-0.4,0-0.6c0-0.1,0-0.1,0-0.2c0,0,0,0,0-0.1s0-0.3,0-0.4c0-0.2,0-0.4-0.1-0.6
					c0-0.1,0-0.2,0-0.2c0-0.1,0-0.1,0-0.1c0-0.1,0-0.2,0-0.2c0-0.2-0.1-0.4-0.1-0.6c0-0.1,0-0.3-0.1-0.4v-0.1v-0.1
					c0-0.2-0.1-0.4-0.1-0.6s-0.1-0.4-0.1-0.6l0,0c0,0,0,0,0-0.1c-0.1-0.2-0.1-0.4-0.2-0.6s-0.1-0.4-0.2-0.6c0,0,0,0,0-0.1l0,0
					c-0.1-0.2-0.1-0.4-0.2-0.5c-0.1-0.2-0.1-0.4-0.2-0.6c0-0.1-0.1-0.1-0.1-0.2v-0.1c0-0.1-0.1-0.2-0.1-0.3
					c-0.1-0.2-0.2-0.4-0.2-0.6c-0.1-0.1-0.1-0.3-0.2-0.4l0,0c0,0,0,0,0-0.1c-0.1-0.2-0.2-0.4-0.3-0.6c-0.1-0.2-0.2-0.4-0.3-0.6l0,0
					c0,0,0,0,0-0.1c-0.2-0.3-0.3-0.6-0.5-0.9c0-0.1-0.1-0.1-0.1-0.2c-0.2-0.3-0.3-0.5-0.5-0.7c-0.1-0.1-0.2-0.3-0.2-0.4l-0.1-0.1
					c-0.1-0.1-0.1-0.2-0.2-0.3c-0.1-0.1-0.2-0.3-0.3-0.4c-0.1-0.1-0.2-0.3-0.3-0.4c0,0,0-0.1-0.1-0.1l0,0c-0.1-0.2-0.3-0.3-0.4-0.5
					c-0.1-0.1-0.2-0.3-0.4-0.4c0,0,0,0-0.1-0.1c0,0,0,0-0.1-0.1s-0.2-0.2-0.3-0.3c-0.1-0.1-0.3-0.3-0.4-0.4s-0.1-0.1-0.2-0.2
					l-0.1-0.1l-0.1-0.1c-0.1-0.1-0.3-0.3-0.4-0.4s-0.3-0.2-0.4-0.4l0,0l0,0c-0.1-0.1-0.3-0.2-0.4-0.3c-0.1-0.1-0.3-0.2-0.4-0.3
					c-0.1,0-0.1-0.1-0.2-0.1l-0.1-0.1l-0.1-0.1c-0.1-0.1-0.3-0.2-0.4-0.2c-0.1-0.1-0.3-0.2-0.4-0.2c0,0-0.1,0-0.1-0.1l-15.4-8.9
					c-0.1-0.1-0.2-0.1-0.3-0.2c-0.1-0.1-0.2-0.1-0.4-0.2c-0.1,0-0.2-0.1-0.3-0.1l0,0l0,0c-0.1-0.1-0.2-0.1-0.4-0.2
					c-0.1,0-0.2-0.1-0.4-0.1h-0.1c0,0,0,0-0.1,0s-0.1,0-0.2-0.1c-0.1,0-0.2-0.1-0.4-0.1c-0.1,0-0.2,0-0.3-0.1c0,0,0,0-0.1,0
					c0,0,0,0-0.1,0s-0.3,0-0.4-0.1c-0.1,0-0.3,0-0.4,0l0,0l0,0c-0.2,0-0.3,0-0.4,0s-0.2,0-0.3,0h-0.1h-0.1c-0.2,0-0.4,0-0.6,0.1
					c0,0,0,0-0.1,0s-0.2,0.1-0.3,0.1c-0.1,0-0.2,0.1-0.3,0.1c0,0,0,0-0.1,0c-0.3,0.1-0.5,0.2-0.8,0.4c-0.8,0.5-1.6,0.9-2.4,1.4
					c0.2-0.1,0.5-0.3,0.8-0.4c0.1-0.1,0.3-0.1,0.4-0.1s0.2-0.1,0.3-0.1c0.2,0,0.5-0.1,0.7-0.1h0.1c0.3,0,0.5,0,0.8,0l0,0
					c0.3,0,0.6,0.1,0.8,0.1l0,0c0.3,0.1,0.6,0.1,0.8,0.2H96c0.3,0.1,0.6,0.2,0.9,0.4l0,0c0.3,0.1,0.6,0.3,0.9,0.5l15.4,8.9
					c0.3,0.2,0.7,0.4,1,0.6c0,0,0.1,0,0.1,0.1c0.3,0.2,0.6,0.5,0.9,0.7l0,0c0.3,0.3,0.6,0.5,0.9,0.8l0.1,0.1
					c0.3,0.3,0.6,0.6,0.8,0.9c0,0,0,0,0.1,0.1c0.3,0.3,0.6,0.7,0.8,1l0,0c0.2,0.3,0.4,0.6,0.6,0.9c0.1,0.1,0.1,0.2,0.2,0.3
					c0.1,0.2,0.2,0.3,0.3,0.5c0.2,0.3,0.3,0.5,0.5,0.8s0.4,0.6,0.5,1c0,0,0,0.1,0.1,0.1c0.2,0.4,0.4,0.8,0.6,1.3c0,0,0,0,0,0.1
					c0.2,0.4,0.4,0.8,0.5,1.2c0,0.1,0,0.1,0.1,0.2c0.2,0.4,0.3,0.8,0.5,1.3c0,0,0,0,0,0.1c0.2,0.4,0.3,0.9,0.4,1.3v0.1
					c0.1,0.4,0.2,0.8,0.3,1.3v0.1c0.1,0.4,0.2,0.8,0.2,1.2c0,0.1,0,0.1,0,0.2c0.1,0.4,0.1,0.8,0.1,1.2v0.1c0,0.4,0,0.9,0,1.3
					l-0.1,40.5l2.4-1.4l0.1-40.5C125.8,275.6,125.8,275.5,125.8,275.3z"/>
			</g>
			<g>
				<g>
					<path class="st24" d="M113.3,258.4c5.6,3.2,10.1,11.7,10.1,18.9l-0.1,40.5l-2.4-1.4l0.1-40.5c0-5.7-3.4-12.3-7.7-14.7
						l-15.4-8.9c-4.2-2.4-7.7,0.2-7.7,5.8L90,298.6l-2.4-1.4l0.1-40.5c0-7.2,4.6-10.4,10.1-7.2L113.3,258.4z"/>
				</g>
			</g>
		</g>
		<g>
			<g class="st7">
				<g>
					<g>
						<polygon class="st55" points="332.7,305.2 336.3,303.1 336.5,218.7 332.9,220.8 						"/>
					</g>
				</g>
				<g>
					<g>
						<polygon class="st56" points="332.9,220.8 336.5,218.7 287.5,190.4 283.9,192.5 						"/>
					</g>
				</g>
				<g>
					<g>
						<polygon class="st13" points="283.9,192.5 283.6,276.9 332.7,305.2 332.9,220.8 						"/>
					</g>
				</g>
			</g>
		</g>
		<g>
			<g class="st7">
				<g>
					<g>
						<polygon class="st57" points="210.6,377 214.2,374.8 214.4,290.5 210.8,292.6 						"/>
					</g>
				</g>
				<g>
					<g>
						<polygon class="st56" points="210.8,292.6 214.4,290.5 165.4,262.2 161.8,264.3 						"/>
					</g>
				</g>
				<g>
					<g>
						<polygon class="st13" points="161.8,264.3 161.5,348.6 210.6,377 210.8,292.6 						"/>
					</g>
				</g>
			</g>
		</g>
		<g>
			<g class="st7">
				<g>
					<g>
						<polygon class="st58" points="139.8,270 139.8,275.4 203,312.1 203,306.7 						"/>
					</g>
				</g>
				<g>
					<g>
						<polygon class="st58" points="203,306.7 203,312.1 346.9,229 346.9,223.7 						"/>
					</g>
				</g>
				<g>
					<g>
						<polygon class="st59" points="139.8,270 203,306.7 346.9,223.7 283.7,186.9 						"/>
					</g>
				</g>
			</g>
		</g>
		<g>
			<g>
				<polygon class="st60" points="164,275.3 192.9,292 215.2,279.1 186.4,262.4 				"/>
			</g>
		</g>
		<g class="st61">
			<g>
				<path d="M215.8,248.1c3.7,2.1,3.7,5.6,0,7.7s-9.6,2.1-13.3,0c-3.7-2.1-3.7-5.6,0-7.7C206.1,245.9,212.1,245.9,215.8,248.1z"/>
			</g>
		</g>
		<g class="st61">
			<g>
				<polygon points="228.5,235.7 245.2,245.4 284.6,222.6 267.9,212.9 				"/>
			</g>
		</g>
		<g>
			<g class="st7">
				<g>
					<g>
						<polygon class="st62" points="236.6,232 236.7,234.3 248.2,241 248.2,238.7 						"/>
					</g>
				</g>
				<g>
					<g>
						<polygon class="st63" points="248.2,238.7 248.2,241 275.5,225.3 275.5,222.9 						"/>
					</g>
				</g>
				<g>
					<g>
						<polygon class="st64" points="236.6,232 248.2,238.7 275.5,222.9 264,216.2 						"/>
					</g>
				</g>
				<g>
					<g class="st65">
						<polygon class="st66" points="236.6,232 275.5,222.9 275.5,222.9 264,216.2 						"/>
					</g>
				</g>
			</g>
			<g class="st7">
				<g>
					<g>
						<polygon class="st62" points="247.3,234.3 245.3,233.1 245.2,211.8 247.2,212.9 						"/>
					</g>
				</g>
				<g>
					<g>
						<polygon class="st60" points="247.2,212.9 245.2,211.8 263.8,201 265.8,202.2 						"/>
					</g>
				</g>
				<g>
					<g>
						<polygon class="st67" points="265.8,202.2 265.9,223.6 247.3,234.3 247.2,212.9 						"/>
					</g>
				</g>
			</g>
			<g>
				<polygon class="st68" points="228.6,234.1 226.6,233.6 218.1,191.7 220.1,192.3 				"/>
			</g>
			<g>
				<polygon class="st69" points="220.1,192.3 218.1,191.7 273.3,159.9 275.3,160.5 				"/>
			</g>
			<g>
				<polygon class="st67" points="275.3,160.5 283.8,202.3 228.6,234.1 220.1,192.3 				"/>
			</g>
			<g>
				<polygon class="st66" points="273.8,163.8 281.3,201.5 230.3,231 222.4,192.8 				"/>
			</g>
			<g>
				<polygon class="st70" points="267.2,176.1 272.1,200.6 238.9,219.9 233.8,195 				"/>
			</g>
			<g>
				<polygon class="st66" points="267.3,184.2 267.5,185.3 248.9,196.6 248.7,195.5 				"/>
			</g>
			<g>
				<polygon class="st66" points="266.8,181.3 267,182.4 248.4,193.7 248.2,192.6 				"/>
			</g>
			<g>
				<polygon class="st66" points="268.7,190.9 268.9,192 250.3,203.2 250.1,202.1 				"/>
			</g>
			<g>
				<polygon class="st66" points="268.2,187.9 268.4,189 249.8,200.3 249.6,199.2 				"/>
			</g>
			<g>
				<polygon class="st70" points="227.4,192.3 227.8,194.4 225,196 224.6,193.9 				"/>
			</g>
			<g>
				<polygon class="st70" points="228.7,197.7 229.1,199.7 226.3,201.4 225.8,199.3 				"/>
			</g>
			<g>
				<polygon class="st70" points="229.8,203.5 230.2,205.5 227.4,207.2 227,205.1 				"/>
			</g>
			<g>
				<polygon class="st70" points="230.7,208.7 231.2,210.8 228.3,212.4 227.9,210.3 				"/>
			</g>
			<g>
				<g>
					<path class="st71" d="M236.7,196.1l8.7-4.6l2.2,11.2l-8.7,4.6L236.7,196.1z M239.1,205.6l7.8-4.1c-0.5-1.6-1.7-2.6-3.1-2.6
						c0.1-0.4,0.1-0.9,0-1.3c-0.2-1.3-1.3-1.8-2.3-1.3s-1.6,2-1.4,3.2c0.1,0.4,0.3,0.8,0.5,1C239.5,201.9,238.9,203.8,239.1,205.6
						L239.1,205.6z"/>
				</g>
			</g>
			<g>
				<g>
					<path class="st72" d="M241.5,196.3c1-0.5,2,0.1,2.3,1.3c0.1,0.4,0.1,0.9,0,1.3c1.4,0,2.6,1,3.1,2.6l-7.8,4.1
						c-0.1-1.8,0.5-3.7,1.6-5.1c-0.2-0.3-0.4-0.6-0.5-1C239.9,198.3,240.5,196.8,241.5,196.3z"/>
				</g>
			</g>
		</g>
		<g class="st61">
			<g>
				<polygon points="245.6,257.1 262.9,267.1 314.9,237.1 297.6,227 				"/>
			</g>
		</g>
		<g>
			<g>
				<g class="st7">
					<g>
						<g>
							<polygon class="st68" points="246.2,252.8 246.2,255.6 262.4,265 262.4,262.2 							"/>
						</g>
					</g>
					<g>
						<g>
							<polygon class="st63" points="262.4,262.2 262.4,265 311.1,236.9 311.1,234.1 							"/>
						</g>
					</g>
					<g>
						<g>
							<polygon class="st64" points="246.2,252.8 262.4,262.2 311.1,234.1 294.9,224.7 							"/>
						</g>
					</g>
				</g>
			</g>
			<g>
				<g>
					<g>
						<polygon class="st73" points="252.1,252.5 253.6,253.4 255.5,252.3 254,251.5 						"/>
					</g>
				</g>
				<g>
					<g>
						<polygon class="st73" points="254.9,251 256.4,251.8 258.2,250.8 256.7,249.9 						"/>
					</g>
				</g>
				<g>
					<g>
						<polygon class="st73" points="257.8,249.4 259.3,250.3 261.1,249.2 259.7,248.3 						"/>
					</g>
				</g>
				<g>
					<g>
						<polygon class="st73" points="260.5,247.8 262,248.7 263.9,247.6 262.4,246.8 						"/>
					</g>
				</g>
				<g>
					<g>
						<polygon class="st73" points="263.2,246.3 264.7,247.2 266.5,246.1 265.1,245.2 						"/>
					</g>
				</g>
				<g>
					<g>
						<polygon class="st73" points="265.9,244.7 267.4,245.6 269.3,244.5 267.8,243.7 						"/>
					</g>
				</g>
				<g>
					<g>
						<polygon class="st73" points="268.9,243.1 270.3,244 272.2,242.9 270.7,242.1 						"/>
					</g>
				</g>
				<g>
					<g>
						<polygon class="st73" points="271.6,241.6 273.1,242.4 274.9,241.4 273.5,240.5 						"/>
					</g>
				</g>
			</g>
			<g>
				<g>
					<g>
						<polygon class="st73" points="274.2,240.2 275.6,241.1 277.5,240 276,239.1 						"/>
					</g>
				</g>
				<g>
					<g>
						<polygon class="st73" points="276.9,238.7 278.4,239.5 280.2,238.4 278.8,237.6 						"/>
					</g>
				</g>
				<g>
					<g>
						<polygon class="st73" points="279.8,237.1 281.3,237.9 283.2,236.8 281.7,236 						"/>
					</g>
				</g>
				<g>
					<g>
						<polygon class="st73" points="282.6,235.5 284,236.4 285.9,235.3 284.4,234.4 						"/>
					</g>
				</g>
				<g>
					<g>
						<polygon class="st73" points="285.2,234 286.7,234.8 288.6,233.7 287.1,232.9 						"/>
					</g>
				</g>
				<g>
					<g>
						<polygon class="st73" points="288,232.4 289.4,233.3 291.3,232.2 289.8,231.3 						"/>
					</g>
				</g>
				<g>
					<g>
						<polygon class="st73" points="290.9,230.8 292.4,231.7 294.2,230.6 292.7,229.7 						"/>
					</g>
				</g>
				<g>
					<g>
						<polygon class="st73" points="293.6,229.2 295.1,230.1 297,229 295.5,228.2 						"/>
					</g>
				</g>
			</g>
			<g>
				<g>
					<g>
						<polygon class="st73" points="255.1,254.2 256.6,255.1 258.4,254 256.9,253.1 						"/>
					</g>
				</g>
				<g>
					<g>
						<polygon class="st73" points="257.8,252.6 259.3,253.5 261.2,252.4 259.7,251.6 						"/>
					</g>
				</g>
				<g>
					<g>
						<polygon class="st73" points="260.7,251 262.2,251.9 264.1,250.8 262.6,250 						"/>
					</g>
				</g>
				<g>
					<g>
						<polygon class="st73" points="263.5,249.5 264.9,250.3 266.8,249.3 265.3,248.4 						"/>
					</g>
				</g>
				<g>
					<g>
						<polygon class="st73" points="266.1,247.9 267.6,248.8 269.5,247.7 268,246.9 						"/>
					</g>
				</g>
				<g>
					<g>
						<polygon class="st73" points="268.9,246.4 270.4,247.2 272.2,246.2 270.7,245.3 						"/>
					</g>
				</g>
				<g>
					<g>
						<polygon class="st73" points="271.8,244.8 273.3,245.7 275.1,244.6 273.7,243.7 						"/>
					</g>
				</g>
				<g>
					<g>
						<polygon class="st73" points="274.5,243.2 276,244.1 277.9,243 276.4,242.2 						"/>
					</g>
				</g>
			</g>
			<g>
				<g>
					<g>
						<polygon class="st73" points="277.1,241.9 278.6,242.7 280.4,241.7 279,240.8 						"/>
					</g>
				</g>
				<g>
					<g>
						<polygon class="st73" points="279.8,240.3 281.3,241.2 283.2,240.1 281.7,239.2 						"/>
					</g>
				</g>
				<g>
					<g>
						<polygon class="st73" points="282.8,238.7 284.2,239.6 286.1,238.5 284.6,237.6 						"/>
					</g>
				</g>
				<g>
					<g>
						<polygon class="st73" points="285.5,237.1 287,238 288.8,236.9 287.4,236.1 						"/>
					</g>
				</g>
				<g>
					<g>
						<polygon class="st73" points="288.2,235.6 289.6,236.5 291.5,235.4 290,234.5 						"/>
					</g>
				</g>
				<g>
					<g>
						<polygon class="st73" points="290.9,234.1 292.4,234.9 294.2,233.8 292.8,233 						"/>
					</g>
				</g>
				<g>
					<g>
						<polygon class="st73" points="293.8,232.5 295.3,233.3 297.2,232.2 295.7,231.4 						"/>
					</g>
				</g>
				<g>
					<g>
						<polygon class="st73" points="296.6,230.9 298,231.8 299.9,230.7 298.4,229.8 						"/>
					</g>
				</g>
			</g>
			<g>
				<g>
					<g>
						<polygon class="st73" points="257.8,256 259.3,256.8 261.2,255.7 259.7,254.9 						"/>
					</g>
				</g>
				<g>
					<g>
						<polygon class="st73" points="260.6,254.4 262,255.2 263.9,254.2 262.4,253.3 						"/>
					</g>
				</g>
				<g>
					<g>
						<polygon class="st73" points="263.5,252.8 265,253.7 266.8,252.6 265.3,251.7 						"/>
					</g>
				</g>
				<g>
					<g>
						<polygon class="st73" points="266.2,251.2 267.7,252.1 269.6,251 268.1,250.2 						"/>
					</g>
				</g>
				<g>
					<g>
						<polygon class="st73" points="268.9,249.7 270.4,250.6 272.2,249.5 270.8,248.6 						"/>
					</g>
				</g>
				<g>
					<g>
						<polygon class="st73" points="271.6,248.1 273.1,249 275,247.9 273.5,247.1 						"/>
					</g>
				</g>
				<g>
					<g>
						<polygon class="st73" points="274.6,246.5 276,247.4 277.9,246.3 276.4,245.5 						"/>
					</g>
				</g>
				<g>
					<g>
						<polygon class="st73" points="277.3,245 278.8,245.8 280.6,244.8 279.2,243.9 						"/>
					</g>
				</g>
			</g>
			<g>
				<g>
					<g>
						<polygon class="st73" points="279.8,243.6 281.3,244.5 283.2,243.4 281.7,242.5 						"/>
					</g>
				</g>
				<g>
					<g>
						<polygon class="st73" points="282.6,242.1 284.1,242.9 285.9,241.8 284.4,241 						"/>
					</g>
				</g>
				<g>
					<g>
						<polygon class="st73" points="285.5,240.5 287,241.3 288.8,240.2 287.4,239.4 						"/>
					</g>
				</g>
				<g>
					<g>
						<polygon class="st73" points="288.2,238.9 289.7,239.8 291.6,238.7 290.1,237.8 						"/>
					</g>
				</g>
				<g>
					<g>
						<polygon class="st73" points="290.9,237.4 292.4,238.2 294.3,237.1 292.8,236.3 						"/>
					</g>
				</g>
				<g>
					<g>
						<polygon class="st73" points="293.6,235.8 295.1,236.7 297,235.6 295.5,234.7 						"/>
					</g>
				</g>
				<g>
					<g>
						<polygon class="st73" points="296.6,234.2 298.1,235.1 299.9,234 298.4,233.1 						"/>
					</g>
				</g>
				<g>
					<g>
						<polygon class="st73" points="299.3,232.6 300.8,233.5 302.6,232.4 301.2,231.6 						"/>
					</g>
				</g>
			</g>
			<g>
				<g>
					<g>
						<polygon class="st73" points="260.3,257.6 261.8,258.5 263.7,257.4 262.2,256.5 						"/>
					</g>
				</g>
				<g>
					<g>
						<polygon class="st73" points="263.1,256 264.6,256.9 266.4,255.8 264.9,255 						"/>
					</g>
				</g>
				<g>
					<g>
						<polygon class="st73" points="266,254.4 267.5,255.3 269.4,254.2 267.9,253.4 						"/>
					</g>
				</g>
				<g>
					<g>
						<polygon class="st73" points="268.7,252.9 270.2,253.7 272.1,252.7 270.6,251.8 						"/>
					</g>
				</g>
				<g>
					<g>
						<polygon class="st73" points="271.4,251.3 272.9,252.2 274.8,251.1 273.3,250.3 						"/>
					</g>
				</g>
				<g>
					<g>
						<polygon class="st73" points="274.1,249.8 275.6,250.6 277.5,249.6 276,248.7 						"/>
					</g>
				</g>
				<g>
					<g>
						<polygon class="st73" points="277.1,248.2 278.6,249.1 280.4,248 278.9,247.1 						"/>
					</g>
				</g>
				<g>
					<g>
						<polygon class="st73" points="279.8,246.6 281.3,247.5 283.1,246.4 281.7,245.6 						"/>
					</g>
				</g>
			</g>
			<g>
				<g>
					<g>
						<polygon class="st73" points="282.4,245.3 283.8,246.1 285.7,245.1 284.2,244.2 						"/>
					</g>
				</g>
				<g>
					<g>
						<polygon class="st73" points="285.1,243.7 286.6,244.6 288.4,243.5 287,242.6 						"/>
					</g>
				</g>
				<g>
					<g>
						<polygon class="st73" points="288,242.1 289.5,243 291.4,241.9 289.9,241 						"/>
					</g>
				</g>
				<g>
					<g>
						<polygon class="st73" points="290.8,240.5 292.2,241.4 294.1,240.3 292.6,239.5 						"/>
					</g>
				</g>
				<g>
					<g>
						<polygon class="st73" points="293.4,239 294.9,239.9 296.8,238.8 295.3,237.9 						"/>
					</g>
				</g>
				<g>
					<g>
						<polygon class="st73" points="296.2,237.5 297.6,238.3 299.5,237.2 298,236.4 						"/>
					</g>
				</g>
				<g>
					<g>
						<polygon class="st73" points="299.1,235.9 300.6,236.7 302.4,235.6 301,234.8 						"/>
					</g>
				</g>
				<g>
					<g>
						<polygon class="st73" points="301.8,234.3 303.3,235.2 305.2,234.1 303.7,233.2 						"/>
					</g>
				</g>
			</g>
		</g>
		<g>
			<g>
				<g>
					<path class="st55" d="M214.2,247.3c2.8,1.6,2.8,4.2,0,5.9c-2.8,1.6-7.3,1.6-10.1,0s-2.8-4.2,0-5.8
						C206.8,245.7,211.4,245.7,214.2,247.3z"/>
				</g>
			</g>
			<g>
				<polygon class="st55" points="199.7,239 202,250.6 216.3,250.6 218.5,238.7 				"/>
			</g>
			<g>
				<g>
					<path class="st74" d="M215.8,234.8c3.7,2.1,3.7,5.6,0,7.7c-3.7,2.1-9.6,2.1-13.3,0s-3.7-5.6,0-7.7
						C206.1,232.7,212.1,232.7,215.8,234.8z"/>
				</g>
			</g>
			<g>
				<g>
					<path class="st16" d="M213.7,235.8c2.7,1.6,2.7,4.1,0,5.6c-2.7,1.6-7,1.6-9.7,0s-2.7-4.1,0-5.6S211,234.3,213.7,235.8z"/>
				</g>
			</g>
		</g>
		<g>
			<path class="st16" d="M202.1,239.4c0,0-6.9-8.8-0.1-24.6c0,0,6,7.6,2.6,26.9C204.5,241.8,203.2,241.3,202.1,239.4z"/>
		</g>
		<g>
			<path class="st15" d="M202.1,214.9c0.1,6.1,0.5,16.6,1.3,26c0.7,0.6,1.2,0.8,1.2,0.8C207.7,223.7,202.8,215.9,202.1,214.9z"/>
		</g>
		<g>
			<path class="st16" d="M205.5,238.3c0,0-5.6-9.7,3.5-24.3c0,0,4.8,8.4-1.5,27C207.6,241,206.3,240.3,205.5,238.3z"/>
		</g>
		<g>
			<path class="st15" d="M208.6,214c-0.8,6-2,16.5-2.6,25.9c0.6,0.7,1,1,1,1C212.9,223.5,209.1,215.1,208.6,214z"/>
		</g>
		<g>
			<g>
				<path class="st16" d="M205.9,242.1c0,0-8.3-2.9-10.4-16.3c0,0,7.2,2.5,13,16.9C208.5,242.7,207.4,242.9,205.9,242.1z"/>
			</g>
			<g>
				<path class="st15" d="M195.6,225.8c2.6,4,7.3,10.9,11.8,16.8c0.7,0.1,1.1,0,1.1,0C203,229.3,196.4,226.2,195.6,225.8z"/>
			</g>
		</g>
		<g>
			<g>
				<path class="st16" d="M209.6,240.8c0,0-4.5-5.1-0.8-14.8c0,0,3.8,4.4,2.4,16.2C211.1,242.2,210.3,241.9,209.6,240.8z"/>
			</g>
			<g>
				<path class="st15" d="M208.8,226.1c0.3,3.7,0.8,10,1.6,15.7c0.4,0.3,0.7,0.4,0.7,0.4C212.5,231.2,209.3,226.7,208.8,226.1z"/>
			</g>
		</g>
		<g>
			<g>
				<path class="st16" d="M211.5,237.6c0,0-4.3-7.7,3.1-19.1c0,0,3.7,6.7-1.5,21.3C213.1,239.7,212.2,239.2,211.5,237.6z"/>
			</g>
			<g>
				<path class="st15" d="M214.7,218.6c-0.7,4.7-1.8,13-2.4,20.4c0.4,0.5,0.8,0.8,0.8,0.8C218,226.1,215.1,219.4,214.7,218.6z"/>
			</g>
		</g>
		<g>
			<g>
				<path class="st16" d="M212.6,239c0,0-1-6.5,7.1-12.6c0,0,0.9,5.6-6.5,14.5C213.2,240.9,212.7,240.3,212.6,239z"/>
			</g>
			<g>
				<path class="st15" d="M219.7,226.5c-1.7,3.2-4.6,8.7-6.9,13.7c0.2,0.5,0.4,0.7,0.4,0.7C220.1,232.6,219.8,227.2,219.7,226.5z"/>
			</g>
		</g>
		<g>
			<g>
				<polygon class="st75" points="172.4,276.4 173.1,276.8 179.9,272.8 179.2,272.4 				"/>
			</g>
		</g>
		<g>
			<g>
				<polygon class="st75" points="175.1,277.9 175.8,278.3 185.9,272.5 185.2,272.1 				"/>
			</g>
		</g>
		<g>
			<g>
				<polygon class="st75" points="173.8,277.1 174.5,277.5 183.3,272.5 182.6,272.1 				"/>
			</g>
		</g>
		<g>
			<g>
				<polygon class="st75" points="182.2,269.1 188,272.5 193.2,269.5 187.4,266.1 				"/>
			</g>
		</g>
		<g>
			<g>
				<polygon class="st75" points="177.9,279.5 178.6,279.9 187.4,274.8 186.7,274.4 				"/>
			</g>
		</g>
		<g>
			<g>
				<polygon class="st75" points="176.5,278.7 177.2,279.1 184,275.2 183.3,274.8 				"/>
			</g>
		</g>
		<g>
			<g>
				<polygon class="st75" points="171.1,275.6 171.8,276 181.8,270.2 181.1,269.8 				"/>
			</g>
		</g>
		<g>
			<g>
				<polygon class="st75" points="185.8,284.2 186.4,284.6 193.2,280.6 192.5,280.2 				"/>
			</g>
		</g>
		<g>
			<g>
				<polygon class="st75" points="188.5,285.7 189.2,286.1 199.2,280.3 198.5,279.9 				"/>
			</g>
		</g>
		<g>
			<g>
				<polygon class="st75" points="187.1,284.9 187.8,285.3 196.6,280.3 195.9,279.9 				"/>
			</g>
		</g>
		<g>
			<g>
				<polygon class="st75" points="191.2,287.3 191.9,287.7 200.7,282.6 200,282.2 				"/>
			</g>
		</g>
		<g>
			<g>
				<polygon class="st75" points="189.8,286.5 190.5,286.9 197.3,283 196.6,282.6 				"/>
			</g>
		</g>
		<g>
			<g>
				<polygon class="st75" points="184.4,283.4 185.1,283.8 195.2,278 194.5,277.5 				"/>
			</g>
		</g>
		<g>
			<g>
				<g>
					<polygon class="st75" points="183.5,272.9 212.4,289.7 234.7,276.8 205.9,260 					"/>
				</g>
			</g>
			<g>
				<g>
					<g>
						<polygon class="st76" points="191.2,273.6 191.9,274 198.7,270.1 198,269.7 						"/>
					</g>
				</g>
				<g>
					<g>
						<polygon class="st76" points="193.9,275.2 194.6,275.6 204.7,269.8 204,269.4 						"/>
					</g>
				</g>
				<g>
					<g>
						<polygon class="st76" points="192.6,274.4 193.2,274.8 202,269.7 201.4,269.3 						"/>
					</g>
				</g>
				<g>
					<g>
						<polygon class="st76" points="201,266.4 206.8,269.8 212,266.8 206.2,263.4 						"/>
					</g>
				</g>
				<g>
					<g>
						<polygon class="st76" points="196.6,276.8 197.3,277.2 206.1,272.1 205.4,271.7 						"/>
					</g>
				</g>
				<g>
					<g>
						<polygon class="st76" points="195.3,276 196,276.4 202.7,272.5 202,272.1 						"/>
					</g>
				</g>
				<g>
					<g>
						<polygon class="st76" points="189.8,272.8 190.5,273.3 200.6,267.4 199.9,267 						"/>
					</g>
				</g>
			</g>
		</g>
		<g>
			<g>
				<path class="st19" d="M304,361.5c-1.5,0.8-1.4,2.2,0,3s3.8,0.8,5.2,0l34.8-20.1c1.5-0.8,1.5-2.2,0-3c-1.4-0.8-3.8-0.8-5.2,0
					L304,361.5z"/>
			</g>
		</g>
		<g>
			<g>
				<path class="st20" d="M330.6,325.2L330.6,325.2L330.6,325.2L330.6,325.2c0-0.7-0.4-1.4-1.3-1.9c-1.8-1-4.6-1-6.4,0
					c-1,0.6-1.5,1.4-1.3,2.2c0-0.1-0.1-0.2-0.1-0.3l0,0l0.1,25.8c0,0.1,0,0.2,0,0.3c0,0.1,0,0.1,0,0.2c0,0,0,0,0,0.1l0,0
					c0,0.1,0.1,0.2,0.1,0.3l0.1,0.1c0,0,0,0.1,0.1,0.1c0,0,0,0,0,0.1c0.1,0.1,0.2,0.2,0.3,0.3l0,0c0.1,0.1,0.2,0.2,0.4,0.3
					c0.1,0,0.1,0.1,0.2,0.1c0,0,0,0,0.1,0c0.3,0.2,0.6,0.3,1,0.4c0.1,0,0.3,0.1,0.4,0.1s0.1,0,0.2,0.1c0.1,0,0.2,0,0.2,0.1
					c0.2,0,0.4,0.1,0.6,0.1s0.3,0,0.5,0c0.1,0,0.2,0,0.3,0l0,0c0.1,0,0.1,0,0.2,0s0.3,0,0.4,0s0.3,0,0.4,0c0.2,0,0.3,0,0.5-0.1
					c0,0,0.1,0,0.2,0l0,0c0.1,0,0.2,0,0.3-0.1c0.2-0.1,0.4-0.1,0.6-0.2s0.5-0.2,0.7-0.3c0.9-0.5,1.3-1.2,1.3-1.9L330.6,325.2z
					 M322.7,326.9L322.7,326.9c0.1,0.1,0.1,0.1,0.2,0.2C322.8,327,322.8,326.9,322.7,326.9z M321.7,325.7c0,0.1,0.1,0.2,0.2,0.3
					C321.8,325.9,321.7,325.8,321.7,325.7L321.7,325.7z M321.9,326.2c0.1,0.1,0.1,0.2,0.2,0.2C322.1,326.4,322,326.3,321.9,326.2
					L321.9,326.2z"/>
			</g>
		</g>
		<g>
			<path class="st38" d="M321,330.8c-0.1-0.1-0.2-0.3-0.3-0.5l0,0c-0.1-0.2-0.3-0.3-0.4-0.5c-0.1-0.1-0.2-0.3-0.4-0.4
				c-0.1-0.1-0.2-0.2-0.3-0.3c-0.3-0.3-0.7-0.7-1.2-1.1c-0.1-0.1-0.2-0.2-0.3-0.2c-0.4-0.4-0.9-0.7-1.3-1.1
				c-0.1-0.1-0.2-0.1-0.2-0.2c-0.5-0.4-1.1-0.9-1.8-1.3c-0.2-0.1-0.3-0.2-0.5-0.4c-0.6-0.4-1.2-0.8-1.8-1.3
				c-0.1-0.1-0.2-0.2-0.3-0.2c-0.7-0.5-1.5-1-2.2-1.5c-0.2-0.1-0.5-0.3-0.7-0.5c-0.7-0.5-1.4-0.9-2.1-1.4c-0.1-0.1-0.2-0.2-0.4-0.2
				c-0.8-0.5-1.7-1.1-2.6-1.6c-0.2-0.1-0.5-0.3-0.7-0.4c-0.9-0.5-1.8-1.1-2.8-1.6c-1.4-0.8-2.8-1.6-4.1-2.3c-0.1,0-0.1-0.1-0.2-0.1
				c-1.2-0.7-2.4-1.3-3.6-1.9c-0.1-0.1-0.2-0.1-0.3-0.2c-1.1-0.6-2.2-1.1-3.2-1.5c-0.1,0-0.2-0.1-0.3-0.1c-1-0.5-1.9-0.9-2.8-1.2
				c-0.1,0-0.1-0.1-0.2-0.1c-0.6-0.2-1.2-0.5-1.7-0.7c-0.1,0-0.2-0.1-0.3-0.1c-0.5-0.2-1-0.3-1.4-0.4c-0.1,0-0.2,0-0.3-0.1
				c-0.2-0.1-0.4-0.1-0.6-0.1c-0.1,0-0.2,0-0.4-0.1c-0.1,0-0.1,0-0.2,0c-0.2,0-0.3,0-0.5,0l0,0c-0.1,0-0.3,0-0.3,0.1l0,0l38-22.1
				c0,0,0,0,0.1,0h0.1h0.1l0,0l0,0c0,0,0,0,0.1,0s0.2,0,0.3,0h0.1c0,0,0.1,0,0.2,0s0.1,0,0.2,0h0.1c0.2,0,0.5,0.1,0.7,0.2h0.1l0,0
				c0.4,0.1,0.9,0.3,1.4,0.4c0.1,0,0.2,0.1,0.3,0.1c0.5,0.2,1.1,0.4,1.7,0.7l0,0h0.1c0.9,0.4,1.8,0.8,2.8,1.2
				c0.1,0.1,0.3,0.1,0.4,0.2c1,0.4,2,0.9,3,1.5c0.2,0.1,0.3,0.2,0.5,0.3c1.1,0.6,2.2,1.1,3.4,1.8c0.2,0.1,0.3,0.2,0.4,0.2
				c1.3,0.7,2.6,1.5,4,2.2c1,0.6,1.9,1.1,2.8,1.6c0.2,0.1,0.5,0.3,0.7,0.4c0.9,0.5,1.7,1.1,2.6,1.6c0.1,0.1,0.3,0.2,0.4,0.3
				c0.7,0.5,1.4,0.9,2.1,1.4c0.2,0.2,0.5,0.3,0.7,0.5c0.8,0.5,1.5,1,2.2,1.5c0.1,0.1,0.3,0.2,0.4,0.3c0.6,0.4,1.2,0.8,1.7,1.2
				c0.2,0.1,0.4,0.3,0.5,0.4c0.6,0.4,1.2,0.9,1.7,1.3c0.1,0.1,0.2,0.2,0.3,0.3c0.4,0.3,0.8,0.7,1.2,1c0.1,0.1,0.2,0.2,0.4,0.3
				c0.4,0.4,0.8,0.7,1.1,1l0.1,0.1c0.1,0.1,0.2,0.2,0.3,0.3c0.1,0.1,0.2,0.2,0.3,0.3c0,0,0,0.1,0.1,0.1l0,0l0,0l0,0
				c0.1,0.1,0.2,0.2,0.3,0.3l0.1,0.1l0,0l0,0c0,0.1,0.1,0.1,0.1,0.2c0,0,0,0.1,0.1,0.1v0.1c0,0,0,0,0,0.1c0,0,0,0,0,0.1
				c0,0,0,0,0,0.1c0,0,0,0,0,0.1c0,0,0,0,0,0.1c0,0,0,0,0,0.1c0,0,0,0,0,0.1l0,0c0,0.2-0.1,0.3-0.2,0.3l-38,22.1
				c0.1-0.1,0.2-0.2,0.2-0.3C321.1,331.1,321,331,321,330.8C321,330.9,321,330.9,321,330.8z"/>
		</g>
		<g>
			<g>
				<path class="st39" d="M300.6,316.2c-11.3-6.5-20.4-10.3-20.4-8.5s9.1,8.6,20.4,15.1s20.5,10.3,20.5,8.5
					C321.1,329.4,311.9,322.7,300.6,316.2z"/>
			</g>
		</g>
		<g>
			<path class="st21" d="M355.5,299.6c0,0-1.3,18.1-21.1,12.7c-19.8-5.4-33.4-10.7-33.4-10.7s-25.3-17.4-15.3-21.9
				C285.7,279.7,294.9,270.5,355.5,299.6z"/>
		</g>
		<g>
			<path class="st21" d="M355.5,299.6c0,0-1.3,18.1-21.1,12.7c-19.8-5.4-33.4-10.7-33.4-10.7s-25.3-17.4-15.3-21.9
				C285.7,279.7,294.9,270.5,355.5,299.6z"/>
		</g>
		<g>
			<path class="st21" d="M344.7,307.5c0,0-1.3,18.1-21.1,12.7c-19.8-5.4-42.3-17-42.3-17s-16.4-11.2-6.4-15.6
				C274.9,287.5,284.1,278.3,344.7,307.5z"/>
		</g>
		<g>
			<path class="st40" d="M321.2,331.5l37.7-22c1.4-1,4.6-15.9,7.1-28.9c2.8-14.4,4.1-27.1,2.9-28.3l-38,26.9
				c1.2,1.2-0.2,13.9-2.9,28.3C325.5,320.5,322.6,330.5,321.2,331.5z"/>
		</g>
		<g>
			<path class="st47" d="M131.4,231.3c0.8,0.3,1.3,0,3.6,2.2c2.3,2.1,6.8,5,8.5,5.5c0.2,0.1,0.5,0.1,0.6,0.1
				c-1.3-1.4-3.6-3.8-5.7-5.9c-2.6-2.6-6.5-3.6-7.8-3.8C130.6,230.2,131,231.1,131.4,231.3z"/>
		</g>
		<g>
			<path class="st42" d="M103.3,189.7c2.5-0.6,6.8,0.3,7.5,7.2c0.7,6.8,2.4,26,2.4,26s18.3,3.1,20.4,3.8c0,0-3.4,1.4-2.1,5
				c0,0-20.3,3.6-24.6-0.9C102.6,226.3,92.9,192.2,103.3,189.7z"/>
		</g>
		<g>
			<path class="st44" d="M133.6,226.6c-2.1-0.7-20.4-3.8-20.4-3.8s-1.7-19.2-2.4-26c-0.7-6.8-5-7.8-7.5-7.2
				c-0.7,0.2-1.3,0.5-1.8,0.9l-0.1,0.3c0,0,6.2,2.7,7.1,15.2s-3.8,19.9,6.6,21c6.2,0.6,12.4,1.3,16.4,1.7
				C132,227.3,133.6,226.6,133.6,226.6z"/>
		</g>
		<g>
			<path class="st14" d="M274.9,287.5c-2.4,1.1-3.3,2.6-3.2,4.2c15.5,0.1,49.9,11.9,49.9,11.9l0.3-6.4
				C281.7,280.8,274.9,287.5,274.9,287.5z"/>
		</g>
		<g>
			<path class="st21" d="M286.4,278.8c-2.4,1.1-3.3,2.6-3.2,4.2c15.5,0.1,49.9,11.9,49.9,11.9l0.3-6.4
				C293.1,272,286.4,278.8,286.4,278.8z"/>
		</g>
		<g>
			<g>
				<path class="st21" d="M357.5,223.3c0,0,8.2,0.1,6.8,13.6c-1.1,10.9-5.4,27.5-9.2,33.8c-3.8,6.3-14.4,18.8-14.4,18.8
					s-9.3-2.1-7.3-7.8l12.9-20C346.4,261.7,348.6,221.2,357.5,223.3z"/>
			</g>
			<g>
				<path class="st14" d="M358.2,223.3c0,0,8.4,4.4,3.3,18.7c-5.1,14.3-8.7,23.6-8.5,28.9c0.2,5.4,1.8,23.5,2.9,27.2
					c0,0,1.2,11.9-26.1,18.4c0,0-22.4,1.8-18.4-12.8c4-14.6,5.8-38.3,5.4-44c-0.5-5.7-3.6-17,10.7-24.4
					C341.7,228,349.2,222.5,358.2,223.3z"/>
			</g>
			<g>
				<path class="st21" d="M316.8,259.7c0.4,5.7-1.4,29.4-5.4,44c-2.7,10.1,7.2,12.4,13.5,12.8c2.2-6.5-1-18.3,4-32.5
					c6.2-17.6,5.6-29.3,2.6-38.8c-1.9-6.2-5.6-6.4-8.2-7.3C313.9,245.2,316.4,254.7,316.8,259.7z"/>
			</g>
			<g>
				<path class="st14" d="M355.9,298.1c-1.1-3.7-2.7-21.8-2.9-27.2c-0.2-5.4,3.5-14.6,8.5-28.9c4.7-13.6-0.4-17.2-3.3-18.7
					c-1.6,7-26.2,9.5-25.7,14.3c0.5,5.3,7,10.3,7.2,19.7c0.2,9.4-1.3,23.3-3.1,30.3c-1.6,6-1.1,20.7,0.1,27
					C356.9,307.9,355.9,298.1,355.9,298.1z"/>
			</g>
			<g>
				<g>
					<path class="st41" d="M348.3,215.9c0,0-1.1,7.5,1.4,12.3c2.3,4.3-15.6,7.9-15.9,3.9c0-0.4,3.5-6.8-0.6-14.6
						C331.1,213.4,348.3,215.9,348.3,215.9z"/>
				</g>
				<g>
					<path class="st77" d="M349.7,228.5c-1.8-3.5-1.7-8.6-1.6-11l-13.1,6.2l0,0c0.5,0.1,9.2,2.5,10.9,8.8
						C348.7,231.5,350.5,230,349.7,228.5z"/>
				</g>
				<g>
					<path class="st41" d="M330.1,195.6c0,0-2.9,6.8-2.5,12.7c0.5,6.4-0.5,7.6-0.2,10.4c0.1,1.2,0.2,3,1.4,4.2
						c1.9,1.9,5.9,2.7,11.4,0.8c6.6-2.3,13.8-11.2,11.1-19.5C348.7,196,340.1,189.1,330.1,195.6z"/>
				</g>
				<g>
					<path class="st78" d="M350.9,213c-2.5-7.4-8.9-16.3-8.8-16.8c0-0.3-2.1-1.7-4.6-3.2c-2.3,0.1-4.8,0.9-7.4,2.5
						c0,0-0.8,1.8-1.5,4.4c1.5,1.8,4.7,3.9,5.2,5.4c1.1,3.5,0.3,8.9-0.8,11.2c-1.1,2.3,3.1,5.9,2.1,7.9c0,0.1,0,0.2,0,0.3
						c1.5-0.1,3.2-0.4,5.1-1C344.5,222.2,348.9,218,350.9,213z"/>
				</g>
				<g>
					<path class="st79" d="M328.2,192.7c0,0-1.1,5.8,4.7,8.8c3.4,1.8,3,7.4,2.8,8.4s-1.3,5.7-0.9,6.3c0.8,1.2,3.6-2.4,4.9-2.1
						c3.3,0.7,1.9,3.7-1.1,6.9c-3.2,3.3,5.1,4.9,9,2.2c2.1-1.5,2.9-2.3,5.7-7.6c4.1-7.7,4.5-17.1-4.7-22.3
						C339.3,188,333.9,195.1,328.2,192.7z"/>
				</g>
				<g>
					<path class="st80" d="M347.5,223.2c2.1-1.5,2.9-2.3,5.7-7.6c4.1-7.7,4.5-17.1-4.7-22.3c-9.1-5.2-14.6,1.9-20.3-0.5
						c0,0-0.2,1,0,2.4c2.9,0.5,10.9,2.3,12.9,5.8c2.5,4.3,5.3,3,5,8.2c-0.3,5.1,0.9,11.7-7.7,14.5
						C341.5,225.9,346,224.2,347.5,223.2z"/>
				</g>
			</g>
			<g>
				<path class="st81" d="M334.9,229.8l-5.9,4.8c0,0,17.9,5.5,23.3-3.2c0.8-1.2-0.1-5.4-3.2-6.3
					C349.2,225.1,348.5,232.2,334.9,229.8z"/>
			</g>
		</g>
		<g>
			<g>
				<path class="st39" d="M330.9,279.2c-1.2-1.2-4.4,9.5-7.2,24c-2.8,14.4-4.1,27.1-2.9,28.3c1.2,1.2,4.4-9.5,7.2-24
					C330.8,293.1,332.1,280.4,330.9,279.2z"/>
			</g>
		</g>
		<g>
			<path class="st41" d="M276.2,256.9c0,0-8.1-4.2-11.4-10s-2-5-1-5.5c2-1,8.1,4.5,9.5,5.1s0-2,0.1-3.2c0.2-1.2-0.2-3,0.4-3
				s1.8,0.5,2.5,3.4c0.7,2.8,3.7,8.3,3.7,8.3L276.2,256.9z"/>
		</g>
		<g>
			<path class="st78" d="M264.8,246.9c3.3,5.8,11.4,10,11.4,10l0.8-1.1c-0.2-0.2-0.4-0.4-0.8-0.5c-2.8-1.3-9.7-9.8-12.8-13.7
				C262.6,241.8,261.8,241.8,264.8,246.9z"/>
		</g>
		<g>
			<path class="st14" d="M325.7,238c-5.8-1.4-13.7,14.8-20.7,28.3L280.2,250c-5.9,2.7-6.7,6.4-6.7,6.4c7.1,15.2,28.5,26.7,28.5,26.7
				l0,0c1.9,1,4.4,0.7,4.4,0.7c10.8-5.4,18.9-19.4,23.7-33C333.6,241,325.7,238,325.7,238z"/>
		</g>
		<g>
			<path class="st14" d="M305,266.4L280.2,250c-1.2,0.6-2.3,1.2-3.1,1.8c6.4,5.3,29.2,25.3,29.2,21.8s17.2-29,21-34.6
				c-0.9-0.6-1.6-0.9-1.6-0.9C319.9,236.6,312,252.8,305,266.4z"/>
		</g>
		<g>
			<path class="st40" d="M369.3,253.6c0-0.1,0-0.3-0.1-0.4c0-0.1,0-0.2,0-0.2v-0.1v-0.1v-0.1v-0.1l0,0l0,0l0,0l0,0l0,0l0,0l0,0l0,0
				l0,0c0,0,0,0-0.1,0l0,0c0,0,0,0-0.1,0l0,0l0,0l0,0l0,0l0,0l0,0l0,0l0,0l-38,26.9l0,0l0,0c0.1,0,0.1-0.1,0.2-0.1l0,0
				c0.1,0,0.1,0,0.2,0.1l0,0l0,0l0,0l0,0l0,0l0,0l0,0l0,0c0,0,0,0,0,0.1v0.1v0.1v0.1c0,0.1,0,0.1,0,0.2s0,0.3,0.1,0.4
				c0.4,3.7-0.9,14.8-3.3,27.1c-2.5,13-5.4,23-6.8,24l37.7-22c1.4-1,4.6-15.9,7.1-28.9C368.4,268.3,369.7,257.3,369.3,253.6z"/>
		</g>
		<g>
			<g class="st7">
				<g>
					<g>
						<polygon class="st40" points="349.8,153.6 366.2,144.1 366.3,123.7 349.9,133.3 						"/>
					</g>
				</g>
				<g>
					<g>
						<polygon class="st82" points="349.9,133.3 366.3,123.7 362,121.2 345.5,130.8 						"/>
					</g>
				</g>
				<g>
					<g>
						<polygon class="st39" points="345.5,130.8 345.5,151.1 349.8,153.6 349.9,133.3 						"/>
					</g>
				</g>
			</g>
		</g>
		<g>
			<g class="st7">
				<g>
					<g>
						<polygon class="st15" points="356.3,157.4 372.7,147.9 372.7,127.5 356.3,137.1 						"/>
					</g>
				</g>
				<g>
					<g>
						<polygon class="st15" points="356.3,137.1 372.7,127.5 368.4,125 352,134.5 						"/>
					</g>
				</g>
				<g>
					<g>
						<polygon class="st16" points="352,134.5 351.9,154.9 356.3,157.4 356.3,137.1 						"/>
					</g>
				</g>
			</g>
		</g>
		<g>
			<g class="st7">
				<g>
					<g>
						<polygon class="st40" points="383.7,223.2 400.1,213.7 400.2,193.3 383.8,202.8 						"/>
					</g>
				</g>
				<g>
					<g>
						<polygon class="st82" points="383.8,202.8 400.2,193.3 395.8,190.8 379.4,200.3 						"/>
					</g>
				</g>
				<g>
					<g>
						<polygon class="st39" points="379.4,200.3 379.4,220.7 383.7,223.2 383.8,202.8 						"/>
					</g>
				</g>
			</g>
		</g>
		<g>
			<g class="st7">
				<g>
					<g>
						<polygon class="st15" points="390.1,227 406.6,217.5 406.6,197.1 390.2,206.6 						"/>
					</g>
				</g>
				<g>
					<g>
						<polygon class="st15" points="390.2,206.6 406.6,197.1 402.3,194.6 385.9,204.1 						"/>
					</g>
				</g>
				<g>
					<g>
						<polygon class="st16" points="385.9,204.1 385.8,224.5 390.1,227 390.2,206.6 						"/>
					</g>
				</g>
			</g>
		</g>
		<g class="st7">
			<g>
				<g>
					<polygon class="st11" points="397.8,294.8 393.4,292.2 393,137.4 397.4,140 					"/>
				</g>
			</g>
			<g>
				<g>
					<polygon class="st83" points="397.4,140 393,137.4 425.2,118.8 429.6,121.4 					"/>
				</g>
			</g>
			<g>
				<g>
					<polygon class="st57" points="429.6,121.4 430,276.2 397.8,294.8 397.4,140 					"/>
				</g>
			</g>
		</g>
		<g class="st7">
			<g>
				<g>
					<polygon class="st11" points="336.7,99.6 336.7,104.7 397.4,140 397.4,134.9 					"/>
				</g>
			</g>
			<g>
				<g>
					<polygon class="st57" points="397.4,134.9 397.4,140 429.6,121.4 429.6,116.3 					"/>
				</g>
			</g>
			<g>
				<g>
					<polygon class="st84" points="336.7,99.6 397.4,134.9 429.6,116.3 368.9,81.1 					"/>
				</g>
			</g>
		</g>
	</g>
</g>
<g class="st0">
	<path class="st85" d="M189.5,63.3h0.6v4.3h2.1v0.5h-2.7L189.5,63.3L189.5,63.3z"/>
	<path class="st85" d="M195.9,66.4c0,1.3-0.9,1.8-1.8,1.8c-0.9,0-1.7-0.7-1.7-1.8c0-1.2,0.8-1.8,1.7-1.8
		C195.2,64.6,195.9,65.3,195.9,66.4z M193.2,66.4c0,0.7,0.4,1.3,1.1,1.3c0.7,0,1.1-0.6,1.1-1.3c0-0.6-0.3-1.4-1.1-1.4
		C193.4,65,193.2,65.8,193.2,66.4z"/>
	<path class="st85" d="M196.7,65.7c0-0.4,0-0.8,0-1.1h0.6v0.7l0,0c0.2-0.5,0.6-0.8,1-0.8c0.1,0,0.1,0,0.2,0v0.6c-0.1,0-0.1,0-0.2,0
		c-0.5,0-0.8,0.3-0.9,0.8c0,0.1,0,0.2,0,0.3v1.9h-0.6v-2.4H196.7z"/>
	<path class="st85" d="M199.4,66.5c0,0.9,0.6,1.2,1.2,1.2c0.5,0,0.7-0.1,1-0.2l0.1,0.5c-0.2,0.1-0.6,0.2-1.2,0.2
		c-1.1,0-1.7-0.7-1.7-1.8c0-1.1,0.6-1.9,1.6-1.9c1.1,0,1.4,1,1.4,1.6c0,0.1,0,0.2,0,0.3h-2.4V66.5z M201.2,66c0-0.4-0.2-1-0.9-1
		c-0.6,0-0.9,0.6-1,1H201.2z"/>
	<path class="st85" d="M202.6,65.6c0-0.4,0-0.7,0-0.9h0.5v0.6l0,0c0.2-0.3,0.5-0.6,1.1-0.6c0.5,0,0.8,0.3,1,0.7l0,0
		c0.1-0.2,0.2-0.3,0.4-0.5s0.4-0.2,0.8-0.2c0.5,0,1.1,0.3,1.1,1.5v2.1H207v-2c0-0.7-0.3-1.1-0.8-1.1c-0.4,0-0.6,0.3-0.7,0.6
		c0,0.1-0.1,0.2-0.1,0.3v2.2h-0.6V66c0-0.6-0.3-1-0.7-1s-0.7,0.3-0.8,0.6c0,0.1,0,0.2,0,0.3V68h-0.6L202.6,65.6L202.6,65.6z"/>
	<path class="st85" d="M210.9,63.7c0,0.2-0.2,0.4-0.4,0.4s-0.4-0.2-0.4-0.4s0.2-0.4,0.4-0.4C210.7,63.3,210.8,63.4,210.9,63.7z
		 M210.1,68.1v-3.5h0.6v3.5H210.1z"/>
	<path class="st85" d="M211.8,65.8c0-0.4,0-0.8,0-1.1h0.6v0.6l0,0c0.3-0.4,0.7-0.7,1.2-0.7c0.8,0,1.5,0.7,1.5,1.8
		c0,1.3-0.8,1.9-1.6,1.9c-0.5,0-0.9-0.2-1.1-0.5l0,0v1.9h-0.6L211.8,65.8L211.8,65.8z M212.5,66.7c0,0.1,0,0.2,0,0.3
		c0.1,0.4,0.5,0.7,1,0.7c0.7,0,1.1-0.5,1.1-1.3c0-0.7-0.4-1.3-1-1.3c-0.4,0-0.8,0.3-1,0.8c0,0.1,0,0.2,0,0.3v0.5H212.5z"/>
	<path class="st85" d="M215.8,67.5c0.2,0.1,0.5,0.3,0.8,0.3c0.5,0,0.7-0.2,0.7-0.5s-0.2-0.5-0.6-0.6c-0.6-0.2-0.9-0.6-0.9-1
		c0-0.6,0.5-1,1.2-1c0.4,0,0.7,0.1,0.9,0.2l-0.2,0.5c-0.1-0.1-0.4-0.2-0.7-0.2c-0.4,0-0.6,0.2-0.6,0.5s0.2,0.4,0.7,0.6
		c0.6,0.2,0.9,0.5,0.9,1c0,0.6-0.5,1.1-1.3,1.1c-0.4,0-0.7-0.1-1-0.2L215.8,67.5z"/>
	<path class="st85" d="M221.2,68.1v-0.6l0,0c-0.2,0.3-0.5,0.6-1.2,0.6s-1.2-0.4-1.2-1.5v-2h0.6v1.9c0,0.7,0.2,1.1,0.8,1.1
		c0.5,0,0.8-0.3,0.8-0.6c0-0.1,0.1-0.2,0.1-0.3v-2.1h0.6v2.5c0,0.4,0,0.7,0,1H221.2z"/>
	<path class="st85" d="M222.7,65.6c0-0.4,0-0.7,0-0.9h0.5v0.6l0,0c0.2-0.3,0.5-0.6,1.1-0.6c0.5,0,0.8,0.3,1,0.7l0,0
		c0.1-0.2,0.2-0.3,0.4-0.5s0.4-0.2,0.8-0.2c0.5,0,1.1,0.3,1.1,1.5v2.1H227v-2c0-0.7-0.3-1.1-0.8-1.1c-0.4,0-0.6,0.3-0.7,0.6
		c0,0.1-0.1,0.2-0.1,0.3v2.2h-0.6V66c0-0.6-0.3-1-0.7-1s-0.7,0.3-0.8,0.6c0,0.1,0,0.2,0,0.3V68h-0.6L222.7,65.6L222.7,65.6z"/>
	<path class="st85" d="M233.3,63v4.2c0,0.3,0,0.6,0,0.9h-0.6v-0.6l0,0c-0.2,0.4-0.6,0.7-1.2,0.7c-0.9,0-1.5-0.7-1.5-1.8
		c0-1.2,0.7-1.9,1.6-1.9c0.5,0,0.9,0.2,1.1,0.5l0,0v-2H233.3z M232.7,66c0-0.1,0-0.2,0-0.3c-0.1-0.4-0.4-0.7-0.9-0.7
		c-0.7,0-1.1,0.6-1.1,1.3c0,0.7,0.4,1.3,1,1.3c0.4,0,0.8-0.3,0.9-0.8c0-0.1,0-0.2,0-0.3V66H232.7z"/>
	<path class="st85" d="M237.5,66.4c0,1.3-0.9,1.8-1.8,1.8c-0.9,0-1.7-0.7-1.7-1.8c0-1.2,0.8-1.8,1.7-1.8
		C236.8,64.6,237.5,65.3,237.5,66.4z M234.7,66.4c0,0.7,0.4,1.3,1.1,1.3c0.7,0,1.1-0.6,1.1-1.3c0-0.6-0.3-1.4-1.1-1.4
		S234.7,65.8,234.7,66.4z"/>
	<path class="st85" d="M238.3,63h0.6v5.1h-0.6V63z"/>
	<path class="st85" d="M243.1,66.4c0,1.3-0.9,1.8-1.8,1.8c-0.9,0-1.7-0.7-1.7-1.8c0-1.2,0.8-1.8,1.7-1.8
		C242.4,64.6,243.1,65.3,243.1,66.4z M240.4,66.4c0,0.7,0.4,1.3,1.1,1.3c0.7,0,1.1-0.6,1.1-1.3c0-0.6-0.3-1.4-1.1-1.4
		S240.4,65.8,240.4,66.4z"/>
	<path class="st85" d="M243.9,65.7c0-0.4,0-0.8,0-1.1h0.6v0.7l0,0c0.2-0.5,0.6-0.8,1-0.8c0.1,0,0.1,0,0.2,0v0.6c-0.1,0-0.1,0-0.2,0
		c-0.5,0-0.8,0.3-0.8,0.8c0,0.1,0,0.2,0,0.3v1.9h-0.6v-2.4H243.9z"/>
	<path class="st85" d="M247.7,67.5c0.2,0.1,0.5,0.3,0.8,0.3c0.5,0,0.7-0.2,0.7-0.5s-0.2-0.5-0.6-0.6c-0.6-0.2-0.9-0.6-0.9-1
		c0-0.6,0.5-1,1.2-1c0.4,0,0.7,0.1,0.9,0.2l-0.2,0.5c-0.1-0.1-0.4-0.2-0.7-0.2c-0.4,0-0.6,0.2-0.6,0.5s0.2,0.4,0.7,0.6
		c0.6,0.2,0.9,0.5,0.9,1c0,0.6-0.5,1.1-1.3,1.1c-0.4,0-0.7-0.1-1-0.2L247.7,67.5z"/>
	<path class="st85" d="M251.4,63.7c0,0.2-0.2,0.4-0.4,0.4s-0.4-0.2-0.4-0.4s0.2-0.4,0.4-0.4C251.2,63.3,251.4,63.4,251.4,63.7z
		 M250.7,68.1v-3.5h0.6v3.5H250.7z"/>
	<path class="st85" d="M253.1,63.6v1h0.9v0.5h-0.9V67c0,0.4,0.1,0.7,0.5,0.7c0.2,0,0.3,0,0.4,0v0.5c-0.1,0.1-0.3,0.1-0.6,0.1
		s-0.5-0.1-0.7-0.3c-0.2-0.2-0.2-0.5-0.2-0.9v-1.9H252v-0.5h0.5v-0.8L253.1,63.6z"/>
	<path class="st85" d="M258.7,67.3c0,0.3,0,0.6,0.1,0.8h-0.6l-0.1-0.4l0,0c-0.2,0.3-0.6,0.5-1.1,0.5c-0.7,0-1.1-0.5-1.1-1
		c0-0.8,0.7-1.3,2.1-1.3v-0.1c0-0.3-0.1-0.8-0.8-0.8c-0.3,0-0.7,0.1-0.9,0.3l-0.1-0.4c0.3-0.2,0.7-0.3,1.1-0.3
		c1.1,0,1.3,0.7,1.3,1.4v1.3H258.7z M258.1,66.3c-0.7,0-1.5,0.1-1.5,0.8c0,0.4,0.3,0.6,0.6,0.6c0.5,0,0.7-0.3,0.8-0.6
		c0-0.1,0-0.1,0-0.2v-0.6H258.1z"/>
	<path class="st85" d="M259.7,65.6c0-0.4,0-0.7,0-0.9h0.5v0.6l0,0c0.2-0.3,0.5-0.6,1.1-0.6c0.5,0,0.8,0.3,1,0.7l0,0
		c0.1-0.2,0.2-0.3,0.4-0.5c0.2-0.2,0.4-0.2,0.8-0.2c0.5,0,1.1,0.3,1.1,1.5v2.1H264v-2c0-0.7-0.3-1.1-0.8-1.1c-0.4,0-0.6,0.3-0.7,0.6
		c0,0.1-0.1,0.2-0.1,0.3v2.2h-0.6V66c0-0.6-0.3-1-0.7-1c-0.4,0-0.7,0.3-0.8,0.6c0,0.1,0,0.2,0,0.3V68h-0.6L259.7,65.6L259.7,65.6z"
		/>
	<path class="st85" d="M266.1,66.5c0,0.9,0.6,1.2,1.2,1.2c0.5,0,0.7-0.1,1-0.2l0.1,0.5c-0.2,0.1-0.6,0.2-1.2,0.2
		c-1.1,0-1.7-0.7-1.7-1.8c0-1.1,0.6-1.9,1.6-1.9c1.1,0,1.4,1,1.4,1.6c0,0.1,0,0.2,0,0.3h-2.4V66.5z M268,66c0-0.4-0.2-1-0.9-1
		c-0.6,0-0.9,0.6-1,1H268z"/>
	<path class="st85" d="M270.1,63.6v1h0.9v0.5h-0.9V67c0,0.4,0.1,0.7,0.5,0.7c0.2,0,0.3,0,0.4,0v0.5c-0.1,0.1-0.3,0.1-0.6,0.1
		c-0.3,0-0.5-0.1-0.7-0.3c-0.2-0.2-0.2-0.5-0.2-0.9v-1.9H269v-0.5h0.5v-0.8L270.1,63.6z"/>
	<path class="st85" d="M271.4,69c0.2-0.4,0.4-1.2,0.4-1.7l0.7-0.1c-0.2,0.6-0.5,1.4-0.7,1.8L271.4,69z"/>
	<path class="st85" d="M277.4,68c-0.2,0.1-0.5,0.2-1,0.2c-1.1,0-1.7-0.7-1.7-1.8c0-1.1,0.7-1.9,1.9-1.9c0.4,0,0.7,0.1,0.9,0.2
		l-0.1,0.5c-0.2-0.1-0.4-0.2-0.7-0.2c-0.8,0-1.2,0.6-1.2,1.3c0,0.8,0.5,1.3,1.2,1.3c0.4,0,0.6-0.1,0.8-0.2L277.4,68z"/>
	<path class="st85" d="M281.3,66.4c0,1.3-0.9,1.8-1.8,1.8s-1.7-0.7-1.7-1.8c0-1.2,0.8-1.8,1.7-1.8C280.6,64.6,281.3,65.3,281.3,66.4
		z M278.5,66.4c0,0.7,0.4,1.3,1.1,1.3s1.1-0.6,1.1-1.3c0-0.6-0.3-1.4-1.1-1.4S278.5,65.8,278.5,66.4z"/>
	<path class="st85" d="M282.1,65.6c0-0.4,0-0.7,0-0.9h0.6v0.6l0,0c0.2-0.3,0.6-0.6,1.2-0.6c0.5,0,1.2,0.3,1.2,1.5v2.1h-0.6v-2
		c0-0.6-0.2-1-0.8-1c-0.4,0-0.7,0.3-0.9,0.6c0,0.1-0.1,0.2-0.1,0.3v2.1h-0.6L282.1,65.6L282.1,65.6z"/>
	<path class="st85" d="M286,67.5c0.2,0.1,0.5,0.3,0.8,0.3c0.5,0,0.7-0.2,0.7-0.5s-0.2-0.5-0.6-0.6c-0.6-0.2-0.9-0.6-0.9-1
		c0-0.6,0.5-1,1.2-1c0.4,0,0.7,0.1,0.9,0.2l-0.2,0.5c-0.1-0.1-0.4-0.2-0.7-0.2c-0.4,0-0.6,0.2-0.6,0.5s0.2,0.4,0.7,0.6
		c0.6,0.2,0.9,0.5,0.9,1c0,0.6-0.5,1.1-1.3,1.1c-0.4,0-0.7-0.1-1-0.2L286,67.5z"/>
	<path class="st85" d="M289.3,66.5c0,0.9,0.6,1.2,1.2,1.2c0.5,0,0.7-0.1,1-0.2l0.1,0.5c-0.2,0.1-0.6,0.2-1.2,0.2
		c-1.1,0-1.7-0.7-1.7-1.8c0-1.1,0.6-1.9,1.6-1.9c1.1,0,1.4,1,1.4,1.6c0,0.1,0,0.2,0,0.3h-2.4V66.5z M291.1,66c0-0.4-0.2-1-0.9-1
		c-0.6,0-0.9,0.6-1,1H291.1z"/>
	<path class="st85" d="M295,68c-0.2,0.1-0.5,0.2-1,0.2c-1.1,0-1.7-0.7-1.7-1.8c0-1.1,0.7-1.9,1.9-1.9c0.4,0,0.7,0.1,0.9,0.2
		l-0.1,0.5c-0.2-0.1-0.4-0.2-0.7-0.2c-0.8,0-1.2,0.6-1.2,1.3c0,0.8,0.5,1.3,1.2,1.3c0.4,0,0.6-0.1,0.8-0.2L295,68z"/>
	<path class="st85" d="M296.6,63.6v1h0.9v0.5h-0.9V67c0,0.4,0.1,0.7,0.5,0.7c0.2,0,0.3,0,0.4,0v0.5c-0.1,0.1-0.3,0.1-0.6,0.1
		c-0.3,0-0.5-0.1-0.7-0.3c-0.2-0.2-0.2-0.5-0.2-0.9v-1.9h-0.5v-0.5h0.5v-0.8L296.6,63.6z"/>
	<path class="st85" d="M298.5,66.5c0,0.9,0.6,1.2,1.2,1.2c0.5,0,0.7-0.1,1-0.2l0.1,0.5c-0.2,0.1-0.6,0.2-1.2,0.2
		c-1.1,0-1.7-0.7-1.7-1.8c0-1.1,0.6-1.9,1.6-1.9c1.1,0,1.4,1,1.4,1.6c0,0.1,0,0.2,0,0.3h-2.4V66.5z M300.4,66c0-0.4-0.2-1-0.9-1
		c-0.6,0-0.9,0.6-1,1H300.4z"/>
	<path class="st85" d="M306.3,63v4.2c0,0.3,0,0.6,0,0.9h-0.6v-0.6l0,0c-0.2,0.4-0.6,0.7-1.2,0.7c-0.8,0-1.5-0.7-1.5-1.8
		c0-1.2,0.7-1.9,1.6-1.9c0.5,0,0.9,0.2,1.1,0.5l0,0v-2H306.3z M305.7,66c0-0.1,0-0.2,0-0.3c-0.1-0.4-0.4-0.7-0.9-0.7
		c-0.7,0-1.1,0.6-1.1,1.3c0,0.7,0.4,1.3,1,1.3c0.4,0,0.8-0.3,0.9-0.8c0-0.1,0-0.2,0-0.3V66H305.7z"/>
	<path class="st85" d="M310.5,66.4c0,1.3-0.9,1.8-1.7,1.8c-0.9,0-1.7-0.7-1.7-1.8c0-1.2,0.8-1.8,1.7-1.8
		C309.8,64.6,310.5,65.3,310.5,66.4z M307.8,66.4c0,0.7,0.4,1.3,1.1,1.3s1.1-0.6,1.1-1.3c0-0.6-0.3-1.4-1.1-1.4
		C308,65,307.8,65.8,307.8,66.4z"/>
	<path class="st85" d="M191.6,75.1c0,0.9,0.6,1.2,1.2,1.2c0.5,0,0.7-0.1,1-0.2l0.1,0.5c-0.2,0.1-0.6,0.2-1.2,0.2
		c-1.1,0-1.7-0.7-1.7-1.8c0-1.1,0.6-1.9,1.6-1.9c1.1,0,1.4,1,1.4,1.6c0,0.1,0,0.2,0,0.3h-2.4V75.1z M193.5,74.7c0-0.4-0.2-1-0.9-1
		c-0.6,0-0.9,0.6-1,1H193.5z"/>
	<path class="st85" d="M195.6,72.3c0,0.2-0.2,0.4-0.4,0.4s-0.4-0.2-0.4-0.4c0-0.2,0.2-0.4,0.4-0.4C195.4,71.9,195.6,72.1,195.6,72.3
		z M194.9,76.8v-3.5h0.6v3.5H194.9z"/>
	<path class="st85" d="M198.9,76.8v-0.6l0,0c-0.2,0.3-0.5,0.6-1.2,0.6s-1.2-0.4-1.2-1.5v-2h0.6v1.9c0,0.7,0.2,1.1,0.8,1.1
		c0.5,0,0.8-0.3,0.8-0.6c0-0.1,0.1-0.2,0.1-0.3v-2.1h0.6v2.5c0,0.4,0,0.7,0,1H198.9z"/>
	<path class="st85" d="M200.4,76.1c0.2,0.1,0.5,0.3,0.8,0.3c0.5,0,0.7-0.2,0.7-0.5s-0.2-0.5-0.6-0.6c-0.6-0.2-0.9-0.6-0.9-1
		c0-0.6,0.5-1,1.2-1c0.4,0,0.7,0.1,0.9,0.2l-0.2,0.5c-0.1-0.1-0.4-0.2-0.7-0.2c-0.4,0-0.6,0.2-0.6,0.5s0.2,0.4,0.7,0.6
		c0.6,0.2,0.9,0.5,0.9,1c0,0.6-0.5,1.1-1.3,1.1c-0.4,0-0.7-0.1-1-0.2L200.4,76.1z"/>
	<path class="st85" d="M203.3,74.2c0-0.4,0-0.7,0-0.9h0.5v0.6l0,0c0.2-0.3,0.5-0.6,1.1-0.6c0.5,0,0.8,0.3,1,0.7l0,0
		c0.1-0.2,0.2-0.3,0.4-0.5s0.4-0.2,0.8-0.2c0.5,0,1.1,0.3,1.1,1.5v2.1h-0.6v-2c0-0.7-0.3-1.1-0.8-1.1c-0.4,0-0.6,0.3-0.7,0.6
		c0,0.1-0.1,0.2-0.1,0.3v2.2h-0.6v-2.1c0-0.6-0.3-1-0.7-1s-0.7,0.3-0.8,0.6c0,0.1,0,0.2,0,0.3v2.1h-0.6L203.3,74.2L203.3,74.2z"/>
	<path class="st85" d="M212.5,75c0,1.3-0.9,1.8-1.8,1.8c-0.9,0-1.7-0.7-1.7-1.8c0-1.2,0.8-1.8,1.7-1.8
		C211.8,73.2,212.5,73.9,212.5,75z M209.7,75c0,0.7,0.4,1.3,1.1,1.3c0.7,0,1.1-0.6,1.1-1.3c0-0.6-0.3-1.4-1.1-1.4
		C210,73.7,209.7,74.4,209.7,75z"/>
	<path class="st85" d="M216.3,71.6v4.2c0,0.3,0,0.6,0,0.9h-0.6v-0.6l0,0c-0.2,0.4-0.6,0.7-1.2,0.7c-0.9,0-1.5-0.7-1.5-1.8
		c0-1.2,0.7-1.9,1.6-1.9c0.5,0,0.9,0.2,1.1,0.5l0,0v-2.1h0.6V71.6z M215.7,74.7c0-0.1,0-0.2,0-0.3c-0.1-0.4-0.4-0.7-0.9-0.7
		c-0.7,0-1.1,0.6-1.1,1.3c0,0.7,0.4,1.3,1,1.3c0.4,0,0.8-0.3,0.9-0.8c0-0.1,0-0.2,0-0.3v-0.5H215.7z"/>
	<path class="st85" d="M219.7,72.3v1h0.9v0.5h-0.9v1.9c0,0.4,0.1,0.7,0.5,0.7c0.2,0,0.3,0,0.4,0v0.5c-0.1,0.1-0.3,0.1-0.6,0.1
		s-0.5-0.1-0.7-0.3c-0.2-0.2-0.2-0.5-0.2-0.9v-1.9h-0.5v-0.5h0.5v-0.8L219.7,72.3z"/>
	<path class="st85" d="M221.6,75.1c0,0.9,0.6,1.2,1.2,1.2c0.5,0,0.7-0.1,1-0.2l0.1,0.5c-0.2,0.1-0.6,0.2-1.2,0.2
		c-1.1,0-1.7-0.7-1.7-1.8c0-1.1,0.6-1.9,1.6-1.9c1.1,0,1.4,1,1.4,1.6c0,0.1,0,0.2,0,0.3h-2.4V75.1z M223.5,74.7c0-0.4-0.2-1-0.9-1
		c-0.6,0-0.9,0.6-1,1H223.5z"/>
	<path class="st85" d="M224.8,74.2c0-0.4,0-0.7,0-0.9h0.5v0.6l0,0c0.2-0.3,0.5-0.6,1.1-0.6c0.5,0,0.8,0.3,1,0.7l0,0
		c0.1-0.2,0.2-0.3,0.4-0.5s0.4-0.2,0.8-0.2c0.5,0,1.1,0.3,1.1,1.5v2.1h-0.6v-2c0-0.7-0.3-1.1-0.8-1.1c-0.4,0-0.6,0.3-0.7,0.6
		c0,0.1-0.1,0.2-0.1,0.3v2.2H227v-2.1c0-0.6-0.3-1-0.7-1s-0.7,0.3-0.8,0.6c0,0.1,0,0.2,0,0.3v2.1h-0.6L224.8,74.2L224.8,74.2z"/>
	<path class="st85" d="M230.9,74.4c0-0.4,0-0.8,0-1.1h0.6v0.6l0,0c0.3-0.4,0.7-0.7,1.2-0.7c0.8,0,1.5,0.7,1.5,1.8
		c0,1.3-0.8,1.9-1.6,1.9c-0.5,0-0.9-0.2-1.1-0.5l0,0v1.9h-0.6L230.9,74.4L230.9,74.4z M231.5,75.3c0,0.1,0,0.2,0,0.3
		c0.1,0.4,0.5,0.7,1,0.7c0.7,0,1.1-0.5,1.1-1.3c0-0.7-0.4-1.3-1-1.3c-0.4,0-0.8,0.3-1,0.8c0,0.1,0,0.2,0,0.3v0.5H231.5z"/>
	<path class="st85" d="M238.1,75c0,1.3-0.9,1.8-1.8,1.8c-0.9,0-1.7-0.7-1.7-1.8c0-1.2,0.8-1.8,1.7-1.8
		C237.4,73.2,238.1,73.9,238.1,75z M235.3,75c0,0.7,0.4,1.3,1.1,1.3c0.7,0,1.1-0.6,1.1-1.3c0-0.6-0.3-1.4-1.1-1.4
		C235.6,73.7,235.3,74.4,235.3,75z"/>
	<path class="st85" d="M238.9,74.4c0-0.4,0-0.8,0-1.1h0.6V74l0,0c0.2-0.5,0.6-0.8,1-0.8c0.1,0,0.1,0,0.2,0v0.6c-0.1,0-0.1,0-0.2,0
		c-0.5,0-0.8,0.3-0.9,0.8c0,0.1,0,0.2,0,0.3v1.9H239v-2.4H238.9z"/>
	<path class="st85" d="M243.5,72.3c0,0.2-0.2,0.4-0.4,0.4s-0.4-0.2-0.4-0.4c0-0.2,0.2-0.4,0.4-0.4S243.5,72.1,243.5,72.3z
		 M242.8,76.8v-3.5h0.6v3.5H242.8z"/>
	<path class="st85" d="M244.5,74.2c0-0.4,0-0.7,0-0.9h0.6v0.6l0,0c0.2-0.3,0.6-0.6,1.2-0.6c0.5,0,1.2,0.3,1.2,1.5v2.1h-0.6v-2
		c0-0.6-0.2-1-0.8-1c-0.4,0-0.7,0.3-0.8,0.6c0,0.1-0.1,0.2-0.1,0.3v2.1h-0.6L244.5,74.2L244.5,74.2z"/>
	<path class="st85" d="M251,76.6c-0.2,0.1-0.5,0.2-1,0.2c-1.1,0-1.7-0.7-1.7-1.8c0-1.1,0.7-1.9,1.9-1.9c0.4,0,0.7,0.1,0.9,0.2
		l-0.1,0.5c-0.2-0.1-0.4-0.2-0.7-0.2c-0.8,0-1.2,0.6-1.2,1.3c0,0.8,0.5,1.3,1.2,1.3c0.4,0,0.6-0.1,0.8-0.2L251,76.6z"/>
	<path class="st85" d="M252.4,72.3c0,0.2-0.2,0.4-0.4,0.4s-0.4-0.2-0.4-0.4c0-0.2,0.2-0.4,0.4-0.4S252.4,72.1,252.4,72.3z
		 M251.7,76.8v-3.5h0.6v3.5H251.7z"/>
	<path class="st85" d="M256.4,71.6v4.2c0,0.3,0,0.6,0,0.9h-0.6v-0.6l0,0c-0.2,0.4-0.6,0.7-1.2,0.7c-0.9,0-1.5-0.7-1.5-1.8
		c0-1.2,0.7-1.9,1.6-1.9c0.5,0,0.9,0.2,1.1,0.5l0,0v-2.1h0.6V71.6z M255.8,74.7c0-0.1,0-0.2,0-0.3c-0.1-0.4-0.4-0.7-0.9-0.7
		c-0.7,0-1.1,0.6-1.1,1.3c0,0.7,0.4,1.3,1,1.3c0.4,0,0.8-0.3,0.9-0.8c0-0.1,0-0.2,0-0.3v-0.5H255.8z"/>
	<path class="st85" d="M258.2,72.3c0,0.2-0.2,0.4-0.4,0.4c-0.2,0-0.4-0.2-0.4-0.4c0-0.2,0.2-0.4,0.4-0.4S258.1,72.1,258.2,72.3z
		 M257.4,76.8v-3.5h0.6v3.5H257.4z"/>
	<path class="st85" d="M262.1,71.6v4.2c0,0.3,0,0.6,0,0.9h-0.6v-0.6l0,0c-0.2,0.4-0.6,0.7-1.2,0.7c-0.9,0-1.5-0.7-1.5-1.8
		c0-1.2,0.7-1.9,1.6-1.9c0.5,0,0.9,0.2,1.1,0.5l0,0v-2.1h0.6V71.6z M261.5,74.7c0-0.1,0-0.2,0-0.3c-0.1-0.4-0.4-0.7-0.9-0.7
		c-0.7,0-1.1,0.6-1.1,1.3c0,0.7,0.4,1.3,1,1.3c0.4,0,0.8-0.3,0.9-0.8c0-0.1,0-0.2,0-0.3v-0.5H261.5z"/>
	<path class="st85" d="M265.6,76.8v-0.6l0,0c-0.2,0.3-0.5,0.6-1.2,0.6s-1.2-0.4-1.2-1.5v-2h0.6v1.9c0,0.7,0.2,1.1,0.8,1.1
		c0.5,0,0.8-0.3,0.8-0.6c0-0.1,0.1-0.2,0.1-0.3v-2.1h0.6v2.5c0,0.4,0,0.7,0,1H265.6z"/>
	<path class="st85" d="M267.1,74.2c0-0.4,0-0.7,0-0.9h0.6v0.6l0,0c0.2-0.3,0.6-0.6,1.2-0.6c0.5,0,1.2,0.3,1.2,1.5v2.1h-0.6v-2
		c0-0.6-0.2-1-0.8-1c-0.4,0-0.7,0.3-0.8,0.6c0,0.1-0.1,0.2-0.1,0.3v2.1h-0.6v-2.7H267.1z"/>
	<path class="st85" d="M271.9,72.3v1h0.9v0.5h-0.9v1.9c0,0.4,0.1,0.7,0.5,0.7c0.2,0,0.3,0,0.4,0v0.5c-0.1,0.1-0.3,0.1-0.6,0.1
		c-0.3,0-0.5-0.1-0.7-0.3c-0.2-0.2-0.2-0.5-0.2-0.9v-1.9h-0.5v-0.5h0.5v-0.8L271.9,72.3z"/>
	<path class="st85" d="M277.4,76.8v-0.6l0,0c-0.2,0.3-0.5,0.6-1.2,0.6s-1.2-0.4-1.2-1.5v-2h0.6v1.9c0,0.7,0.2,1.1,0.8,1.1
		c0.5,0,0.8-0.3,0.8-0.6c0-0.1,0.1-0.2,0.1-0.3v-2.1h0.6v2.5c0,0.4,0,0.7,0,1H277.4z"/>
	<path class="st85" d="M279.8,72.3v1h0.9v0.5h-0.9v1.9c0,0.4,0.1,0.7,0.5,0.7c0.2,0,0.3,0,0.4,0v0.5c-0.1,0.1-0.3,0.1-0.6,0.1
		c-0.3,0-0.5-0.1-0.7-0.3c-0.2-0.2-0.2-0.5-0.2-0.9v-1.9h-0.5v-0.5h0.5v-0.8L279.8,72.3z"/>
	<path class="st85" d="M282.9,71.6h0.6v5.1h-0.6V71.6z"/>
	<path class="st85" d="M287,75.9c0,0.3,0,0.6,0.1,0.8h-0.6l-0.1-0.4l0,0c-0.2,0.3-0.6,0.5-1.1,0.5c-0.7,0-1.1-0.5-1.1-1
		c0-0.8,0.7-1.3,2.1-1.3v-0.1c0-0.3-0.1-0.8-0.8-0.8c-0.3,0-0.7,0.1-0.9,0.3l-0.1-0.4c0.3-0.2,0.7-0.3,1.1-0.3
		c1.1,0,1.3,0.7,1.3,1.4v1.3H287z M286.4,75c-0.7,0-1.5,0.1-1.5,0.8c0,0.4,0.3,0.6,0.6,0.6c0.5,0,0.7-0.3,0.8-0.6c0-0.1,0-0.1,0-0.2
		V75H286.4z"/>
	<path class="st85" d="M288.1,71.6h0.6v2.2l0,0c0.2-0.4,0.6-0.6,1.2-0.6c0.9,0,1.5,0.7,1.5,1.8c0,1.2-0.8,1.9-1.6,1.9
		c-0.5,0-0.9-0.2-1.2-0.6l0,0v0.6H288c0-0.2,0-0.6,0-0.9v-4.4H288.1z M288.7,75.4c0,0.1,0,0.2,0,0.2c0.1,0.4,0.5,0.7,1,0.7
		c0.7,0,1.1-0.5,1.1-1.3c0-0.7-0.4-1.3-1-1.3c-0.4,0-0.8,0.3-1,0.8c0,0.1,0,0.2,0,0.3v0.6H288.7z"/>
	<path class="st85" d="M295.3,75c0,1.3-0.9,1.8-1.8,1.8s-1.7-0.7-1.7-1.8c0-1.2,0.8-1.8,1.7-1.8C294.6,73.2,295.3,73.9,295.3,75z
		 M292.6,75c0,0.7,0.4,1.3,1.1,1.3s1.1-0.6,1.1-1.3c0-0.6-0.3-1.4-1.1-1.4C292.8,73.7,292.6,74.4,292.6,75z"/>
	<path class="st85" d="M296.1,74.4c0-0.4,0-0.8,0-1.1h0.6V74l0,0c0.2-0.5,0.6-0.8,1-0.8c0.1,0,0.1,0,0.2,0v0.6c-0.1,0-0.1,0-0.2,0
		c-0.5,0-0.8,0.3-0.9,0.8c0,0.1,0,0.2,0,0.3v1.9h-0.6v-2.4H296.1z"/>
	<path class="st85" d="M298.8,75.1c0,0.9,0.6,1.2,1.2,1.2c0.5,0,0.7-0.1,1-0.2l0.1,0.5c-0.2,0.1-0.6,0.2-1.2,0.2
		c-1.1,0-1.7-0.7-1.7-1.8c0-1.1,0.6-1.9,1.6-1.9c1.1,0,1.4,1,1.4,1.6c0,0.1,0,0.2,0,0.3h-2.4V75.1z M300.6,74.7c0-0.4-0.2-1-0.9-1
		c-0.6,0-0.9,0.6-1,1H300.6z"/>
	<path class="st85" d="M303.9,75.1c0,0.9,0.6,1.2,1.2,1.2c0.5,0,0.7-0.1,1-0.2l0.1,0.5c-0.2,0.1-0.6,0.2-1.2,0.2
		c-1.1,0-1.7-0.7-1.7-1.8c0-1.1,0.6-1.9,1.6-1.9c1.1,0,1.4,1,1.4,1.6c0,0.1,0,0.2,0,0.3h-2.4V75.1z M305.8,74.7c0-0.4-0.2-1-0.9-1
		c-0.6,0-0.9,0.6-1,1H305.8z"/>
	<path class="st85" d="M307.9,72.3v1h0.9v0.5h-0.9v1.9c0,0.4,0.1,0.7,0.5,0.7c0.2,0,0.3,0,0.4,0v0.5c-0.1,0.1-0.3,0.1-0.6,0.1
		c-0.3,0-0.5-0.1-0.7-0.3c-0.2-0.2-0.2-0.5-0.2-0.9v-1.9h-0.5v-0.5h0.5v-0.8L307.9,72.3z"/>
	<path class="st85" d="M231.6,80.3v4.2c0,0.3,0,0.6,0,0.9H231v-0.6l0,0c-0.2,0.4-0.6,0.7-1.2,0.7c-0.9,0-1.5-0.7-1.5-1.8
		c0-1.2,0.7-1.9,1.6-1.9c0.5,0,0.9,0.2,1.1,0.5l0,0v-2.1h0.6V80.3z M230.9,83.3c0-0.1,0-0.2,0-0.3c-0.1-0.4-0.4-0.7-0.9-0.7
		c-0.7,0-1.1,0.6-1.1,1.3c0,0.7,0.4,1.3,1,1.3c0.4,0,0.8-0.3,0.9-0.8c0-0.1,0-0.2,0-0.3v-0.5H230.9z"/>
	<path class="st85" d="M235.8,83.7c0,1.3-0.9,1.8-1.8,1.8c-0.9,0-1.7-0.7-1.7-1.8c0-1.2,0.8-1.8,1.7-1.8
		C235.1,81.8,235.8,82.5,235.8,83.7z M233,83.7c0,0.7,0.4,1.3,1.1,1.3c0.7,0,1.1-0.6,1.1-1.3c0-0.6-0.3-1.4-1.1-1.4
		C233.3,82.3,233,83,233,83.7z"/>
	<path class="st85" d="M236.6,80.3h0.6v5.1h-0.6V80.3z"/>
	<path class="st85" d="M241.4,83.7c0,1.3-0.9,1.8-1.8,1.8c-0.9,0-1.7-0.7-1.7-1.8c0-1.2,0.8-1.8,1.7-1.8
		C240.7,81.8,241.4,82.5,241.4,83.7z M238.7,83.7c0,0.7,0.4,1.3,1.1,1.3c0.7,0,1.1-0.6,1.1-1.3c0-0.6-0.3-1.4-1.1-1.4
		C238.9,82.3,238.7,83,238.7,83.7z"/>
	<path class="st85" d="M242.2,83c0-0.4,0-0.8,0-1.1h0.6v0.7l0,0c0.2-0.5,0.6-0.8,1-0.8c0.1,0,0.1,0,0.2,0v0.6c-0.1,0-0.1,0-0.2,0
		c-0.5,0-0.8,0.3-0.8,0.8c0,0.1,0,0.2,0,0.3v1.9h-0.6V83H242.2z"/>
	<path class="st85" d="M244.8,83.8c0,0.9,0.6,1.2,1.2,1.2c0.5,0,0.7-0.1,1-0.2l0.1,0.5c-0.2,0.1-0.6,0.2-1.2,0.2
		c-1.1,0-1.7-0.7-1.7-1.8c0-1.1,0.6-1.9,1.6-1.9c1.1,0,1.4,1,1.4,1.6c0,0.1,0,0.2,0,0.3h-2.4V83.8z M246.7,83.3c0-0.4-0.2-1-0.9-1
		c-0.6,0-0.9,0.6-1,1H246.7z"/>
	<path class="st85" d="M249.6,82.9c0-0.4,0-0.7,0-0.9h0.5v0.6l0,0c0.2-0.3,0.5-0.6,1.1-0.6c0.5,0,0.8,0.3,1,0.7l0,0
		c0.1-0.2,0.2-0.3,0.4-0.5s0.4-0.2,0.8-0.2c0.5,0,1.1,0.3,1.1,1.5v2.1H254v-2c0-0.7-0.3-1.1-0.8-1.1c-0.4,0-0.6,0.3-0.7,0.6
		c0,0.1-0.1,0.2-0.1,0.3v2.2h-0.6v-2.1c0-0.6-0.3-1-0.7-1s-0.7,0.3-0.8,0.6c0,0.1,0,0.2,0,0.3v2.1h-0.6L249.6,82.9L249.6,82.9z"/>
	<path class="st85" d="M258.1,84.6c0,0.3,0,0.6,0.1,0.8h-0.6l-0.1-0.4l0,0c-0.2,0.3-0.6,0.5-1.1,0.5c-0.7,0-1.1-0.5-1.1-1
		c0-0.8,0.7-1.3,2.1-1.3v-0.1c0-0.3-0.1-0.8-0.8-0.8c-0.3,0-0.7,0.1-0.9,0.3l-0.1-0.4c0.3-0.2,0.7-0.3,1.1-0.3
		c1.1,0,1.3,0.7,1.3,1.4v1.3H258.1z M257.5,83.6c-0.7,0-1.5,0.1-1.5,0.8c0,0.4,0.3,0.6,0.6,0.6c0.5,0,0.7-0.3,0.8-0.6
		c0-0.1,0-0.1,0-0.2v-0.6H257.5z"/>
	<path class="st85" d="M262.1,84.9c0,0.8-0.2,1.3-0.5,1.6c-0.3,0.3-0.8,0.4-1.3,0.4c-0.4,0-0.9-0.1-1.2-0.3l0.2-0.5
		c0.2,0.1,0.6,0.3,1,0.3c0.6,0,1.1-0.3,1.1-1.2v-0.4l0,0c-0.2,0.3-0.6,0.6-1.1,0.6c-0.9,0-1.5-0.7-1.5-1.7c0-1.2,0.8-1.8,1.6-1.8
		c0.6,0,0.9,0.3,1.1,0.6l0,0V82h0.6c0,0.2,0,0.5,0,1L262.1,84.9L262.1,84.9z M261.5,83.3c0-0.1,0-0.2,0-0.3
		c-0.1-0.4-0.4-0.7-0.9-0.7c-0.6,0-1,0.5-1,1.3c0,0.7,0.4,1.3,1,1.3c0.4,0,0.7-0.3,0.9-0.7c0-0.1,0.1-0.2,0.1-0.3v-0.6H261.5z"/>
	<path class="st85" d="M263.1,82.9c0-0.4,0-0.7,0-0.9h0.6v0.6l0,0c0.2-0.3,0.6-0.6,1.2-0.6c0.5,0,1.2,0.3,1.2,1.5v2.1h-0.6v-2
		c0-0.6-0.2-1-0.8-1c-0.4,0-0.7,0.3-0.8,0.6c0,0.1-0.1,0.2-0.1,0.3v2.1h-0.6v-2.7H263.1z"/>
	<path class="st85" d="M269.5,84.6c0,0.3,0,0.6,0.1,0.8H269V85l0,0c-0.2,0.3-0.6,0.5-1.1,0.5c-0.7,0-1.1-0.5-1.1-1
		c0-0.8,0.7-1.3,2.1-1.3v-0.1c0-0.3-0.1-0.8-0.8-0.8c-0.3,0-0.7,0.1-0.9,0.3l-0.1-0.4c0.3-0.2,0.7-0.3,1.1-0.3
		c1.1,0,1.3,0.7,1.3,1.4V84.6z M268.9,83.6c-0.7,0-1.5,0.1-1.5,0.8c0,0.4,0.3,0.6,0.6,0.6c0.5,0,0.7-0.3,0.8-0.6c0-0.1,0-0.1,0-0.2
		v-0.6H268.9z"/>
	<path class="st85" d="M270.4,85c0-0.3,0.2-0.5,0.4-0.5c0.3,0,0.4,0.2,0.4,0.5s-0.2,0.4-0.4,0.4C270.6,85.5,270.4,85.3,270.4,85z"/>
</g>
</svg>
