<?xml version="1.0" encoding="utf-8"?>
<!-- Generator: Adobe Illustrator 23.0.5, SVG Export Plug-In . SVG Version: 6.00 Build 0)  -->
<svg version="1.1" id="pair-programming" xmlns="http://www.w3.org/2000/svg" xmlns:xlink="http://www.w3.org/1999/xlink" x="0px"
	 y="0px" viewBox="0 0 500 500" style="enable-background:new 0 0 500 500;" xml:space="preserve">
<style type="text/css">
	.st0{fill:#F5F5F5;}
	.st1{display:none;}
	.st2{display:inline;}
	.st3{fill:#E6E6E6;}
	.st4{fill:#E0E0E0;}
	.st5{fill:#F0F0F0;}
	.st6{opacity:0.4;fill:#E0E0E0;enable-background:new    ;}
	.st7{fill:#FAFAFA;}
	.st8{fill:#FFFFFF;}
	.st9{fill:#EBEBEB;}
	.st10{fill:#337AB7;}
	.st11{opacity:0.8;fill:#FFFFFF;enable-background:new    ;}
	.st12{opacity:0.5;enable-background:new    ;}
	.st13{opacity:0.5;fill:#FFFFFF;enable-background:new    ;}
	.st14{opacity:0.5;}
	.st15{opacity:0.4;fill:#FFFFFF;enable-background:new    ;}
	.st16{opacity:0.4;enable-background:new    ;}
	.st17{fill:#D09A76;}
	.st18{opacity:0.2;enable-background:new    ;}
	.st19{fill:#263238;}
	.st20{fill:#630F0F;}
	.st21{opacity:0.1;fill:#FFFFFF;enable-background:new    ;}
	.st22{opacity:0.7;fill:#FFFFFF;enable-background:new    ;}
	.st23{fill:#A02724;}
	.st24{fill:#F1B287;}
	.st25{opacity:0.2;}
	.st26{opacity:0.3;enable-background:new    ;}
</style>
<g id="Shadows_1_">
	<g id="Shadow--inject-214">
		<ellipse id="path--inject-214" class="st0" cx="250" cy="410.1" rx="193.9" ry="11.3"/>
	</g>
</g>
<g id="Background_Complete" class="st1">
	<g class="st2">
		<path class="st3" d="M238.4,341.5H45.3c-3.1,0-5.7-2.6-5.7-5.7V64.4c0-3.1,2.6-5.7,5.7-5.7h193.1c3.2,0,5.7,2.6,5.7,5.7l0,0v271.4
			C244.1,339,241.5,341.5,238.4,341.5z M45.3,58.9c-3,0-5.5,2.4-5.5,5.5v271.4c0,3,2.4,5.5,5.5,5.5h193.1c3,0,5.5-2.4,5.5-5.5V64.4
			c0-3-2.4-5.5-5.5-5.5H45.3z"/>
		<path class="st3" d="M454.7,341.5H261.6c-3.2,0-5.7-2.6-5.7-5.7V64.4c0-3.1,2.6-5.7,5.7-5.7h193.1c3.1,0,5.7,2.5,5.7,5.7v271.4
			C460.4,339,457.9,341.5,454.7,341.5z M261.6,58.9c-3,0-5.5,2.4-5.5,5.5v271.4c0,3,2.4,5.5,5.5,5.5h193.1c3,0,5.5-2.4,5.5-5.5V64.4
			c0-3-2.4-5.5-5.5-5.5H261.6z"/>
	</g>
	<g class="st2">
		<rect x="53.8" y="392.2" class="st4" width="41.2" height="0.3"/>
		<rect x="137.7" y="390.2" class="st4" width="41.3" height="0.3"/>
		<rect x="222.8" y="390.2" class="st4" width="10" height="0.3"/>
		<rect x="86.6" y="398.8" class="st4" width="46.3" height="0.3"/>
		<rect x="271.2" y="392.1" class="st4" width="21.6" height="0.3"/>
		<rect x="301.7" y="392.1" class="st4" width="27.9" height="0.3"/>
		<rect x="401.9" y="396.3" class="st4" width="62.4" height="0.3"/>
	</g>
	<g class="st2">
		<rect x="364.8" y="114.2" class="st3" width="47.6" height="33.3"/>
		<g>
			<rect x="364.8" y="114.2" class="st5" width="21.5" height="33.3"/>
			<circle class="st6" cx="375.5" cy="125.8" r="7.1"/>
			<path class="st4" d="M379,139.7c0,1.9-1.5,3.5-3.5,3.5c-1.9,0-3.5-1.5-3.5-3.5c0-1.9,1.5-3.5,3.5-3.5l0,0
				C377.5,136.2,379,137.7,379,139.7z"/>
		</g>
		<circle class="st7" cx="375.5" cy="126.3" r="2"/>
	</g>
	<g class="st2">
		<g>
			<g>
				<rect x="290.2" y="102.3" class="st5" width="20.6" height="45.2"/>
			</g>
			<g>
				<rect x="310.2" y="102.3" class="st3" width="27.3" height="45.2"/>
			</g>
			<g>
				<g>
					<circle class="st8" cx="300.4" cy="119.5" r="2.9"/>
				</g>
				<g>
					<circle class="st8" cx="300.4" cy="113.6" r="1.4"/>
				</g>
				<g>
					<circle class="st8" cx="300.4" cy="109.3" r="1.4"/>
				</g>
			</g>
			<g>
				<rect x="290.7" y="127.7" class="st4" width="46.4" height="0.7"/>
				<rect x="290.7" y="131.7" class="st4" width="46.4" height="0.7"/>
				<rect x="290.7" y="135.7" class="st4" width="46.4" height="0.7"/>
				<rect x="290.7" y="139.7" class="st4" width="46.4" height="0.7"/>
				<rect x="290.7" y="143.7" class="st4" width="46.4" height="0.7"/>
			</g>
			<g>
				<g>
					<rect x="299" y="128.9" class="st4" width="2" height="2"/>
				</g>
			</g>
			<g>
				<g>
					<rect x="299" y="133.1" class="st4" width="2" height="2"/>
				</g>
			</g>
			<g>
				<g>
					<rect x="299" y="136.9" class="st4" width="2" height="2"/>
				</g>
			</g>
			<g>
				<g>
					<rect x="299" y="141" class="st4" width="2" height="2"/>
				</g>
			</g>
			<g>
				<g>
					<rect x="299" y="145" class="st4" width="2" height="2"/>
				</g>
			</g>
		</g>
		<g>
			<path class="st4" d="M250.9,192h-1v-38.3c0-4.3,3.5-7.8,7.8-7.8h33v1h-33c-3.7,0-6.8,3-6.8,6.8L250.9,192L250.9,192z"/>
		</g>
		<g>
			<path class="st4" d="M248.9,192.1h-1v-38.6c0-5.2,4.2-9.5,9.5-9.5h33.3v1h-33.3c-4.7,0-8.5,3.8-8.5,8.5V192.1z"/>
		</g>
	</g>
	<g class="st2">
		<rect x="108.1" y="96" class="st3" width="31.3" height="33.3"/>
		<rect x="139.4" y="96" class="st0" width="8" height="33.3"/>
		<rect x="99.9" y="90.9" class="st3" width="23.5" height="38.5"/>
		<rect x="123.4" y="90.9" class="st0" width="6.8" height="38.5"/>
		<rect x="96.6" y="96" class="st9" width="19.8" height="33.3"/>
		<rect x="116.4" y="96" class="st0" width="4.5" height="33.3"/>
		<rect x="74.2" y="101.6" class="st3" width="26" height="27.7"/>
		<rect x="100.2" y="101.6" class="st0" width="6.7" height="27.7"/>
		<rect x="67.4" y="97.4" class="st3" width="19.5" height="32"/>
		<rect x="86.9" y="97.4" class="st0" width="5.7" height="32"/>
		<rect x="62.2" y="101.6" class="st3" width="19" height="27.7"/>
		<rect x="81.2" y="101.6" class="st5" width="3.8" height="27.7"/>
	</g>
	<g class="st2">
		<rect x="40" y="129.4" class="st3" width="204" height="9.6"/>
		<g>
			<polygon class="st4" points="76.6,139.2 87.9,139.2 79.7,151.6 76.6,151.6 			"/>
			<rect x="75" y="139.2" class="st4" width="1.6" height="12.4"/>
		</g>
		<g>
			<polygon class="st4" points="203.3,139.2 214.6,139.2 206.4,151.6 203.3,151.6 			"/>
			<rect x="201.7" y="139.2" class="st4" width="1.6" height="12.4"/>
		</g>
	</g>
	<g class="st2">
		<rect x="256.2" y="147.5" class="st3" width="204" height="9.6"/>
		<g>
			<polygon class="st4" points="423.6,169.8 420.6,169.8 412.3,157.4 423.6,157.4 			"/>
			<rect x="423.6" y="157.4" class="st4" width="1.6" height="12.4"/>
		</g>
		<g>
			<polygon class="st4" points="296.9,169.8 293.9,169.8 285.6,157.4 296.9,157.4 			"/>
			<rect x="296.9" y="157.4" class="st4" width="1.6" height="12.4"/>
		</g>
	</g>
	<g class="st2">
		<g>
			<path class="st5" d="M197.4,109.9c0-1.5-0.2-2.9-0.6-4.2l3.7-3.3l-2.3-4l-4.7,1.6c-1.9-2.1-4.5-3.6-7.3-4.2l-1-4.8h-4.7l-1,4.8
				c-2.9,0.7-5.4,2.2-7.3,4.2l-4.7-1.6l-2.3,4l3.7,3.3c-0.4,1.3-0.6,2.8-0.6,4.2c0,1.5,0.2,2.9,0.6,4.2l-3.7,3.3l2.3,4l4.7-1.6
				c1.9,2.1,4.5,3.6,7.3,4.2l1,4.8h4.7l1-4.8c2.9-0.7,5.4-2.2,7.3-4.2l4.7,1.6l2.3-4l-3.7-3.3C197.2,112.8,197.4,111.4,197.4,109.9z
				 M182.9,117.8c-4.2,0-7.6-3.4-7.6-7.6s3.4-7.6,7.6-7.6s7.6,3.4,7.6,7.6S187.1,117.8,182.9,117.8z"/>
		</g>
		<g>
			<path class="st5" d="M222.7,112.3c-0.5-0.8-1.1-1.5-1.8-2.2l1-3.1l-2.7-1.5l-2.1,2.5c-1.8-0.5-3.7-0.5-5.6,0.1l-2.2-2.4l-2.6,1.6
				l1.1,3.1c-1.4,1.4-2.3,3.1-2.7,4.9l-3.2,0.7l0.1,3.1l3.2,0.6c0.2,0.9,0.6,1.8,1.1,2.6c0.5,0.8,1.1,1.5,1.8,2.2l-1,3.1l2.7,1.5
				l2.1-2.5c1.8,0.5,3.7,0.5,5.6-0.1l2.2,2.4l2.6-1.6l-1.1-3.1c1.4-1.4,2.3-3.1,2.7-4.9l3.2-0.7l-0.1-3.1l-3.2-0.6
				C223.6,114,223.2,113.2,222.7,112.3z M217.2,121.8c-2.3,1.4-5.4,0.7-6.9-1.6c-1.4-2.3-0.7-5.4,1.6-6.9c2.3-1.4,5.4-0.7,6.9,1.6
				C220.3,117.3,219.6,120.3,217.2,121.8z"/>
		</g>
	</g>
</g>
<g id="Background_Simple_1_">
	<g id="Layer_8">
		<g>
			<path class="st10" d="M385.3,58c-24.6-18.5-61-13.6-90.1-3.7s-54.3,30.9-69.3,57.8c-8.8,15.7-14.3,33.6-26.6,46.8
				c-18.9,20.2-52.9,24-75.8,8.4c-12-8.1-23.5-21.4-37.6-18.6c-8,1.6-14.3,8.4-17.2,16.1c-2.9,7.6-3.1,16.1-2.8,24.2
				c0.7,22.4,4.4,44.9,13.3,65.4s23.3,39.1,42.4,50.7c22.7,13.7,51,16.9,76.9,11s49.3-20.5,68.1-39.2c14.8-14.8,26.9-32.1,41-47.5
				s31.1-29.4,51.3-34.6c14.4-3.7,29.6-2.8,44.2-5.1c14.7-2.3,30.1-9,36.4-22.5c5.5-11.7,2.8-25.6-1.5-37.8
				C427.3,99.2,410.8,77.2,385.3,58z"/>
			<path class="st11" d="M385.3,58c-24.6-18.5-61-13.6-90.1-3.7s-54.3,30.9-69.3,57.8c-8.8,15.7-14.3,33.6-26.6,46.8
				c-18.9,20.2-52.9,24-75.8,8.4c-12-8.1-23.5-21.4-37.6-18.6c-8,1.6-14.3,8.4-17.2,16.1c-2.9,7.6-3.1,16.1-2.8,24.2
				c0.7,22.4,4.4,44.9,13.3,65.4s23.3,39.1,42.4,50.7c22.7,13.7,51,16.9,76.9,11s49.3-20.5,68.1-39.2c14.8-14.8,26.9-32.1,41-47.5
				s31.1-29.4,51.3-34.6c14.4-3.7,29.6-2.8,44.2-5.1c14.7-2.3,30.1-9,36.4-22.5c5.5-11.7,2.8-25.6-1.5-37.8
				C427.3,99.2,410.8,77.2,385.3,58z"/>
		</g>
	</g>
</g>
<g id="Desk">
	<g>
		<g id="Group">
			<rect x="46.6" y="273.1" class="st10" width="407.6" height="5.1"/>
			<polygon class="st10" points="70.8,276.8 70.8,399.1 74,399.1 78,276.8 			"/>
			<g>
				<polygon class="st10" points="108.4,280.8 108.4,394.1 111.6,394.1 115.6,280.8 				"/>
				<polygon class="st12" points="108.4,280.8 108.4,394.1 111.6,394.1 115.6,280.8 				"/>
			</g>
			<polygon class="st10" points="431.3,276.8 431.3,399.1 428.2,399.1 424.2,276.8 			"/>
			<g>
				<polygon class="st10" points="393.8,280.8 393.8,394.1 390.6,394.1 386.6,280.8 				"/>
				<polygon class="st12" points="393.8,280.8 393.8,394.1 390.6,394.1 386.6,280.8 				"/>
			</g>
			<g>
				<polygon class="st10" points="438.6,283.7 63.3,283.7 55,278.2 446.9,278.2 				"/>
				<polygon class="st12" points="438.6,283.7 63.3,283.7 55,278.2 446.9,278.2 				"/>
			</g>
		</g>
	</g>
</g>
<g id="Beverages">
	<g>
		<path class="st10" d="M73.3,257.4v4c0,0.7,0.3,1.3,0.7,1.8l3.2,3.2c0.3,0.3,0.6,0.5,1,0.6c1.3,2.8,4.1,4.7,7.4,4.7h1.2
			c4.5,0,8.1-3.6,8.1-8.1v-9.3H77.5v0.8h-1.7C74.5,254.9,73.3,256,73.3,257.4z M75.3,257.4c0-0.3,0.2-0.5,0.5-0.5h1.7v6.6
			c0,0.1,0,0.2,0,0.3l-2-2c-0.1-0.1-0.1-0.2-0.1-0.4L75.3,257.4L75.3,257.4z"/>
		<path class="st13" d="M73.3,257.4v4c0,0.7,0.3,1.3,0.7,1.8l3.2,3.2c0.3,0.3,0.6,0.5,1,0.6c1.3,2.8,4.1,4.7,7.4,4.7h1.2
			c4.5,0,8.1-3.6,8.1-8.1v-9.3H77.5v0.8h-1.7C74.5,254.9,73.3,256,73.3,257.4z M75.3,257.4c0-0.3,0.2-0.5,0.5-0.5h1.7v6.6
			c0,0.1,0,0.2,0,0.3l-2-2c-0.1-0.1-0.1-0.2-0.1-0.4L75.3,257.4L75.3,257.4z"/>
		<g>
			<path class="st10" d="M99.1,273H74c-1.6,0-3-1.5-3-1.5h31.1C102.1,271.5,100.8,273,99.1,273z"/>
			<path class="st13" d="M99.1,273H74c-1.6,0-3-1.5-3-1.5h31.1C102.1,271.5,100.8,273,99.1,273z"/>
		</g>
	</g>
	<g>
		<g>
			<g>
				<path class="st10" d="M437.4,260.8c-0.1-4-3.2-4.9-7.1-5.4V254c0-0.3-0.3-0.6-0.6-0.6l0,0H416c-0.4,0-0.7,0.3-0.7,0.6l0,0v18.9
					h14.9v-2.1C434.2,270.3,437.2,264.7,437.4,260.8z M430.3,268.3v-10.5c2.9,0.4,4.9,0.8,4.5,3.7
					C434.4,263.9,432.6,268,430.3,268.3z"/>
			</g>
		</g>
		<g class="st14">
			<path class="st8" d="M437.4,260.8c-0.1-4-3.2-4.9-7.1-5.4V254c0-0.3-0.3-0.6-0.6-0.6l0,0H416c-0.4,0-0.7,0.3-0.7,0.6l0,0v18.9
				h14.9v-2.1C434.2,270.3,437.2,264.7,437.4,260.8z M430.3,268.3v-10.5c2.9,0.4,4.9,0.8,4.5,3.7C434.4,263.9,432.6,268,430.3,268.3
				z"/>
		</g>
	</g>
</g>
<g id="PC">
	<g>
		<g>
			<g>
				<rect x="244.1" y="248.7" class="st10" width="11.8" height="24"/>
				<rect x="244.1" y="248.7" class="st13" width="11.8" height="24"/>
			</g>
			<g>
				<polygon class="st10" points="261.2,273.1 238.9,273.1 244.3,268.3 255.8,268.3 				"/>
				<polygon class="st13" points="261.2,273.1 238.9,273.1 244.3,268.3 255.8,268.3 				"/>
			</g>
		</g>
		<g>
			<g>
				<g>
					<polygon class="st10" points="310.3,265.4 254.5,265.4 264.6,273.1 320.4,273.1 					"/>
					<polygon class="st15" points="310.3,265.4 254.5,265.4 264.6,273.1 320.4,273.1 					"/>
				</g>
			</g>
			<g>
				<polygon class="st10" points="255.8,273.1 254.5,265.4 264.6,273.1 				"/>
				<polygon class="st12" points="255.8,273.1 254.5,265.4 264.6,273.1 				"/>
			</g>
		</g>
		<g>
			<path class="st10" d="M198.9,192h101.6c1.1,0,1.9,0.9,1.9,1.9v62.3c0,1.1-0.9,1.9-1.9,1.9H198.9c-1.1,0-1.9-0.9-1.9-1.9V194
				C197,192.9,197.8,192,198.9,192z"/>
			<rect x="200.8" y="196.2" class="st12" width="97.7" height="57.7"/>
		</g>
		<g>
			<g>
				<rect x="246.1" y="208" class="st16" width="49.3" height="33.9"/>
				<rect x="246.1" y="208" class="st10" width="49.3" height="3.1"/>
			</g>
			<g>
				<path class="st8" d="M255.1,226.8l8.1,4.5c0.4,0.2,0.7,0.4,0.8,0.6c0.1,0.2,0.2,0.4,0.2,0.7s-0.1,0.6-0.4,0.9
					c-0.3,0.3-0.5,0.4-0.9,0.4c-0.2,0-0.5-0.1-1-0.4l-10.4-5.8c-0.7-0.4-0.7-1.4,0-1.8l10.4-5.8c0.4-0.2,0.8-0.4,1-0.4
					c0.3,0,0.6,0.1,0.9,0.4c0.3,0.3,0.4,0.6,0.4,0.9c0,0.3-0.1,0.5-0.2,0.7s-0.4,0.4-0.8,0.6L255.1,226.8z"/>
				<path class="st8" d="M275.9,218.5l-8,17.2c-0.2,0.4-0.4,0.7-0.5,0.8c-0.2,0.2-0.5,0.3-0.8,0.3s-0.6-0.1-0.9-0.4
					c-0.2-0.2-0.4-0.5-0.4-0.8c0-0.2,0.1-0.5,0.3-1l8-17.2c0.2-0.4,0.4-0.7,0.5-0.8c0.2-0.2,0.5-0.3,0.8-0.3s0.6,0.1,0.9,0.4
					c0.2,0.2,0.4,0.5,0.4,0.8C276.2,217.7,276.1,218.1,275.9,218.5z"/>
				<path class="st8" d="M285.9,226.8l-8.1-4.5c-0.4-0.2-0.7-0.4-0.8-0.6c-0.1-0.2-0.2-0.4-0.2-0.7s0.1-0.6,0.4-0.9
					c0.3-0.3,0.5-0.4,0.9-0.4c0.2,0,0.5,0.1,1,0.4l10.4,5.8c0.7,0.4,0.7,1.4,0,1.8l-10.4,5.8c-0.4,0.2-0.8,0.4-1,0.4
					c-0.3,0-0.6-0.1-0.9-0.4c-0.2-0.2-0.4-0.6-0.4-0.9c0-0.3,0.1-0.5,0.2-0.7s0.4-0.4,0.8-0.6L285.9,226.8z"/>
			</g>
		</g>
		<g>
			<g>
				<rect x="204.8" y="201.5" class="st8" width="3.3" height="3.3"/>
				<rect x="204.8" y="210.1" class="st8" width="3.3" height="3.3"/>
				<rect x="204.8" y="218.8" class="st8" width="3.3" height="3.3"/>
				<rect x="204.8" y="227.4" class="st8" width="3.3" height="3.3"/>
				<rect x="204.8" y="236.1" class="st8" width="3.3" height="3.3"/>
				<rect x="204.8" y="244.7" class="st8" width="3.3" height="3.3"/>
			</g>
			<g>
				<rect x="211.3" y="202.3" class="st8" width="13.3" height="1"/>
			</g>
			<g>
				<rect x="214.4" y="210.9" class="st8" width="4.7" height="1"/>
			</g>
			<g>
				<rect x="235" y="220.6" class="st8" width="4.7" height="1"/>
			</g>
			<g>
				<rect x="214.4" y="228.4" class="st8" width="4.7" height="1"/>
			</g>
			<g>
				<rect x="221.3" y="228.4" class="st8" width="4.7" height="1"/>
			</g>
			<g>
				<rect x="221.3" y="220.6" class="st8" width="12.1" height="1"/>
			</g>
			<g>
				<rect x="228.3" y="228.4" class="st8" width="8" height="1"/>
			</g>
			<g>
				<rect x="228.3" y="246.9" class="st8" width="4.7" height="1"/>
			</g>
			<g>
				<rect x="235.1" y="246.9" class="st8" width="4.7" height="1"/>
			</g>
			<g>
				<rect x="242.2" y="246.9" class="st8" width="2.6" height="1"/>
			</g>
			<g>
				<rect x="221.5" y="210.9" class="st8" width="14.8" height="1"/>
			</g>
			<g>
				<rect x="221.3" y="237.4" class="st8" width="4.7" height="1"/>
			</g>
			<g>
				<rect x="227.6" y="237.4" class="st8" width="2.7" height="1"/>
			</g>
			<g>
				<rect x="232.4" y="237.4" class="st8" width="7.7" height="1"/>
			</g>
		</g>
	</g>
</g>
<g id="Speech_Code">
	<g>
		<g>
			<g>
				<path class="st10" d="M241.4,164.5c-0.2,12.1-12.8,22.2-28.1,22.6c-4.7,0.2-9.3-0.7-13.7-2.5c-1.5,3.8-4.8,7.1-14.1,8.5
					c9.7-7.5,4.4-13.8,2.2-19.4l0,0c-1.1-2.3-1.7-5-1.7-7.8c0.2-12.1,12.8-22.2,28.1-22.6C229.5,142.9,241.7,152.4,241.4,164.5z"/>
			</g>
		</g>
		<g>
			<g>
				<rect x="200.8" y="151.8" class="st8" width="13.3" height="1"/>
			</g>
			<g>
				<rect x="203.9" y="160.5" class="st8" width="4.7" height="1"/>
			</g>
			<g>
				<rect x="224.5" y="170.2" class="st8" width="4.7" height="1"/>
			</g>
			<g>
				<rect x="203.9" y="177.9" class="st8" width="4.7" height="1"/>
			</g>
			<g>
				<rect x="210.7" y="177.9" class="st8" width="4.7" height="1"/>
			</g>
			<g>
				<rect x="210.7" y="170.2" class="st8" width="12.1" height="1"/>
			</g>
			<g>
				<rect x="217.8" y="177.9" class="st8" width="8" height="1"/>
			</g>
			<g>
				<rect x="211" y="160.5" class="st8" width="14.8" height="1"/>
			</g>
		</g>
	</g>
</g>
<g id="Character_2">
	<g>
		<g>
			<g>
				<g>
					<g>
						<polygon class="st17" points="299.2,393.7 291.9,391.6 293.6,373.7 300.9,375.9 						"/>
						<polygon class="st18" points="301.5,371.8 294.2,369.7 293.2,379.7 300.6,381.1 						"/>
					</g>
					<path class="st10" d="M342.3,283.4c0,0-50.1,4.2-48.9,26c1,17.8,3.6,13-1.5,66l12.6,0.7c0,0,12.8-43.3,11.1-60.6
						c14.1,0,46.5,1.2,51.2-11.5c2.3-6.5,3.5-13.3,3.4-20.2L342.3,283.4z"/>
				</g>
				<polygon class="st19" points="306.5,378.5 290,375.7 290.3,368.4 307.3,372.2 				"/>
			</g>
			<g>
				<path class="st19" d="M291.1,388.6l8.4,1.7c0.3,0,0.5,0.4,0.5,0.7l-0.7,8c-0.1,0.9-0.8,1.4-1.5,1.3c-2.9-0.6-4.3-1.1-8-1.8
					c-2.3-0.4-7.5-1.5-10.7-1.9s-2.8-4.1-1.4-4.3c6.2-0.8,9.7-1.8,12-3.4C290.2,388.6,290.7,388.5,291.1,388.6z"/>
				<g>
					<path class="st10" d="M287.3,390c0.7,0.1,1.3,0.1,2,0.1c0.1,0,0.1,0,0.1-0.1s0-0.1,0-0.2c-0.2-0.2-2.1-2-3.1-1.8
						c-0.2,0-0.4,0.2-0.5,0.4c-0.2,0.3-0.1,0.7,0.1,1C286.4,389.8,286.8,390,287.3,390z M289,389.7c-1.4,0-2.4-0.2-2.7-0.6
						c-0.1-0.2-0.1-0.4,0-0.6c0-0.1,0.1-0.2,0.2-0.2C287,388.2,288.2,389,289,389.7z"/>
					<path class="st10" d="M289.4,390.1L289.4,390.1c0.1,0,0.2-0.1,0.2-0.1c0-0.1,0.5-2.2-0.1-3.1c-0.2-0.2-0.4-0.4-0.7-0.4
						c-0.3,0-0.6,0.1-0.7,0.4C287.7,387.7,288.6,389.5,289.4,390.1C289.3,390.1,289.3,390.1,289.4,390.1z M288.8,386.9
						c0.1,0,0.3,0.1,0.4,0.2c0.3,0.8,0.3,1.7,0.1,2.5c-0.6-0.7-0.9-1.6-0.9-2.5C288.4,387,288.5,386.8,288.8,386.9L288.8,386.9z"/>
				</g>
			</g>
			<g>
				<g>
					<polygon class="st17" points="266.7,396.5 259.7,393.4 264.5,376.3 271.5,379.4 					"/>
					<polygon class="st18" points="272.6,375 265.7,371.9 263.2,380.7 270.2,383.8 					"/>
				</g>
				<g>
					<path class="st10" d="M327.4,283.4c-0.3,0-56.2,5.8-56.3,24.7c-0.1,31.3-9.1,67.3-9.1,67.3l11,5.5c0,0,19.2-38.9,18.9-63.4
						c15.4-4.4,55.1,3,59.8-9.7c3.9-10.4,1.8-24.3,1.8-24.3L327.4,283.4z"/>
					<polygon class="st19" points="274.9,382.4 260.1,375.7 261.3,369.7 276.9,375.1 					"/>
				</g>
			</g>
			<g>
				<path class="st19" d="M260.4,387.7l8.4,1.8c0.3,0.1,0.5,0.4,0.5,0.8l-0.7,8.8c-0.1,0.9-0.8,1.6-1.5,1.5l0,0
					c-2.9-0.7-4.3-1.2-8-2c-2.3-0.5-8.5-2-11.6-2.8s-2.4-4.8-1-4.8c6.2-0.1,10.2-1.1,12.6-2.8C259.5,387.7,260,387.6,260.4,387.7z"
					/>
				<g>
					<path class="st10" d="M257,389.5c0.6-0.3,1.1-0.7,1.6-1.1c0.1,0,0.1-0.1,0.1-0.2s-0.1-0.1-0.1-0.1c-0.3,0-2.9-0.4-3.5,0.4
						c-0.1,0.2-0.2,0.4-0.1,0.6c0.1,0.4,0.3,0.6,0.6,0.8C256,390,256.5,389.8,257,389.5z M258.1,388.4c-1.1,0.9-2,1.3-2.5,1.1
						c-0.2-0.1-0.4-0.3-0.4-0.5c0-0.1,0-0.2,0.1-0.3C255.6,388.3,257,388.3,258.1,388.4z"/>
					<path class="st10" d="M258.6,388.4L258.6,388.4c0.1-0.1,0.1-0.2,0.1-0.2c-0.1-0.1-0.9-2.1-1.9-2.4c-0.3-0.1-0.6,0-0.8,0.1
						c-0.3,0.2-0.4,0.5-0.3,0.8C255.9,387.5,257.6,388.4,258.6,388.4C258.5,388.4,258.6,388.4,258.6,388.4z M256.3,386.1
						c0.1-0.1,0.3-0.1,0.4,0c0.7,0.5,1.2,1.1,1.5,1.9c-0.9-0.2-1.7-0.7-2.2-1.5C256,386.5,256,386.3,256.3,386.1L256.3,386.1z"/>
				</g>
			</g>
			<g>
				<path class="st17" d="M346.4,222.9c1.5,3.2,2.7,6.2,3.9,9.4c1.2,3.2,2.3,6.3,3.3,9.6s1.9,6.6,2.5,10c0.8,3.6,1.1,7.2,1.1,10.9
					c0,2.1-0.3,4.3-1,6.3c-0.4,1.3-1,2.5-1.7,3.6c-0.4,0.6-0.9,1.2-1.4,1.7l-0.4,0.4c-0.2,0.2-0.5,0.4-0.8,0.6
					c-0.4,0.3-0.9,0.5-1.3,0.7c-0.7,0.3-1.4,0.5-2.2,0.7c-0.6,0.1-1.2,0.2-1.8,0.3c-1,0.1-2,0.1-3,0c-1.8-0.1-3.6-0.3-5.4-0.6
					c-6.6-1.2-13.1-3.1-19.4-5.6l1.5-5.5c6.3,0.8,12.8,1.6,18.9,1.9c1.5,0,3,0.1,4.4,0c0.6,0,1.2-0.1,1.8-0.2
					c0.5-0.1,0.9-0.3,0.8-0.3s-0.2,0.1-0.3,0.1c-0.1,0.1-0.2,0.1-0.3,0.2l0,0c0,0,0-0.1,0.1-0.2c0.1-0.3,0.2-0.6,0.3-0.9
					c0.2-1.1,0.3-2.2,0.3-3.3c-0.1-2.9-0.6-5.7-1.3-8.5c-0.7-3-1.6-5.9-2.5-8.9c-1-3-2-5.9-3.1-8.9s-2.3-5.9-3.5-8.7L346.4,222.9z"
					/>
				<path class="st17" d="M323.1,266.9l-6.6-3.7l-3.3,7.2c0,0,7.8,3.2,9.4,1.2L323.1,266.9z"/>
				<polygon class="st17" points="311.1,264.5 308,269.3 313.1,270.3 316.4,263.1 				"/>
			</g>
			<g>
				<path class="st17" d="M330.9,228.6c-1.3,3.2-2.6,6.2-4,9.3s-2.8,6.1-4.3,9.2c-3,6.2-6.3,12.2-10,18c-1,1.5-2,3-3.1,4.4
					c-0.6,0.7-1.2,1.5-1.8,2.2c-0.4,0.4-0.6,0.7-1.1,1.1l-0.6,0.6l-0.3,0.3c-1,0.8-2.1,1.4-3.3,1.7c-0.6,0.2-1.3,0.3-1.9,0.4
					c-1.1,0.1-2.1,0.2-3.2,0.1c-1.9-0.1-3.7-0.2-5.5-0.5c-6.8-1.2-13.4-3.1-19.8-5.6l1.5-5.5c6.5,0.8,13.1,1.6,19.3,1.9
					c1.5,0.1,2.9,0,4.4-0.1c0.6,0,1.2-0.1,1.8-0.3c0.2,0,0.4-0.1,0.5-0.2c0.1,0,0-0.1-0.3,0.1c-0.1,0.1-0.2,0.1-0.3,0.2l0.1-0.1
					l0.3-0.3c0.2-0.2,0.4-0.5,0.6-0.7c0.4-0.5,0.8-1.1,1.3-1.7c0.8-1.2,1.6-2.5,2.4-3.9c1.6-2.7,3.1-5.5,4.5-8.4
					c1.5-2.9,2.9-5.8,4.2-8.8c2.8-5.9,5.4-12,8-17.9L330.9,228.6z"/>
				<g>
					<path class="st17" d="M276.2,265.8l-6.6-3.8l-3.3,7.2c0,0,7.8,3.2,9.4,1.2L276.2,265.8z"/>
					<polygon class="st17" points="264.2,263.4 261.1,268.2 266.2,269.2 269.5,262 					"/>
				</g>
			</g>
			<g>
				<path class="st17" d="M348.1,193.1l-4.2,4.9l-6.5,6.7c0.1,0.3,0.3,0.8,0.5,1.2c0.5,1.2,0.8,2.5,0.9,3.9c0.1,2.7-0.1,5-4.3,6.8
					c0,0-4.4,5.8,6.1,4.2s12.2-7.1,12.2-7.1C348,210.4,347.7,199.3,348.1,193.1z"/>
				<g>
					<path class="st19" d="M326.6,187.6c0,0.7-0.3,1.2-0.8,1.2c-0.4,0-0.8-0.5-0.8-1.2s0.3-1.2,0.8-1.2
						C326.2,186.4,326.5,186.9,326.6,187.6z"/>
					<path class="st19" d="M328.8,185.1c-0.1,0-0.3-0.1-0.3-0.2c-0.5-0.9-1.4-1.4-2.4-1.5c-0.2,0-0.4-0.2-0.4-0.4s0.2-0.4,0.4-0.4
						l0,0l0,0c1.3,0.1,2.4,0.8,3.1,1.9c0.1,0.2,0.1,0.4-0.1,0.5C328.9,185.1,328.8,185.1,328.8,185.1z"/>
					<path class="st20" d="M326.3,188c-0.5,1.8-1.3,3.5-2.3,5.1c0.8,0.5,1.8,0.5,2.7,0.2L326.3,188z"/>
					<path class="st17" d="M348.7,184.3c-0.4,8.2-0.2,13-4.3,17.3c-3.9,4.3-10.7,4.7-15,0.7c-1.6-1.4-2.7-3.3-3.2-5.4
						c-1.8-7.2-0.9-19.4,7-23c5.3-2.6,11.8-0.5,14.4,4.9C348.4,180.4,348.8,182.4,348.7,184.3z"/>
				</g>
			</g>
			<g>
				<g>
					<path class="st19" d="M352.4,187c-1.2,3.5-3,6.7-5.3,9.5l-10.6,2c0,0-8.4-3.5-6.1-9.3c-1.4-1.2-0.9-4.9,0.1-6.9
						c1.6,1.3,4.2,1.4,5.7-0.1c1.2,2.1,4.6,2.4,6.1,0.5c1.7,1.9,5.4,1.3,6.5-1c1.3,0.8,3.1,0.7,4.3-0.3c0.1,0,0.1-0.1,0.2-0.1
						C353.3,182.6,353.1,184.5,352.4,187z"/>
					<path class="st21" d="M352.4,187c-1.2,3.5-3,6.7-5.3,9.5l-10.6,2c0,0-8.4-3.5-6.1-9.3c-1.4-1.2-0.9-4.9,0.1-6.9
						c1.6,1.3,4.2,1.4,5.7-0.1c1.2,2.1,4.6,2.4,6.1,0.5c1.7,1.9,5.4,1.3,6.5-1c1.3,0.8,3.1,0.7,4.3-0.3c0.1,0,0.1-0.1,0.2-0.1
						C353.3,182.6,353.1,184.5,352.4,187z"/>
				</g>
				<path class="st19" d="M353.9,177.1c0.6,1.3,0.3,3-0.8,4c-0.1,0.1-0.1,0.1-0.2,0.1c-1.2,1-3,1.1-4.3,0.3c-1,2.4-4.7,3-6.5,1
					c-1.5,1.9-5,1.6-6.1-0.5c-1.4,1.5-4.1,1.4-5.7,0.1c-0.4-0.3-0.8-0.8-1-1.2c-0.1-0.1-0.1-0.2-0.1-0.3c-0.1,0.1-0.2,0.2-0.3,0.3
					c-1,0.8-2.5,0.9-3.6,0.2c-0.9-0.6-1.4-1.7-1.3-2.7c0-0.2,0-0.4,0.1-0.6c-0.1,0.1-0.2,0.3-0.3,0.4c-0.9,0.9-2.7,1-3.6-0.1
					c-1.1-1.3-0.5-3.5,1-4.4c0.6-0.3,1.2-0.5,1.9-0.5c1,0,2.1,0.4,2.9,1c-0.9-1.3-0.6-3.2,0.7-4.1c1.2-0.9,3.1-0.7,4.1,0.5
					c-0.1-1.4,0.3-2.3,1.1-2.7c1.4-0.8,3.7-0.1,4.8,1.2c0,0,1.5-3.7,4.2-3.3c0.6,0.1,3.3,1.3,3.2,2.3c0,0.1,0,0.1,0,0.2
					c0-0.1,0.1-0.1,0.1-0.2c0.5-0.8,1.6-1.2,2.6-1.2c1.1,0,2.1,0.4,3.1,0.8c2.1,0.8,4.3,1.8,5.5,3.7
					C356.6,173.4,356.1,176.5,353.9,177.1z"/>
				<path class="st17" d="M335,190c-0.3,2-1.2,3.9-2.6,5.3c-1.8,1.7-3.4,0-3.4-2.6c0-2.4,0.9-6.2,3-6.9S335.4,187.4,335,190z"/>
			</g>
			<g>
				<path class="st19" d="M367,216.5c-0.8-2-4.3-4-6.4-4h-1.4c-2.5,0-5.6,0.2-8.6,0.5c-5.7,0.6-11.4,1.6-17,2.9
					c-2.6,0.7-5.1,1.5-7,2.3c-2.5,1-4,1.7-4,1.7s2.8,18.4,4.2,36.6c0.8,10.2,0.5,20.3,0.7,27.2h42.7c1.5-8.3,1.2-15.6,1.4-30.7
					C371.5,244,370.1,224.8,367,216.5z"/>
				<path class="st18" d="M325.8,246.3c0.3,3.8,0.6,7.8,1,11.9c5-7.3,7.8-27.3,7.8-27.3L325.8,246.3z"/>
			</g>
			<path class="st19" d="M320.1,221.2c-6.1,3.4-12.1,21-12.1,21l14,10.6c5.3-5,13.2-17.6,14-22.6
				C337.4,222.6,329.9,215.8,320.1,221.2z"/>
		</g>
		<g>
			<g>
				<path class="st19" d="M308.1,400.4c0,2.4-1.9,4.4-4.4,4.4c-2.4,0-4.4-1.9-4.4-4.4c0-2.4,1.9-4.3,4.4-4.3
					C306.1,396.1,308.1,398,308.1,400.4L308.1,400.4z"/>
				<path class="st19" d="M373,400.4c0,2.4,1.9,4.4,4.4,4.4c2.4,0,4.4-1.9,4.4-4.4c0-2.4-1.9-4.3-4.4-4.3S373,398,373,400.4
					L373,400.4z"/>
				<path class="st19" d="M336.3,399c0,2.4,1.9,4.4,4.4,4.4c2.4,0,4.3-1.9,4.3-4.4c0-2.4-1.9-4.4-4.3-4.4
					C338.2,394.7,336.3,396.6,336.3,399L336.3,399z"/>
			</g>
			<g>
				<path class="st19" d="M339.3,393.7v-8.4h-12.5c-2.4,0-4.9,0.2-7.3,0.7l-23.2,4.5c-1.1,0.2-1.9,1.3-1.7,2.5
					c0.2,1,1.1,1.7,2.1,1.7L339.3,393.7z"/>
				<path class="st19" d="M339.3,393.7v-8.4h12.5c2.4,0,4.9,0.2,7.3,0.7l26.1,4.2c1.1,0.2,1.9,1.3,1.7,2.5c-0.2,1-1.1,1.7-2.1,1.7
					L339.3,393.7z"/>
			</g>
			<g>
				<rect x="331.6" y="346.8" class="st19" width="15.4" height="38.5"/>
				<rect x="333.8" y="328.8" class="st19" width="11" height="17.9"/>
				<polygon class="st12" points="333.8,334.1 344.8,336.9 344.8,328.8 333.8,328.8 				"/>
			</g>
			<g>
				<g>
					<rect x="298.1" y="288.3" class="st19" width="5.6" height="23.9"/>
					<path class="st10" d="M331.7,328.8V225.2c0-3.9,1.7-7.7,4.6-10.2l7.4-6.5c2.5-2.2,5.7-3.4,9-3.4h26.7l13,13.9v109.9h-60.7
						V328.8z"/>
					<path class="st10" d="M292,308.8h60.9v20.1h-70.8c-4,0-7.2-3.2-7.2-7.2c0-1.3,0.3-2.6,1-3.7l0,0
						C279.2,312.3,285.4,308.8,292,308.8z"/>
					<path class="st22" d="M392.5,219v109.9H282.1c-4,0-7.2-3.2-7.2-7.2c0-1.3,0.3-2.6,1-3.7c3.4-5.7,9.5-9.2,16.1-9.2h30.7
						c5,0,9.1-4.1,9.1-9.1v-74.5c0-3.9,1.7-7.7,4.7-10.2l7.4-6.5c2.5-2.2,5.7-3.4,9-3.4h26.7L392.5,219z"/>
					<g>
						<path class="st10" d="M340.6,328.8V225.2c0-3.9,1.7-7.7,4.6-10.2l7.4-6.5c2.5-2.2,5.7-3.4,9-3.4h20.8c3.8,0,7.3,1.6,9.9,4.3
							l5.3,5.7c2.4,2.5,3.7,5.9,3.7,9.3v94.1c0,5.7-4.6,10.4-10.4,10.4h-50.3V328.8z"/>
						<path class="st13" d="M340.6,328.8V225.2c0-3.9,1.7-7.7,4.6-10.2l7.4-6.5c2.5-2.2,5.7-3.4,9-3.4h20.8c3.8,0,7.3,1.6,9.9,4.3
							l5.3,5.7c2.4,2.5,3.7,5.9,3.7,9.3v94.1c0,5.7-4.6,10.4-10.4,10.4h-50.3V328.8z"/>
					</g>
				</g>
				<g>
					<path class="st10" d="M319.9,295.6c-12.3-4.3-25.7-4.3-38,0c-2.6,1-5.4-0.1-6.7-2.5l0,0c-1.1-2.4,0.4-5.5,3.5-6.6
						c14.4-5,30-5,44.4,0c3.1,1.1,4.6,4.2,3.5,6.6l0,0C325.3,295.5,322.5,296.6,319.9,295.6z"/>
					<path class="st22" d="M319.9,295.6c-12.3-4.3-25.7-4.3-38,0c-2.6,1-5.4-0.1-6.7-2.5l0,0c-1.1-2.4,0.4-5.5,3.5-6.6
						c14.4-5,30-5,44.4,0c3.1,1.1,4.6,4.2,3.5,6.6l0,0C325.3,295.5,322.5,296.6,319.9,295.6z"/>
				</g>
			</g>
		</g>
	</g>
</g>
<g id="Character_1">
	<g>
		<g id="_x3C_Group_x3E_">
			<g>
				<g>
					<path class="st19" d="M164.5,196.4c-0.2,0.6-0.1,1.2,0.3,1.3c0.4,0.1,0.9-0.2,1.1-0.8c0.2-0.6,0.1-1.2-0.3-1.3
						C165.2,195.4,164.7,195.8,164.5,196.4z"/>
					<path class="st23" d="M164.4,197c0.1,2.1,0.4,4.1,1.1,6.1c-1,0.3-2.1,0.1-3-0.5L164.4,197z"/>
					<path class="st19" d="M163.5,192.4c0.1,0,0.2,0,0.2,0c0.9-0.3,1.9-0.1,2.6,0.4c0.2,0.1,0.4,0.1,0.5-0.1c0.1-0.1,0.1-0.3,0-0.5
						c-1-0.7-2.2-0.9-3.3-0.6c-0.2,0.1-0.3,0.3-0.2,0.5C163.4,192.2,163.4,192.3,163.5,192.4L163.5,192.4z"/>
					<path class="st24" d="M142.6,198.6c1.1,5.7,2.2,16.1-1.8,19.9c0,0,1.6,5.8,12.1,5.8c11.6,0,5.6-5.8,5.6-5.8
						c-6.4-1.5-5.3-6.2-4.2-10.7L142.6,198.6z"/>
					<path class="st24" d="M145.2,188.3c-2.1,7.4-3.7,11.7-1.3,16.7c3.6,7.6,16,8.5,19.4-0.1c2.6-8,5.2-16.4-1-21.7
						c-4.4-3.9-11-3.5-14.9,0.9C146.4,185.2,145.6,186.7,145.2,188.3z"/>
				</g>
				<path class="st19" d="M137.1,190.7c-0.5-2.7-0.7-5.7,0.7-8.2c1.4-2.4,4.7-3.9,7.1-2.5c2.1-4.4,7.1-7.2,11.9-6.6
					c4.8,0.6,9.1,4.4,10.1,9.2c1,4.7-1.3,10-5.4,12.5c0.6-2,1.1-4.1,1.7-6.1c-0.5,2.8-2,5.5-4.3,7.2c0.3-2,0.6-4.1,1-6.1
					c-0.3,2.9-2,5.6-4.5,7.1c0.4-1.4,0.8-2.9,1.2-4.3c-0.2,0.6-1.7,5.1-2.3,5.7c-1,1.1-1.6,8.7-5.1,8.9
					C137.3,209.8,138.4,197.1,137.1,190.7z"/>
				<path class="st24" d="M153,194.3c-0.2,1.9,0.2,3.8,1.2,5.5c1.3,2.1,3.3,1.3,4-0.9c0.6-2,0.7-5.4-1.1-6.8
					C155.2,190.7,153.3,192,153,194.3z"/>
			</g>
			<g>
				<path class="st24" d="M124.8,266.4c-1.3-0.4-7.2-3.5-8.2-2.9c2.7-7,4.5-8.1,5.7-12.5c0.7-2.5,0.2-4.4-1.3-6.5
					c-1.8-2.4-2.4-3.5-5.3-3.3c-4,6.7-9.1,15-11.1,22.6c-0.7,2.6-1.1,4.5,0.4,6.6c1.3,1.9,3.8,2.7,6.1,2.9
					c5.6,0.5,13.8-0.5,13.7-3.8C124.8,267.3,124.8,266.4,124.8,266.4z"/>
				<g>
					<path class="st24" d="M123.9,266.1l4.7-1.5l-0.4,8.5c0,0-3.8,0.1-5.8-2.4L123.9,266.1z"/>
					<polygon class="st24" points="134.5,264.5 133.8,271.5 128.2,273.1 128.6,264.6 					"/>
				</g>
			</g>
			<g>
				<path class="st24" d="M188.6,272.2c0,0-6.6-5.2-15.2-22.2c-1.3-2.4-2.5-4.8-3.7-7.2s-2.3-4.8-3.4-7.4l10.2-4.4
					c2.1,4.6,5.4,9.3,7.7,13.9c2.3,4.6,7.8,15.3,8.5,16.3c0.3,0.5,0.7,0.9,1.1,1.4l0.5,0.7l-6.6,7.6L188.6,272.2z"/>
				<g>
					<g>
						<path class="st24" d="M197.3,239l-2-2.4l-0.9-3.7l6.2-5.7c0,0,1.5,1.8,2.5,3.8c0.2,0.3,0.2,0.6,0.2,1l-0.3,6.4L197.3,239z"/>
						<polygon class="st24" points="194.4,229 199,224.8 200.4,227.2 194.3,232.9 						"/>
					</g>
					<path class="st24" d="M197.4,237.2c0.2-0.7,0.3,0.7,0.8,0.1c1.4-1.6,3.3-1.8,4.5,0s0.2,19.6-1.7,25.2c-1.3,3.7-1.9,6.7-5.1,8.9
						c-1.3,0.9-2.9,1.6-4.5,1.6s-3.3-0.9-3.9-2.4c-1-2.3,2.6-10.7,3.8-13.4C195.2,248.7,195.5,245.3,197.4,237.2z"/>
				</g>
				<g>
					<g>
						<path class="st10" d="M184.1,236.5c2.7,0,5.4-0.1,8.2-0.1c1.2,0,2.4,0,3.4-0.5c1.4-0.7,2.2-2.1,2.8-3.5c1.2-3,1.3-6.2,1.7-9.4
							c0.5-3.1,1.4-6.4,3.8-8.5c-4.3,0.6-12-0.8-15.3,2.8C186.9,219.1,183.8,236.5,184.1,236.5z"/>
						<path class="st13" d="M184.1,236.5c2.7,0,5.4-0.1,8.2-0.1c1.2,0,2.4,0,3.4-0.5c1.4-0.7,2.2-2.1,2.8-3.5c1.2-3,1.3-6.2,1.7-9.4
							c0.5-3.1,1.4-6.4,3.8-8.5c-4.3,0.6-12-0.8-15.3,2.8C186.9,219.1,183.8,236.5,184.1,236.5z"/>
					</g>
					<path class="st24" d="M198.1,224.3L198.1,224.3c-0.5,0.1-0.8,1.8-0.7,2.3l0.5,0.8l0.9,4.1l3.1-1.7l-2.8-5
						C198.9,224.4,198.5,224.2,198.1,224.3z"/>
				</g>
			</g>
			<path class="st10" d="M127.6,219.9c-7.3,1.7-18.1,24.4-18.1,24.4l14.6,10c3.6-5.2,8.6-13.1,11.4-18.8
				C139.9,226.4,135.1,218.2,127.6,219.9z"/>
			<g>
				<path class="st19" d="M138.3,220.5c-0.8-1.8-1.8-3.9,0.1-4.6c2.1-0.7,13.5-1.5,17.5-0.1c2.2,0.6,3.4,2.8,2.9,5v0.1L138.3,220.5z
					"/>
				<path class="st18" d="M132.1,233.1l-10.4,19.6l2.5,1.7c0,0,4.7-6.6,8-12.2v-9.1H132.1z"/>
				<path class="st10" d="M172,229.9c1.6,8-2.1,27-2.1,58h-41.6c-0.3-6.3,4.3-21.1-1.4-50.7c-0.2-1-0.3-17.1,0.7-17.3
					c4-0.7,8.1-1.2,12.2-1.4c5.9-0.3,11.8-0.3,17.7,0c2.4,0.2,6.2,1.7,8.6,2.6C169.8,222.4,171.2,226,172,229.9z"/>
				<path class="st18" d="M161,237.9c1.1,6.6,5.4,15.3,9.7,20.3c0.2-3.7,0.5-7.6,0.5-10.6L161,237.9z"/>
			</g>
			<path class="st10" d="M158,228c-1,7.4,13.5,26.2,13.5,26.2l14.6-10c0,0-4-10.4-10.9-17.2C167.5,219.2,159.2,220,158,228z"/>
			<g>
				<polygon class="st24" points="205.7,391.1 213.5,391.1 215.3,373.1 207.5,373.1 				"/>
				<polygon class="st18" points="215.2,374.2 214.3,383.5 206.5,383.5 207.4,374.2 				"/>
			</g>
			<g>
				<polygon class="st24" points="175,391.1 182.8,391.1 186.7,373.1 178.9,373.1 				"/>
				<g class="st25">
					<polygon points="178.8,374.1 186.6,374.1 184.5,383.3 176.8,383.3 					"/>
				</g>
			</g>
			<path class="st19" d="M213.9,387.6h-8.5c-0.3,0-0.6,0.3-0.7,0.7l-1.5,8.9c-0.1,0.8,0.2,1.6,0.8,1.8c0.1,0,0.2,0,0.3,0
				c3.1-0.1,7.5-0.3,11.3-0.3c4.5,0,8.4,0.3,13.7,0.3c3.2,0,4.1-4.2,2.8-4.6c-6.1-1.7-11.1-1.9-16.3-6.1
				C215.3,387.9,214.6,387.7,213.9,387.6z"/>
			<g>
				<path class="st10" d="M220.1,390.5c1,0,2-0.1,2.3-0.6c0.2-0.2,0.2-0.6,0-0.8c-0.1-0.2-0.3-0.4-0.6-0.4c-1.3-0.4-4,1.2-4.1,1.3
					c-0.1,0-0.1,0.1-0.1,0.2s0.1,0.1,0.1,0.1C218.5,390.4,219.3,390.5,220.1,390.5z M221.4,389c0.1,0,0.2,0,0.4,0s0.3,0.1,0.4,0.3
					c0.1,0.2,0.1,0.3,0,0.4c-0.4,0.5-2.3,0.5-3.8,0.3C219.2,389.5,220.3,389.1,221.4,389z"/>
				<path class="st10" d="M217.8,390.3L217.8,390.3c1-0.4,2.9-2.1,2.7-3c0-0.2-0.2-0.5-0.7-0.5c-0.4,0-0.7,0.1-1,0.3
					c-1,0.8-1.2,2.9-1.2,3C217.6,390.2,217.6,390.2,217.8,390.3C217.7,390.3,217.7,390.3,217.8,390.3z M219.7,387.2h0.1
					c0.3,0,0.3,0.2,0.4,0.2c0.1,0.5-1.2,1.9-2.1,2.4c0.1-0.9,0.4-1.7,1-2.4C219.2,387.2,219.4,387.1,219.7,387.2z"/>
			</g>
			<path class="st19" d="M183.4,387.6h-8.7c-0.3,0-0.6,0.3-0.7,0.7l-1.5,8.9c-0.1,0.8,0.3,1.6,0.9,1.8c0.1,0,0.2,0,0.3,0
				c3.1-0.1,4.5-0.3,8.4-0.3c2.4,0,5.4,0.3,8.7,0.3s3.7-4.2,2.4-4.6c-6-1.7-6.4-4-8.3-6.3C184.3,387.8,183.8,387.6,183.4,387.6z"/>
			<g>
				<path class="st10" d="M187.9,391.5c0.7,0.1,1.3-0.1,1.9-0.5c0.2-0.3,0.2-0.6,0-0.9c-0.1-0.2-0.3-0.4-0.6-0.4
					c-1.1-0.3-3.3,1.2-3.4,1.3c-0.1,0-0.1,0.1-0.1,0.2s0.1,0.1,0.1,0.1C186.6,391.4,187.2,391.5,187.9,391.5z M188.9,390
					c0.1,0,0.1,0,0.2,0c0.1,0,0.3,0.1,0.3,0.2c0.2,0.3,0.1,0.4,0,0.5c-0.3,0.4-1.9,0.4-3.1,0.3C187.2,390.5,188,390.2,188.9,390
					L188.9,390z"/>
				<path class="st10" d="M186,391.3L186,391.3c0.9-0.4,2.4-2.1,2.3-3c-0.1-0.3-0.3-0.5-0.6-0.5s-0.6,0.1-0.8,0.2
					c-0.9,0.7-1.1,3-1.1,3.1s0,0.1,0.1,0.2C185.9,391.3,185.9,391.3,186,391.3z M187.5,388.2L187.5,388.2c0.3,0,0.3,0.1,0.3,0.2
					c0.1,0.5-0.9,1.8-1.7,2.4c0.1-0.9,0.4-1.7,0.9-2.4C187.2,388.2,187.4,388.2,187.5,388.2L187.5,388.2z"/>
			</g>
			<g>
				<g>
					<path class="st19" d="M157.5,287.9c0,0,36.8,15.2,44.5,26.9c-4.5,29.7-12.7,63.6-12.7,63.6h-13.9c0,0-0.4-18.8,3.6-43.8
						c2-36.4-63.4,1.3-50.7-46.8L157.5,287.9L157.5,287.9z"/>
					<path class="st26" d="M182.9,313c-2.6,0.1-5.1,0.5-7.7,0.9c-2.7,0.4-5.4,0.8-8.1,1.2c4.2,3.5,8.6,6.7,13.2,9.6
						c2.8,1.8,5.8,3.5,9.1,3.5c3.7,0,13.7-4.7,12.1-9.7C199.8,313.6,187.1,312.8,182.9,313z"/>
				</g>
				<path class="st19" d="M169.9,287.9c0,0,34.1,4.4,52.8,15.1c5.8,3.3,5,13.9,4.8,20.8c-0.4,18.7-4,37.1-10.6,54.6h-11.6
					c0,0,0.6-18.9,0.2-49.3c-0.1-9.1-18.6-12.1-36.6-13.2c-15.6-1-29.2-10.7-35.2-25.1l-1.2-2.9H169.9z"/>
				<path class="st10" d="M219.8,375.3c0.1,0-0.8,5.5-0.8,5.5h-16l-0.4-4.9L219.8,375.3z"/>
				<path class="st10" d="M190.6,375.3c0.1,0-1.5,5.5-1.5,5.5h-16l0.3-4.9L190.6,375.3z"/>
			</g>
			<g>
				<g>
					<polygon class="st10" points="147.6,315.5 136.2,400 134.1,399.7 142.9,314.9 					"/>
					<polygon class="st16" points="147.2,318.5 136.2,400 134.1,399.7 142.5,318.5 					"/>
				</g>
				<g>
					<path class="st10" d="M187.9,318.5h-65c0-4.1,3.3-7.4,7.4-7.4l0,0h50.2C184.6,311.1,187.9,314.4,187.9,318.5L187.9,318.5z"/>
					<path class="st22" d="M187.9,318.5h-65c0-4.1,3.3-7.4,7.4-7.4l0,0h50.2C184.6,311.1,187.9,314.4,187.9,318.5L187.9,318.5z"/>
				</g>
				<polygon class="st10" points="126,318.5 116.2,400.7 118.3,400.7 130.7,318.5 				"/>
				<g>
					<polygon class="st10" points="184.9,318.5 194.7,400.7 192.6,400.7 180.2,318.5 					"/>
					<polygon class="st16" points="184.9,318.5 194.7,400.7 192.6,400.7 180.2,318.5 					"/>
				</g>
				<polygon class="st10" points="171.8,318.5 172,400.7 169.9,400.7 167.1,318.5 				"/>
			</g>
		</g>
	</g>
</g>
</svg>
