<?xml version="1.0" encoding="utf-8"?>
<!-- Generator: Adobe Illustrator 23.0.5, SVG Export Plug-In . SVG Version: 6.00 Build 0)  -->
<svg version="1.1" id="technical-workshop" xmlns="http://www.w3.org/2000/svg" xmlns:xlink="http://www.w3.org/1999/xlink" x="0px"
	 y="0px" viewBox="0 0 3710 3710" style="enable-background:new 0 0 3710 3710;" xml:space="preserve">
<style type="text/css">
	.st0{display:none;}
	.st1{display:inline;}
	.st2{fill:#FFFFFF;}
	.st3{fill:#F4F7FA;}
	.st4{fill:#97A6B7;}
	.st5{fill:url(#SVGID_1_);}
	.st6{opacity:0.3;fill:#D8DEE8;enable-background:new    ;}
	.st7{fill:#00437D;}
	.st8{opacity:0.6;fill:#FFFFFF;enable-background:new    ;}
	.st9{opacity:0.36;fill:#FFFFFF;enable-background:new    ;}
	.st10{opacity:0.5;fill:#FFFFFF;enable-background:new    ;}
	.st11{fill:url(#SVGID_2_);}
	.st12{opacity:0.3;fill:url(#SVGID_3_);enable-background:new    ;}
	.st13{display:inline;fill:url(#SVGID_4_);}
	.st14{display:inline;fill:url(#SVGID_5_);}
	.st15{fill:url(#SVGID_6_);}
	.st16{display:inline;fill:url(#SVGID_7_);}
	.st17{fill:#1DA1F2;}
	.st18{fill:url(#SVGID_8_);}
	.st19{fill:#F1B287;}
	.st20{fill:url(#SVGID_9_);}
	.st21{opacity:0.3;}
	.st22{fill:#337AB7;}
	.st23{fill:#F9F9F9;}
	.st24{fill:#B1B1B1;}
	.st25{fill:url(#SVGID_10_);}
	.st26{opacity:0.3;fill:#B1B1B1;enable-background:new    ;}
	.st27{fill:url(#SVGID_11_);}
	.st28{fill:url(#SVGID_12_);}
	.st29{fill:url(#SVGID_13_);}
	.st30{fill:url(#SVGID_14_);}
	.st31{fill:url(#SVGID_15_);}
	.st32{fill:url(#SVGID_16_);}
	.st33{fill:url(#SVGID_17_);}
	.st34{fill:url(#SVGID_18_);}
	.st35{fill:#26264F;}
	.st36{fill:url(#SVGID_19_);}
	.st37{fill:url(#SVGID_20_);}
	.st38{opacity:0.3;fill:#DFDFDF;enable-background:new    ;}
	.st39{display:inline;fill:url(#SVGID_21_);}
	.st40{display:inline;fill:url(#SVGID_22_);}
	.st41{display:inline;fill:url(#SVGID_23_);}
	.st42{display:inline;opacity:0.3;fill:url(#SVGID_24_);enable-background:new    ;}
	.st43{display:inline;fill:url(#SVGID_25_);}
	.st44{display:inline;fill:url(#SVGID_26_);}
	.st45{display:inline;fill:url(#SVGID_27_);}
	.st46{display:inline;fill:url(#SVGID_28_);}
	.st47{display:inline;fill:url(#SVGID_29_);}
	.st48{display:inline;fill:url(#SVGID_30_);}
	.st49{display:inline;opacity:0.3;fill:url(#SVGID_31_);enable-background:new    ;}
	.st50{fill:url(#SVGID_32_);}
	.st51{fill:url(#SVGID_33_);}
	.st52{opacity:0.3;fill:url(#SVGID_34_);enable-background:new    ;}
	.st53{fill:url(#SVGID_35_);}
	.st54{display:inline;fill:url(#SVGID_36_);}
	.st55{opacity:0.28;fill:#FFFFFF;enable-background:new    ;}
	.st56{fill:#313A3F;}
	.st57{opacity:0.2;}
	.st58{fill:url(#SVGID_37_);}
</style>
<g id="Background" class="st0">
	<g class="st1">
		<g>
			<rect class="st2" width="3710" height="3710"/>
		</g>
	</g>
</g>
<g id="Illustration">
	<g>
		<path class="st3" d="M1822.3,418.2C1110.1,396.6,493.1,928.1,399.9,1625.4c-101.9,762.5,459,1448.5,1149.2,1558.4
			c858.5,136.7,1691.1-654,1616.4-1511.7C3109.2,1025.8,2546.3,440.2,1822.3,418.2z"/>
		<g>
			<g>
				<path class="st4" d="M2127.3,3146.8c-37.9-12.6-66.3-44.8-74.3-84.3l-55.2-273.1l-472.1,16.8l-58.1,284.6
					c-8.1,39.9,24.4,79.8,62,94.5l197.5,77.3c36.7,14.4,76.2,20.1,115.5,16.7l417.4-35.7c12.2-1,22-10.6,23.4-22.9
					c1.4-12.3,10-26.1-1.7-30L2127.3,3146.8z"/>
				
					<linearGradient id="SVGID_1_" gradientUnits="userSpaceOnUse" x1="1879.3832" y1="66.968" x2="1886.1802" y2="644.7344" gradientTransform="matrix(1 0 0 -1 0 3710)">
					<stop  offset="0.494" style="stop-color:#EBEFF2"/>
					<stop  offset="1" style="stop-color:#FFFFFF"/>
				</linearGradient>
				<path class="st5" d="M2131.9,3130.2c-37.9-12.4-66.2-44.2-74.2-83.3l-55.1-269.7l-460.6,16.6l-58,281
					c-8.1,39.4,13.4,78.8,50.9,93.3l197.3,76.3c36.7,14.2,76.1,19.8,115.4,16.5l417-35.3c12.2-1,22-10.5,23.4-22.7
					s-5.9-23.6-17.5-27.4L2131.9,3130.2z"/>
			</g>
			<g>
				<g>
					<path class="st4" d="M561,2970.9c-51.2,3.1-93.1-30.2-93.1-74.1v-1582c0-43.9,41.9-77.8,93.1-75.6l2377.9,164.6
						c37.6,1.6,57.8-28.7,57.8,8.6V2758c0,37.3-30.4,69.5-68,71.8L561,2970.9z"/>
					<path class="st2" d="M582.3,2970.9c-51.2,3.1-93.1-30.2-93.1-74.1v-1582c0-43.9,41.9-77.8,93.1-75.6L2950,1341.9
						c37.6,1.6,68,33.3,68,70.6V2758c0,37.3-30.4,69.5-68,71.8L582.3,2970.9z"/>
					<path class="st6" d="M2950,1373.6l-2367.6-97.4c-27.4-1.1-49.6,17-49.6,40.4V2547v347.5c0,23.4,22.3,41.2,49.6,39.6l2367.6-136
						c20.1-1.2,36.4-18.3,36.4-38.4v-307.6V1411.3C2986.4,1391.3,2970.1,1374.4,2950,1373.6z"/>
				</g>
				<g>
					<path class="st7" d="M2932.4,2684.2L608,2799c-24.4,1.2-44.2-14.9-44.2-36V1337.3c0-21.1,19.8-37.5,44.2-36.6l2324.4,86.3
						c18.2,0.7,33,16,33,34.1v1228.5C2965.4,2667.9,2950.6,2683.3,2932.4,2684.2z"/>
					<polygon class="st8" points="1187.8,1451.3 657,1435.7 657,1385.1 1187.8,1402.2 					"/>
					<polygon class="st9" points="1437.8,1444.6 1315.2,1440.9 1315.2,1406.3 1437.8,1410.3 					"/>
					<polygon class="st9" points="1437.8,1492.3 1315.2,1489 1315.2,1454.4 1437.8,1458 					"/>
					<polygon class="st2" points="2048.9,1509 1573.2,1496 1573.2,1462 2048.9,1476 					"/>
					<polygon class="st10" points="2126.9,1556.9 1655.9,1545.4 1655.9,1511.5 2126.9,1524 					"/>
					<polygon class="st10" points="2126.9,1602.6 1655.9,1592.4 1655.9,1558.5 2126.9,1569.7 					"/>
					<polygon class="st8" points="2126.9,1648.3 1655.9,1639.5 1655.9,1605.6 2126.9,1615.4 					"/>
					<polygon class="st9" points="1437.8,1540 1315.2,1537 1315.2,1502.4 1437.8,1505.7 					"/>
					<polygon class="st9" points="1437.8,1587.7 1315.2,1585.1 1315.2,1550.5 1437.8,1553.4 					"/>
					<polygon class="st9" points="1437.8,1635.4 1315.2,1633.1 1315.2,1598.5 1437.8,1601.1 					"/>
					<polygon class="st9" points="1437.8,1683.1 1315.2,1681.1 1315.2,1646.6 1437.8,1648.8 					"/>
					<polygon class="st8" points="1766.4,1688.3 1464.6,1683.5 1464.6,1649.2 1766.4,1654.6 					"/>
					<polygon class="st9" points="1437.8,1730.8 1315.2,1729.2 1315.2,1694.6 1437.8,1696.4 					"/>
					<polygon class="st9" points="1437.8,1778.5 1315.2,1777.2 1315.2,1742.6 1437.8,1744.1 					"/>
					<polygon class="st9" points="1437.8,1826.1 1315.2,1825.3 1315.2,1790.7 1437.8,1791.8 					"/>
					<polygon class="st10" points="1907.8,1736.8 1573.2,1732.5 1573.2,1698.5 1907.8,1703.5 					"/>
					<polygon class="st8" points="2081.7,1784.9 1655.9,1780.6 1655.9,1746.8 2081.7,1751.9 					"/>
					<polygon class="st2" points="2081.7,1830.7 1655.9,1827.7 1655.9,1793.8 2081.7,1797.8 					"/>
					<polygon class="st9" points="1437.8,1873.8 1315.2,1873.3 1315.2,1838.7 1437.8,1839.5 					"/>
					<polygon class="st9" points="1437.8,1921.5 1315.2,1921.4 1315.2,1886.8 1437.8,1887.2 					"/>
					<polygon class="st9" points="1437.8,1969.2 1315.2,1969.4 1315.2,1934.8 1437.8,1934.9 					"/>
					<polygon class="st9" points="1437.8,2016.9 1315.2,2017.4 1315.2,1982.9 1437.8,1982.6 					"/>
					<polygon class="st9" points="1437.8,2064.6 1315.2,2065.5 1315.2,2030.9 1437.8,2030.3 					"/>
					<polygon class="st9" points="1437.8,2112.3 1315.2,2113.5 1315.2,2078.9 1437.8,2077.9 					"/>
					<polygon class="st9" points="1437.8,2160 1315.2,2161.6 1315.2,2127 1437.8,2125.6 					"/>
					<polygon class="st9" points="1437.8,2207.6 1315.2,2209.6 1315.2,2175 1437.8,2173.3 					"/>
					<polygon class="st9" points="1437.8,2255.3 1315.2,2257.7 1315.2,2223.1 1437.8,2221 					"/>
					<polygon class="st9" points="1437.8,2303 1315.2,2305.7 1315.2,2271.1 1437.8,2268.7 					"/>
					<polygon class="st9" points="1437.8,2350.7 1315.2,2353.7 1315.2,2319.2 1437.8,2316.4 					"/>
					<polygon class="st9" points="1437.8,2398.4 1315.2,2401.8 1315.2,2367.2 1437.8,2364.1 					"/>
					<polygon class="st9" points="1437.8,2446.1 1315.2,2449.8 1315.2,2415.2 1437.8,2411.8 					"/>
					<polygon class="st9" points="1437.8,2493.8 1315.2,2497.9 1315.2,2463.3 1437.8,2459.5 					"/>
					<polygon class="st9" points="1437.8,2541.5 1315.2,2545.9 1315.2,2511.3 1437.8,2507.1 					"/>
					<polygon class="st9" points="1437.8,2589.2 1315.2,2594 1315.2,2559.4 1437.8,2554.8 					"/>
					<polygon class="st9" points="1437.8,2636.8 1315.2,2642 1315.2,2607.4 1437.8,2602.5 					"/>
					<polygon class="st9" points="1437.8,2684.5 1315.2,2690 1315.2,2655.5 1437.8,2650.2 					"/>
					<polygon class="st10" points="1798.2,1455.5 1463.8,1445.4 1463.8,1411.2 1798.2,1422 					"/>
					<polygon class="st8" points="2048.9,2427.5 1573.2,2442 1573.2,2407.9 2048.9,2394.4 					"/>
					<polygon class="st10" points="2126.9,2470.8 1655.9,2486.5 1655.9,2452.6 2126.9,2437.9 					"/>
					<polygon class="st10" points="2126.9,2516.5 1655.9,2533.6 1655.9,2499.7 2126.9,2483.6 					"/>
					<polygon class="st10" points="2329.9,2554.2 1871.1,2572.2 1871.1,2538.8 2329.9,2521.8 					"/>
					<polygon class="st2" points="2329.9,2599.4 1871.1,2618.6 1871.1,2585.2 2329.9,2566.9 					"/>
					<polygon class="st8" points="2329.9,2644.5 1871.1,2665.1 1871.1,2631.7 2329.9,2612 					"/>
					<polygon class="st10" points="1798.2,2388.5 1463.8,2397.7 1463.8,2363.4 1798.2,2354.9 					"/>
					<polygon class="st10" points="2048.9,1922.3 1573.2,1921.7 1573.2,1887.7 2048.9,1889.3 					"/>
					<polygon class="st8" points="2126.9,1968.1 1655.9,1968.9 1655.9,1935 2126.9,1935.3 					"/>
					<polygon class="st10" points="2126.9,2013.8 1655.9,2015.9 1655.9,1982.1 2126.9,1981 					"/>
					<polygon class="st10" points="2126.9,2059.5 1655.9,2063 1655.9,2029.1 2126.9,2026.6 					"/>
					<polygon class="st10" points="1766.4,2108.9 1464.6,2112 1464.6,2077.7 1766.4,2075.3 					"/>
					<polygon class="st8" points="1907.8,2153.8 1573.2,2158.2 1573.2,2124.1 1907.8,2120.5 					"/>
					<polygon class="st2" points="2081.7,2197.3 1655.9,2204.2 1655.9,2170.3 2081.7,2164.4 					"/>
					<polygon class="st10" points="2081.7,2243.2 1655.9,2251.2 1655.9,2217.3 2081.7,2210.2 					"/>
					<polygon class="st10" points="2176.1,2286.9 1755.4,2296.1 1755.4,2262.4 2176.1,2254.2 					"/>
					<polygon class="st10" points="2176.1,2332.5 1755.4,2342.9 1755.4,2309.2 2176.1,2299.7 					"/>
					<polygon class="st2" points="1798.2,1875.4 1463.8,1873.9 1463.8,1839.7 1798.2,1841.8 					"/>
					<polygon class="st2" points="1187.8,1527.9 884,1520.4 884,1470.4 1187.8,1478.9 					"/>
					<polygon class="st8" points="805.4,1518.4 862.6,1519.9 862.6,1469.8 805.4,1468.3 					"/>
					<polygon class="st8" points="1187.8,1598.5 884,1592.2 884,1542.2 1187.8,1549.4 					"/>
					<polygon class="st8" points="805.4,1590.6 862.6,1591.7 862.6,1541.7 805.4,1540.4 					"/>
					<polygon class="st8" points="1187.8,1669 884,1664 884,1614 1187.8,1619.9 					"/>
					<polygon class="st8" points="805.4,1662.7 862.6,1663.6 862.6,1613.6 805.4,1612.5 					"/>
					<polygon class="st2" points="1187.8,2169.5 657,2176.7 657,2126.1 1187.8,2120.5 					"/>
					<polygon class="st8" points="1187.8,2246.2 884,2251.7 884,2201.7 1187.8,2197.1 					"/>
					<polygon class="st8" points="805.4,2253.1 862.6,2252.1 862.6,2202 805.4,2202.9 					"/>
					<polygon class="st8" points="1187.8,2316.7 884,2323.5 884,2273.5 1187.8,2267.6 					"/>
					<polygon class="st8" points="805.4,2325.2 862.6,2323.9 862.6,2273.9 805.4,2275 					"/>
					<polygon class="st8" points="1187.8,2387.2 884,2395.3 884,2345.3 1187.8,2338.2 					"/>
					<polygon class="st8" points="805.4,2397.3 862.6,2395.8 862.6,2345.8 805.4,2347.2 					"/>
					<polygon class="st2" points="1187.8,1740 657,1733.5 657,1682.9 1187.8,1690.9 					"/>
					<polygon class="st8" points="1187.8,1816.6 884,1814.3 884,1764.4 1187.8,1767.6 					"/>
					<polygon class="st8" points="805.4,1813.7 862.6,1814.1 862.6,1764.1 805.4,1763.5 					"/>
					<polygon class="st8" points="1187.8,1887.1 884,1886.1 884,1836.2 1187.8,1838.1 					"/>
					<polygon class="st8" points="805.4,1885.8 862.6,1886 862.6,1836 805.4,1835.7 					"/>
					<polygon class="st8" points="1187.8,2029.1 884,2030.6 884,1980.7 1187.8,1980 					"/>
					<polygon class="st8" points="805.4,2031 862.6,2030.7 862.6,1980.7 805.4,1980.9 					"/>
					<polygon class="st8" points="1187.8,2099.6 884,2102.4 884,2052.5 1187.8,2050.6 					"/>
					<polygon class="st8" points="805.4,2103.2 862.6,2102.6 862.6,2052.6 805.4,2053 					"/>
					<polygon class="st8" points="1187.8,1957.7 884,1957.9 884,1908 1187.8,1908.6 					"/>
					<polygon class="st8" points="805.4,1958 862.6,1957.9 862.6,1907.9 805.4,1907.8 					"/>
					<polygon class="st2" points="1187.8,2457.7 657,2474 657,2423.4 1187.8,2408.7 					"/>
					<polygon class="st8" points="1187.8,2534.4 884,2545.1 884,2495.1 1187.8,2485.3 					"/>
					<polygon class="st8" points="805.4,2547.9 862.6,2545.8 862.6,2495.8 805.4,2497.7 					"/>
					<polygon class="st8" points="1187.8,2604.9 884,2616.9 884,2566.9 1187.8,2555.8 					"/>
					<polygon class="st8" points="805.4,2620 862.6,2617.7 862.6,2567.7 805.4,2569.8 					"/>
					<polygon class="st8" points="1187.8,2675.4 884,2688.7 884,2638.7 1187.8,2626.3 					"/>
					<polygon class="st8" points="805.4,2692.1 862.6,2689.6 862.6,2639.6 805.4,2641.9 					"/>
					<polygon class="st8" points="1252.3,2672.8 1240.7,2673.3 1240.7,1403.9 1252.3,1404.3 					"/>
				</g>
				<path class="st8" d="M2702.8,2731.8c-515.4,10.8-631.3,84.4-777.8-3.8c-201.2-121.2-109.6-336.7-305.7-449.8
					c-246.5-142.1-530.7,118.2-659.3-8.7c-128.1-126.4,113.9-423.8-26.2-755.4c-56.2-133.1-152-219.5-218.1-269l-133.4-5.8
					c-51.2-2.2-93.1,31.7-93.1,75.6v1582c0,43.9,41.9,77.1,93.1,74.1L2950,2829.8c37.6-2.2,68-34.4,68-71.8v-23.9
					C2947,2731.6,2837.1,2729,2702.8,2731.8z"/>
			</g>
		</g>
		<g class="st0">
			<g class="st1">
				
					<linearGradient id="SVGID_2_" gradientUnits="userSpaceOnUse" x1="3514.3098" y1="2874.9246" x2="3886.0278" y2="1965.7635" gradientTransform="matrix(-0.9881 -0.1536 0.1536 -0.9881 6282.293 4127.1484)">
					<stop  offset="0" style="stop-color:#AA80F9"/>
					<stop  offset="0.9964" style="stop-color:#6165D7"/>
				</linearGradient>
				<path class="st11" d="M2638.3,1654.6c126.7,114.9,288.1,145.3,369.3,72.2h0.1l0.3-0.4c3.3-3,6.6-6.1,9.6-9.5
					c3.8-4.2,7.4-8.7,10.6-13.2l98.3-110.6l20.4-23l-147.1-129.4c-21.4-33.3-48.6-65.6-81.1-95.2c-36.6-33.2-76.1-59.3-115.7-77.9
					l-147.2-129.5l-115.1,143.6c-0.4,0.5-0.9,0.9-1.3,1.4c-4.3,4.7-8.3,9.8-11.8,15c-5.7,8.3-10.3,17.2-14.2,26.5
					C2476.5,1415.4,2525.2,1552,2638.3,1654.6z"/>
				
					<linearGradient id="SVGID_3_" gradientUnits="userSpaceOnUse" x1="3822.2566" y1="1805.4808" x2="3836.52" y2="2201.7947" gradientTransform="matrix(-0.9881 -0.1536 0.1536 -0.9881 6282.293 4127.1484)">
					<stop  offset="0" style="stop-color:#AA80F9"/>
					<stop  offset="0.9964" style="stop-color:#6165D7"/>
				</linearGradient>
				<path class="st12" d="M2637.4,1655.5c34.2,32.5,73,60,115.2,78.7c43.2,19.1,104.2,36.5,152,32.5c79.5-6.7,117-57,165.6-111.1
					c18.7-20.8,38.8-40.5,56.4-62.4c-46.1-5.9-106,9.2-149.3,24.4c-37.4,13.2-73,34.6-112.6,40.5c-87.4,13-180.8-41.2-224.5-115.6
					c-26.7-45.4-16.1-104.4-50.4-146.5c-22.2-27.2-56.5-42.1-76.4-71.3c3.6,5.2-8.8,42.4-9.7,50.3c-2,18.2-1.9,36.5,0.6,54.6
					c5.9,42.3,24,82.3,46.3,118.4C2574.2,1586.3,2603.5,1623.4,2637.4,1655.5z"/>
			</g>
			
				<linearGradient id="SVGID_4_" gradientUnits="userSpaceOnUse" x1="1767.036" y1="3403.1694" x2="1702.1932" y2="2919.4243" gradientTransform="matrix(-0.7783 -0.6279 0.6279 -0.7783 2323.5776 4796.5581)">
				<stop  offset="0" style="stop-color:#AA80F9"/>
				<stop  offset="0.9964" style="stop-color:#6165D7"/>
			</linearGradient>
			<polygon class="st13" points="2542,1038.6 3052.8,1152.8 3272.5,1627.9 3286.6,1639.3 3281.7,1645.4 3281.7,1645.4 
				2750.6,1526.7 2522.3,1032.7 2522.3,1032.7 2527.2,1026.6 			"/>
			
				<linearGradient id="SVGID_5_" gradientUnits="userSpaceOnUse" x1="1757.8184" y1="3540.1294" x2="1673.152" y2="2464.2432" gradientTransform="matrix(-0.7783 -0.6279 0.6279 -0.7783 2323.5776 4796.5581)">
				<stop  offset="0" style="stop-color:#AA80F9"/>
				<stop  offset="0.9964" style="stop-color:#6165D7"/>
			</linearGradient>
			<polygon class="st14" points="3059.5,1144.5 3288.1,1638.6 2756.8,1519.7 2528.3,1025.6 			"/>
			<g class="st1">
				
					<linearGradient id="SVGID_6_" gradientUnits="userSpaceOnUse" x1="3578.4758" y1="1717.1764" x2="3640.625" y2="2298.1365" gradientTransform="matrix(-0.9881 -0.1536 0.1536 -0.9881 6282.293 4127.1484)">
					<stop  offset="0" style="stop-color:#FFC444"/>
					<stop  offset="0.9964" style="stop-color:#F36F56"/>
				</linearGradient>
				<path class="st15" d="M3081.2,1884.1c4,0.6,7.9-2,8.7-6l57.7-262.7c0.5-2.1,0-4.3-1.2-6.1l-219.3-314.4
					c-2.4-3.5-7.3-4.4-10.8-1.9c-3.5,2.4-4.4,7.3-1.9,10.8l217.3,311.6l-56.9,259.4c-0.9,4.2,1.7,8.3,5.9,9.2
					C3080.9,1884,3081,1884.1,3081.2,1884.1z"/>
			</g>
			
				<linearGradient id="SVGID_7_" gradientUnits="userSpaceOnUse" x1="6856.0464" y1="885.4542" x2="6893.2861" y2="1233.5629" gradientTransform="matrix(0.9962 8.760000e-02 8.760000e-02 -0.9962 -3873.2061 2432.4343)">
				<stop  offset="0" style="stop-color:#FFC444"/>
				<stop  offset="0.9964" style="stop-color:#F36F56"/>
			</linearGradient>
			<path class="st16" d="M3098.9,1871.7l-4.6-10.3c-1.8-3.9-5.5-6.5-9.8-6.8s-8.4,1.7-10.7,5.3l-5.5,9.8c-1.5,2.3-1.7,5.1-2,7.9
				l-7.5,85.6c-0.2,1.8,6.9,4,16.7,4.8c9.8,0.9,17.1,0,17.3-1.8l7.6-85.9C3100.6,1877.3,3100.1,1874.4,3098.9,1871.7z"/>
		</g>
		<g>
			<path class="st17" d="M2560.1,2285.5c-24.4-26.1,43.2-124,79.3-166.9c31.6-37.5,64.1-76,104-71.1c35,4.3,69.1,41.2,71.1,76.6
				C2820,2219.3,2594.8,2322.6,2560.1,2285.5z"/>
			
				<linearGradient id="SVGID_8_" gradientUnits="userSpaceOnUse" x1="-280.2075" y1="316.1507" x2="-196.157" y2="316.1507" gradientTransform="matrix(0.9996 2.890000e-02 2.890000e-02 -0.9996 3046.4954 3633.0942)">
				<stop  offset="0" style="stop-color:#311944"/>
				<stop  offset="1" style="stop-color:#893976"/>
			</linearGradient>
			<path class="st18" d="M2853.2,3291.8c4.6,3.7,5.4,13.1,6,19.2c0.2,2.7,0.4,4.1,0.1,5c-2.2,7-15.8,7.8-37.2,9.9
				c-33.7,3.4-43.8,6.1-46.4,1.1c-2.5-4.7,3.5-12.4,4.2-13.3c3.6-4.6,8.1-6.2,16.7-9.1c15.9-5.2,26.7-8.1,29.9-9
				C2846.8,3290.3,2850.2,3289.4,2853.2,3291.8z"/>
			<path class="st19" d="M2833.2,3261l-3.4,38.4c1,1.9,12.4,7.4,21.5,2.6l8.7-37.8L2833.2,3261z"/>
			
				<linearGradient id="SVGID_9_" gradientUnits="userSpaceOnUse" x1="22.8713" y1="-383.7638" x2="112.1184" y2="-383.7638" gradientTransform="matrix(0.9642 0.2651 0.2651 -0.9642 2582.469 2909.8555)">
				<stop  offset="0" style="stop-color:#311944"/>
				<stop  offset="1" style="stop-color:#893976"/>
			</linearGradient>
			<path class="st20" d="M2585.7,3286.9c5.5,6.1,6.8,17.3,2,22.8c-4.7,5.4-11.8,1.4-31.9,2c-21.5,0.6-27.1,5.7-41.7,1.7
				c-5.9-1.6-16.3-5.6-16.1-9.8c0.1-3,5.4-4.5,23.2-10.4c25.2-8.4,25.1-8.9,30.4-9.8C2565,3281.1,2578.4,3278.9,2585.7,3286.9z"/>
			<path class="st19" d="M2571.9,3251.8l-10.8,35.9c0.8,1.9,11.8,8.3,21.2,4.3l16-34.8L2571.9,3251.8z"/>
			<path class="st7" d="M2667.8,2465.9c-1.5,120.6-9.8,256.2-29.5,403.5c-19.5,145.6-46.9,277.1-76.7,392.8
				c13.8,3.7,27.5,7.4,41.3,11.1c34.9-32.6,79-83.8,100.2-156.2c13.2-45,8.8-68.1,17.2-123.3c13.3-88,40.3-134.2,68.2-205.1
				c25.1-63.8,54.7-157.4,70.6-282.6C2795.3,2492.7,2731.5,2479.3,2667.8,2465.9z"/>
			<path class="st7" d="M2792,2454.4c8.4,153.4,15.4,309.6,20.6,468.6c3.9,119.3,6.8,237.1,8.8,353.3c14.1,1.7,28.1,3.5,42.2,5.2
				c13.6-25.3,31.6-64,44-113.5c15-60.2,11.5-95.9,18.1-158.3c7.4-70,18.1-85.2,37.1-173.5c38.6-179.1,57.9-268.7,14.8-324.4
				C2963.6,2493.8,2919.8,2448.4,2792,2454.4z"/>
			<path class="st17" d="M2996.9,2069c-32.9-9.3-81.2-20.1-140.3-23.4c-84.3-4.8-126.4-7.1-156.3,12.9
				c-69,46.4-15.6,153.3-43.8,418.6c-4,37.9-4.9,76-7.9,114c-4.8,62.9-5.9,66.3-1.6,72.7c27.4,40,129.8-20.3,279.8,3.5
				c83.9,13.3,122,44,145,21.9c26.8-25.8,3.8-95.3-16-155.1c-22.7-68.7-36.8-69.5-49.7-121.2c-13.5-54-5.3-81.9-3.2-167.1
				C3004.1,2204.9,3003.9,2144.2,2996.9,2069z"/>
			<g class="st21">
				<path class="st22" d="M2792.9,2566.9c39.2-3.1,64.7,19.1,98.5,1.8c46.4-23.7,61.3-97.4,58.4-149.6
					c-4.5-79.3-49.8-100.2-42-151.4c4.2-27.7,24-64.5,95-102.1c0.9,31.6,0.8,58.6,0.2,80c-2.1,85.2-10.3,113,3.2,167.1
					c12.9,51.7,26.9,52.6,49.7,121.2c19.8,59.8,42.8,129.3,16,155.1c-23,22.1-61.1-8.6-145-21.9c-129.3-20.5-223.1,21.3-264.2,7.8
					C2712.4,2593,2757.4,2569.7,2792.9,2566.9z"/>
			</g>
			<path class="st17" d="M2943.4,2074.4c28-23,84.3,3,99.4,10c83.9,38.8,159.3,143.5,140.6,254c-2.8,16.6-15.8,94.2-81.5,131.7
				c-59.3,33.9-139.3,25.2-203.4-22.8c-8.8-7.8-17.5-15.5-26.3-23.3c-8.6-9.3-17.2-18.6-25.9-28c13.6-11.3,36.6-27.5,68.9-38
				c42.6-13.8,73.7,10.9,93.5-7.8c13.7-13,13.7-35.8,10.3-49.7c-6.8-27.9-31.4-35.8-52-55.6
				C2918.8,2198.3,2909.9,2102,2943.4,2074.4z"/>
			<g>
				<polygon class="st23" points="2540.9,2435.4 2916.3,2429.8 2816.5,2478 2540,2459.9 				"/>
				<path class="st24" d="M2929.6,2439.8L2929.6,2439.8c0,7-4.4,13.3-11,15.7l-119.9,47l-0.5-32.6l118.2-40.1
					C2923,2427.9,2929.6,2432.9,2929.6,2439.8z"/>
			</g>
			<path class="st19" d="M2871.8,2417.6c2.3-0.5-11.2-27.5-21.8-24.4s-62.6,33.2-67.3,45.6c-4.7,12.4-4.7,12.4-4.7,12.4
				s22.7,1.8,36.7-2.9C2828.7,2443.5,2853,2421.7,2871.8,2417.6z"/>
			<g>
				<g>
					
						<linearGradient id="SVGID_10_" gradientUnits="userSpaceOnUse" x1="5873.2881" y1="1295.7455" x2="5784.7549" y2="1421.4628" gradientTransform="matrix(-1 0 0 -1 8414.6055 3710)">
						<stop  offset="3.597120e-03" style="stop-color:#E38DDD"/>
						<stop  offset="1" style="stop-color:#9571F6"/>
					</linearGradient>
					<path class="st25" d="M2788.1,2241.2l26.5,240.9c0.9,8.3-10.7,20.7-19.1,20.3l-388.2-23.8c-6.4-0.3-11.7-5-12.8-11.3
						l-48.7-232.7c-1.5-8.5,13.8-17.2,22.4-17L2775,2229C2781.8,2229.2,2787.4,2234.4,2788.1,2241.2z"/>
					<path class="st23" d="M2779.3,2248.2l26.5,240.9c0.9,8.3-5.8,15.5-14.2,15.1l-393.1-18.6c-6.4-0.3-11.7-5-12.8-11.3
						l-40.2-233.8c-1.5-8.5,5.2-16.2,13.8-15.9l406.8,11.4C2772.9,2236.3,2778.5,2241.4,2779.3,2248.2z"/>
				</g>
				<path class="st26" d="M2548.4,2429.1c34.3-14.5,22.2-42.3,62.7-76.9c53.5-45.6,108-25.8,127-61.2c5.9-11,8.8-28.1-1.6-55.9
					l29.5,0.8c6.8,0.2,12.4,5.4,13.1,12.1l26.5,240.9c0.9,8.3-5.8,15.5-14.2,15.1l-393.1-18.6c-6.4-0.3-11.7-5-12.8-11.3l-5.5-32.3
					c11.9-6.6,26.2-12.7,42.8-16C2480.6,2414.3,2508.9,2445.9,2548.4,2429.1z"/>
			</g>
			<path class="st19" d="M2373.7,2451.9c-0.6-1.9,0.7-3.9,2.8-4c8.3-0.4,27.6-0.6,38.2,5.9c13.8,8.5,31.7,23.9,16.6,31.7l-14,7.3
				c-0.6,0.3-1.3,0.4-2.1,0.3c-5-1.1-26-5.8-28.3-6.9C2384.8,2485.1,2376.8,2461.3,2373.7,2451.9z"/>
			<g>
				<path class="st19" d="M2850.3,1953.5c-0.2,25,2.6,44.8,5.2,58.4c3,15.5,5.2,19.6,8,22.8c4.2,4.9,10.5,9,46.3,17.9
					c19.5,4.8,22,4.7,22.4,6.6c2.1,9.4-51,41.6-105.9,33.8c-33.6-4.7-64.2-23.9-62.3-34s35.4-4.7,45.4-23c7-12.7-0.8-30.8-10.1-45.8
					C2808.4,1973.5,2841.4,1970.2,2850.3,1953.5z"/>
				<g>
					
						<linearGradient id="SVGID_11_" gradientUnits="userSpaceOnUse" x1="-394.4046" y1="1785.2505" x2="-457.9595" y2="1946.6683" gradientTransform="matrix(1 3.700000e-03 3.700000e-03 -1 3269.2517 3867.1846)">
						<stop  offset="0" style="stop-color:#311944"/>
						<stop  offset="1" style="stop-color:#6B3976"/>
					</linearGradient>
					<path class="st27" d="M2788,1963.3c-7.9-10.5-8.4-28.9,0.7-40.5c7.9-10,20.2-11.4,27.6-12.3c21.5-2.5,48.5,6.5,58,26.2
						c5.6,11.7-6.5,36-8.4,40.4c-2.1,4.9-6,6.6-9.6,10.4c-5,5.2-12.8,13.4-25.5,27.2c-1-4.1-2.5-9.1-4.9-14.6
						c-0.9-2.1-4.6-10.3-10.2-17.1C2804.6,1969.4,2795.5,1973.3,2788,1963.3z"/>
					<path class="st19" d="M2849,2003.2c0,0-14.1,23.1-42.2,21.3c-25.2-1.6-28.8-58-12.8-70c5.4-4,16.1-5.7,24.8-3.2
						c5.2,1.4,6.9,3.6,15.4,5.8c7.8,2,10,1.2,12.4,3.1c2.9,2.5,5.1,8.6,0.2,25.1c4.8-4.9,10.6-6.7,14.6-4.8c0.7,0.3,2.4,1.5,3.3,3.3
						C2868.3,1990.2,2862.4,1998.4,2849,2003.2z"/>
					
						<linearGradient id="SVGID_12_" gradientUnits="userSpaceOnUse" x1="-413.7412" y1="1777.5524" x2="-477.3604" y2="1939.1338" gradientTransform="matrix(1 3.700000e-03 3.700000e-03 -1 3269.2517 3867.1846)">
						<stop  offset="0" style="stop-color:#311944"/>
						<stop  offset="1" style="stop-color:#6B3976"/>
					</linearGradient>
					<path class="st28" d="M2847.7,1956.8c-1.2,0.9,2.5,5.4,2.8,11.8c0.5,12.4-12,27.4-24.9,28.6c-7.6,0.7-9.7-3.8-22.2-5.2
						c-7.8-0.8-14.2,0.2-18.3,1.1c-3.9,13.6-0.2,27.2,8.9,33.5c9.8,6.8,22.3,2.7,27.6,0.9c3.5-1.2,14.7-4.8,20.6-15.1
						c6.1-10.7,0.1-17.2,7.1-24.5c3.5-3.7,8.2-5.2,12.7-12.3c1.2-1.9,2-3.6,2.6-4.8C2858.1,1964.1,2849.5,1955.5,2847.7,1956.8z"/>
					<path class="st2" d="M2794.2,1998.2c0,0,5.4,2.8,14.8,2.3c0.5,0,1,0.1,1,0.3c0.2,0.9-5.8,4.9-11.4,3.3c-3.9-1.1-7-4.8-6.5-5.8
						C2792.4,1998,2793.3,1998.1,2794.2,1998.2z"/>
				</g>
			</g>
		</g>
		<g>
			<path class="st23" d="M830.3,2097.3c-6.7,2.5-108.4,43-129.3,149.1c-1.7,8.6-18,99.8,43.8,164.2c69.4,72.3,202.9,70.5,255.9,10.1
				c12.4-14.1,18.9-29.7,22.5-42.8l0,0l-14-37.1c-17-20.6-40.3-25.5-52.6-28.5c-30.6-7.5-53.6,6.1-71.1-8.7
				c-9.7-8.2-11.6-19.9-13.3-30.4c-5.9-35.7,14.3-57.7,15.8-79.7c1.1-16.5,6.9-52.5-14.6-76C859.7,2102.6,840.9,2098.6,830.3,2097.3
				z"/>
			
				<linearGradient id="SVGID_13_" gradientUnits="userSpaceOnUse" x1="4639.4658" y1="202.6502" x2="4681.1563" y2="165.5664" gradientTransform="matrix(-0.9902 -0.14 0.14 -0.9902 5367.9561 4111.7388)">
				<stop  offset="0" style="stop-color:#444B8C"/>
				<stop  offset="0.9964" style="stop-color:#26264F"/>
			</linearGradient>
			<path class="st29" d="M790.6,3280.4c-1.2-6.5-22.3-12.5-32.7-3.7c-5.2,4.3-8.8,13.2-5.8,17.1c1.1,1.4-3.4,4,0.9,4
				C767.2,3298.1,791.8,3286.9,790.6,3280.4z"/>
			
				<linearGradient id="SVGID_14_" gradientUnits="userSpaceOnUse" x1="3754.3271" y1="165.4886" x2="3754.3271" y2="238.117" gradientTransform="matrix(-0.9902 -0.14 0.14 -0.9902 4451.7549 3982.2227)">
				<stop  offset="0" style="stop-color:#FFC444"/>
				<stop  offset="0.9964" style="stop-color:#F36F56"/>
			</linearGradient>
			<path class="st30" d="M768.5,3282.8l-21.7-3.1c10.1-12.1,8.2-50.7,8.2-50.7l23.1,5.2c0,0-2.6,10.6-7.1,26.2
				C769.4,3265.8,768.8,3274.1,768.5,3282.8z"/>
			
				<linearGradient id="SVGID_15_" gradientUnits="userSpaceOnUse" x1="4643.6509" y1="207.3544" x2="4685.3413" y2="170.2707" gradientTransform="matrix(-0.9902 -0.14 0.14 -0.9902 5367.9561 4111.7388)">
				<stop  offset="0" style="stop-color:#444B8C"/>
				<stop  offset="0.9964" style="stop-color:#26264F"/>
			</linearGradient>
			<path class="st31" d="M770.4,3280.1c0,0-26.1-6-29-0.8c-2.8,5.2-5,19.1,11.6,18.6C769.6,3297.5,771.9,3284.5,770.4,3280.1z"/>
			
				<linearGradient id="SVGID_16_" gradientUnits="userSpaceOnUse" x1="4498.0078" y1="425.3777" x2="4539.6997" y2="388.2922" gradientTransform="matrix(-1 0 0 -1 5595.4336 3710)">
				<stop  offset="0" style="stop-color:#444B8C"/>
				<stop  offset="0.9964" style="stop-color:#26264F"/>
			</linearGradient>
			<path class="st32" d="M1088.5,3304.9c-2.1-6.3-23.8-9.2-32.9,0.9c-4.5,5-6.8,14.3-3.3,17.8c1.3,1.3-2.8,4.4,1.5,3.9
				C1067.8,3325.7,1090.5,3311.2,1088.5,3304.9z"/>
			
				<linearGradient id="SVGID_17_" gradientUnits="userSpaceOnUse" x1="3612.823" y1="388.2124" x2="3612.823" y2="460.844" gradientTransform="matrix(-1 0 0 -1 4670.123 3710)">
				<stop  offset="0" style="stop-color:#FFC444"/>
				<stop  offset="0.9964" style="stop-color:#F36F56"/>
			</linearGradient>
			<path class="st33" d="M1066.9,3310.4H1045c8.3-13.4,1-51.3,1-51.3l23.6,1.9c0,0-1.1,10.8-3.4,26.9
				C1065.4,3293.4,1065.9,3301.8,1066.9,3310.4z"/>
			<path class="st22" d="M1123.7,2481.4c10.2,33.5,24.7,87.7,34,155.6c26.6,193.7-30,199.9-19.4,414.5c3.4,68.5-59.4,226.5-64.9,230
				c-2.7,0.3-5.6,0.4-8.7,0.3c-5.5-0.2-13.1-1-22.1-3.7c-9.9-1.7-45.8-98.8-37.5-156.4c5.9-40.8,4.2-84.7,0.8-172.3
				c-0.6-14.2-36.9-276.3-36.9-276.3l0,0c-11.1,97-23.8,179.5-34.8,243.4C898.9,3121.8,783.8,3246,777.7,3248
				c-1.2,0.5-12,4.4-20.8-1.4c-3.9-2.6-5.3-5.9-5.3-5.9c-3.1-2.4,0.9-205,36-357.5c51-221.3,28.8-273.1,44.9-371.9
				C846.6,2425.7,1123.7,2481.4,1123.7,2481.4z"/>
			<path class="st23" d="M1137.4,2514.8c-30.6,15.7-109.4,43.9-203.4,29.9c-41.7-6.2-75.2-19.8-99.2-32.3c-0.7-0.4-1.5-0.7-2.2-1.1
				c24.4-73.8,5.3-113.3-3.7-149.7c-12.9-51.9-13.1-48-23.7-89.2c-17.5-68-20.3-137.5-8.3-151.7c32.4-38.3,90.7-39.7,121-40.7
				c33.8-1,111.6-12.9,154.5,25.6c0.7,0.7-8,5.4-3.7,10.4c4,4.7,17.8,21.2,30.2,43.4c9,16.1,17.2,34.9,25.4,62.9
				c14.5,49.4,18.7,91.4,20.1,109.7c0.4,6.1,0.8,11.9,1.2,17.6C1151.2,2440.5,1144,2484.4,1137.4,2514.8z"/>
			
				<linearGradient id="SVGID_18_" gradientUnits="userSpaceOnUse" x1="4502.2017" y1="430.0904" x2="4543.8931" y2="393.0057" gradientTransform="matrix(-1 0 0 -1 5595.4336 3710)">
				<stop  offset="0" style="stop-color:#444B8C"/>
				<stop  offset="0.9964" style="stop-color:#26264F"/>
			</linearGradient>
			<path class="st34" d="M1068.4,3307.5c0,0-26.7-2.3-28.8,3.2c-2.1,5.5-2.3,19.6,14.1,16.8
				C1070,3324.8,1070.5,3311.6,1068.4,3307.5z"/>
			<g>
				<path class="st19" d="M1015.2,2036.7c9.2-18.4,3.1-38.3,1.8-42.6c-5.7-18-7.5-20.6-11.2-24.2l-5.1-4.7c0,0-0.3-0.2-0.6-0.4
					c-3.5-2.1-16.2-4.9-18.9-4.9c-8.6,0.2-23.9,32.2-30.6,80.3c-0.7,1.8-1.4,3.5-2.1,5.3c-4.2,11.1-7.7,22-10.7,32.6
					c-57.7,9-65.3,16.3-65.2,20.3c0,8.3,33.8,15.6,58.9,17.5c54.8,4.1,109.5-14,108.6-24.1c-0.4-4.4-11.6-9.4-58-12.2
					c0.5-7.7,1.1-15.4,1.6-23C987.3,2055.4,1008.4,2050.3,1015.2,2036.7z"/>
				<path class="st35" d="M1020.5,1955c-2.9,14.8-12.9,29.2-16.9,31c-0.5,0.2-3.5,1.8-6.5,4.8c-0.4,0.4-0.8,0.9-1.2,1.6
					c-5,8.7,7.6,22.5,4,26.1c-2.7,2.6-11.9-3.4-13.6-1c-1.6,2.2,5.8,8.9,3.9,11.6c-1.4,2-6.1-1-10,1.8c-1.9,1.4-1.7,2.8-4.4,7.7
					c-1.5,2.7-3.5,5.7-4.9,7.3c-6.8,7.7-21.8,8.1-24,4.1c-0.6-1.1,0.2-1.8,0.1-5.2c0,0-0.2-3.1-1.6-7c-2-5.5-8.6-10.5-14.8-17.1
					c-11.6-12.3-13.7-21.3-14.2-24.3c-0.2-1.1-0.3-1.9-0.4-2.4c-1.4-11.6,1.7-27.5,8.5-36.4c11.4-14.9,28.4-3.5,46.6-16.9
					c21.1-15.5,15.7-43.2,25.7-44.2C1007.7,1895.1,1025.8,1927.7,1020.5,1955z"/>
				
					<linearGradient id="SVGID_19_" gradientUnits="userSpaceOnUse" x1="4537.1069" y1="1990.5298" x2="4762.8774" y2="1706.4818" gradientTransform="matrix(-0.9976 6.970000e-02 -6.970000e-02 -0.9976 5707.8638 3617.1511)">
					<stop  offset="0" style="stop-color:#FFC444"/>
					<stop  offset="0.9964" style="stop-color:#F36F56"/>
				</linearGradient>
				<path class="st36" d="M995.2,2014c-2.7-5.7-9.9-2.2-11.2,4.2c-1.3,6.4,3.7,14.3,10,14.2C1000.3,2032.3,998.8,2021.6,995.2,2014z
					"/>
			</g>
			<g>
				
					<linearGradient id="SVGID_20_" gradientUnits="userSpaceOnUse" x1="804.969" y1="1338.585" x2="846.5065" y2="1338.585" gradientTransform="matrix(1 0 0 -1 0 3710)">
					<stop  offset="3.597000e-03" style="stop-color:#6165D7"/>
					<stop  offset="1" style="stop-color:#AA80F9"/>
				</linearGradient>
				<path class="st37" d="M843.4,2465.6c-0.1,0-0.1,0-0.2,0c-1.1-0.1-1.9-1.1-1.7-2.2c4-35.8-3.5-61.9-10-84.8
					c-1.6-5.6-3.2-11.1-4.5-16.5c-7.3-29.4-10.5-40.8-13.9-52.8c-2.2-7.9-4.5-16-8-29.6c-0.3-1.1,0.4-2.1,1.4-2.4
					c1.1-0.3,2.1,0.4,2.4,1.4c3.5,13.6,5.8,21.6,8,29.5c3.4,12.1,6.6,23.4,13.9,52.9c1.3,5.4,2.9,10.8,4.5,16.4
					c6.7,23.3,14.2,49.8,10.1,86.4C845.2,2464.8,844.4,2465.6,843.4,2465.6z"/>
			</g>
			<path class="st38" d="M1137.4,2514.8c-30.6,15.7-109.4,43.9-203.4,29.9c-41.7-6.2-75.2-19.8-99.2-32.3
				c10.9-8.5,24.3-22.7,46.5-46.8c26.9-29.2,58.4-18.3,77-7.3c13.4,7.9,29.9,8.1,43.5,0.6s22.2-21.7,22.6-37.1
				c0.2-7.1-0.1-15.2-1-24.4c-6.3-66.5,85.7-72.1,85.7-72.1c13-6.8,25.3,4.1,36.6,24.4C1151.2,2440.5,1144,2484.4,1137.4,2514.8z"/>
			<path class="st19" d="M1459.2,2218.8c-3.7,0.4-8.2,4.1-11.3,5.9c-4.5,2.5-9,5-13.6,7.4c-8.8,4.6-18.2,8-28.2,7.8
				c0.3-1.4,0.8-2.9,1.3-4.3c1.7-4,4-7.4,2.6-8.6c-1.9-1.7-10.4,1.9-18.2,9.3c-3.2,3-6.2,6.6-8.6,10.8c-4,6.8-3.3,10.5-6.6,15.7
				c-5,4.4-8.7,5.4-8.7,5.4v1.4l0.6,1.7c-4.4,3.4-9.4,5.4-13.4,6.7c6.9,1.9,13.6,3.7,20.5,5.6l4.8,8c0,0,26-5.4,41.7-15
				c7.3-4.5,9.9-10,10.5-14.6c0.4-3.1,0-5.7-0.4-7.3c-0.3-1.2-0.6-1.9-0.6-1.9s21.4-8.9,29.9-28.2
				C1462.7,2221.8,1462.8,2218.4,1459.2,2218.8z"/>
			<path class="st23" d="M1368.4,2260.2c12.2,8.6,18.8,20.2,22.2,27.6c-9,21.1-29.4,60.3-71.6,89.2c-69.2,47.4-170.8,49-241.5-5.1
				c-84.5-64.6-98.6-188.3-63.1-241.3c4.1-6.1,17.5-26.2,38.4-28.5c13.2-1.5,31.1,4,59.4,37.1c59,69.1,38.2,112.2,73,132.4
				C1237.5,2302.1,1315.1,2222.9,1368.4,2260.2z"/>
		</g>
		<g class="st0">
			
				<linearGradient id="SVGID_21_" gradientUnits="userSpaceOnUse" x1="-2835.8608" y1="2596.6199" x2="-2663.5283" y2="2596.6199" gradientTransform="matrix(1 0 0 -1 4938.5596 3710)">
				<stop  offset="0" style="stop-color:#FFC444"/>
				<stop  offset="0.9964" style="stop-color:#F36F56"/>
			</linearGradient>
			<path class="st39" d="M2246.2,934.6c-21.7-6.3-50.7,33.5-74.8,66.6c-36.1,49.5-78.2,107.4-66.8,176.9
				c11.2,68.4,69.8,121.6,86.5,114c14.3-6.5-13.2-52.5,7.9-114c17-49.6,45.1-49.6,64-98.3C2286.4,1019.4,2272.9,942.4,2246.2,934.6z
				"/>
			
				<linearGradient id="SVGID_22_" gradientUnits="userSpaceOnUse" x1="-2130.8665" y1="2273.1499" x2="-1796.9047" y2="2273.1499" gradientTransform="matrix(1 0 0 -1 3936.9702 3710)">
				<stop  offset="0" style="stop-color:#AA80F9"/>
				<stop  offset="0.9964" style="stop-color:#6165D7"/>
			</linearGradient>
			<path class="st40" d="M2235.5,1249.5c-111.7,27.1-185.3,70.7-228.3,101.5c-23.3,16.7-34,27.1-39.9,42.3
				c-33.1,86.5,136.9,217.2,155,230.9c7.9-18.5,15.8-36.9,23.7-55.4c-17.6-96.4-46.8-126.7-71.3-135.7c-6.8-2.5-18.3-5.2-18.1-8.5
				c0.5-7.7,65.1,3.3,126.8-19.3c61.5-22.5,123.4-79.5,112.3-117.2C2293.9,1281.3,2285.4,1261.4,2235.5,1249.5z"/>
			
				<linearGradient id="SVGID_23_" gradientUnits="userSpaceOnUse" x1="7433.3623" y1="3272.7476" x2="7447.8018" y2="3012.8374" gradientTransform="matrix(-0.9565 0.2918 -0.2918 -0.9565 10158.1006 2767.8279)">
				<stop  offset="3.597120e-03" style="stop-color:#E38DDD"/>
				<stop  offset="1" style="stop-color:#9571F6"/>
			</linearGradient>
			<path class="st41" d="M2127.2,1881.5c0,0,10.4,3.7,10.4,11.9c0,8.2-10.5,44.4-22,57.3s-12.5-6.3-11.8-18.7
				c0.7-12.4,3.7-40.1,6.6-45.4C2113.2,1881.3,2127.2,1881.5,2127.2,1881.5z"/>
			
				<linearGradient id="SVGID_24_" gradientUnits="userSpaceOnUse" x1="-1973.8383" y1="2260.7998" x2="-1639.7813" y2="2260.7998" gradientTransform="matrix(1 0 0 -1 3936.9702 3710)">
				<stop  offset="0" style="stop-color:#AA80F9"/>
				<stop  offset="0.9964" style="stop-color:#6165D7"/>
			</linearGradient>
			<path class="st42" d="M2093.8,1375.9c-20.3-0.4-67.9-4.2-80.5,19.3c-10.6,19.6,7.9,49.3,19.3,67.6c30.9,49.7,61,54.8,82.1,85.3
				c8.2,11.8,15.6,28.3,18,51.9c4.5-10.5,9-20.9,13.5-31.4c-17.6-96.4-46.8-126.7-71.3-135.7c-6.8-2.5-18.3-5.2-18.1-8.5
				c0.5-7.7,65.1,3.3,126.8-19.3c56.1-20.5,112.2-69.6,113.4-106.7C2208.2,1362.3,2141.3,1376.9,2093.8,1375.9z"/>
			
				<linearGradient id="SVGID_25_" gradientUnits="userSpaceOnUse" x1="2111.4768" y1="1824.2308" x2="2133.1992" y2="1824.2308" gradientTransform="matrix(1 0 0 -1 0 3710)">
				<stop  offset="0" style="stop-color:#311944"/>
				<stop  offset="1" style="stop-color:#A03976"/>
			</linearGradient>
			<path class="st43" d="M2133.2,1846.6c-0.6,12.7-1.7,23.3-2.7,31.1c-2.1,17.4-4.1,24.3-6.8,30.6c-2.4,5.5-8.2,17.4-11.1,16.6
				c-2.9-0.8,0.1-14.1,2.3-50.8c0.3-5.3,1.3-22.3,1.3-22.3l0,0L2133.2,1846.6z"/>
			
				<linearGradient id="SVGID_26_" gradientUnits="userSpaceOnUse" x1="-1952.4908" y1="2480.5972" x2="-1652.9673" y2="2116.6602" gradientTransform="matrix(1 0 0 -1 3936.9702 3710)">
				<stop  offset="0" style="stop-color:#AA80F9"/>
				<stop  offset="0.9964" style="stop-color:#6165D7"/>
			</linearGradient>
			<path class="st44" d="M2299.9,1256.8c-64.4,38.8-106.1,82.9-130.4,112.7c-28.7,35.2-72.3,88.7-88.1,168.5
				c-8.4,42.5-4.3,80.7,4.4,155.2c8.6,74,20.9,134.3,30.5,175.5c4.9,2,9.9,4,14.8,6c13.3-24.4,30.6-62.9,36.8-112.2
				c10.2-80.7-20-106.3-5.5-163.5c12.5-49.6,48.9-79.9,121.6-140.7c59.7-49.9,114.8-79.6,135.3-141.8c3.5-10.6,6.4-23.6,0.8-35.4
				C2407.8,1255.3,2361.1,1246.4,2299.9,1256.8z"/>
			
				<linearGradient id="SVGID_27_" gradientUnits="userSpaceOnUse" x1="-980.7491" y1="3138.6648" x2="-1376.8949" y2="2806.9324" gradientTransform="matrix(0.9987 -5.090000e-02 -5.090000e-02 -0.9987 3959.3679 3813.1401)">
				<stop  offset="0" style="stop-color:#444B8C"/>
				<stop  offset="0.9964" style="stop-color:#26264F"/>
			</linearGradient>
			<path class="st45" d="M2351.3,939.2c-16.7-3.6-44.2-2.9-70.4-23.5c-7.9-6.2-35.8-28.2-32.4-59.7c3-27.7,29.2-42.6,32.5-44.4
				c18.6-10.2,37.1-8,57.7-5.1c26.7,3.6,35.5,10.9,54,15.9c45.8,12.4,61.3-13.4,107.5-11.3c59,2.8,64.1,46.3,113.7,47.4
				c55.7,1.2,66.4-53.3,121.4-62.5c76.3-12.8,191.8,69.3,189.5,164.1c-1.3,54.7-42.1,117.4-94.1,136.2c-30.3,11-63.1,7.5-72.4,27.2
				c-6.6,14,8.3,24.8,6.9,49.3c-1.8,31.5-29,53.7-33.3,57.2c-40.7,33.2-131.9,16.4-194.2-30.5
				C2425.1,1115,2442.1,958.8,2351.3,939.2z"/>
			
				<linearGradient id="SVGID_28_" gradientUnits="userSpaceOnUse" x1="4431.2764" y1="2469.7576" x2="4752.9902" y2="2759.0051" gradientTransform="matrix(-1 0 0 -1 6932.0215 3710)">
				<stop  offset="0" style="stop-color:#FFC444"/>
				<stop  offset="0.9964" style="stop-color:#F36F56"/>
			</linearGradient>
			<path class="st46" d="M2480.3,928c-37.8-4.7-81.5-8.2-130-8.9c-102.5-1.4-117.1,11.6-120.9,21.2c-7,17.9,5,26.9-1.8,58.2
				c-4.1,18.7-0.2,27.2-8.1,47.3c-7.7,19.6-1.7,30.1,5.1,76c8.7,58.7,12.7,88.5-3.8,112.2c-11.4,16.4-24.2,17.8-23,25.6
				c2.6,16.6,60.1,7.5,133,39.4c21.1,9.2,40.5,20.6,56.8,30.2c38.1,22.4,45.2,30.9,62.8,41.1c55.8,32.1,139.6,35.1,183.6-3.6
				c16.4-14.5,28.3-35.7,22.9-43.5c-7.3-10.6-40,13.5-70-1.2c-19.9-9.7-16.1-25.4-39.1-44c-27.7-22.3-46.9-10.6-65.7-25.1
				c-29.4-22.6-16-76.8-7.8-167.7C2477.8,1047.6,2481.2,993.9,2480.3,928z"/>
			
				<linearGradient id="SVGID_29_" gradientUnits="userSpaceOnUse" x1="2295.1216" y1="2801.8186" x2="2408.5645" y2="2801.8186" gradientTransform="matrix(1 0 0 -1 0 3710)">
				<stop  offset="0" style="stop-color:#311944"/>
				<stop  offset="1" style="stop-color:#A03976"/>
			</linearGradient>
			<path class="st47" d="M2369.4,906.9c14,8.7,36.6,20,39.1,23.1s-68.4,15.2-112.6-7.1c0,0-6.8-3.8,19.8-9.1
				c5.7-1.1,4.6-12.2,3.8-23.6l5.3-9.9C2324.8,880.3,2355.5,898.2,2369.4,906.9z"/>
			
				<linearGradient id="SVGID_30_" gradientUnits="userSpaceOnUse" x1="2309.5061" y1="2507.8386" x2="2307.0593" y2="2731.6936" gradientTransform="matrix(1 0 0 -1 0 3710)">
				<stop  offset="0" style="stop-color:#311944"/>
				<stop  offset="1" style="stop-color:#A03976"/>
			</linearGradient>
			<path class="st48" d="M2334.2,873.6c0,0,5.5,23.3-15,34.8c-18.3,10.3-49.4-31.9-43.6-47.6c1.9-5.2,8.8-12,16.1-14.2
				c5.1-1.6,24.3-1,32.5,15.2c2.2-4.7,6-7.2,8.6-6.4c3.3,1,3.8,7,3.9,8.3C2337.1,868.4,2335.2,872,2334.2,873.6z"/>
			
				<linearGradient id="SVGID_31_" gradientUnits="userSpaceOnUse" x1="4441.8081" y1="2458.0442" x2="4763.5234" y2="2747.2932" gradientTransform="matrix(-1 0 0 -1 6932.0215 3710)">
				<stop  offset="0" style="stop-color:#FFC444"/>
				<stop  offset="0.9964" style="stop-color:#F36F56"/>
			</linearGradient>
			<path class="st49" d="M2302.4,1246.4c21.1,8.7,23.9,27.6,53.1,38.4c27.8,10.2,37.2-2.6,64.9,5.9c41.7,12.8,57.6,53,63.9,49.2
				c5.8-3.5,0.2-42-26.6-66.9c-30.8-28.6-63.9-15.5-83.6-45.3c-7.7-11.6-13.6-30-6.9-44.3c9.1-19.3,32.7-12.6,45.3-28.5
				c22.5-28.6-30.2-80.3-15.7-124c5.8-17.4,24.1-39.3,83.3-53.9c-0.8,43.8-3.3,80.3-5.8,108.1c-8.2,90.9-21.6,145,7.8,167.7
				c18.8,14.5,38.1,2.8,65.7,25.1c23,18.5,19.2,34.3,39.1,44c30,14.7,62.7-9.4,70,1.2c5.4,7.8-6.6,29-22.9,43.5
				c-43.9,38.8-127.8,35.7-183.6,3.6c-17.6-10.1-24.7-18.7-62.8-41.1c-16.3-9.6-35.7-20.9-56.8-30.2c-51.1-22.4-94.7-24.6-117-29.6
				C2258.3,1239.8,2285.3,1239.3,2302.4,1246.4z"/>
			<g class="st1">
				
					<linearGradient id="SVGID_32_" gradientUnits="userSpaceOnUse" x1="4547.7793" y1="2412.1458" x2="4840.4219" y2="2412.1458" gradientTransform="matrix(-1 0 0 -1 6932.0215 3710)">
					<stop  offset="3.597120e-03" style="stop-color:#E38DDD"/>
					<stop  offset="1" style="stop-color:#9571F6"/>
				</linearGradient>
				<path class="st50" d="M2098.8,1276.1l267.7,13c3.7,0.2,7,2.2,9,5.3l7.4,11.9c3.7,5.9-0.7,13.6-7.7,13.3l-283.6-10.8
					L2098.8,1276.1z"/>
				
					<linearGradient id="SVGID_33_" gradientUnits="userSpaceOnUse" x1="4686.9214" y1="2489.0005" x2="5088.584" y2="2489.0005" gradientTransform="matrix(-1 0 0 -1 6932.0215 3710)">
					<stop  offset="3.597120e-03" style="stop-color:#E38DDD"/>
					<stop  offset="1" style="stop-color:#9571F6"/>
				</linearGradient>
				<path class="st51" d="M1853,1128.2l276.6,5.4c8.2,0.2,15.7,4.6,19.7,11.7l95.8,168.5l-292.1-11.6c-8-0.3-15.3-4.7-19.5-11.5
					l-88.7-148.2C1841,1136.1,1845.6,1128.1,1853,1128.2z"/>
				
					<linearGradient id="SVGID_34_" gradientUnits="userSpaceOnUse" x1="-156.636" y1="2595.4946" x2="35.2083" y2="2405.1851" gradientTransform="matrix(1 0 0 -1 2093.7429 3710)">
					<stop  offset="3.597120e-03" style="stop-color:#E38DDD"/>
					<stop  offset="1" style="stop-color:#9571F6"/>
				</linearGradient>
				<path class="st52" d="M2149.3,1145.3c-4-7.1-11.5-11.6-19.7-11.7l-6.1-0.1c-0.9,8.9-3.6,17.1-9.1,23.7
					c-17.1,20.6-45.4,7.9-66.5,29.7c-23.2,23.9-1.8,52.4-22.5,74.7c-21.8,23.4-57.1,4.4-97.7,19.4l5.8,9.8
					c4.1,6.9,11.4,11.2,19.5,11.5l292.1,11.6L2149.3,1145.3z"/>
			</g>
			<g class="st1">
				
					<linearGradient id="SVGID_35_" gradientUnits="userSpaceOnUse" x1="4564.5576" y1="2471.9844" x2="4318.876" y2="2713.7346" gradientTransform="matrix(-1 0 0 -1 6932.0215 3710)">
					<stop  offset="0" style="stop-color:#FFC444"/>
					<stop  offset="0.9964" style="stop-color:#F36F56"/>
				</linearGradient>
				<path class="st53" d="M2322.6,1276.3c-3-8-6-15.9-9.1-23.9c33.3-9.1,79.5-22.6,126.7-39.5c11.7-4.2,16-9.6,19.1-13.7
					c24.2-32.2-37.5-88.9-36.4-162.5c0.8-51,31.7-109.4,59-110.1c55.4-1.3,177.6,233.8,74.7,334.1
					C2505.6,1310.5,2410.2,1316.2,2322.6,1276.3z"/>
			</g>
			
				<linearGradient id="SVGID_36_" gradientUnits="userSpaceOnUse" x1="2240.6755" y1="2443.5466" x2="2324.7209" y2="2443.5466" gradientTransform="matrix(1 0 0 -1 0 3710)">
				<stop  offset="0" style="stop-color:#311944"/>
				<stop  offset="1" style="stop-color:#A03976"/>
			</linearGradient>
			<path class="st54" d="M2313.6,1252.4c-20.9-11.1-46,0.3-47.6,1c-4.6,2.2-11.3,6-18.1,12.9c-0.8,1-9.8,13.6-6.5,17.7
				c2.7,3.2,12.9,0.6,25.3-7.1c5.2-0.7,12.9-1.4,22.1-0.5c16.9,1.6,24.7,6.9,30.9,2.3c4.5-3.4,6-10.5,4.4-15.8
				C2322.3,1257.1,2317.1,1254.2,2313.6,1252.4z"/>
		</g>
		<g>
			<g>
				<path class="st22" d="M1456.5,3262.7c-16.4-81-9.3-146.2-1.9-185.5c9-47.7,27.4-144.7,104.5-198.8c6.1-4.3,66.4-45.7,93.5-25.1
					c14,10.6,17.2,36.3,11.1,56.5c-15.8,52.3-86.9,46.5-110.5,106c-7.9,19.8-9.3,44-3.8,46.3c6.8,2.8,26-26.8,27.9-29.6
					c17.2-26.4,17.3-41.3,30.4-45.3c8-2.5,18.6-0.2,23.4,6.2c10.8,14.5-10.5,47.4-16.5,56.6c-15.6,24.1-28.6,29.6-31.8,50.1
					c-1.4,8.8-1.1,21.9,4.1,23.9c7.1,2.8,20.6-15.7,29.3-27.5c23.3-31.8,25.8-50.3,37.4-51.7c10.8-1.2,23,13.2,26.1,22
					C1688.3,3090.9,1653.9,3142.1,1456.5,3262.7z"/>
				<path class="st55" d="M1459,3248.8c-2.4-75.3,9.7-135,20.8-174.2c14.2-50.4,40.9-145.1,115.8-186.1c5.3-2.9,44.5-24.3,55.4-12.9
					c7.3,7.7,0.8,28.7-9.9,42.6c-18.3,23.7-39.4,14.3-69.3,37.6c-26.8,20.9-36.2,49-38.6,56.4c-8.7,27.3-4.2,50.8-3,59.4
					C1535,3104.4,1525.4,3158.1,1459,3248.8z"/>
				<path class="st55" d="M1485.7,3230c42-37.6,51.7-68.4,52.5-90.1c0.6-16.8-4-36.8,8.9-55.4c8.2-11.9,14.5-10,28.7-22.8
					c29.8-26.7,33.5-62.7,39.6-61.4c3.4,0.8,5.2,12.6,3,23.8c-4.6,23-22.6,25.4-40.6,53.4c-12.3,19.1-16.6,37.7-18.8,47.5
					c-5.5,23.9-1.8,32.3-4.9,45.5C1549.9,3187.8,1534.9,3210,1485.7,3230z"/>
			</g>
			<g>
				<path class="st22" d="M1481.8,3275.8c72.8,4.2,94.4,8.5,128.8-3.2c32.2-11,65.3-32.6,62.4-42.6c-2.1-7.1-22.3-7-34.4-7
					c-32.4,0.2-59.2,10.1-78,19.7c16.2-11,32.4-22,48.6-33c11.3-4,30.4-12.6,47.4-30.8c10.6-11.4,35-42.1,25.8-56.9
					c-9.6-15.4-55-12.3-81.3,9.6c-12.6,10.5-12.6,18.5-29.5,36.9c-15.3,16.7-31.1,27.2-42.2,33.6c10.4-13,24.6-33.3,35.6-60.7
					c16.7-41.6,29.4-107.5,8.1-119.5c-14.1-7.9-42.1,8.4-56.1,27.8c-11.3,15.7-10.2,28.9-18,79.4c-3.4,22-6.7,39.7-8.9,50.6
					c-21.7-47.5-27.9-87.5-29.2-116.8c-1.6-37.7,4.6-67.3-9.8-75.2c-12.9-7-35.8,6.7-47.5,19.5c-47.2,51.9,15.1,173.9,21.6,186.4
					c-17.3-13.1-41.2-33.6-64.2-63.2c-24.7-31.7-35.1-55.3-47.7-53.2c-12.5,2.1-20.7,28.7-19.8,49.3c2.6,57.4,77.5,91,85.5,94.5
					c-6.3,1-17,2.1-29.6-0.3c-27.9-5.3-36.6-22.3-65-28c-10.8-2.2-33-4.5-35.7,2.2c-4.9,12,51.1,57.3,119,74.5
					C1392.5,3276,1386.6,3270.3,1481.8,3275.8z"/>
				<path class="st55" d="M1529.8,3234.3c33.1-14.7,28.6-34.8,64.9-59.6c23.2-15.9,28.6-10.1,53.5-25.3c13.7-8.4,24.9-17.9,34-27.4
					c0,0.1,0.1,0.1,0.1,0.2c9.2,14.8-15.2,45.5-25.8,56.9c-16.9,18.1-36.1,26.7-47.4,30.8c-16.2,11-32.4,22-48.6,33
					c18.8-9.6,45.5-19.5,78-19.7c10.5,0,27.3-0.1,32.8,4.6c-9.7,6-18.5,8.9-25.6,10.4c-16.3,3.3-26.5-0.4-40.5,8.1
					c-11.3,6.8-10.3,12.6-20.3,16.3c-9.4,3.5-14.1-0.2-37.2-4c-22.4-3.7-33.9-5.4-42.9,0.3c-6.9,4.3-10.5,11.4-12.5,17.7
					c-2.3-0.1-4.7-0.3-7.1-0.4c1.8-7.2,5.1-15.4,11.4-22.7C1506.5,3241.6,1517.4,3239.8,1529.8,3234.3z"/>
				<path class="st55" d="M1435.4,3259.7c-5.2-1.3-7.7,2.5-15,3.4c-13.5,1.8-18.6-9.4-34.5-14.7c-18.8-6.3-23.6,5.4-42.3-0.4
					c-14.8-4.6-12.9-12.2-32.3-23.4c-20.6-11.9-29.3-7-44.5-16.8c-4.9-3.2-10.4-7.8-15.7-15.1c6.7-3.6,24.1-1.7,33.3,0.2
					c28.3,5.7,37,22.7,65,28c12.6,2.4,23.3,1.3,29.6,0.3c-8-3.5-82.9-37.2-85.5-94.5c-0.9-19.1,6.2-43.3,17.1-48.4
					c-1.3,13.2-1.5,24.6-1.3,33.5c0.5,20.7,0.8,31.3,7.4,39.9c11.4,15,25.2,7.2,44.1,22.8c17.2,14.2,11.2,25.2,29.2,39.4
					c15.5,12.3,24.7,7.8,39.3,17.7c9.1,6.2,20.3,18.1,26.9,42.8c-3-0.1-5.9-0.3-8.7-0.4C1444.8,3267.1,1441,3261.1,1435.4,3259.7z"
					/>
				<path class="st55" d="M1451.7,3181.6c-9.1-24.7-24.8-22.2-31.4-43.9c-6.5-21.6,7.8-28.4,4.1-59.7c-2.7-23.5-11.6-26.9-12.2-43
					c-0.4-11.8,3.7-27.9,23-47.9c5.8-1.5,11.4-1.5,15.7,0.8c14.4,7.9,8.2,37.4,9.8,75.2c1.3,29.4,7.6,69.3,29.2,116.8
					c2.2-11,5.5-28.7,8.9-50.6c7.8-50.5,6.7-63.7,18-79.4c14-19.4,42-35.8,56.1-27.8c0.8,0.5,1.6,1,2.3,1.6c-7,4.8-13.5,10.7-19,18
					c-18.6,24.8-8,42.6-24.9,91.5c-16.2,47.1-32.7,50-45.8,90.6c-4.2,13-8.1,30.2-8.9,51.8c-4.8-0.3-9.3-0.5-13.5-0.7
					c-4.9-16-7.2-30.3-8.2-42.5C1452.9,3205.5,1457.9,3198.3,1451.7,3181.6z"/>
			</g>
		</g>
		<g>
			<g>
				<path class="st22" d="M1633.6,538.7c105,3.2,193.2,67.3,210.3,148.5c0,0.1,0,0.2,0.1,0.3c0.9,4.4,1.6,8.9,2.1,13.5
					c0,0.3,0.1,0.6,0.1,0.9c0.2,2.1,0.4,4.2,0.5,6.4c0,0.4,0,0.8,0.1,1.2c0.1,2.2,0.2,4.4,0.2,6.6c0,94.3-96.2,165.7-213.4,159.7
					c-3.1-0.2-6.2-0.4-9.3-0.7c-0.3,0-0.6,0-0.9-0.1c-2.9-0.3-5.8-0.6-8.7-0.9c-0.4-0.1-0.9-0.1-1.3-0.2c-2.8-0.4-5.6-0.8-8.3-1.2
					c-0.5-0.1-1-0.2-1.6-0.3c-2.7-0.5-5.4-0.9-8.1-1.5c-0.5-0.1-1.1-0.2-1.6-0.3c-2.7-0.5-5.3-1.1-7.9-1.7c-0.5-0.1-1-0.2-1.5-0.4
					c-2.6-0.6-5.2-1.3-7.7-2c-0.5-0.1-0.9-0.3-1.4-0.4c-2.3-0.7-4.6-1.3-6.9-2.1c-0.6-0.2-1.2-0.4-1.7-0.5c-2.3-0.7-4.6-1.5-6.8-2.3
					c-0.5-0.2-1-0.3-1.5-0.5l0,0c-77.9-28.1-132.6-91.3-132.6-162C1425.7,606.8,1518.1,535.2,1633.6,538.7z"/>
				<path class="st17" d="M1403.5,698.6c0,91.8,92.4,171.1,207.8,177.1c117.1,6.1,213.4-65.4,213.4-159.7s-96.2-173.7-213.4-177.3
					C1495.9,535.2,1403.5,606.8,1403.5,698.6z"/>
				<g class="st21">
					<path class="st22" d="M1560.4,830.3c25.3-48.4-0.3-96,33.9-126.6c34.9-31.3,80.5,1,129.8-23.8c19.2-9.6,40.5-28.7,56.4-69
						c27.7,29.7,44.2,66.2,44.2,105.1c0,94.3-96.2,165.7-213.4,159.7c-26.6-1.4-52-6.6-75.2-15
						C1547.6,850.7,1555.2,840.2,1560.4,830.3z"/>
				</g>
			</g>
			<g>
				<path class="st2" d="M1505.7,661.6c-9,0-16,3.5-20.9,10.5s-7.4,16.7-7.4,29.3c0,26.1,9.4,39.3,28.3,39.6c8,0.1,17.6-1.8,29-5.7
					v21c-9.4,3.9-19.8,5.7-31.2,5.4c-16.4-0.3-28.9-5.7-37.5-16.2c-8.6-10.4-12.9-25.2-12.9-44.5c0-12.1,2.1-22.7,6.3-31.8
					c4.2-9.1,10.3-16.1,18.2-20.9c8-4.9,17.3-7.3,28.1-7.3c11,0,22.1,2.8,33.3,8.3l-7.8,20.3c-4.3-2.1-8.5-4-12.8-5.5
					C1514,662.4,1509.8,661.6,1505.7,661.6z"/>
				<path class="st2" d="M1636.1,729.2c0,10.8-3.8,19.3-11.5,25.4c-7.6,6.1-18.2,9-31.7,8.7c-12.4-0.2-23.3-2.8-32.8-7.8v-23.3
					c7.8,3.7,14.4,6.3,19.8,7.9c5.4,1.6,10.4,2.4,14.9,2.4c5.4,0.1,9.6-0.9,12.5-3s4.4-5.2,4.4-9.4c0-2.3-0.6-4.4-1.9-6.3
					c-1.3-1.8-3.2-3.6-5.6-5.3c-2.5-1.7-7.5-4.5-15.1-8.3c-7.1-3.5-12.4-6.8-15.9-10s-6.3-6.8-8.5-11c-2.1-4.2-3.2-9.1-3.2-14.6
					c0-10.5,3.5-18.7,10.4-24.7s16.6-9,28.9-9c6.1,0,11.9,0.7,17.4,2.2s11.4,3.6,17.4,6.2l-8.1,19.7c-6.3-2.6-11.5-4.5-15.5-5.5
					c-4.1-1-8.1-1.6-12-1.6c-4.7,0-8.3,1.1-10.8,3.3s-3.7,5.1-3.7,8.7c0,2.2,0.5,4.2,1.5,5.8c1,1.7,2.6,3.3,4.8,4.8
					c2.2,1.6,7.4,4.4,15.7,8.5c11,5.4,18.5,10.9,22.6,16.3C1634,714.8,1636.1,721.4,1636.1,729.2z"/>
				<path class="st2" d="M1737,730.6c0,11-4,19.6-11.9,25.8s-18.8,9.1-32.8,8.8c-12.8-0.3-24.1-2.9-33.9-7.9v-23.7
					c8,3.7,14.9,6.4,20.4,8c5.6,1.6,10.7,2.4,15.4,2.5c5.6,0.1,9.9-0.9,12.9-3s4.5-5.3,4.5-9.6c0-2.4-0.7-4.5-2-6.4
					s-3.3-3.7-5.8-5.4c-2.6-1.7-7.8-4.5-15.6-8.4c-7.3-3.6-12.8-6.9-16.5-10.2c-3.6-3.2-6.6-7-8.7-11.2c-2.2-4.2-3.3-9.2-3.3-14.9
					c0-10.7,3.6-19,10.7-25.1c7.2-6.1,17.1-9.2,29.8-9.2c6.3,0,12.3,0.7,18,2.2s11.7,3.6,18,6.3l-8.3,20.1
					c-6.5-2.7-11.8-4.6-16.1-5.6c-4.2-1.1-8.4-1.6-12.4-1.6c-4.8,0-8.5,1.1-11.1,3.4c-2.6,2.3-3.9,5.2-3.9,8.8
					c0,2.3,0.5,4.2,1.6,5.9c1,1.7,2.7,3.3,5,4.9c2.3,1.6,7.7,4.5,16.2,8.6c11.3,5.5,19.1,11.1,23.3,16.6
					C1734.9,716,1737,722.7,1737,730.6z"/>
			</g>
		</g>
		<g>
			<g>
				<path class="st7" d="M1174.2,810.7c116.8,3.6,214.9,74.9,234,165.2c0,0.1,0,0.2,0.1,0.4c1,4.9,1.8,9.9,2.4,15
					c0,0.3,0.1,0.7,0.1,1c0.2,2.4,0.4,4.7,0.6,7.1c0,0.4,0,0.9,0.1,1.3c0.1,2.4,0.2,4.9,0.2,7.3c0,104.9-107.1,184.4-237.4,177.7
					c-3.5-0.2-6.9-0.4-10.3-0.7c-0.3,0-0.7-0.1-1-0.1c-3.2-0.3-6.5-0.6-9.7-1c-0.5-0.1-1-0.1-1.5-0.2c-3.1-0.4-6.2-0.8-9.3-1.3
					c-0.6-0.1-1.2-0.2-1.7-0.3c-3-0.5-6-1-9-1.6c-0.6-0.1-1.2-0.2-1.8-0.4c-3-0.6-5.9-1.2-8.8-1.9c-0.6-0.1-1.1-0.3-1.7-0.4
					c-2.9-0.7-5.8-1.4-8.6-2.2c-0.5-0.1-1-0.3-1.5-0.4c-2.6-0.7-5.1-1.5-7.6-2.3c-0.6-0.2-1.3-0.4-1.9-0.6c-2.6-0.8-5.1-1.7-7.6-2.6
					c-0.5-0.2-1.1-0.4-1.6-0.6l0,0c-86.6-31.3-147.6-101.6-147.6-180.3C942.9,886.5,1045.7,806.8,1174.2,810.7z"/>
				<path class="st22" d="M918.2,988.7c0,102.2,102.8,190.4,231.3,197c130.4,6.7,237.4-72.8,237.4-177.7s-107.1-193.3-237.4-197.3
					C1021,806.8,918.2,886.5,918.2,988.7z"/>
				<g class="st21">
					<path class="st7" d="M1092.7,1135.1c28.1-53.9-0.3-106.8,37.7-140.9c38.8-34.8,89.5,1.1,144.4-26.4
						c21.3-10.7,45.1-31.9,62.8-76.8c30.8,33,49.2,73.6,49.2,117c0,104.9-107.1,184.4-237.4,177.7c-29.6-1.5-57.8-7.4-83.7-16.7
						C1078.5,1157.9,1087,1146.2,1092.7,1135.1z"/>
				</g>
			</g>
			<g>
				<path class="st2" d="M1071.8,1051.7l-93.6-45.5v-14.1l93.6-48.5v24.1l-64.8,30.8l64.8,29.2V1051.7z"/>
				<path class="st2" d="M1172.4,925.3l-53.9,148.1l-27-0.8l53.3-147.3H1172.4z"/>
				<path class="st2" d="M1192.5,1030.2l69.9-27.8l-69.9-33.6V944l102.1,52.4v15l-102.1,43.3V1030.2z"/>
			</g>
		</g>
		<g>
			<g>
				<path class="st56" d="M1594.7,1167.8c105,3.2,193.2,67.3,210.3,148.5c0,0.1,0,0.2,0.1,0.3c0.9,4.4,1.6,8.9,2.1,13.5
					c0,0.3,0.1,0.6,0.1,0.9c0.2,2.1,0.4,4.2,0.5,6.4c0,0.4,0,0.8,0.1,1.2c0.1,2.2,0.2,4.4,0.2,6.6c0,94.3-96.2,165.7-213.4,159.7
					c-3.1-0.2-6.2-0.4-9.3-0.7c-0.3,0-0.6,0-0.9-0.1c-2.9-0.3-5.8-0.6-8.7-0.9c-0.4-0.1-0.9-0.1-1.3-0.2c-2.8-0.4-5.6-0.8-8.3-1.2
					c-0.5-0.1-1-0.2-1.6-0.3c-2.7-0.5-5.4-0.9-8.1-1.5c-0.5-0.1-1.1-0.2-1.6-0.3c-2.7-0.5-5.3-1.1-7.9-1.7c-0.5-0.1-1-0.2-1.5-0.4
					c-2.6-0.6-5.2-1.3-7.7-2c-0.5-0.1-0.9-0.3-1.4-0.4c-2.3-0.7-4.6-1.3-6.9-2.1c-0.6-0.2-1.2-0.4-1.7-0.5c-2.3-0.7-4.6-1.5-6.8-2.3
					c-0.5-0.2-1-0.3-1.5-0.5l0,0c-77.9-28.1-132.6-91.3-132.6-162C1386.9,1235.9,1479.2,1164.2,1594.7,1167.8z"/>
				<path class="st7" d="M1364.6,1327.7c0,91.8,92.4,171.1,207.8,177.1c117.1,6.1,213.4-65.4,213.4-159.7
					c0-94.3-96.2-173.7-213.4-177.3C1457,1164.2,1364.6,1235.9,1364.6,1327.7z"/>
				<g class="st21">
					<path class="st56" d="M1521.5,1459.3c25.3-48.4-0.3-96,33.9-126.6c34.9-31.3,80.5,1,129.8-23.8c19.2-9.6,40.5-28.7,56.4-69
						c27.7,29.7,44.2,66.2,44.2,105.1c0,94.3-96.2,165.7-213.4,159.7c-26.6-1.4-52-6.6-75.2-15
						C1508.7,1479.8,1516.3,1469.3,1521.5,1459.3z"/>
				</g>
			</g>
			<g>
				<path class="st2" d="M1472.1,1296.7c-8.2,0.1-14.6,3.7-19,10.8c-4.4,7.1-6.6,17-6.6,29.6c0,26.3,8.5,39.9,25.6,40.6
					c7.3,0.3,16.3-1.4,27-5.3v21.7c-8.8,3.7-18.5,5.2-29,4.6c-14.9-0.8-26.2-6.7-33.8-17.4c-7.6-10.7-11.4-25.5-11.4-44.8
					c0-12.1,1.8-22.7,5.6-31.8c3.7-9.2,9.1-16.3,16.2-21.3c7.2-5.1,15.6-7.7,25.5-8c10.2-0.2,20.5,2.4,31,7.9l-7.4,21.1
					c-4-2.1-8-4-12-5.6C1479.8,1297.4,1475.9,1296.6,1472.1,1296.7z"/>
				<path class="st2" d="M1552.6,1348.9l-29.9-0.7v-18.6l29.9,0.3v-33.7l17.4-0.2v34l31.7,0.4v19.5l-31.7-0.7v33.6l-17.4-0.8V1348.9
					z"/>
				<path class="st2" d="M1659,1351.3l-33.8-0.8v-19.8l33.8,0.4v-35.9l19.7-0.2v36.3l36,0.4v20.8l-36-0.8v35.8l-19.7-0.9V1351.3z"/>
			</g>
		</g>
		<g>
			<path class="st17" d="M1101.3,1918.8c-20.4-25.6-32.2-55.7-32.2-87.8c0-93.5,99.6-169.3,222.4-169.3s222.4,75.8,222.4,169.3
				s-99.6,169.3-222.4,169.3c-46,0-88.8-10.6-124.3-28.9c-23.4,4-59.8,10.7-79.1,14.3c-5.7,1.1-10.3-4.5-8.3-9.9L1101.3,1918.8z"/>
			<g class="st57">
				
					<linearGradient id="SVGID_37_" gradientUnits="userSpaceOnUse" x1="3413.2134" y1="1996.0338" x2="3799.1343" y2="1487.7841" gradientTransform="matrix(-1 0 0 -1 4868.3242 3710)">
					<stop  offset="3.597120e-03" style="stop-color:#E38DDD"/>
					<stop  offset="1" style="stop-color:#9571F6"/>
				</linearGradient>
				<path class="st58" d="M1169.8,1866.8c49.9-21,104.7,23.3,139-7.6c34.6-31.1-2.8-92.6,30.3-136.4c15.8-20.9,42.3-30.8,72.6-34.2
					c61.4,30.1,102.1,82.7,102.1,142.4c0,93.5-99.6,169.3-222.4,169.3c-46,0-88.8-10.6-124.3-28.9c-18.5,3.2-45.1,8-64.9,11.7
					C1116.9,1907.2,1143.8,1877.7,1169.8,1866.8z"/>
			</g>
		</g>
		<g>
			<path class="st2" d="M1435.6,1777.7c0,4.6-3.7,8.3-8.3,8.3h-275.6c-4.6,0-8.3-3.7-8.3-8.3v-1.3c0-4.6,3.7-8.3,8.3-8.3h275.6
				c4.6,0,8.3,3.7,8.3,8.3V1777.7z"/>
			<path class="st2" d="M1435.6,1827.6c0,4.6-3.7,8.3-8.3,8.3h-275.6c-4.6,0-8.3-3.7-8.3-8.3v-1.3c0-4.6,3.7-8.3,8.3-8.3h275.6
				c4.6,0,8.3,3.7,8.3,8.3V1827.6z"/>
			<path class="st2" d="M1296.6,1877.3c0,4.7-3.8,8.5-8.5,8.5H1152c-4.7,0-8.5-3.8-8.5-8.5v-0.8c0-4.7,3.8-8.5,8.5-8.5h136.2
				c4.7,0,8.5,3.8,8.5,8.5L1296.6,1877.3L1296.6,1877.3z"/>
		</g>
	</g>
</g>
</svg>
